<svg width="150" height="100" viewBox="0 0 150 100" fill="none" xmlns="http://www.w3.org/2000/svg">
<path d="M37.7773 7.81396V34.4801C37.5043 33.2175 36.9034 32.0492 36.0351 31.0928C35.1668 30.1363 34.0618 29.4256 32.8314 29.0322C31.601 28.6388 30.2886 28.5766 29.0265 28.8518C27.7644 29.127 26.5971 29.73 25.6422 30.6C24.101 28.6981 22.0724 27.2502 19.7728 26.4107C17.4731 25.5713 14.9888 25.3718 12.5847 25.8336C10.1807 26.2954 7.94701 27.4011 6.12205 29.0328C4.29709 30.6644 2.94927 32.7609 2.22235 35.0985V7.81396C2.2248 6.99473 2.55132 6.20976 3.1306 5.63048C3.70988 5.0512 4.49486 4.72468 5.31408 4.72223H34.6855C35.5048 4.72468 36.2897 5.0512 36.869 5.63048C37.4483 6.20976 37.7748 6.99473 37.7773 7.81396V7.81396Z" fill="#66E1FF"/>
<path d="M34.6855 4.72223H5.31408C4.49486 4.72468 3.70988 5.0512 3.1306 5.63048C2.55132 6.20976 2.2248 6.99473 2.22235 7.81396V35.0985C3.05816 32.4263 4.70195 30.0791 6.9273 28.38C9.15265 26.681 11.8501 25.7137 14.648 25.6115L35.4353 4.8258C35.1907 4.75982 34.9388 4.72502 34.6855 4.72223V4.72223Z" fill="#C2F3FF"/>
<path d="M37.7773 7.81396V34.4801C37.5043 33.2175 36.9034 32.0492 36.0351 31.0928C35.1668 30.1363 34.0618 29.4256 32.8314 29.0322C31.601 28.6388 30.2886 28.5766 29.0265 28.8518C27.7644 29.127 26.5971 29.73 25.6422 30.6C24.101 28.6981 22.0724 27.2502 19.7728 26.4107C17.4731 25.5713 14.9888 25.3718 12.5847 25.8336C10.1807 26.2954 7.94701 27.4011 6.12205 29.0328C4.29709 30.6644 2.94927 32.7609 2.22235 35.0985V7.81396C2.2248 6.99473 2.55132 6.20976 3.1306 5.63048C3.70988 5.0512 4.49486 4.72468 5.31408 4.72223H34.6855C35.5048 4.72468 36.2897 5.0512 36.869 5.63048C37.4483 6.20976 37.7748 6.99473 37.7773 7.81396V7.81396Z" stroke="black" stroke-width="1.5" stroke-linecap="round" stroke-linejoin="round"/>
<path d="M26.9566 19.4081C29.091 19.4081 30.8212 17.6778 30.8212 15.5434C30.8212 13.409 29.091 11.6787 26.9566 11.6787C24.8222 11.6787 23.0919 13.409 23.0919 15.5434C23.0919 17.6778 24.8222 19.4081 26.9566 19.4081Z" fill="#FFEF5E"/>
<path d="M26.9568 8.58943V7.8165" stroke="black" stroke-width="1.5" stroke-linecap="round" stroke-linejoin="round"/>
<path d="M22.0378 10.6246L21.4905 10.0773" stroke="black" stroke-width="1.5" stroke-linecap="round" stroke-linejoin="round"/>
<path d="M20 15.5445H19.2271" stroke="black" stroke-width="1.5" stroke-linecap="round" stroke-linejoin="round"/>
<path d="M22.0378 20.4647L21.4905 21.0119" stroke="black" stroke-width="1.5" stroke-linecap="round" stroke-linejoin="round"/>
<path d="M26.9568 22.5008V23.2737" stroke="black" stroke-width="1.5" stroke-linecap="round" stroke-linejoin="round"/>
<path d="M31.8755 20.4647L32.4227 21.0119" stroke="black" stroke-width="1.5" stroke-linecap="round" stroke-linejoin="round"/>
<path d="M33.9134 15.5445H34.6863" stroke="black" stroke-width="1.5" stroke-linecap="round" stroke-linejoin="round"/>
<path d="M31.8755 10.6246L32.4227 10.0773" stroke="black" stroke-width="1.5" stroke-linecap="round" stroke-linejoin="round"/>
<path d="M37.7776 34.4808V37.186C37.7751 38.0053 37.4486 38.7902 36.8693 39.3695C36.29 39.9488 35.5051 40.2753 34.6858 40.2778H5.31439C4.49516 40.2753 3.71019 39.9488 3.13091 39.3695C2.55162 38.7902 2.2251 38.0053 2.22266 37.186V35.0991C2.94958 32.7615 4.2974 30.6651 6.12236 29.0334C7.94732 27.4017 10.181 26.296 12.585 25.8343C14.9891 25.3725 17.4735 25.572 19.7731 26.4114C22.0727 27.2508 24.1013 28.6987 25.6425 30.6007C26.5974 29.7307 27.7647 29.1277 29.0268 28.8524C30.2889 28.5772 31.6013 28.6394 32.8317 29.0328C34.0621 29.4263 35.1671 30.137 36.0354 31.0934C36.9037 32.0498 37.5046 33.2182 37.7776 34.4808V34.4808Z" fill="#78EB7B"/>
<path d="M37.7776 34.4808V37.186C37.7751 38.0053 37.4486 38.7902 36.8693 39.3695C36.29 39.9488 35.5051 40.2753 34.6858 40.2778H5.31439C4.49516 40.2753 3.71019 39.9488 3.13091 39.3695C2.55162 38.7902 2.2251 38.0053 2.22266 37.186V35.0991C2.94958 32.7615 4.2974 30.6651 6.12236 29.0334C7.94732 27.4017 10.181 26.296 12.585 25.8343C14.9891 25.3725 17.4735 25.572 19.7731 26.4114C22.0727 27.2508 24.1013 28.6987 25.6425 30.6007C26.5974 29.7307 27.7647 29.1277 29.0268 28.8524C30.2889 28.5772 31.6013 28.6394 32.8317 29.0328C34.0621 29.4263 35.1671 30.137 36.0354 31.0934C36.9037 32.0498 37.5046 33.2182 37.7776 34.4808V34.4808Z" stroke="black" stroke-width="1.5" stroke-linecap="round" stroke-linejoin="round"/>
<path d="M27.7451 34.2195C27.2447 32.9079 26.5346 31.6862 25.6427 30.6022" stroke="black" stroke-width="1.5" stroke-linecap="round" stroke-linejoin="round"/>
<path d="M26.9566 19.4081C29.091 19.4081 30.8212 17.6778 30.8212 15.5434C30.8212 13.409 29.091 11.6787 26.9566 11.6787C24.8222 11.6787 23.0919 13.409 23.0919 15.5434C23.0919 17.6778 24.8222 19.4081 26.9566 19.4081Z" stroke="black" stroke-width="1.5" stroke-linecap="round" stroke-linejoin="round"/>
<path d="M81.9195 40.2744C82.7383 40.2744 83.5235 39.9491 84.1025 39.3702C84.6814 38.7912 85.0067 38.006 85.0067 37.1872V15.5771C85.0067 14.7583 84.6814 13.9731 84.1025 13.3941C83.5235 12.8152 82.7383 12.4899 81.9195 12.4899H60.3094C59.4906 12.4899 58.7054 12.8152 58.1264 13.3941C57.5475 13.9731 57.2222 14.7583 57.2222 15.5771V37.1872C57.2222 38.006 57.5475 38.7912 58.1264 39.3702C58.7054 39.9491 59.4906 40.2744 60.3094 40.2744H81.9195Z" fill="white"/>
<path d="M85.0065 16.1791L73.5547 21.5184L70.7639 26.7372L76.3038 27.8995C76.4672 27.9339 76.6372 27.9144 76.7885 27.844L85.0065 24.0113V16.1791Z" fill="#E4F1F5"/>
<path d="M76.6218 25.8951L70.7639 26.7333L71.6036 20.88L86.6659 5.81774C86.993 5.4769 87.3848 5.20476 87.8183 5.01726C88.2519 4.82976 88.7186 4.73067 89.1909 4.72581C89.6633 4.72094 90.1319 4.81038 90.5692 4.9889C91.0066 5.16742 91.4039 5.43143 91.7379 5.76546C92.0719 6.09948 92.3359 6.49681 92.5145 6.93416C92.693 7.37151 92.7824 7.84009 92.7776 8.31245C92.7727 8.7848 92.6736 9.25144 92.4861 9.68502C92.2986 10.1186 92.0265 10.5104 91.6856 10.8375L76.6218 25.8951Z" fill="#FFBC44"/>
<path d="M91.7349 5.76467C91.4009 5.43087 91.0037 5.16705 90.5664 4.98867C90.1292 4.81028 89.6608 4.72092 89.1886 4.72581C88.7164 4.73069 88.2499 4.82973 87.8164 5.01713C87.383 5.20452 86.9913 5.47651 86.6643 5.81715L71.6035 20.881L70.7669 26.7358L91.7349 5.76467Z" fill="#FFDDA1"/>
<path d="M76.6218 25.8951L70.7639 26.7333L71.6036 20.88L86.6659 5.81774C86.993 5.4769 87.3848 5.20476 87.8183 5.01726C88.2519 4.82976 88.7186 4.73067 89.1909 4.72581C89.6633 4.72094 90.1319 4.81038 90.5692 4.9889C91.0066 5.16742 91.4039 5.43143 91.7379 5.76546C92.0719 6.09948 92.3359 6.49681 92.5145 6.93416C92.693 7.37151 92.7824 7.84009 92.7776 8.31245C92.7727 8.7848 92.6736 9.25144 92.4861 9.68502C92.2986 10.1186 92.0265 10.5104 91.6856 10.8375L76.6218 25.8951Z" stroke="black" stroke-width="1.5" stroke-linecap="round" stroke-linejoin="round"/>
<path d="M74.9734 12.4899H60.3094C59.4906 12.4899 58.7054 12.8152 58.1264 13.3941C57.5475 13.9731 57.2222 14.7583 57.2222 15.5771V37.1872C57.2222 38.006 57.5475 38.7912 58.1264 39.3702C58.7054 39.9491 59.4906 40.2744 60.3094 40.2744H81.9195C82.7383 40.2744 83.5235 39.9491 84.1025 39.3702C84.6814 38.7912 85.0067 38.006 85.0067 37.1872V22.5232" stroke="black" stroke-width="1.5" stroke-linecap="round" stroke-linejoin="round"/>
<path d="M119.292 27.4139L117.742 28.0338C116.886 28.3762 116.47 29.3476 116.812 30.2036L120.222 38.7279C120.564 39.5839 121.536 40.0002 122.392 39.6578L123.942 39.0379C124.798 38.6955 125.214 37.7241 124.872 36.8681L121.462 28.3438C121.12 27.4878 120.148 27.0715 119.292 27.4139Z" fill="#808080"/>
<path d="M136.056 39.0376L137.606 39.6576C138.462 39.9999 139.433 39.5836 139.776 38.7276L143.185 30.2033C143.528 29.3474 143.111 28.3759 142.255 28.0335L140.706 27.4136C139.85 27.0712 138.878 27.4876 138.536 28.3435L135.126 36.8678C134.784 37.7238 135.2 38.6952 136.056 39.0376Z" fill="#808080"/>
<path d="M117.376 31.6146L122.027 29.7617L121.461 28.3496C121.38 28.146 121.259 27.9605 121.106 27.8036C120.953 27.6467 120.77 27.5215 120.569 27.4352C120.367 27.3489 120.151 27.3031 119.931 27.3004C119.712 27.2978 119.495 27.3383 119.291 27.4198L117.74 28.0407C117.537 28.1222 117.351 28.2429 117.194 28.396C117.038 28.5491 116.912 28.7317 116.826 28.9332C116.74 29.1347 116.694 29.3512 116.691 29.5704C116.689 29.7897 116.729 30.0072 116.811 30.2108L117.376 31.6146Z" fill="#B2B2B2"/>
<path d="M142.59 31.6901L143.186 30.2028C143.268 29.9993 143.308 29.7817 143.306 29.5625C143.303 29.3433 143.257 29.1267 143.171 28.9252C143.085 28.7237 142.959 28.5412 142.803 28.3881C142.646 28.2349 142.46 28.1142 142.257 28.0328L140.706 27.4118C140.502 27.3304 140.285 27.2898 140.066 27.2924C139.846 27.2951 139.63 27.3409 139.428 27.4272C139.227 27.5136 139.044 27.6388 138.891 27.7956C138.738 27.9525 138.617 28.138 138.536 28.3416L137.94 29.8289L142.59 31.6901Z" fill="#B2B2B2"/>
<path d="M119.292 27.4139L117.742 28.0338C116.886 28.3762 116.47 29.3476 116.812 30.2036L120.222 38.7279C120.564 39.5839 121.536 40.0002 122.392 39.6578L123.942 39.0379C124.798 38.6955 125.214 37.7241 124.872 36.8681L121.462 28.3438C121.12 27.4878 120.148 27.0715 119.292 27.4139Z" stroke="black" stroke-width="1.5" stroke-linecap="round" stroke-linejoin="round"/>
<path d="M142.519 39.7766C142.519 39.7766 147.527 30.5957 147.527 22.2494C147.527 17.6009 145.681 13.1428 142.394 9.85583C139.107 6.56884 134.648 4.72223 130 4.72223C125.351 4.72223 120.893 6.56884 117.606 9.85583C114.319 13.1428 112.473 17.6009 112.473 22.2494C112.473 30.5957 117.481 39.7766 117.481 39.7766" stroke="black" stroke-width="1.5" stroke-linecap="round" stroke-linejoin="round"/>
<path d="M136.056 39.0376L137.606 39.6576C138.462 39.9999 139.433 39.5836 139.776 38.7276L143.185 30.2033C143.528 29.3474 143.111 28.3759 142.255 28.0335L140.706 27.4136C139.85 27.0712 138.878 27.4876 138.536 28.3435L135.126 36.8678C134.784 37.7238 135.2 38.6952 136.056 39.0376Z" stroke="black" stroke-width="1.5" stroke-linecap="round" stroke-linejoin="round"/>
<path d="M7.18097 67.4537H35.9913C36.229 67.4536 36.4635 67.5084 36.6766 67.6137C36.8897 67.7191 37.0756 67.8721 37.22 68.061C37.3643 68.2499 37.4631 68.4695 37.5087 68.7027C37.5543 68.936 37.5455 69.1767 37.483 69.406L34.3095 81.0396C34.042 82.0211 33.4591 82.8873 32.6507 83.5049C31.8424 84.1225 30.8533 84.4572 29.836 84.4573H10.761L7.18097 67.4537Z" fill="#E3E3E3"/>
<path d="M36.7458 67.6492C34.7626 71.8692 30.5132 79.745 26.4215 79.745H9.76874L10.7611 84.4565H29.8361C30.8532 84.4565 31.8421 84.1221 32.6505 83.5048C33.4588 82.8875 34.0418 82.0215 34.3096 81.0403L37.4831 69.4052C37.5739 69.0722 37.5507 68.7184 37.417 68.4002C37.2834 68.0819 37.0471 67.8176 36.7458 67.6492V67.6492Z" fill="#B2B2B2"/>
<path d="M7.18097 67.4537H35.9913C36.229 67.4536 36.4635 67.5084 36.6766 67.6137C36.8897 67.7191 37.0756 67.8721 37.22 68.061C37.3643 68.2499 37.4631 68.4695 37.5087 68.7027C37.5543 68.936 37.5455 69.1767 37.483 69.406L34.3095 81.0396C34.042 82.0211 33.4591 82.8873 32.6507 83.5049C31.8424 84.1225 30.8533 84.4572 29.836 84.4573H10.761L7.18097 67.4537Z" stroke="black" stroke-width="1.5" stroke-linecap="round" stroke-linejoin="round"/>
<path d="M2.46222 59.7222H3.04653C3.75584 59.7223 4.44357 59.9662 4.99436 60.4132C5.54516 60.8601 5.92551 61.4828 6.07163 62.1769L11.2206 86.6374C11.3668 87.3315 11.7471 87.9543 12.2979 88.4012C12.8487 88.8482 13.5364 89.0921 14.2458 89.0921H31.8322" stroke="black" stroke-width="1.5" stroke-linecap="round" stroke-linejoin="round"/>
<path d="M13.2821 95.2778C14.5626 95.2778 15.6007 94.2397 15.6007 92.9591C15.6007 91.6785 14.5626 90.6404 13.2821 90.6404C12.0015 90.6404 10.9634 91.6785 10.9634 92.9591C10.9634 94.2397 12.0015 95.2778 13.2821 95.2778Z" fill="#808080" stroke="black" stroke-width="1.5" stroke-linecap="round" stroke-linejoin="round"/>
<path d="M28.7403 95.2778C30.0209 95.2778 31.059 94.2397 31.059 92.9591C31.059 91.6785 30.0209 90.6404 28.7403 90.6404C27.4597 90.6404 26.4216 91.6785 26.4216 92.9591C26.4216 94.2397 27.4597 95.2778 28.7403 95.2778Z" fill="#808080" stroke="black" stroke-width="1.5" stroke-linecap="round" stroke-linejoin="round"/>
<path d="M87.3671 83.1551C87.6716 83.1551 87.9732 83.2151 88.2545 83.3316C88.5359 83.4482 88.7915 83.619 89.0068 83.8343C89.2221 84.0496 89.3929 84.3052 89.5095 84.5866C89.626 84.8679 89.686 85.1694 89.686 85.474C89.686 85.7785 89.626 86.08 89.5095 86.3613C89.3929 86.6427 89.2221 86.8983 89.0068 87.1136C88.7915 87.329 88.5359 87.4998 88.2545 87.6163C87.9732 87.7328 87.6716 87.7928 87.3671 87.7928H85.8212C86.4362 87.7928 87.026 88.0371 87.4609 88.472C87.8958 88.9069 88.1401 89.4967 88.1401 90.1117C88.1401 91.3932 87.1012 91.6576 85.8212 91.6576H75.7729C71.3655 91.6576 70.3622 90.8846 64.9516 90.1117V76.9715C68.7391 76.9715 74.9999 70.015 74.9999 63.8314C74.9999 61.3873 78.3839 60.4768 79.6376 64.9429C80.4106 67.6961 78.0917 73.1068 78.0917 73.1068H90.4589C91.0739 73.1068 91.6637 73.3511 92.0986 73.786C92.5335 74.2208 92.7778 74.8106 92.7778 75.4256C92.7778 76.7072 91.7389 78.5174 90.4589 78.5174H88.913C89.528 78.5174 90.1178 78.7617 90.5527 79.1966C90.9876 79.6315 91.2319 80.2213 91.2319 80.8363C91.2319 81.4513 90.9876 82.0411 90.5527 82.4759C90.1178 82.9108 89.528 83.1551 88.913 83.1551H87.3671" fill="#FFDDA1"/>
<path d="M87.3671 83.1551C87.6716 83.1551 87.9732 83.2151 88.2545 83.3316C88.5359 83.4482 88.7915 83.619 89.0068 83.8343C89.2221 84.0496 89.3929 84.3052 89.5095 84.5866C89.626 84.8679 89.686 85.1694 89.686 85.474C89.686 85.7785 89.626 86.08 89.5095 86.3613C89.3929 86.6427 89.2221 86.8983 89.0068 87.1136C88.7915 87.329 88.5359 87.4998 88.2545 87.6163C87.9732 87.7328 87.6716 87.7928 87.3671 87.7928H85.8212C86.4362 87.7928 87.026 88.0371 87.4609 88.472C87.8958 88.9069 88.1401 89.4967 88.1401 90.1117C88.1401 91.3932 87.1012 91.6576 85.8212 91.6576H75.7729C71.3655 91.6576 70.3622 90.8846 64.9516 90.1117V76.9715C68.7391 76.9715 74.9999 70.015 74.9999 63.8314C74.9999 61.3873 78.3839 60.4768 79.6376 64.9429C80.4106 67.6961 78.0917 73.1068 78.0917 73.1068H90.4589C91.0739 73.1068 91.6637 73.3511 92.0986 73.786C92.5335 74.2208 92.7778 74.8106 92.7778 75.4256C92.7778 76.7072 91.7389 78.5174 90.4589 78.5174H88.913C89.528 78.5174 90.1178 78.7617 90.5527 79.1966C90.9876 79.6315 91.2319 80.2213 91.2319 80.8363C91.2319 81.4513 90.9876 82.0411 90.5527 82.4759C90.1178 82.9108 89.528 83.1551 88.913 83.1551H87.3671" stroke="black" stroke-width="1.5" stroke-linecap="round" stroke-linejoin="round"/>
<path d="M64.9517 74.654H57.2222V93.2047H64.9517V74.654Z" fill="#66E1FF" stroke="black" stroke-width="1.5" stroke-linecap="round" stroke-linejoin="round"/>
<path d="M61.4742 90.1118C61.2608 90.1118 61.0878 89.9388 61.0878 89.7253C61.0878 89.5119 61.2608 89.3388 61.4742 89.3388" stroke="black" stroke-width="1.5"/>
<path d="M61.4743 90.1117C61.6877 90.1117 61.8608 89.9386 61.8608 89.7252C61.8608 89.5117 61.6877 89.3387 61.4743 89.3387" stroke="black" stroke-width="1.5"/>
<path d="M130 95.2778C139.792 95.2778 147.729 87.3402 147.729 77.5487C147.729 67.7572 139.792 59.8196 130 59.8196C120.208 59.8196 112.271 67.7572 112.271 77.5487C112.271 87.3402 120.208 95.2778 130 95.2778Z" fill="#66E1FF"/>
<path d="M130 66.2056C134.145 66.2099 138.158 67.6667 141.341 70.3227C144.523 72.9786 146.675 76.6658 147.421 80.7434C147.905 78.1816 147.818 75.5445 147.166 73.0201C146.515 70.4957 145.314 68.146 143.651 66.1386C141.987 64.1312 139.901 62.5154 137.542 61.4063C135.182 60.2972 132.607 59.7222 130 59.7222C127.393 59.7222 124.818 60.2972 122.458 61.4063C120.099 62.5154 118.013 64.1312 116.349 66.1386C114.686 68.146 113.485 70.4957 112.834 73.0201C112.182 75.5445 112.095 78.1816 112.579 80.7434C113.325 76.6658 115.477 72.9786 118.659 70.3227C121.842 67.6667 125.855 66.2099 130 66.2056V66.2056Z" fill="#C2F3FF"/>
<path d="M130 95.2778C139.792 95.2778 147.729 87.3402 147.729 77.5487C147.729 67.7572 139.792 59.8196 130 59.8196C120.208 59.8196 112.271 67.7572 112.271 77.5487C112.271 87.3402 120.208 95.2778 130 95.2778Z" stroke="black" stroke-width="1.5" stroke-linecap="round" stroke-linejoin="round"/>
<path d="M136.49 71.6601C135.129 72.2362 133.667 72.5349 132.189 72.5388C130.727 72.5398 129.279 72.2453 127.933 71.6731C126.588 71.1009 125.371 70.2627 124.357 69.2089C125.049 68.0364 126.089 67.1086 127.333 66.5546C128.576 66.0005 129.962 65.8476 131.296 66.1172C132.63 66.3868 133.848 67.0655 134.779 68.0589C135.709 69.0522 136.308 70.311 136.49 71.6601Z" fill="#C77F67"/>
<path d="M136.552 72.5407C136.552 74.2784 135.861 75.9449 134.633 77.1737C133.404 78.4024 131.737 79.0927 130 79.0927C128.262 79.0927 126.595 78.4024 125.367 77.1737C124.138 75.9449 123.448 74.2784 123.448 72.5407C123.441 71.3685 123.756 70.2168 124.357 69.2107C125.371 70.2645 126.587 71.1027 127.933 71.6749C129.279 72.2472 130.727 72.5416 132.189 72.5407C133.667 72.5368 135.129 72.238 136.49 71.6619C136.534 71.9528 136.554 72.2466 136.552 72.5407Z" fill="#FFDDA1" stroke="black" stroke-width="1.5" stroke-linecap="round" stroke-linejoin="round"/>
<path d="M139.682 87.4633C137.099 90.0024 133.622 91.4253 130 91.4253C126.378 91.4253 122.901 90.0024 120.318 87.4633C121.202 85.6471 122.578 84.1159 124.29 83.0446C126.002 81.9734 127.981 81.4053 130 81.4053C132.02 81.4053 133.998 81.9734 135.71 83.0446C137.423 84.1159 138.799 85.6471 139.682 87.4633V87.4633Z" fill="#E3E3E3"/>
<path d="M130 84.3753C131.631 84.3785 133.241 84.7539 134.705 85.4731C136.17 86.1923 137.451 87.2363 138.451 88.5255C138.883 88.1961 139.295 87.8414 139.684 87.4633C138.801 85.6471 137.425 84.1159 135.713 83.0446C134.001 81.9734 132.022 81.4053 130.003 81.4053C127.983 81.4053 126.004 81.9734 124.292 83.0446C122.58 84.1159 121.204 85.6471 120.321 87.4633C120.711 87.8414 121.123 88.1961 121.554 88.5255C122.554 87.2371 123.834 86.1936 125.297 85.4745C126.761 84.7553 128.369 84.3794 130 84.3753V84.3753Z" fill="white"/>
<path d="M139.739 87.5721C138.867 85.7274 137.488 84.1684 135.764 83.0767C134.04 81.9849 132.041 81.4053 130 81.4053C127.96 81.4053 125.961 81.9849 124.237 83.0767C122.513 84.1684 121.134 85.7274 120.262 87.5721" stroke="black" stroke-width="1.5" stroke-linecap="round" stroke-linejoin="round"/>
<path d="M130 68.1359C131.236 68.1362 132.447 68.4882 133.491 69.1507C134.535 69.8132 135.368 70.7589 135.895 71.8775C136.094 71.805 136.296 71.7403 136.49 71.6601C136.308 70.311 135.709 69.0522 134.779 68.0589C133.848 67.0655 132.63 66.3868 131.296 66.1172C129.962 65.8476 128.576 66.0005 127.333 66.5546C126.089 67.1086 125.049 68.0364 124.357 69.2089C124.666 69.5225 124.993 69.8175 125.336 70.0922C125.944 69.4721 126.67 68.9796 127.471 68.6437C128.272 68.3077 129.131 68.1351 130 68.1359V68.1359Z" fill="#E3BFB3"/>
<path d="M136.49 71.6601C135.129 72.2362 133.667 72.5349 132.189 72.5388C130.727 72.5398 129.279 72.2453 127.933 71.6731C126.588 71.1009 125.371 70.2627 124.357 69.2089C125.049 68.0364 126.089 67.1086 127.333 66.5546C128.576 66.0005 129.962 65.8476 131.296 66.1172C132.63 66.3868 133.848 67.0655 134.779 68.0589C135.709 69.0522 136.308 70.311 136.49 71.6601Z" stroke="black" stroke-width="1.5" stroke-linecap="round" stroke-linejoin="round"/>
</svg>
