<?xml version="1.0" encoding="utf-8" ?><svg xmlns="http://www.w3.org/2000/svg" xmlns:xlink="http://www.w3.org/1999/xlink" width="460" height="460" viewBox="0 0 460 460"><path fill="#FEFFFE" d="M0 0L460 0L460 460L0 460L0 0Z"/><path fill="#BD913E" d="M7.93196 6.16985L452.747 6.20205L452.754 450.952L8.00169 450.96L7.93196 6.16985Z"/><path fill="#FEFFFE" d="M12.5042 10.766L448.037 10.8023L448.049 446.241L12.525 446.245C12.72 428.463 12.5282 410.235 12.5329 392.428L12.5272 280.269L12.5042 10.766Z"/><path fill="#BD913E" d="M220.102 30.375L428.47 30.4184L428.496 426.644C421.696 426.316 412.188 426.604 405.228 426.609L361.822 426.641L242.062 426.621L32.2003 426.579L32.1732 162.133L32.1915 75.5378L32.1826 46.7539C32.1797 41.5403 32.3075 35.5798 32.0859 30.4165C53.1579 30.7451 75.4259 30.4155 96.5569 30.4032L220.102 30.375Z"/><path fill="#FEFFFE" d="M88.0133 87.3701L172.771 87.4782L202.062 87.3903C217.13 87.3727 229.443 87.3089 244.276 90.9552C258.537 94.461 268.232 99.8563 279.409 109.147C291.524 118.812 298.148 129.859 303.412 144.13C311.724 166.665 308.617 190.14 293.038 208.897C282.472 221.62 266.469 230.862 249.69 232.494C251.947 233.787 255.063 235.039 257.486 236.265C261.808 238.472 265.843 241.2 269.503 244.387C278.263 251.931 285.927 263.442 292.607 272.862C310.787 298.492 326.931 326.026 347.478 349.865C354.282 357.76 364.47 365.32 374.659 367.674C376.625 368.129 381.529 368.23 382.261 370.096L381.999 370.584C380.015 370.913 369.995 370.819 367.285 370.744C355.922 370.583 345.371 371.295 334.102 369.471C309.201 365.442 296.933 347.539 283.436 328.195L267.713 305.413C261.225 295.812 254.609 286.298 247.868 276.873C224.995 245.193 217.504 238.267 176.843 243.066C175.442 257.2 175.503 270.571 175.555 284.751C175.597 296.364 175.52 308.067 176.22 319.67C177.077 333.886 179.007 347.956 180.329 362.109C186.323 362.418 195.029 363.978 201.229 364.786L216.209 366.839C218.556 367.151 227.268 367.901 228.597 369.351C228.756 370.308 228.866 369.91 228.423 370.62C227.486 371 206.848 370.764 203.825 370.755L124.375 370.73L99.9598 370.77C95.9092 370.783 91.8543 370.863 87.8056 370.822C86.6764 370.811 85.2407 370.759 84.8047 369.614L85.1437 368.997C86.6553 367.989 94.181 367.231 96.4698 366.905L112.365 364.591C118.42 363.744 124.032 362.571 130.189 362.178C130.565 360.145 130.848 357.993 131.112 355.941C133.308 338.875 134.091 321.709 135.009 304.55C135.841 291.028 136.411 277.491 136.72 263.946C137.009 248.054 136.729 231.731 136.787 215.781C136.929 176.605 135.922 135.053 131.419 96.0934L100.473 91.7583C98.4623 91.473 85.9524 90.1566 84.954 89.1654C84.7693 88.4186 84.7148 88.4359 84.8991 87.7067C85.6285 87.2701 87.0888 87.3814 88.0133 87.3701Z"/><path fill="#BD913E" d="M186.932 99.0422C190.634 98.753 200.327 98.2563 203.77 99.012C203.984 99.0018 204.163 98.9872 204.383 99.0141C221.36 101.093 238.555 110.944 249.313 123.946C261.806 138.759 267.831 157.967 266.037 177.261C262.178 216.834 232.886 232.157 196.543 231.023C189.633 230.808 183.418 230.866 176.388 230.18C176.217 228.813 176.148 227.564 176.055 226.201C174.827 208.184 175.222 190.166 175.18 172.124C175.169 167.378 175.094 162.482 175.241 157.739C176.02 138.494 177.552 119.287 179.834 100.162C182.104 99.6074 184.59 99.0856 186.932 99.0422Z"/><path fill="#B38534" d="M186.932 99.0422C190.634 98.753 200.327 98.2563 203.77 99.012C200.76 99.9747 191.541 99.3777 188.081 99.5802C187.758 99.5991 187.197 99.2262 186.932 99.0422Z"/><path fill="#BD913E" d="M141.551 95.0334C144.358 95.4159 151.952 95.1275 155.386 95.2212L155.394 362.967C150.766 362.999 146.138 363.008 141.51 362.993L141.551 95.0334Z"/><path fill="#BD913E" d="M224.487 239.776C226.389 239.656 228.77 240.322 230.59 240.87C238.15 243.069 245.064 247.069 250.737 252.528C259.916 261.205 267.23 272.268 274.441 282.638L297.634 315.976C308.521 331.575 320.17 349.542 336.635 359.898C338.122 360.833 339.721 361.291 341.25 362.267C341.741 363.092 341.619 362.749 341.437 363.908C333.04 364.414 320.475 359.895 314.014 354.678C298.126 341.847 286.156 322.746 274.679 306.063C267.938 296.411 261.245 286.724 254.602 277.004C247.67 266.742 240.874 255.661 231.989 247.015C230.204 245.278 224.68 241.731 224.487 239.776Z"/><path fill="#BD913E" d="M194.704 91.983C213.456 91.8435 222.66 92.2304 240.685 99.6179C278.081 114.945 295.707 156.744 280.829 194.165C275.558 207.42 262.61 220.176 249.116 225.488C247.702 226.077 241.443 228.47 240.194 228.301L240.064 227.898C240.886 226.991 243.747 225.613 245.018 224.779C258.924 215.644 267.644 204.538 271.409 188.151C276.01 168.865 271.348 145.524 260.954 128.94C249.168 110.134 229.655 97.9058 207.923 94.5894C204.004 93.9913 198.689 94.295 195.292 93.5441C194.671 92.98 194.867 93.0546 194.704 91.983Z"/></svg>