<?xml version="1.0" encoding="utf-8"?>
<svg width="100%" viewBox="0 0 680 620" xmlns="http://www.w3.org/2000/svg">


  <rect x="128" y="108" width="424" height="404" rx="38" fill="#74A997" opacity="0.4" transform="translate(6,8)"/>
  <rect x="128" y="108" width="424" height="404" rx="38" fill="#91C3AF"/>
  <rect x="128" y="108" width="424" height="120" rx="38" fill="#91C3AF"/>
  <rect x="128" y="188" width="424" height="40" fill="#91C3AF"/>
  <rect x="128" y="220" width="424" height="250" fill="#b8ddd2"/>

  <!-- Bottom rounded cap using a path with only bottom corners rounded -->
  <path d="M128,460 L552,460 L552,474 Q552,512 514,512 L166,512 Q128,512 128,474 Z" fill="#b8ddd2"/>

  <rect x="148" y="238" width="384" height="256" rx="16" fill="#e8f5f1"/>

  <line x1="168" y1="300" x2="512" y2="300" stroke="#91C3AF" stroke-width="1.5"/>
  <line x1="168" y1="360" x2="512" y2="360" stroke="#91C3AF" stroke-width="1.5"/>
  <line x1="168" y1="420" x2="512" y2="420" stroke="#91C3AF" stroke-width="1.5"/>

  <line x1="216" y1="240" x2="216" y2="492" stroke="#91C3AF" stroke-width="1.5"/>
  <line x1="264" y1="240" x2="264" y2="492" stroke="#91C3AF" stroke-width="1.5"/>
  <line x1="312" y1="240" x2="312" y2="492" stroke="#91C3AF" stroke-width="1.5"/>
  <line x1="360" y1="240" x2="360" y2="492" stroke="#91C3AF" stroke-width="1.5"/>
  <line x1="408" y1="240" x2="408" y2="492" stroke="#91C3AF" stroke-width="1.5"/>
  <line x1="456" y1="240" x2="456" y2="492" stroke="#91C3AF" stroke-width="1.5"/>

  <circle cx="192" cy="270" r="6" fill="#74A997"/>
  <circle cx="240" cy="270" r="6" fill="#74A997"/>
  <circle cx="288" cy="270" r="6" fill="#74A997"/>
  <circle cx="336" cy="270" r="6" fill="#74A997"/>
  <circle cx="384" cy="270" r="6" fill="#74A997"/>
  <circle cx="432" cy="270" r="6" fill="#74A997"/>
  <circle cx="480" cy="270" r="6" fill="#74A997"/>

  <circle cx="192" cy="330" r="6" fill="#74A997"/>
  <circle cx="240" cy="330" r="6" fill="#74A997"/>
  <circle cx="288" cy="330" r="6" fill="#74A997"/>
  <circle cx="336" cy="330" r="6" fill="#74A997"/>
  <circle cx="384" cy="330" r="6" fill="#74A997"/>
  <circle cx="432" cy="330" r="6" fill="#74A997"/>
  <circle cx="480" cy="330" r="6" fill="#74A997"/>

  <circle cx="192" cy="390" r="6" fill="#74A997"/>
  <circle cx="240" cy="390" r="6" fill="#74A997"/>
  <circle cx="288" cy="390" r="6" fill="#74A997"/>
  <circle cx="336" cy="390" r="6" fill="#74A997"/>
  <circle cx="384" cy="390" r="6" fill="#74A997"/>
  <circle cx="432" cy="390" r="6" fill="#74A997"/>

  <circle cx="192" cy="450" r="6" fill="#74A997"/>
  <circle cx="240" cy="450" r="6" fill="#74A997"/>
  <circle cx="288" cy="450" r="6" fill="#74A997"/>

  <rect x="244" y="86" width="26" height="52" rx="13" fill="#5E9684"/>
  <rect x="248" y="86" width="18" height="32" rx="9" fill="#74A997"/>

  <rect x="324" y="86" width="26" height="52" rx="13" fill="#5E9684"/>
  <rect x="328" y="86" width="18" height="32" rx="9" fill="#74A997"/>

  <rect x="404" y="86" width="26" height="52" rx="13" fill="#5E9684"/>
  <rect x="408" y="86" width="18" height="32" rx="9" fill="#74A997"/>
</svg>