<?xml version="1.0" encoding="utf-8" ?><svg xmlns="http://www.w3.org/2000/svg" xmlns:xlink="http://www.w3.org/1999/xlink" width="1024" height="1024" viewBox="0 0 1024 1024"><path fill="#59B790" d="M473.822 152.746C505.745 152.555 537.668 152.567 569.59 152.78C593.274 152.781 632.54 151.011 654.486 156.733C668.399 160.501 681.128 167.74 691.48 177.771C708.809 194.34 717.705 215.827 720.138 239.473C720.719 245.119 720.737 252.232 720.887 257.981C768.101 257.998 844.94 254.411 882.383 288.087C908.049 311.17 907.577 359.726 908.69 392.348C909.568 416.931 910.087 441.524 910.248 466.122C910.797 528.974 910.669 591.831 909.866 654.681C909.206 686.329 909.802 727.129 902.586 757.539C880.624 850.089 759.54 841.43 687.704 841.698L567.262 841.863L391.572 841.721C366.891 841.776 342.211 841.455 317.54 840.757C265.186 839.388 208.304 837.561 168.294 798.559C140.074 771.05 137.51 737.598 135.248 701.005C134.165 685.336 133.386 669.648 132.912 653.949C131.206 602.588 130.451 551.2 130.646 499.812C130.373 461.27 130.865 422.727 132.123 384.205C133.364 354.266 132.856 311.184 156.202 289.434C188.302 259.528 246.389 258.911 287.684 258.148C309.233 257.804 330.784 257.664 352.335 257.73C352.822 219.1 357.673 184.069 395.166 164.351C420.817 150.861 446.042 153.011 473.822 152.746Z"/><path fill="#6CBB8C" d="M182.368 280.409C182.887 279.718 184.155 278.035 184.839 277.859C191.234 276.206 201.636 271.889 207.376 270.405C224.118 265.481 239.824 266.024 256.747 264.83C283.021 262.976 308.664 263.412 334.949 263.195L551.75 263.498L700.953 263.217C729.778 263.22 758.638 263.086 787.468 264.457C801.815 265.029 815.829 268.017 830.15 268.822C832.883 268.976 856.058 278.088 858.321 279.437C860.587 280.608 866.048 283.234 867.72 284.709C869.14 285.506 870.554 286.312 871.963 287.126C881.658 290.175 898.1 321.651 898.971 331.743C899.994 343.588 903.721 355.849 902.937 367.77C902.847 373.39 902.403 385.721 903.141 390.426C903.252 390.986 903.36 391.547 903.435 392.112C903.821 395.051 903.313 398.495 903.015 401.434C901.452 416.812 896.698 434.09 886.692 446.23C883.079 450.613 878.571 455.462 874.052 458.927C832.178 491.042 729.943 515.078 677.145 526.493C658.115 530.608 638.985 535.619 619.564 537.601C618.529 539.497 619.117 543.076 618.93 545.277C618.534 549.912 617.3 554.379 616.725 558.981C616.143 563.638 616.61 568.297 615.43 572.909C615.009 574.552 614.289 575.88 613.351 577.28C609.1 583.629 603.539 587.24 595.979 588.624C591.19 589.501 585.898 589.033 581.004 589.307C574.978 589.644 568.938 590.535 562.927 590.734C546.899 591.266 485.587 590.961 473.651 582.299C472.385 581.381 472.027 580.456 471.824 578.961C473.148 578.235 474.932 582.505 478.239 583.167L478.937 582.602C479.59 583.878 475.266 577.079 476.962 578.509C474.698 576.601 466.655 570.902 465.391 568.33C463.348 564.174 462.319 559.552 460.525 555.409C458.983 554.301 459.035 554.688 456.71 554.625C455.755 553.41 455.701 550.931 455.695 549.197C455.683 545.732 451.555 545.994 448.093 545.612C436.884 544.376 425.648 542.748 414.527 540.558C344.266 526.723 273.908 505.923 210.358 472.461C198.509 466.221 186.474 459.523 175.803 451.431C148.076 430.198 142.226 412.165 138.611 378.811C137.938 372.602 138.071 365.862 137.3 359.775L137.685 359.305C137.891 359.748 138.246 362.557 138.343 363.225C138.364 345.242 142.874 303.656 160.541 294.31C165.937 289.646 168.333 287.273 174.637 283.857C176.298 282.875 180.407 281.244 182.368 280.409Z"/><path fill="#91D4A4" d="M256.61 282.269C265.168 280.961 273.102 281.963 281.266 281.452C298.067 280.4 314.295 280.405 331.135 280.336L469.869 280.133L671.479 280.121C696.037 280.047 720.595 280.168 745.15 280.484C777.955 280.858 826.442 279.291 855.767 296.716C868.157 304.079 876.965 320.244 878.647 334.04C882.421 361.584 882.106 404.627 865.37 428.06C853.991 443.994 831.976 455.035 814.502 462.763C806.89 464.894 797.931 468.658 790.302 471.299C785.978 472.796 778.624 475.182 774.843 477.012C764.623 479.939 754.526 483.269 744.217 486.09C718.587 493.177 692.727 499.402 666.679 504.753C656.224 507.008 644.697 509.438 634.079 511.146C632.654 511.241 631.735 511.279 631.319 509.588C627.646 494.669 624.481 479.573 618.528 465.315C617.313 462.405 612.421 454.398 609.997 452.517C603.56 443.424 595.189 440.074 584.481 438.241C562.295 434.444 488.764 431.148 471.211 443.801C467.505 446.473 463.611 450.866 461.679 455.024C453.445 466.125 449.235 492.605 446.205 506.037C445.058 511.12 444.24 515.794 441.781 520.486C428.175 520.445 418.553 516.107 405.883 514.822C403.148 513.393 382.35 509.626 378.138 508.427C373.476 507.1 364.516 505.792 359.419 504.195C352.093 501.898 347.209 499.506 339.513 498.271C332.572 497.017 320.644 492.461 313.504 490.291C308.21 488.683 305.175 486.388 298.832 485.256C298.006 484.561 282.873 479.358 280.06 478.204C249.97 465.861 220.09 453.326 194.844 432.266C168.3 410.125 164.292 376.681 165.443 344.249C165.662 337.316 169.558 324.764 169.225 319.783C174.687 310.131 180.725 301.59 190.601 295.978C199.04 291.182 210.847 287.382 220.491 286.875C225.681 285.064 250.181 282.93 256.61 282.269Z"/><path fill="#AFE3BD" d="M220.491 286.875C225.681 285.064 250.181 282.93 256.61 282.269L258.031 282.863C258.834 284.987 258.725 286.979 258.815 289.271C251.22 289.476 217.789 293.897 214.312 291.482C214.475 288.673 217.968 288.477 220.491 286.875Z"/><path fill="#FFFFFE" d="M461.679 455.024C463.611 450.866 467.505 446.473 471.211 443.801C488.764 431.148 562.295 434.444 584.481 438.241C595.189 440.074 603.56 443.424 609.997 452.517L610.172 453.393C611.166 458.197 613.36 464.868 614.163 469.835C616.823 486.311 618.195 503.666 618.442 520.365C618.509 524.878 619.193 533.156 618.537 537.31C618.489 537.457 618.433 537.601 618.394 537.75C617.678 540.499 617.951 543.875 617.587 546.752C616.658 554.101 613.718 573.447 607.564 577.435C602.419 580.77 594.387 582.735 588.317 583.588C573.273 585.701 493.457 585.928 481.184 581.859C479.965 581.454 479.255 580.678 478.398 579.77L478.329 579.065L480.135 579.439C478.625 578.317 479.584 578.684 478.318 577.414C467.342 571.906 463.172 564.209 461.27 552.41L461.122 552.255C460.131 552.126 460.037 552.29 459.074 552.58C454.623 550.56 459.415 547.178 454.072 545.775C455.528 543.7 454.074 533.085 454.489 529.313C455.42 520.86 454.65 511.352 455.237 503.03C455.859 494.198 457.19 484.858 457.976 475.994C458.561 469.383 460.748 461.937 461.615 455.521L461.679 455.024Z"/><path fill="#69B28B" d="M461.679 455.024C463.611 450.866 467.505 446.473 471.211 443.801C488.764 431.148 562.295 434.444 584.481 438.241C595.189 440.074 603.56 443.424 609.997 452.517L610.172 453.393C611.166 458.197 613.36 464.868 614.163 469.835C616.823 486.311 618.195 503.666 618.442 520.365C618.509 524.878 619.193 533.156 618.537 537.31C618.489 537.457 618.433 537.601 618.394 537.75C617.678 540.499 617.951 543.875 617.587 546.752C616.658 554.101 613.718 573.447 607.564 577.435C602.419 580.77 594.387 582.735 588.317 583.588C573.273 585.701 493.457 585.928 481.184 581.859C479.965 581.454 479.255 580.678 478.398 579.77L478.329 579.065L480.135 579.439C478.625 578.317 479.584 578.684 478.318 577.414C478.777 577.543 479.238 577.666 479.695 577.803C498.346 583.384 549.781 581.968 571.295 580.921C582.794 580.362 597.095 580.296 605.294 570.882C615.555 559.099 613.576 520.563 612.782 504.736C612.05 490.158 611.752 459.179 600.204 449.302C586.722 437.77 527.237 439.967 508.682 440.918C497.393 441.497 478.789 441.236 470.896 450.439C458.234 465.204 459.559 531.76 461.27 552.41L461.122 552.255C460.131 552.126 460.037 552.29 459.074 552.58C454.623 550.56 459.415 547.178 454.072 545.775C455.528 543.7 454.074 533.085 454.489 529.313C455.42 520.86 454.65 511.352 455.237 503.03C455.859 494.198 457.19 484.858 457.976 475.994C458.561 469.383 460.748 461.937 461.615 455.521L461.679 455.024Z"/><path fill="#3E9673" d="M903.141 390.426C903.252 390.986 903.36 391.547 903.435 392.112C903.821 395.051 903.313 398.495 903.015 401.434C901.452 416.812 896.698 434.09 886.692 446.23C883.079 450.613 878.571 455.462 874.052 458.927C832.178 491.042 729.943 515.078 677.145 526.493C658.115 530.608 638.985 535.619 619.564 537.601C618.529 539.497 619.117 543.076 618.93 545.277C618.534 549.912 617.3 554.379 616.725 558.981C616.143 563.638 616.61 568.297 615.43 572.909C615.009 574.552 614.289 575.88 613.351 577.28C609.1 583.629 603.539 587.24 595.979 588.624C591.19 589.501 585.898 589.033 581.004 589.307C574.978 589.644 568.938 590.535 562.927 590.734C546.899 591.266 485.587 590.961 473.651 582.299C472.385 581.381 472.027 580.456 471.824 578.961C473.148 578.235 474.932 582.505 478.239 583.167L478.937 582.602C479.59 583.878 475.266 577.079 476.962 578.509C474.698 576.601 466.655 570.902 465.391 568.33C463.348 564.174 462.319 559.552 460.525 555.409C458.983 554.301 459.035 554.688 456.71 554.625C455.755 553.41 455.701 550.931 455.695 549.197C455.683 545.732 451.555 545.994 448.093 545.612C436.884 544.376 425.648 542.748 414.527 540.558C344.266 526.723 273.908 505.923 210.358 472.461C198.509 466.221 186.474 459.523 175.803 451.431C148.076 430.198 142.226 412.165 138.611 378.811C137.938 372.602 138.071 365.862 137.3 359.775L137.685 359.305C137.891 359.748 138.246 362.557 138.343 363.225C138.513 381.639 142.167 409.306 151.669 424.813C164.718 446.108 190.706 461.29 212.293 472.586C274.718 505.25 343.636 525.506 412.519 539.281C426.683 542.109 439.967 543.694 454.072 545.775C459.415 547.178 454.623 550.56 459.074 552.58C460.037 552.29 460.131 552.126 461.122 552.255L461.27 552.41C463.172 564.209 467.342 571.906 478.318 577.414C479.584 578.684 478.625 578.317 480.135 579.439L478.329 579.065L478.398 579.77C479.255 580.678 479.965 581.454 481.184 581.859C493.457 585.928 573.273 585.701 588.317 583.588C594.387 582.735 602.419 580.77 607.564 577.435C613.718 573.447 616.658 554.101 617.587 546.752C617.951 543.875 617.678 540.499 618.394 537.75C618.433 537.601 618.489 537.457 618.537 537.31C631.183 534.752 643.984 532.916 656.642 530.311C712.287 518.859 841.647 490.228 880.501 451.61C896.516 435.693 903.074 412.666 903.141 390.426Z"/><path fill="#69B28B" d="M182.368 280.409L182.889 280.288C185.969 279.55 199.067 274.732 200.283 274.85C199.31 276.923 188.479 281.293 186.083 282.942C179.705 287.33 172.202 291.619 166.756 297.103C163.203 300.703 160.175 304.785 157.762 309.23C156.188 312.143 147.462 332.331 147.362 332.418C144.465 325.992 151.784 304.786 156.01 299.795C157.163 298.092 159.144 295.905 160.541 294.31C165.937 289.646 168.333 287.273 174.637 283.857C176.298 282.875 180.407 281.244 182.368 280.409Z"/><path fill="#91D4A4" d="M858.321 279.437C860.587 280.608 866.048 283.234 867.72 284.709C869.14 285.506 870.554 286.312 871.963 287.126C876.955 292.135 882.441 297.382 885.503 303.848C886.741 306.462 889.679 313.353 889.267 316.035C887.519 316.314 886.588 313.068 885.573 311.375C879.914 301.936 871.308 292.376 861.564 287.219C859.686 286.281 853.361 281.769 852.138 280.055C853.356 279.524 853.368 279.877 855.05 280.432C855.765 279.49 856.724 279.689 858.321 279.437Z"/><path fill="#69B28B" d="M858.321 279.437C860.587 280.608 866.048 283.234 867.72 284.709C867.938 285.463 868.158 285.503 868.707 286.055L868.565 286.275C865.52 285.248 863.017 284.386 860.048 283.135C859.71 282.898 856.093 281.07 855.05 280.432C855.765 279.49 856.724 279.689 858.321 279.437Z"/><path fill="#FFFFFE" d="M432.759 258.035C429.792 259.319 425.975 258.646 422.806 258.238C422.019 257.171 421.95 256.365 421.961 255.053C422.134 234.808 424.982 214.627 449.706 212.41C465.756 210.971 482.279 212.031 498.665 211.897C529.316 211.503 559.972 211.594 590.62 212.169C609.116 212.399 629.684 206.999 643.636 222.023C654.807 234.052 654.535 243.2 654.211 258.648C651.72 258.604 646.344 258.973 644.478 258.155C630.683 257.262 609.47 257.936 595.212 257.956L504.091 257.952L453.049 257.917C449.944 257.915 434.616 257.717 432.759 258.035Z"/><path fill="#388265" d="M432.759 258.035C429.792 259.319 425.975 258.646 422.806 258.238C422.019 257.171 421.95 256.365 421.961 255.053C422.134 234.808 424.982 214.627 449.706 212.41C465.756 210.971 482.279 212.031 498.665 211.897C529.316 211.503 559.972 211.594 590.62 212.169C609.116 212.399 629.684 206.999 643.636 222.023C654.807 234.052 654.535 243.2 654.211 258.648C651.72 258.604 646.344 258.973 644.478 258.155C643.688 221.707 623.866 221.83 594.142 221.546L558.513 221.381C527.179 221.34 495.661 221.241 464.333 221.589C453.735 221.706 441.013 222.653 433.513 231.008C426.875 238.402 427.039 248.5 426.718 257.855L432.759 258.035Z"/><path fill="#3E9673" d="M176.637 473.845C177.343 474.352 181.821 477.719 182.2 477.843C182.292 473.593 183.356 463.913 180.629 460.858C178.129 458.056 171.127 453.975 170.187 450.864C174.314 451.676 180.562 461.421 183.995 461.739C184.534 461.789 185.362 461.015 188.045 461.587C189.274 462.479 189.971 462.828 190.728 464.156L189.89 465.306C200.442 470.723 209.974 476.986 220.345 482.666C223.689 484.498 227.739 484.959 231.099 486.996C244.408 493.294 257.317 499.639 271.3 504.327L271.102 504.726L270.014 505.012C269.22 504.313 296.082 514.64 297.633 515.039C307.469 517.495 316.913 520.822 326.712 523.428C331.141 524.863 335.183 527.477 339.664 528.762C348.387 531.264 357.393 532.021 365.962 535.153C366.359 535.299 370.498 535.059 371.274 535.031C371.475 535.494 371.679 535.955 371.885 536.415C377.128 537.442 382.737 538.569 387.978 539.512C391.345 540.119 402.608 544.202 405.061 543.354C403.184 541.299 399.919 540.349 399.531 539.113C403.046 538.835 406.246 543.838 410.916 544.796C419.681 546.594 428.802 546.849 437.676 548.107C442.054 548.727 442.513 550.06 447.107 550.856L447.537 551.338C445.91 551.883 444.692 551.452 443.06 550.92C432.365 547.438 419.752 549.24 408.974 545.737C405.882 544.732 403.41 545.559 400.294 545.008C385.592 538.591 369.257 539.092 354.265 533.154C351.953 532.238 345.963 532.53 343.329 531.553C323.093 522.65 301.13 519.308 281.145 509.955C278.921 508.915 275.334 508.852 272.984 507.851C267.63 505.196 262.203 502.712 256.734 500.32C247.781 496.408 238.869 492.404 230 488.308C226.084 486.53 222.26 484.956 218.32 483.122C209.136 478.848 198.888 470.657 189.786 467.006C189.11 467.677 188.977 479.341 188.884 481.211C189.64 482.642 189.73 482.537 191.122 483.44L190.912 483.548C189.587 482.83 190.236 482.87 188.953 482.993L187.629 482.415L185.829 623.626C185.522 658.105 183.876 696.774 190.839 730.703C204.982 799.624 281.773 804.445 340.044 806.846C359.95 807.768 379.872 808.303 399.798 808.452C428.985 809.139 458.179 809.512 487.374 809.571L657.652 809.047C699.909 808.532 747.35 809.711 788.601 800.98C790.389 800.601 792.241 800.898 794.034 800.551C796.459 800.081 798.834 798.946 801.244 798.31C817.029 794.143 831.204 788.889 843.002 777.065C851.688 768.362 859.877 756.908 864.04 745.297C873.023 720.241 873.764 691.466 874.629 665.129C874.793 660.143 875.317 655.173 875.427 650.184C875.772 634.601 875.508 618.943 875.5 603.352L875.486 528.64L875.417 522.21C875.84 508.789 874.334 495.796 874.5 482.708C873.781 477.119 874.264 467.501 873.696 464.16L873.068 464.428C871.684 466.1 869.189 467.132 867.146 467.794L866.726 467.261C869.851 465.044 876.878 460.347 880.596 462.238L880.471 463.185C880.844 467.35 880.747 471.802 880.745 476.005C881.495 475.278 883.149 473.426 883.952 473.258C882.734 474.877 881.722 476.12 880.389 477.647C879.057 495.676 880.19 515.735 880.064 533.775C879.872 579.503 881.626 626.044 879.685 671.69C878.062 710.728 876.713 758.214 843.168 784.772C810.516 810.624 756.56 812.065 716.249 813.345C661.042 815.099 604.945 815.278 549.649 815.499C484.771 815.936 419.89 814.908 355.058 812.415C322.68 810.901 287.233 811.055 255.551 802.236C251.982 801.242 248.296 799.243 244.879 798.003C212.048 786.08 189.501 761.075 184.371 726.05C179.619 696.366 181.347 666.15 181.545 636.179L182.061 514.897C182.082 503.064 183.845 491.489 182.969 479.249C180.705 477.709 178.728 476.264 176.545 474.626L176.637 473.845Z"/><path fill="#388265" d="M873.068 464.428C871.684 466.1 869.189 467.132 867.146 467.794L866.726 467.261C869.851 465.044 876.878 460.347 880.596 462.238L880.471 463.185C879.56 466.664 879.895 473.704 879.936 477.566C877.976 479.407 876.379 482.027 874.5 482.708C873.781 477.119 874.264 467.501 873.696 464.16L873.068 464.428Z"/><path fill="#AFE3BD" d="M453.869 159.106C495.493 158.228 537.13 158.05 578.76 158.571C589.428 158.387 600.352 158.566 611.05 158.584C618.168 158.595 627.058 158.265 633.935 159.314C631.151 159.998 628.558 158.41 625.667 159.238C626.481 161.457 629.352 163.86 626.73 165.693C624.724 165.661 622.434 165.366 620.736 166.274L620.137 165.833C621.775 164.062 621.27 165.309 623.593 164.393C620.493 163.029 617.444 166.172 613.546 166.305C610.991 166.391 608.563 166.279 606.051 166.319C607.422 167.258 633.541 166.882 634.843 168.352C631.789 168.6 625.705 167.53 621.904 167.469C615.366 167.365 605.417 169.026 599.459 166.994L600.917 167.232C598.003 166.471 596.214 166.405 593.387 165.848C584.625 166.609 573.277 165.862 564.276 166.009C543.474 166.35 521.282 165.25 500.612 166.063C493.768 165.794 454.003 167.384 451.337 164.264C450.554 163.346 450.205 162.066 450.338 160.898C451.679 159.413 451.629 159.806 453.869 159.106Z"/><path fill="#69B28B" d="M578.76 158.571C589.428 158.387 600.352 158.566 611.05 158.584C618.168 158.595 627.058 158.265 633.935 159.314C631.151 159.998 628.558 158.41 625.667 159.238C626.481 161.457 629.352 163.86 626.73 165.693C624.724 165.661 622.434 165.366 620.736 166.274L620.137 165.833C621.775 164.062 621.27 165.309 623.593 164.393C620.493 163.029 617.444 166.172 613.546 166.305C610.991 166.391 608.563 166.279 606.051 166.319C607.422 167.258 633.541 166.882 634.843 168.352C631.789 168.6 625.705 167.53 621.904 167.469C615.366 167.365 605.417 169.026 599.459 166.994L600.917 167.232C598.003 166.471 596.214 166.405 593.387 165.848C598.599 165.012 616.378 166.322 619.226 163.32C619.062 163.168 612.01 159.878 611.744 159.838C601.315 158.286 588.952 160.197 578.76 158.571Z"/><path fill="#69B28B" d="M156.574 456.746C155.821 484.188 155.486 511.64 155.568 539.092C155.784 562.921 156.704 586.801 157.344 610.623C157.627 621.123 157.365 631.699 157.651 642.148C158.126 659.492 159.22 676.813 160.93 694.079C162.924 715.971 164.123 732.606 173.558 752.903C195.077 799.193 244.307 812.65 290.741 817.453C296.706 818.076 302.69 818.504 308.682 818.736C312.436 818.884 319.129 818.912 322.6 819.591C326.837 820.91 332.225 819.581 336.389 820.164C345.26 821.406 353.987 820.831 362.951 820.94L426.159 821.351L631.728 822.364C678.134 822.157 725.704 822.667 771.882 818.472C791.978 816.647 816.31 812.222 834.459 803.522C853.098 794.587 867.464 779.915 875.478 760.884C877.14 756.636 880.279 751.097 880.915 746.557C881.84 739.962 883.469 734.09 885.113 727.665C885.735 725.233 885.178 722.207 886.025 719.825C887.087 724.865 882.281 745.395 880.388 751.015C873.191 772.974 858.293 793.412 836.783 803.402C795.422 822.613 743.034 821.665 698.5 822.517C650.412 823.482 602.313 823.818 554.216 823.525L430.259 822.5L360.499 821.568C276.821 820.15 171.705 818.288 161.758 711.209C161.384 707.182 160.951 703.111 160.547 699.084C158.66 681.342 157.495 663.531 157.054 645.695C156.86 638.851 157.114 631.885 156.926 625.031C155.762 589.708 155.105 554.37 154.955 519.028C154.998 505.914 155.932 472.054 155.913 457.021C155.913 457.014 153.731 455.673 153.722 455.658C151.767 452.414 149.652 447.895 147.871 444.709C144.405 438.507 145.753 434.938 144.407 428.746C143.171 423.052 136.431 406.077 138.061 401.126C139.379 402.981 139.955 408.696 140.615 411.097C143.303 420.887 146.879 428.656 147.209 439.06C147.289 441.584 153.391 453.604 155.027 454.946C156.865 453.05 157.965 442.464 157.113 439.975L157.312 439.57C165.688 443.704 163.692 453.447 163.823 460.808C163.889 464.549 173.624 471.282 176.637 473.845L176.545 474.626C170.049 470.362 161.998 462.383 156.574 456.746Z"/><path fill="#69B28B" d="M406.376 165.545C420.178 160.235 439.282 156.847 453.869 159.106C451.629 159.806 451.679 159.413 450.338 160.898C450.205 162.066 450.554 163.346 451.337 164.264C454.003 167.384 493.768 165.794 500.612 166.063C495.231 167.145 484.585 166.672 478.787 166.833C468.738 167.111 458.705 167.529 448.648 168.052C443.317 168.329 436.693 168.356 431.448 169.035C425.463 169.81 417.808 172.617 411.962 174.503C410.889 174.849 408.861 177 407.516 177.629C400.452 180.929 397.594 180.345 392.285 186.95C393.575 186.82 397.588 183.459 398.439 182.407C400.742 182.109 402.343 181.98 404.664 181.894C398.836 183.267 398.165 184.44 393.542 187.999C392.398 188.879 390.551 187.78 389.321 187.599C380.791 190.706 378.467 203.707 373.274 209.494C374.575 204.247 377.922 201.719 378.825 196.979C376.895 199.01 374.995 201.069 373.125 203.156C372.842 199.358 372.717 197.416 372.97 193.638C378.294 184.512 381.097 180.971 389.538 174.83C393.437 171.383 401.529 167.741 406.376 165.545Z"/><path fill="#AFE3BD" d="M389.538 174.83C395.895 173.651 397.081 171.283 405.564 170.336C403.834 172.349 402.704 173.489 401.441 175.852C395.727 178.982 380.447 191.583 378.825 196.979C376.895 199.01 374.995 201.069 373.125 203.156C372.842 199.358 372.717 197.416 372.97 193.638C378.294 184.512 381.097 180.971 389.538 174.83Z"/><path fill="#91D4A4" d="M406.376 165.545C409.282 165.273 416.36 164.168 418.466 165.893C417.182 168.541 405.207 173.701 401.441 175.852C402.704 173.489 403.834 172.349 405.564 170.336C397.081 171.283 395.895 173.651 389.538 174.83C393.437 171.383 401.529 167.741 406.376 165.545Z"/><path fill="#69B28B" d="M807.664 529.609C813.436 530.091 814.97 531.478 819.026 535.434C819.055 545.194 820.101 543.001 810.495 546.555C804.338 548.832 799.929 548.815 793.423 548.745C785.595 546.773 784.129 548.752 780.67 540.893C779.965 539.289 780.214 539.625 780.787 538.129C785.246 533.959 800.708 531.439 807.664 529.609Z"/><path fill="#91D4A4" d="M654.827 167.178C664.123 165.818 670.594 172.436 677.854 176.921C683.172 180.205 694.83 193.02 692.816 199.627L692.146 199.693L690.479 197.678C680.098 186.64 666.424 179.151 652.732 173.173C652.183 172.933 652.24 172.32 652.136 171.78C653.146 171.94 653.086 171.936 654.054 171.954C654.815 170.442 654.831 171.133 654.569 169.802L652.917 169.729C653.204 168.525 653.92 168.051 654.827 167.178Z"/><path fill="#69B28B" d="M873.068 464.428L873.696 464.16C874.264 467.501 873.781 477.119 874.5 482.708C874.334 495.796 875.84 508.789 875.417 522.21C874.553 518.311 874.432 505.361 874.278 500.553C869.654 497.781 870.487 490.076 864.778 487.886C860.522 488.524 862.037 490.959 859.48 492.723L858.453 491.995C859.429 491.51 859.148 491.685 859.956 490.975L859.695 490.298C855.071 492.609 849.44 494.812 844.631 496.874C816.487 508.69 787.426 518.193 757.737 525.287C737.406 530.293 716.643 534.256 696.461 539.995C677.121 545.495 650.825 546.442 638.896 565.193L638.72 564.362C639.4 563.799 639.294 563.9 639.712 563.157C643.157 557.043 652.038 551.166 658.883 549.124C724.381 529.589 794.657 521.219 856.325 490.244C861.858 487.465 868.461 486.324 872.788 481.974L873.255 481.495C873.259 477.214 873.516 468.418 873.068 464.428Z"/><path fill="#91D4A4" d="M373.274 209.494C368.078 221.305 367.27 227.514 365.844 239.723C365.036 237.756 367.68 231.781 364.54 228.65C363.178 230.143 363.309 233.868 363.226 236.035L363.196 235.503C363.009 232.124 362.707 225.884 363.11 222.584C364.058 214.815 367.782 199.427 372.97 193.638C372.717 197.416 372.842 199.358 373.125 203.156C374.995 201.069 376.895 199.01 378.825 196.979C377.922 201.719 374.575 204.247 373.274 209.494Z"/><path fill="#69B28B" d="M398.439 182.407C403.595 179.702 415.606 178.832 420.272 182.646L420.089 183.55C419.239 184.342 418.391 184.424 417.076 184.618C414.529 185.148 413.529 191.669 411.639 192.749C403.298 197.518 392.149 209.196 382.306 208.745C380.199 205.663 379.55 205.021 379.43 201.26C381.402 204.39 383.076 208.515 387.207 207.857C390.848 204.731 394.936 203.263 398.76 200.159C400.699 198.585 406.054 192.846 407.683 192.246L407.187 194.137L407.777 194.098C412.409 190.814 411.754 189.622 414.306 185.025C415.095 183.602 415.857 183.643 415.143 181.924C411.432 179.359 408.852 182.162 404.664 181.894C402.343 181.98 400.742 182.109 398.439 182.407Z"/><path fill="#91D4A4" d="M174.669 485.375L175.538 486.395C174.758 489.362 175.225 495.058 174.992 498.32C173.963 512.733 174.976 526.977 174.956 541.329C174.933 557.635 175.537 573.813 175.5 590.125L175.445 591.796C174.796 591.026 173.685 530.967 173.733 524.479C173.809 514.111 174.465 496.539 174.669 485.375Z"/></svg>