<?xml version="1.0" encoding="utf-8" ?><svg xmlns="http://www.w3.org/2000/svg" xmlns:xlink="http://www.w3.org/1999/xlink" width="1152" height="896" viewBox="0 0 1152 896"><path fill="#91C3AF" d="M482.182 85.2843C484.185 83.5404 486.41 82.0689 488.799 80.9079C495.805 77.5415 501.281 78.0523 508.314 80.5629C521.512 88.2946 527.038 100.758 529.731 115.374L530.136 117.362C532.767 118.374 585.017 117.796 591.986 117.973C591.623 116.013 592.174 113.149 592.649 111.191C595.688 98.6478 604.092 83.8273 617.009 79.6393C622.612 77.8137 628.715 78.3287 633.932 81.0675C647.521 89.1163 651.959 101.598 654.587 116.541L655.101 117.463C658.404 118.106 671.586 117.722 675.709 117.661C678.572 117.216 685.595 117.418 688.886 117.435L714.943 117.67C717.254 98.1531 733.43 69.6049 756.661 81.036C769.565 88.6855 775.086 102.28 777.2 116.533L777.929 117.556C785.258 118.038 796.86 117.655 804.432 117.64L853.876 117.551C860.929 117.541 875.178 117.201 881.659 118.028C876.701 118.243 871.975 118.216 867.02 118.193C882.106 123.994 890.544 135.667 890.378 152.062C890.216 167.958 888.892 183.87 888.017 199.751C887.099 217.367 886.091 234.978 884.992 252.584C883.704 273.936 887.258 281.153 869.366 295.615C873.262 300.041 880.86 304.97 880.623 309.004C822.896 309.937 763.184 309.311 705.36 309.202L339.213 309.287C339.325 305.14 339.569 300.847 339.748 296.687C341.231 260.449 344.674 224.225 346.764 188.007C347.347 177.91 347.698 165.4 350.271 155.743C352.529 147.025 357.143 139.097 363.606 132.825C370.282 126.444 378.482 121.88 387.423 119.568C396.857 117.188 438.313 117.969 450.343 118.149C454.965 117.864 461.658 118.08 466.435 118.111C468.682 105.988 472.703 93.7312 482.182 85.2843Z"/><path fill="#74A997" d="M339.748 296.687C355.948 297.16 373.52 296.798 389.805 296.758L471.356 296.622L709.448 296.378L817.441 296.377L847.203 296.482C853.156 296.5 863.864 296.819 869.366 295.615C873.262 300.041 880.86 304.97 880.623 309.004C822.896 309.937 763.184 309.311 705.36 309.202L339.213 309.287C339.325 305.14 339.569 300.847 339.748 296.687Z"/><defs><linearGradient id="gradient_0" gradientUnits="userSpaceOnUse" x1="753.84619" y1="134.60167" x2="713.65094" y2="112.10563"><stop offset="0" stop-color="#798184"/><stop offset="1" stop-color="#B7BABD"/></linearGradient></defs><path fill="url(#gradient_0)" d="M714.943 117.67C717.254 98.1531 733.43 69.6049 756.661 81.036C769.565 88.6855 775.086 102.28 777.2 116.533C775.33 118.222 765.308 118.069 762.548 117.661C751.797 117.498 741.189 117.75 730.515 117.65C727.359 125.216 727.652 149.256 732.491 155.702C733.228 157.803 733.734 158.998 734.707 161.001C733.819 165.285 739.113 164.967 734.166 168.561C730.965 170.886 729.862 170.495 726.831 173.767C726.906 174.95 726.956 174.897 727.276 176.058L725.731 176.608C724.92 173.378 720.203 164.817 718.535 161.163C712.079 147.03 713.387 133.233 714.82 118.382C703.941 117.089 687.297 118.907 676.1 117.707L675.709 117.661C678.572 117.216 685.595 117.418 688.886 117.435L714.943 117.67Z"/><path fill="#FBFBFB" d="M756.661 81.036C769.565 88.6855 775.086 102.28 777.2 116.533C775.33 118.222 765.308 118.069 762.548 117.661C751.797 117.498 741.189 117.75 730.515 117.65C732.674 108.233 737.093 93.415 748.571 92.6313C748.935 90.4077 751.187 89.5739 753.029 88.4477C754.568 85.773 754.845 83.1115 756.661 81.036Z"/><path fill="#7B8183" d="M756.661 81.036C769.565 88.6855 775.086 102.28 777.2 116.533C775.33 118.222 765.308 118.069 762.548 117.661C762.27 116.317 761.97 114.978 761.651 113.643C759.614 105.104 756.227 97.3321 748.571 92.6313C748.935 90.4077 751.187 89.5739 753.029 88.4477C754.568 85.773 754.845 83.1115 756.661 81.036Z"/><defs><linearGradient id="gradient_1" gradientUnits="userSpaceOnUse" x1="510.98959" y1="182.82741" x2="476.17014" y2="85.988052"><stop offset="0" stop-color="#778384"/><stop offset="1" stop-color="#A8AAAC"/></linearGradient></defs><path fill="url(#gradient_1)" d="M482.182 85.2843C484.185 83.5404 486.41 82.0689 488.799 80.9079C495.805 77.5415 501.281 78.0523 508.314 80.5629C507.654 82.6018 506.981 84.8581 506.232 86.8451C504.636 88.0068 500.707 90.4487 500.042 91.901L500.11 92.2828C489.093 94.8302 485.334 107.363 482.794 117.127C481.957 119.745 481.021 123.806 480.844 126.523C479.317 134.162 481.141 149.168 484.818 156.213C486.619 163.426 491.499 168.867 497.73 172.644C498.02 172.818 498.312 172.989 498.606 173.155L499.257 172.784C502.339 171.047 506.527 169.505 509.871 170.626C517.835 173.297 514.661 183.558 507.809 185.524C501.585 187.31 494.821 186.799 489.042 183.973C485.329 182.051 481.937 178.775 479.038 175.69C478.734 175.779 478.43 175.867 478.126 175.955L477.751 176.46C469.025 156.413 465.463 154.744 465.481 129.821C465.099 127.396 464.416 119.518 463.253 118.363C459.118 119.29 454.395 119.726 450.343 118.149C454.965 117.864 461.658 118.08 466.435 118.111C468.682 105.988 472.703 93.7312 482.182 85.2843Z"/><path fill="#C6C6C7" d="M482.182 85.2843C484.498 85.8913 486.673 85.8651 488.529 87.2671C489.903 91.5846 480.187 106.201 478.743 111.856C476.112 122.16 476.608 132.384 474.875 142.711C473.528 144.4 472.141 144.178 470.179 143.486C466.877 140.216 467.198 124.248 467.173 119.027C465.569 122.548 465.666 125.974 465.481 129.821C465.099 127.396 464.416 119.518 463.253 118.363C459.118 119.29 454.395 119.726 450.343 118.149C454.965 117.864 461.658 118.08 466.435 118.111C468.682 105.988 472.703 93.7312 482.182 85.2843Z"/><defs><linearGradient id="gradient_2" gradientUnits="userSpaceOnUse" x1="629.29144" y1="133.6649" x2="590.62189" y2="111.79773"><stop offset="0" stop-color="#798082"/><stop offset="1" stop-color="#B8BCBF"/></linearGradient></defs><path fill="url(#gradient_2)" d="M591.986 117.973C591.623 116.013 592.174 113.149 592.649 111.191C595.688 98.6478 604.092 83.8273 617.009 79.6393C622.612 77.8137 628.715 78.3287 633.932 81.0675C632.278 83.4725 631.735 85.5732 629.815 87.9908C628.328 89.8637 626.659 90.9093 625.321 92.4798C623.663 92.6917 621.308 92.9086 619.982 93.9499C612.867 99.5351 609.426 109.168 607.054 117.579C605.141 128.559 604.58 146.132 609.174 156.171C609.56 156.91 610.867 159.273 611.123 159.945C610.549 161.588 611.108 161.891 612.109 163.98L612.311 164.391C609.761 168.282 606.614 171.052 602.958 173.919C602.833 174.935 602.741 175.001 602.866 175.994L602.386 176.855C589.893 149.87 588.472 148.372 592.524 118.678L591.986 117.973Z"/><path fill="#3F7162" d="M609.174 156.171C619.483 148.767 632.186 147.758 639.995 159.25C643.42 164.208 644.673 170.349 643.465 176.253C638.78 198.193 610.783 199.535 602.386 176.855L602.866 175.994C602.741 175.001 602.833 174.935 602.958 173.919C606.614 171.052 609.761 168.282 612.311 164.391L612.109 163.98C611.108 161.891 610.549 161.588 611.123 159.945C610.867 159.273 609.56 156.91 609.174 156.171Z"/><path fill="#7B8183" d="M612.311 164.391L612.109 163.98C611.108 161.891 610.549 161.588 611.123 159.945C614.314 165.578 616.592 169.22 622.274 172.672C626.243 171.496 632.141 169.357 635.803 171.509C643.04 175.761 637.305 184.625 630.808 185.916C624.39 187.192 618.247 186.474 612.494 183.446C609.718 181.909 604.979 177.071 602.866 175.994C602.741 175.001 602.833 174.935 602.958 173.919C606.614 171.052 609.761 168.282 612.311 164.391Z"/><path fill="#3F7162" d="M732.491 155.702C738.778 152.108 744.919 149.863 752.268 151.787C757.271 153.067 761.536 156.331 764.079 160.826C766.899 165.789 767.513 171.979 765.993 177.457C764.462 183.09 760.745 187.879 755.668 190.759C742.991 197.815 729.792 189.487 725.731 176.608L727.276 176.058C726.956 174.897 726.906 174.95 726.831 173.767C729.862 170.495 730.965 170.886 734.166 168.561C739.113 164.967 733.819 165.285 734.707 161.001C733.734 158.998 733.228 157.803 732.491 155.702Z"/><path fill="#7B8183" d="M734.707 161.001C738.176 166.693 740.825 169.608 746.579 173.28C766.108 164.346 767.591 180.491 754.21 186.112C745.867 189.617 732.842 183.089 727.276 176.058C726.956 174.897 726.906 174.95 726.831 173.767C729.862 170.495 730.965 170.886 734.166 168.561C739.113 164.967 733.819 165.285 734.707 161.001Z"/><path fill="#FBFBFB" d="M508.314 80.5629C521.512 88.2946 527.038 100.758 529.731 115.374L529.178 117.076C526.738 118.062 516.653 118.444 514.755 117.061L514.544 116.521C512.95 118.118 510.711 117.946 508.235 117.96C507.004 117.962 505.772 117.951 504.541 117.928C500.287 117.68 484.891 118.867 482.794 117.127C485.334 107.363 489.093 94.8302 500.11 92.2828L500.042 91.901C500.707 90.4487 504.636 88.0068 506.232 86.8451C506.981 84.8581 507.654 82.6018 508.314 80.5629Z"/><path fill="#7B8183" d="M508.314 80.5629C521.512 88.2946 527.038 100.758 529.731 115.374L529.178 117.076C526.738 118.062 516.653 118.444 514.755 117.061L514.544 116.521C512.887 107.361 508.899 96.7182 500.11 92.2828L500.042 91.901C500.707 90.4487 504.636 88.0068 506.232 86.8451C506.981 84.8581 507.654 82.6018 508.314 80.5629Z"/><path fill="#FBFBFB" d="M633.932 81.0675C647.521 89.1163 651.959 101.598 654.587 116.541C652.666 118.109 641.096 118.375 639.404 116.912C636.977 118.995 613.755 117.581 609.198 117.949C608.959 117.968 607.42 117.685 607.054 117.579C609.426 109.168 612.867 99.5351 619.982 93.9499C621.308 92.9086 623.663 92.6917 625.321 92.4798C626.659 90.9093 628.328 89.8637 629.815 87.9908C631.735 85.5732 632.278 83.4725 633.932 81.0675Z"/><path fill="#7B8183" d="M633.932 81.0675C647.521 89.1163 651.959 101.598 654.587 116.541C652.666 118.109 641.096 118.375 639.404 116.912C638.884 114.703 638.326 112.502 637.73 110.312C635.623 102.767 632.285 96.3654 625.321 92.4798C626.659 90.9093 628.328 89.8637 629.815 87.9908C631.735 85.5732 632.278 83.4725 633.932 81.0675Z"/><path fill="#3F7162" d="M484.818 156.213C503.882 143.356 523.279 157.66 518.472 177.271C517.135 182.701 513.679 187.369 508.875 190.233C496.086 197.775 482.231 189.644 477.751 176.46L478.126 175.955C478.43 175.867 478.734 175.779 479.038 175.69C481.937 178.775 485.329 182.051 489.042 183.973C494.821 186.799 501.585 187.31 507.809 185.524C514.661 183.558 517.835 173.297 509.871 170.626C506.527 169.505 502.339 171.047 499.257 172.784L498.606 173.155C498.312 172.989 498.02 172.818 497.73 172.644C491.499 168.867 486.619 163.426 484.818 156.213Z"/><path fill="#74A997" d="M482.794 117.127C484.891 118.867 500.287 117.68 504.541 117.928C504.324 118.538 504.052 119.302 503.726 120.218C499.077 123.8 492.607 125.976 487.625 129.278C484.209 131.542 484.243 132.551 481.656 134.759L481.026 134.493C480.599 131.347 480.714 129.684 480.844 126.523C481.021 123.806 481.957 119.745 482.794 117.127Z"/><path fill="#74A997" d="M145.66 509.951C145.914 483.665 169.761 450.77 196.674 446.483C215.519 443.48 240.066 444.884 259.601 444.872L389.508 444.833C407.048 445.036 425.37 443.676 441.947 450.405L448.774 453.276C451.735 455.503 454.485 457.343 457.579 459.388C462.883 464.248 468.149 468.978 471.701 475.361C480.811 490.204 482.554 501.069 482.669 518.226C482.645 520.414 482.526 523.594 482.663 525.714L482.832 651.168C482.46 671.845 477.679 686.559 462.601 701.854C454.978 709.587 440.469 716.884 429.795 718.852C421.908 720.306 408.281 719.942 399.856 719.945L355.364 719.945L262.18 719.994C245.351 720 228.496 719.938 211.672 719.907C188.153 719.864 169.266 708.846 156.495 689.094C141.897 666.947 145.376 635.397 145.363 609.539C145.255 576.343 145.354 543.146 145.66 509.951Z"/><path fill="#91C3AF" d="M145.66 509.951C145.914 483.665 169.761 450.77 196.674 446.483C215.519 443.48 240.066 444.884 259.601 444.872L389.508 444.833C407.048 445.036 425.37 443.676 441.947 450.405C431.473 455.818 422.276 464.095 412.582 470.479C383.264 489.785 352.213 507.363 317.777 515.531C303.917 518.818 289.927 520.16 275.744 521C241.015 524.339 211.547 523.734 177.502 515.244C169.408 513.226 160.209 511.823 152.137 509.284C150.366 508.727 147.956 507.534 146.493 508.02L145.66 509.951Z"/><path fill="#5E9684" d="M156.495 689.094C160.908 687.968 167.063 693.601 171.523 695.489C191.707 704.032 212.602 702.672 234.2 702.561L292.321 702.173L364.945 702.132C384.49 702.16 409.369 704.526 427.874 697.498C444.783 690.458 458.607 677.587 465.791 660.837C473.113 643.767 471.39 627.456 471.373 609.431L471.381 557.305C471.358 544.076 471.425 530.847 471.585 517.619C471.727 506.255 471.886 494.022 470.867 482.699C470.737 481.256 466.707 471.561 465.952 469.629C467.454 471.829 469.419 473.979 471.701 475.361C480.811 490.204 482.554 501.069 482.669 518.226C482.645 520.414 482.526 523.594 482.663 525.714L482.832 651.168C482.46 671.845 477.679 686.559 462.601 701.854C454.978 709.587 440.469 716.884 429.795 718.852C421.908 720.306 408.281 719.942 399.856 719.945L355.364 719.945L262.18 719.994C245.351 720 228.496 719.938 211.672 719.907C188.153 719.864 169.266 708.846 156.495 689.094Z"/><path fill="#FBFBFB" d="M393.479 510.297C394.336 510.246 395.195 510.212 396.054 510.198C402.864 510.096 409.399 512.168 414.29 517.045C418.311 521.027 420.526 526.48 420.421 532.138C420.395 534.562 419.469 539.554 418.086 541.387C412.568 548.7 404.498 556.229 397.997 562.746L360.973 599.794L330.769 629.807C326.059 634.478 317.93 643.45 312.549 646.711C296.669 656.333 282.261 637.595 273.008 628.243L247.958 602.879C242.589 597.677 237.364 592.3 232.079 587.013C226.97 581.904 223.257 577.312 223.035 569.778C222.859 563.493 225.251 557.409 229.658 552.925C233.723 548.776 238.998 546.427 244.833 546.48C248.585 546.506 252.249 547.625 255.376 549.7C260.356 552.979 270.187 563.507 274.877 568.302C284.018 577.705 293.233 587.034 302.524 596.289C321.281 578.106 339.783 559.663 358.025 540.965C366.931 532.01 376.295 522.172 385.729 513.802C388.132 511.67 390.424 510.952 393.479 510.297Z"/><path fill="#5E9684" d="M881.659 118.028C907.492 118.144 928.58 115.85 948.449 135.833C963.454 150.925 961.045 167.255 963.831 186.821C966.794 211.155 968.71 235.807 971.164 260.269L991.858 462.995L1010.06 644.244C1011.67 661.33 1013.35 678.408 1015.13 695.477C1016.34 706.359 1018.14 717.927 1018.52 728.843C1018.61 731.443 1017.64 734.062 1015.66 735.809C1010.53 740.323 998.942 739.196 992.106 739.188C990.958 739.5 991.428 739.444 990.185 739.16L980.329 739.049C975.018 739.732 963.548 739.224 957.812 739.309C940.732 739.564 922.805 738.696 905.786 739.168L905.325 739.634C899.778 745.316 900.476 749.558 892.271 750.473C883.17 751.094 872.579 750.863 863.309 750.866L818.878 750.864L680.803 750.904L459.599 750.873C422.241 750.876 384.882 750.989 347.525 750.913C335.139 750.888 328.043 745.998 323.466 734.529C324.748 734.673 326.036 734.747 327.327 734.751C367.86 735.157 409.51 734.65 450.141 734.601L673.024 734.623L786.948 734.58L818.557 734.592C826.128 734.59 834.083 734.732 841.609 733.864C859.13 731.845 879.121 714.14 881.47 696.303C883.502 680.868 883.743 663.701 884.473 647.98L888.898 561.873L897.831 392.442C899.172 367.2 902.218 335.35 902.348 310.988C894.885 309.364 888.169 309.013 880.623 309.004C880.86 304.97 873.262 300.041 869.366 295.615C887.258 281.153 883.704 273.936 884.992 252.584C886.091 234.978 887.099 217.367 888.017 199.751C888.892 183.87 890.216 167.958 890.378 152.062C890.544 135.667 882.106 123.994 867.02 118.193C871.975 118.216 876.701 118.243 881.659 118.028Z"/><defs><linearGradient id="gradient_3" gradientUnits="userSpaceOnUse" x1="888.3573" y1="443.77444" x2="979.02301" y2="440.22058"><stop offset="0" stop-color="#82B5A2"/><stop offset="1" stop-color="#A3D3BF"/></linearGradient></defs><path fill="url(#gradient_3)" d="M897.925 745.662C899.097 740.466 899.798 726.736 900.084 720.855C900.982 702.375 901.811 683.896 902.778 665.408L913.14 468.989C913.689 459.8 914.223 450.609 914.795 441.422C914.663 439.323 915.729 436.662 915.749 434.735C915.913 418.398 917.369 402.349 918.126 386.037L920.363 344.092C921.967 311.064 924.537 277.53 926.33 244.446L930.948 161.703C931.159 158.244 931.233 144.637 932.908 142.912L935.229 143.031L974.899 556.599L986.316 676.673L989.751 715.496C990.326 722.009 991.015 732.341 992.139 738.56L992.106 739.188C990.958 739.5 991.428 739.444 990.185 739.16L980.329 739.049C975.018 739.732 963.548 739.224 957.812 739.309C940.732 739.564 922.805 738.696 905.786 739.168L905.325 739.634C899.778 745.316 900.476 749.558 892.271 750.473C894.712 748.773 895.786 747.708 897.925 745.662Z"/><path fill="#5E9684" d="M943.517 708.381C953.109 714.866 962.826 721.165 972.662 727.275C976.502 729.707 987.522 736.36 990.185 739.16L980.329 739.049C977.468 738.41 962.826 738.754 958.985 738.68C941.866 738.349 924.204 738.8 907.117 738.29C918.95 728.373 932.142 718.288 943.517 708.381Z"/><path fill="#3F7162" d="M935.229 143.031C939.303 143.628 944.022 143.616 944.436 148.776C945.068 156.645 945.778 164.474 946.579 172.328L953.632 242.347C958.323 287.501 962.617 332.696 966.513 377.926L974.032 454.449C980.673 524.805 987.482 595.125 994.129 665.49L998.319 708.66C999.219 717.388 1000.95 729.938 1000.83 738.444L992.139 738.56C991.015 732.341 990.326 722.009 989.751 715.496L986.316 676.673L974.899 556.599L935.229 143.031Z"/><path fill="#E9E9E9" d="M403.729 350.619C409.428 349.881 427.974 350.608 434.891 350.532L528.236 350.387L691.401 350.41L763.451 350.39C778.012 350.377 792.713 350.26 807.27 350.558C812.395 350.813 817.384 351.854 821.696 354.752C832.522 362.029 830.514 376.11 830.586 387.376C830.637 395.38 831.19 404.375 826.234 411.048C821.287 417.708 816.81 419.356 809.002 420.692C785.728 421.736 755.456 420.841 731.66 420.836L590.727 421.056L467.468 420.909L427.095 420.834C419.721 420.822 412.21 420.977 404.955 420.66C384.801 419.782 382.515 404.43 382.9 388.018C383.311 370.496 380.522 352.882 403.729 350.619Z"/><path fill="#C6C6C7" d="M412.514 362.258C420.462 361.97 440.317 362.356 449.006 362.417C449.612 362.421 451.671 364.626 452.531 365.366C454.342 364.551 456.109 363.282 458.039 363.738C459.303 365.345 458.933 364.66 459.201 366.842C457.421 370.29 432.514 398.487 429.604 400.778C425.43 397.13 414.128 385.661 415.273 380.017C419.505 378.903 427.199 388.776 429.833 391.78C433.11 387.797 448.207 371.122 449.392 368.421C449.099 365.96 447.524 365.507 445.161 365.392C436.096 364.951 426.246 364.508 417.236 365.106C404.071 365.095 410.748 392.678 409.604 401.794C408.552 410.178 441.146 407.26 446.549 407.193C458.53 398.898 446.904 388.371 453.391 378.01L454.649 379.042C456.128 384.657 455.188 395.607 455.207 401.511C453.862 412.425 441.025 410.864 435.094 411.192C397.245 413.282 406.633 403.268 405.694 373.099C405.539 368.114 408.422 364.91 412.514 362.258Z"/><path fill="#C6C6C7" d="M487.011 388.202C495.354 387.762 505.766 387.969 514.287 387.948L565.041 387.954L606.286 387.975C613.294 387.972 620.429 387.939 627.439 388.017C629.347 388.038 629.351 388.182 630.651 389.203C631.134 391.112 630.936 391.497 630.574 393.504C622.989 393.862 613.293 393.601 605.579 393.608L558.95 393.645L513.714 393.687C509.077 393.694 489.572 394.394 486.918 392.625C486.256 390.73 486.544 390.265 487.011 388.202Z"/><path fill="#E9E9E9" d="M389.508 444.833C391.84 444.534 395.99 444.518 397.921 444.088C412.992 440.731 428.042 441.606 443.531 441.592L504.318 441.785L621.911 441.911L746.767 441.921L789.277 441.713C806.081 441.726 828.372 438.943 830.183 461.69C830.615 467.128 831.034 489.817 830.01 494.745C829.314 498.034 827.821 501.102 825.664 503.681C821.585 508.618 816.463 510.935 810.182 511.202C799.854 511.643 789.065 511.478 778.725 511.474L713.688 511.382L483.202 511.76C483.056 513.723 482.944 516.334 482.669 518.226C482.554 501.069 480.811 490.204 471.701 475.361C468.149 468.978 462.883 464.248 457.579 459.388C454.485 457.343 451.735 455.503 448.774 453.276L441.947 450.405C425.37 443.676 407.048 445.036 389.508 444.833Z"/><path fill="#C6C6C7" d="M448.774 453.276C452.63 453.939 457.664 452.593 460.333 454.724C460.939 456.292 460.86 455.456 460.177 457.324C459.237 458.145 458.64 458.691 457.579 459.388C454.485 457.343 451.735 455.503 448.774 453.276Z"/><path fill="#C6C6C7" d="M485.859 479.343L577.892 479.383C593.39 479.41 608.955 479.283 624.447 479.613C626.516 479.657 626.844 479.867 628.004 481.101C628.286 482.963 628.192 483.039 627.335 484.8C594.302 485.167 560.82 484.897 527.755 484.868L499.933 484.886C495.983 484.893 487.128 485.969 484.919 482.99C484.857 481.102 484.92 481.043 485.859 479.343Z"/><path fill="#E9E9E9" d="M482.663 525.714C482.926 527.649 482.886 530.299 483.994 531.418C492.121 532.072 504.738 531.592 513.275 531.646C535.764 531.853 558.254 531.813 580.742 531.523L732.438 531.683L785.184 531.61C797.93 531.628 816.418 528.79 825.265 539.137C827.503 541.766 829.153 544.843 830.103 548.162C832.207 555.65 830.514 573.026 830.928 581.328C831.17 586.16 827.302 594.422 823.267 597.325C812.817 604.842 792.991 602.559 780.249 602.549L725.843 602.593L565.834 602.483C540.268 602.482 508.576 601.651 483.369 602.754C483.339 608.309 483.955 649.954 482.832 651.168L482.663 525.714Z"/><path fill="#C6C6C7" d="M498.376 569.974C512.926 569.396 644.881 569.418 647.378 570.971C648.321 572.999 647.952 572.806 647.789 575.371C647.182 575.417 646.574 575.456 645.965 575.487C637.304 575.935 626.318 575.651 617.494 575.643L567.49 575.58L523.474 575.533C519.41 575.531 500.172 576.261 498 574.292C497.593 572.371 497.855 571.949 498.376 569.974Z"/><path fill="#C6C6C7" d="M874.489 631.339L875.426 631.932C876.594 634.242 874.186 668.377 873.436 673.071C867.269 710.262 833.675 728.693 798.161 726.666C793.97 726.427 788.767 726.752 784.118 726.531L780.804 726.065C783.89 724.749 789.423 721.368 792.774 719.632C797.774 717.043 804.169 713.82 808.897 710.846C830.729 696.956 849.053 678.204 862.435 656.057C867.452 647.611 870 639.286 874.489 631.339Z"/><path fill="#C6C6C7" d="M498.852 659.893C510.762 660.418 524.931 660.072 537.017 660.059L606.457 659.993C614.428 659.998 626.616 659.769 634.705 660.424C635.514 660.489 635.965 661.643 636.329 662.308C636.414 664.291 636.507 664.457 635.534 666.088C599.764 666.714 563.69 665.675 527.891 666.127C517.589 666.256 506.754 666.315 496.504 665.87C494.89 664.927 495.461 665.587 494.801 663.766C495.321 660.143 495.603 660.513 498.852 659.893Z"/></svg>