<?xml version="1.0" encoding="utf-8" ?><svg xmlns="http://www.w3.org/2000/svg" xmlns:xlink="http://www.w3.org/1999/xlink" width="1024" height="1024" viewBox="0 0 1024 1024"><defs><linearGradient id="gradient_0" gradientUnits="userSpaceOnUse" x1="567.28308" y1="802.00012" x2="437.64902" y2="207.50082"><stop offset="0" stop-color="#64A988"/><stop offset="1" stop-color="#BDEDBA"/></linearGradient></defs><path fill="url(#gradient_0)" d="M333.437 313.85C337.362 284.452 341.964 251.124 357.047 225.086C366.5 208.766 377.26 207.635 392.546 217.27C403.613 223.346 423.865 246.908 432.404 256.67C486.336 241.09 549.425 245.971 601.946 264.939C607.355 260.811 611.957 255.972 617.263 251.719C633.703 238.545 648.261 228.316 667.693 220.152C672.704 219.679 675.627 219.266 679.997 222.786C689.768 230.657 692.872 255.108 694.019 267.247C695.382 281.671 694.658 303.731 692.273 317.988C692.755 322.753 699.321 325.833 702.677 330.173C728.081 356.291 750.789 394.204 760.292 429.511C767.917 433.596 775.555 437.238 782.754 442.246C810.064 461.246 831.584 488.08 841.586 519.997C848.004 540.481 847.602 552.755 847.361 573.323C848.743 575.3 849.844 576.689 850.805 578.919C852.1 580.507 853.478 583.641 854.35 585.565C859.818 597.824 861.966 611.304 860.581 624.655C856.559 663.535 820.717 711.112 776.107 709.786C775.927 709.766 775.746 709.746 775.566 709.726L775.284 713.648C777.031 715.769 792.298 716.975 796.048 717.638C815.078 721.266 837.173 724.391 855.001 732.468C886.555 746.764 850.646 760.335 835.776 763.9C795.48 773.563 755.076 777.929 713.995 781.353C627.602 788.539 540.848 790.413 454.224 786.964C402.012 785.607 349.897 781.709 298.064 775.284C271.89 771.833 230.923 767.354 208.394 754.244C205.421 752.514 202.096 749.975 201.329 746.414C200.832 744.102 201.483 741.886 202.875 740.013C214.48 724.391 275.653 717.315 295.4 713.843L295.756 712.022C294.064 695.79 296.331 682.725 301.464 667.316C289.486 653.236 284.95 647.705 277.698 630.593C277.57 630.356 276.753 628.917 276.734 628.911C274.079 628.051 269.563 627.919 266.974 627.513C253.596 625.418 241.479 617.739 231.393 609.162C201.275 584.953 185.932 534.356 209.15 500.549C219.482 485.602 236.341 476.5 254.506 476.06C256.633 475.989 269.748 476.106 270.199 475.948C270.945 472.898 271.582 469.439 272.221 466.334C273.021 463.675 273.618 460.804 274.232 458.091C282.597 421.19 291.145 384.061 308.707 350.236C312.785 342.38 318.316 334.574 323.443 327.354C326.544 322.987 331.145 318.631 333.437 313.85Z"/><path fill="#ECB44E" d="M704.396 646.875C704.505 651.17 703.682 663.518 706.018 665.871C710.136 667.114 714.378 665.214 718.704 664.808C721.327 676.353 726.324 685.535 735.075 693.649C731.604 694.265 728.906 694.778 725.5 695.672C724.726 694.804 720.756 691.566 719.393 690.217C713.01 683.84 708.316 675.974 705.735 667.328C704.464 666.568 701.879 666.793 700.141 666.742C700.434 666.422 703.31 666.547 704.628 666.308C704.759 665.571 704.821 665.715 704.617 665.028C703.453 661.102 703.314 650.628 704.396 646.875Z"/><path fill="#F5BF5B" d="M643.011 420.154C672.489 412.667 706.072 411.31 735.393 420.19C744.081 423.162 751.762 426.236 760.292 429.511C767.917 433.596 775.555 437.238 782.754 442.246C810.064 461.246 831.584 488.08 841.586 519.997C848.004 540.481 847.602 552.755 847.361 573.323C848.743 575.3 849.844 576.689 850.805 578.919C852.1 580.507 853.478 583.641 854.35 585.565C859.818 597.824 861.966 611.304 860.581 624.655C856.559 663.535 820.717 711.112 776.107 709.786C775.927 709.766 775.746 709.746 775.566 709.726C772.771 709.256 770.305 709.485 767.411 709.057C758.82 707.784 749.671 703.447 742.459 698.746L738.366 694.923L735.075 693.649C726.324 685.535 721.327 676.353 718.704 664.808C714.378 665.214 710.136 667.114 706.018 665.871C703.682 663.518 704.505 651.17 704.396 646.875C703.314 650.628 703.453 661.102 704.617 665.028C704.821 665.715 704.759 665.571 704.628 666.308C703.31 666.547 700.434 666.422 700.141 666.742C701.879 666.793 704.464 666.568 705.735 667.328C708.316 675.974 713.01 683.84 719.393 690.217C720.756 691.566 724.726 694.804 725.5 695.672C678.534 707.255 620.523 691.246 585.65 658.84C581.443 654.93 576.729 650.438 573.406 645.733C572.522 644.482 572.738 644.276 571.35 643.354L570.461 643.939L569.869 645.122C569.006 642.997 568.699 640.167 568.073 637.864C564.896 626.189 556.491 625.563 546.013 624.349L557.091 622.414C557.247 621.202 551.596 610.826 550.662 608.377C532.351 560.363 541.862 512.899 573.568 473.189C572.066 469.453 568.769 468.038 564.977 467.315L566.916 465.265C569.77 462.335 572.899 459.364 575.832 456.486C576.795 455.445 579.428 453.376 580.835 451.997C584.374 448.675 586.763 446.667 590.782 444.027L593.965 442.042C612.927 431.079 621.9 426.857 643.011 420.154Z"/><path fill="#F9CF6A" d="M643.011 420.154C672.489 412.667 706.072 411.31 735.393 420.19C744.081 423.162 751.762 426.236 760.292 429.511C767.917 433.596 775.555 437.238 782.754 442.246C810.064 461.246 831.584 488.08 841.586 519.997C848.004 540.481 847.602 552.755 847.361 573.323C845.818 580.731 844.272 598.966 839.776 604.119L838.84 603.316L832.696 597.393C821.785 589.881 810.529 584.56 796.934 585.119C797.45 576.272 801.735 571.696 799.569 562.094C799.446 552.05 798.421 543.632 795.839 534.026C792.793 522.695 779.287 496.801 768.836 491.281C766.956 493.181 766.519 493.552 765.141 495.777C763.774 499.748 763.278 502.041 762.44 506.194C758.63 492.034 757.676 490.151 743.167 487.037C748.767 486.034 751.822 485.3 756.247 481.752C753.591 475.06 722.668 462.611 715.113 460.968C692.797 456.453 671.226 457.116 649.621 465.344C594.456 486.352 564.387 545.863 587.513 601.729C605.438 645.032 650.754 669.681 696.678 667.881C699.37 667.776 703.205 667.843 705.735 667.328C708.316 675.974 713.01 683.84 719.393 690.217C720.756 691.566 724.726 694.804 725.5 695.672C678.534 707.255 620.523 691.246 585.65 658.84C581.443 654.93 576.729 650.438 573.406 645.733C572.522 644.482 572.738 644.276 571.35 643.354L570.461 643.939L569.869 645.122C569.006 642.997 568.699 640.167 568.073 637.864C564.896 626.189 556.491 625.563 546.013 624.349L557.091 622.414C557.247 621.202 551.596 610.826 550.662 608.377C532.351 560.363 541.862 512.899 573.568 473.189C572.066 469.453 568.769 468.038 564.977 467.315L566.916 465.265C569.77 462.335 572.899 459.364 575.832 456.486C576.795 455.445 579.428 453.376 580.835 451.997C584.374 448.675 586.763 446.667 590.782 444.027L593.965 442.042C612.927 431.079 621.9 426.857 643.011 420.154Z"/><path fill="#DE9F43" d="M643.011 420.154C672.489 412.667 706.072 411.31 735.393 420.19C744.081 423.162 751.762 426.236 760.292 429.511C767.917 433.596 775.555 437.238 782.754 442.246C810.064 461.246 831.584 488.08 841.586 519.997C848.004 540.481 847.602 552.755 847.361 573.323C845.818 580.731 844.272 598.966 839.776 604.119L838.84 603.316L832.696 597.393C843.585 560.111 837.095 518.967 815.725 486.529C798.565 460.481 771.878 440.984 742.727 430.271C705.732 416.916 665.068 417.954 628.802 433.178C619.46 437.044 611.239 442.568 602.201 446.685L601.713 446.904C599.529 442.882 598.562 442.111 593.965 442.042C612.927 431.079 621.9 426.857 643.011 420.154Z"/><path fill="white" d="M570.017 600.556C571.491 618.762 575.561 622.194 593.433 624.353C585.959 625.624 574.993 626.175 572.388 634.705C571.774 636.716 570.512 641.904 570.461 643.939L569.869 645.122C569.006 642.997 568.699 640.167 568.073 637.864C564.896 626.189 556.491 625.563 546.013 624.349L557.091 622.414C568.83 619.928 567.94 610.015 570.017 600.556Z"/><path fill="white" d="M593.965 442.042C598.562 442.111 599.529 442.882 601.713 446.904C602.635 447.891 602.646 447.91 603.297 449.094C603.36 453.253 599.514 460.722 596.947 464.247C592.097 471.221 581.498 468.077 581.589 459.666C581.662 452.987 587.296 448.768 590.487 444.437L590.782 444.027L593.965 442.042Z"/><path fill="white" d="M761.537 466.148C765.034 480.933 765.429 483.66 780.972 487.013C776.841 488.248 772.539 489.184 768.836 491.281C766.956 493.181 766.519 493.552 765.141 495.777C763.774 499.748 763.278 502.041 762.44 506.194C758.63 492.034 757.676 490.151 743.167 487.037C748.767 486.034 751.822 485.3 756.247 481.752C759.68 477.316 760.624 471.569 761.537 466.148Z"/><path fill="#F5BF5B" d="M566.916 465.265C569.77 462.335 572.899 459.364 575.832 456.486C575.48 457.682 575.139 458.882 574.809 460.085C572.745 467.716 583.308 461.92 576.902 469.641L573.568 473.189C572.066 469.453 568.769 468.038 564.977 467.315L566.916 465.265Z"/><path fill="#ECB44E" d="M564.977 467.315L566.916 465.265C569.934 469.814 572.849 466.512 576.902 469.641L573.568 473.189C572.066 469.453 568.769 468.038 564.977 467.315Z"/><defs><linearGradient id="gradient_1" gradientUnits="userSpaceOnUse" x1="840.3053" y1="672.04321" x2="756.90747" y2="607.02094"><stop offset="0" stop-color="#84C09F"/><stop offset="1" stop-color="#ACDFAE"/></linearGradient></defs><path fill="url(#gradient_1)" d="M847.361 573.323C848.743 575.3 849.844 576.689 850.805 578.919C852.1 580.507 853.478 583.641 854.35 585.565C859.818 597.824 861.966 611.304 860.581 624.655C856.559 663.535 820.717 711.112 776.107 709.786C775.927 709.766 775.746 709.746 775.566 709.726C772.771 709.256 770.305 709.485 767.411 709.057C758.82 707.784 749.671 703.447 742.459 698.746L738.366 694.923L735.075 693.649C726.324 685.535 721.327 676.353 718.704 664.808C712.206 620.441 755.064 586.381 796.364 584.979L796.934 585.119C810.529 584.56 821.785 589.881 832.696 597.393L838.84 603.316L839.776 604.119C844.272 598.966 845.818 580.731 847.361 573.323Z"/><path fill="#6EAD89" d="M796.934 585.119C810.529 584.56 821.785 589.881 832.696 597.393L838.84 603.316C833.564 601.878 828.414 598.1 823.106 596.3C785.584 583.576 740.64 612.083 729.659 648.688C726.152 660.376 727.045 675.729 733.143 686.374C734.286 688.36 737.744 693.567 738.366 694.923L735.075 693.649C726.324 685.535 721.327 676.353 718.704 664.808C712.206 620.441 755.064 586.381 796.364 584.979L796.934 585.119Z"/><path fill="#6EAD89" d="M847.361 573.323C848.743 575.3 849.844 576.689 850.805 578.919C849.826 577.976 848.926 577.012 847.79 576.277C847.118 581.736 846.574 587.222 847.316 592.714C847.828 596.5 849.021 600.662 849.294 604.446C847.874 606.987 847.18 608.168 845.405 610.546C843.528 608.759 840.784 606.429 839.776 604.119C844.272 598.966 845.818 580.731 847.361 573.323Z"/><path fill="#DE9F43" d="M704.396 646.875C710.483 605.434 745.423 580.117 786.421 582.519C789.241 582.684 795.504 582.051 796.364 584.979C755.064 586.381 712.206 620.441 718.704 664.808C714.378 665.214 710.136 667.114 706.018 665.871C703.682 663.518 704.505 651.17 704.396 646.875Z"/><path fill="#DE9F43" d="M768.836 491.281C779.287 496.801 792.793 522.695 795.839 534.026C798.421 543.632 799.446 552.05 799.569 562.094C799.163 564.398 797.278 579.702 796.335 580.376C796.461 575.349 798.23 572.49 798.113 565.817C797.639 538.637 784.676 514.271 765.141 495.777C766.519 493.552 766.956 493.181 768.836 491.281Z"/><path fill="#DE9F43" d="M619.262 507.582C634.537 507.326 649.816 507.305 665.091 507.521C671.811 526.647 683.679 553.704 692.004 572.686C700.037 552.558 709.15 526.845 718.01 507.544C731.693 507.367 749.447 507.072 762.82 508.132C758.082 520.704 749.506 537.658 743.681 550.627C733.978 572.427 723.252 593.931 713.267 615.613C710.377 621.887 707.363 628.053 704.862 634.499C695.874 634.596 686.886 634.624 677.897 634.584C673.175 627.342 670.601 618.894 667.203 611.012C652.191 576.186 634.052 542.475 619.262 507.582Z"/><path fill="#F9CF6A" d="M624.372 510.579C635.356 509.844 651.349 510.416 662.594 510.494C664.592 514.13 667.179 521.283 668.891 525.396C673.003 535.271 677.481 545.409 681.302 555.381C685.096 563.434 688.613 572.046 692.102 580.267C697.994 565.154 703.988 550.081 710.084 535.05C713.071 527.645 716.834 517.533 720.296 510.547C730.296 510.174 740.698 510.469 750.73 510.444C753.401 510.437 754.859 510.568 757.051 512.129C747.069 537.41 733.361 564.419 721.781 589.205L708.027 618.691C707.438 619.934 703.555 628.587 703.039 629.433L701.921 630.508C697.737 631.911 684.528 631.464 679.676 631.298C676.724 626.601 673.724 618.811 671.289 613.463C665.611 601.183 660.017 588.866 654.506 576.511L635.588 535.899C631.853 527.868 627.457 518.802 624.372 510.579Z"/><path fill="#FCEBAF" d="M624.372 510.579C635.356 509.844 651.349 510.416 662.594 510.494C664.592 514.13 667.179 521.283 668.891 525.396C673.003 535.271 677.481 545.409 681.302 555.381C678.673 557.353 679.989 558.882 680.905 561.84C676.567 567.947 662.177 575.221 660.068 580.141C660.628 584.462 678.796 624.139 681.908 628.974C686.572 628.967 700.124 627.575 703.039 629.433L701.921 630.508C697.737 631.911 684.528 631.464 679.676 631.298C676.724 626.601 673.724 618.811 671.289 613.463C665.611 601.183 660.017 588.866 654.506 576.511L635.588 535.899C631.853 527.868 627.457 518.802 624.372 510.579Z"/><path fill="#F9CF6A" d="M629.127 513.169L659.589 512.984C662.241 516.673 663.405 520.221 665.012 524.432C661.796 528.238 658.608 531.515 655.158 535.088L643.82 546.149C641.882 542.831 629.899 516.494 629.127 513.169Z"/><path fill="#FCEBAF" d="M722.488 513.527C728.129 513.233 746.75 512.445 751.513 514.233C746.009 520.137 729.93 529.655 722.872 534.996C720.5 536.79 711.864 543.414 709.638 544.499C710.937 538.783 719.678 519.423 722.488 513.527Z"/><path fill="#FAF4D1" d="M720.296 510.547C730.296 510.174 740.698 510.469 750.73 510.444C753.401 510.437 754.859 510.568 757.051 512.129C755.072 512.796 753.394 513.3 751.513 514.233C746.75 512.445 728.129 513.233 722.488 513.527C719.678 519.423 710.937 538.783 709.638 544.499C705.499 554.946 697.03 577.282 691.903 586.379C689.55 581.637 682.844 566.91 680.905 561.84C679.989 558.882 678.673 557.353 681.302 555.381C685.096 563.434 688.613 572.046 692.102 580.267C697.994 565.154 703.988 550.081 710.084 535.05C713.071 527.645 716.834 517.533 720.296 510.547Z"/><path fill="#E5E4E4" d="M295.756 712.022C296.731 717.852 300.813 733.555 305.58 737.146C326.393 770.278 400.119 766.5 432.292 753.527C441.254 749.913 448.985 744.458 454.769 736.706C462.263 738.645 477.067 740.633 485.023 741.586C529.95 747.081 575.459 745.539 619.911 737.013C629.841 761.276 657.883 769.727 681.829 771.258C710.51 773.092 746.141 770.256 764.451 744.974C769.482 738.029 773.917 727.767 774.533 719.156C774.885 717.285 774.818 715.796 775.284 713.648C777.031 715.769 792.298 716.975 796.048 717.638C815.078 721.266 837.173 724.391 855.001 732.468C886.555 746.764 850.646 760.335 835.776 763.9C795.48 773.563 755.076 777.929 713.995 781.353C627.602 788.539 540.848 790.413 454.224 786.964C402.012 785.607 349.897 781.709 298.064 775.284C271.89 771.833 230.923 767.354 208.394 754.244C205.421 752.514 202.096 749.975 201.329 746.414C200.832 744.102 201.483 741.886 202.875 740.013C214.48 724.391 275.653 717.315 295.4 713.843L295.756 712.022Z"/><defs><linearGradient id="gradient_2" gradientUnits="userSpaceOnUse" x1="219.52347" y1="598.42993" x2="308.36642" y2="486.01547"><stop offset="0" stop-color="#7EBD9B"/><stop offset="1" stop-color="#AFE3B1"/></linearGradient></defs><path fill="url(#gradient_2)" d="M272.221 466.334C277.642 468.834 286.032 469.307 291.885 470.85C316.64 477.376 344.327 490.173 354.325 515.655C362.422 536.288 353.766 553.212 337.311 565.485C335.644 595.153 325.013 621.36 293.002 629.43C287.728 630.759 283.089 630.652 277.698 630.593C277.57 630.356 276.753 628.917 276.734 628.911C274.079 628.051 269.563 627.919 266.974 627.513C253.596 625.418 241.479 617.739 231.393 609.162C201.275 584.953 185.932 534.356 209.15 500.549C219.482 485.602 236.341 476.5 254.506 476.06C256.633 475.989 269.748 476.106 270.199 475.948C270.945 472.898 271.582 469.439 272.221 466.334Z"/><path fill="#6EAD89" d="M272.221 466.334C277.642 468.834 286.032 469.307 291.885 470.85C316.64 477.376 344.327 490.173 354.325 515.655C362.422 536.288 353.766 553.212 337.311 565.485C335.644 595.153 325.013 621.36 293.002 629.43C287.728 630.759 283.089 630.652 277.698 630.593C277.57 630.356 276.753 628.917 276.734 628.911C274.079 628.051 269.563 627.919 266.974 627.513C253.596 625.418 241.479 617.739 231.393 609.162C234.847 607.388 241.733 611.524 246.393 611.938C265.956 613.826 289.49 610.708 305.338 599.057C330.236 580.751 323.762 546.863 307.506 525.228C304.654 521.432 304.549 514.256 312.284 518C319.774 518.337 326.385 520.059 333.898 520.067C334.603 514.109 334.449 513.051 332.722 507.453C332.525 506.999 331.607 505.638 331.322 505.262C317.095 486.508 291.834 479.729 270.199 475.948C270.945 472.898 271.582 469.439 272.221 466.334Z"/><path fill="#89C59F" d="M338.256 516.809C344.402 530.847 342.595 542.329 334.095 554.627C331.733 547.709 329.66 543.788 327.033 537.316C332.646 531.923 332.441 526.128 336.725 520.405C337.927 518.799 337.929 519.102 338.256 516.809Z"/><path fill="#89C59F" d="M332.722 507.453C335.963 510.603 336.627 512.712 338.256 516.809C337.929 519.102 337.927 518.799 336.725 520.405C332.441 526.128 332.646 531.923 327.033 537.316C322.043 529.284 318.854 524.705 312.284 518C319.774 518.337 326.385 520.059 333.898 520.067C334.603 514.109 334.449 513.051 332.722 507.453Z"/><path fill="#89C59F" d="M301.464 667.316C301.56 667.428 301.657 667.539 301.753 667.651C310.878 675.769 323.388 681.145 333.939 687.222C343.77 692.883 352.584 697.882 362.5 703.302C368.644 706.661 378.363 710.552 383.454 715.25C385.286 716.941 386.363 723.402 386.11 725.95C385.731 729.775 385.056 732.631 381.779 735.105C371.098 743.167 354.043 748.395 340.658 746.819C332.522 745.861 324.487 743.592 316.676 741.313C313.592 740.413 308.099 737.333 305.58 737.146C300.813 733.555 296.731 717.852 295.756 712.022C294.064 695.79 296.331 682.725 301.464 667.316Z"/><path fill="#DE9F43" d="M564.977 467.315C568.769 468.038 572.066 469.453 573.568 473.189C541.862 512.899 532.351 560.363 550.662 608.377C551.596 610.826 557.247 621.202 557.091 622.414L546.013 624.349C556.491 625.563 564.896 626.189 568.073 637.864C568.699 640.167 569.006 642.997 569.869 645.122L570.461 643.939L571.35 643.354C572.738 644.276 572.522 644.482 573.406 645.733C576.729 650.438 581.443 654.93 585.65 658.84C620.523 691.246 678.534 707.255 725.5 695.672C728.906 694.778 731.604 694.265 735.075 693.649L738.366 694.923L742.459 698.746C736.637 701.774 723.489 703.59 716.543 704.768C710.796 705.463 705.034 706.026 699.261 706.456C626.928 711.397 551.92 668.408 533.394 595.989C521.265 548.58 532.753 503.437 564.977 467.315Z"/><defs><linearGradient id="gradient_3" gradientUnits="userSpaceOnUse" x1="709.20325" y1="282.69171" x2="651.90741" y2="252.72841"><stop offset="0" stop-color="#65A482"/><stop offset="1" stop-color="#93CFA9"/></linearGradient></defs><path fill="url(#gradient_3)" d="M667.693 220.152C672.704 219.679 675.627 219.266 679.997 222.786C689.768 230.657 692.872 255.108 694.019 267.247C695.382 281.671 694.658 303.731 692.273 317.988L691.631 319.091C690.282 318.565 674.747 305.668 672.511 303.583C664.279 295.907 650.961 291.795 643.338 285.416C641.257 280.743 659.788 250.103 662.176 243.158C664.729 235.732 667.85 229.114 667.707 220.677L667.693 220.152Z"/><path fill="#89C59F" d="M333.437 313.85C337.362 284.452 341.964 251.124 357.047 225.086C366.5 208.766 377.26 207.635 392.546 217.27C388.543 217.802 387.117 217.872 383.69 220.19C375.583 231.746 377.902 252.547 380.234 265.787C380.895 269.63 381.713 273.443 382.688 277.219C366.753 285.627 351.604 295.511 339.079 308.634C337.987 309.778 334.493 313.658 333.437 313.85Z"/><path fill="#324541" d="M580.835 451.997C572.937 444.734 571.341 427.575 575.357 418C579.236 408.342 589.019 399.549 599.365 397.288C619.059 392.984 635.259 402.065 643.011 420.154C621.9 426.857 612.927 431.079 593.965 442.042L590.782 444.027C586.763 446.667 584.374 448.675 580.835 451.997Z"/><path fill="#6EAD89" d="M702.677 330.173C728.081 356.291 750.789 394.204 760.292 429.511C751.762 426.236 744.081 423.162 735.393 420.19C734.964 408.944 720.927 372.518 716.289 360.275C713.92 354.023 702.809 336.289 702.677 330.173Z"/><path fill="#6EAD89" d="M742.459 698.746C749.671 703.447 758.82 707.784 767.411 709.057C770.305 709.485 772.771 709.256 775.566 709.726L775.284 713.648C774.818 715.796 774.885 717.285 774.533 719.156C774.389 717.28 774.205 715.406 773.98 713.538C772.504 713.437 761.444 717.084 757.903 717.464C738.308 719.568 731.304 715.986 716.543 704.768C723.489 703.59 736.637 701.774 742.459 698.746Z"/><path fill="#324541" d="M381.761 408.231C400.301 404.471 418.356 416.526 421.992 435.09C425.628 453.655 413.454 471.63 394.865 475.141C376.452 478.62 358.682 466.585 355.081 448.195C351.479 429.805 363.395 411.956 381.761 408.231Z"/><path fill="#324541" d="M375.896 372.657C394.201 370.129 410.212 383.35 424.065 393.421C427.513 395.927 436.598 401.465 436.288 406.023C435.322 407.794 435.399 407.721 433.796 408.932C431.363 409.439 410.209 399.047 405.622 397.247C387.263 390.373 372.053 389.444 354.284 398.582C351.639 399.941 345.889 403.462 343.594 401.145C343.076 398.101 344.776 394.361 346.45 391.931C353.289 381.822 363.896 374.879 375.896 372.657Z"/><path fill="#324541" d="M606.164 358.574C622.03 357.508 638.075 365.214 645.409 380.88C645.86 381.843 645.277 382.63 644.748 383.357C643.449 383.343 643.148 383.246 641.933 382.823C621.295 375.633 606.044 375.648 586.192 386.213C579.66 389.614 573.701 393.152 567.028 397.245C562.379 399.823 558.562 403.66 555.797 396.475C555.362 394.639 558.682 391.594 559.786 390.618C573.019 378.922 588.442 362.44 606.164 358.574Z"/><path fill="#324541" d="M491.722 463.753C500.944 463.671 515.237 463.191 523.98 464.05C526.629 465.858 528.638 467.68 528.928 470.951C529.828 481.1 518.85 480.364 511.957 480.128C508.303 480.003 504.647 480.068 501.125 480.059C495.456 480.182 469.196 481.846 466.353 477.482C455.171 460.32 482.85 463.689 491.722 463.753Z"/></svg>