<?xml version="1.0" encoding="utf-8" ?><svg xmlns="http://www.w3.org/2000/svg" xmlns:xlink="http://www.w3.org/1999/xlink" width="1024" height="1024" viewBox="0 0 1024 1024"><defs><linearGradient id="gradient_0" gradientUnits="userSpaceOnUse" x1="498.91132" y1="714.07385" x2="343.28186" y2="130.17325"><stop offset="0" stop-color="#68BC8D"/><stop offset="1" stop-color="#A7DD8C"/></linearGradient></defs><path fill="url(#gradient_0)" d="M210.912 275.321C209.388 271.305 209.715 233.517 209.991 227.205C213.043 157.378 225.61 135.158 281.721 192.112C287.049 197.52 293.816 204.082 298.869 210.061C310.165 205.421 322.38 200.738 334.463 197.938C372.39 189.152 414.551 190.58 452.744 196.974C467.943 199.518 485.111 204.818 499.671 209.366C511.84 195.743 526.117 180.62 540.652 169.663C548.706 163.593 558.002 158.372 568.348 159.967C586.652 169.072 594.607 241.185 594.558 261.418C594.841 263.975 594.964 265.51 594.956 268.077C615.336 290.953 628.992 310.563 642.007 338.75C647.004 349.57 651.257 361.114 655.888 371.353C658.142 369.369 659.267 368.651 661.978 367.466C662.875 368.754 662.883 368.245 662.55 369.9C661.861 373.333 660.27 377.41 659.809 380.837C657.701 396.512 659.419 411.03 663.732 426.075C666.474 435.347 669.212 444.178 673.112 453.073C674.358 455.917 678.352 461.418 679.145 463.516C684.079 470.635 688.293 479.667 698.025 478.204C699.688 477.79 702.856 477.638 704.675 477.493L714.116 477.538C717.769 477.314 721.691 477.472 725.077 477.221C728.008 477.527 728.32 477.761 730.322 480.029C730.52 480.945 730.713 482.236 731.109 483.023C732.986 488.473 734.519 497.69 733.727 503.413C741.8 510.349 750.51 522.186 754.127 532.229C754.602 533.545 757.053 551.1 757.19 552.831C757.86 560.927 755.17 568.941 749.752 574.993C749.06 575.751 748.293 576.466 747.531 577.154C747.749 583.372 747.844 587.539 742.627 591.882C741.86 635.661 711.656 669.64 668.862 677.387C670.439 679.149 671.205 679.748 672.036 681.895C672.218 689.083 670.899 699.18 670.182 706.5C669.449 713.984 669.501 731.167 664.656 736.246C662.258 763.288 648.644 801.601 637.825 826.595C660.514 830.627 682.579 832.092 705.54 837.403C815.867 862.925 671.11 880.212 642.522 883.598C590.104 889.807 538.368 892.171 485.666 893.676C423.642 895.66 361.561 894.905 299.603 891.414C257.127 889.442 214.746 885.773 172.562 880.418C148.277 877.204 114.562 873.046 92.2033 863.217C89.2407 861.915 83.5338 858.085 82.6171 854.862C82.2398 853.535 82.5886 852.24 83.2945 851.101C91.6881 837.556 160.4 827.797 177.844 825.698C182.798 825.135 187.763 824.677 192.737 824.325C194.61 824.193 197.789 824.415 199.313 823.854C197.113 818.792 193.008 812.07 190.461 806.479C183.392 790.96 176.11 775.702 169.832 759.813C164.973 747.516 157.477 731.387 155.021 718.464C153.695 717.439 147.228 713.853 145.048 712.38C136.981 706.925 131.579 702.059 124.797 695.146C119.046 689.989 110.739 676.686 106.901 669.792C90.1709 639.744 96.9854 607.359 108.88 577.11C113.116 566.337 117.115 555.849 122.236 545.36C115.996 540.781 109.578 537.563 104.353 531.524C86.0634 510.385 80.7302 469.27 104.354 449.809C118.007 438.561 119.293 443.679 124.425 457.345C127.691 466.042 131.071 477.761 135.773 485.407L136.089 485.912C137.019 482.756 138.381 470.309 138.959 466.305C140.458 456.199 142.365 446.158 144.678 436.207C155.615 389.545 173.784 344.881 198.526 303.835C202.771 296.828 207.092 290.701 211.609 283.904C211.268 280.87 211.057 278.37 210.912 275.321Z"/><path fill="#56AD7E" d="M286.892 664.1C286.919 639.99 298.76 629.733 322.402 630.293C338.339 630.671 357.069 632.815 369.292 644.056C378.256 652.184 379.077 673.023 373.054 682.873C388.887 685.018 406.674 684.897 422.667 685.976C460.062 688.5 497.166 687.086 534.533 686.459C547.821 672.723 565.048 674.019 582.806 673.146C592.937 672.648 602.029 673.455 611.869 675.805C616.84 678.315 618.651 679.482 622.22 683.891C623.449 683.118 622.89 683.557 623.688 682.121C626.396 686.304 628.147 688.955 629.832 693.669C633.149 693.384 636.709 693.191 639.946 692.485L639.77 691.99C645.535 690.769 646.773 690.062 650.358 685.174C651.372 681.723 650.8 679.852 650.152 676.374C654.124 676.675 658.701 677.366 662.484 677.531L668.862 677.387C670.439 679.149 671.205 679.748 672.036 681.895C672.218 689.083 670.899 699.18 670.182 706.5C669.449 713.984 669.501 731.167 664.656 736.246C662.258 763.288 648.644 801.601 637.825 826.595C660.514 830.627 682.579 832.092 705.54 837.403C815.867 862.925 671.11 880.212 642.522 883.598C590.104 889.807 538.368 892.171 485.666 893.676C423.642 895.66 361.561 894.905 299.603 891.414C257.127 889.442 214.746 885.773 172.562 880.418C148.277 877.204 114.562 873.046 92.2033 863.217C89.2407 861.915 83.5338 858.085 82.6171 854.862C82.2398 853.535 82.5886 852.24 83.2945 851.101C91.6881 837.556 160.4 827.797 177.844 825.698C182.798 825.135 187.763 824.677 192.737 824.325C194.61 824.193 197.789 824.415 199.313 823.854C197.113 818.792 193.008 812.07 190.461 806.479C183.392 790.96 176.11 775.702 169.832 759.813C164.973 747.516 157.477 731.387 155.021 718.464C185.132 731.453 229.067 737.474 258.371 719.511L258.457 724.484C259.423 723.661 258.886 724.005 260.445 723.865L260.133 717.912C270.061 709.859 275.712 703.638 277.163 690.493C277.248 692.595 277.281 695.071 277.449 697.133C278.701 692.692 277.215 688.929 278.396 687.208C278.412 681.864 279.766 674.945 278.548 670.021L277.536 669.552L277.556 663.812L277.859 663.868C280.78 663.434 283.91 663.863 286.892 664.1Z"/><path fill="#DEE0DF" d="M199.313 823.854C211.374 843.022 224.367 866.024 249.971 870.107C276.903 874.402 318.124 875.069 343.037 862.067C353.105 856.084 363.957 838.365 369.142 828.437C382.163 828.496 395.132 829.838 408.12 830.004C423.974 830.207 439.731 830.01 455.554 829.04C458.207 828.877 460.979 828.735 463.632 828.704C476.706 850.618 484.069 863.198 510.941 869.001C537.759 874.794 587.247 878.585 611.851 864.369C624.824 856.873 632.421 839.457 637.825 826.595C660.514 830.627 682.579 832.092 705.54 837.403C815.867 862.925 671.11 880.212 642.522 883.598C590.104 889.807 538.368 892.171 485.666 893.676C423.642 895.66 361.561 894.905 299.603 891.414C257.127 889.442 214.746 885.773 172.562 880.418C148.277 877.204 114.562 873.046 92.2033 863.217C89.2407 861.915 83.5338 858.085 82.6171 854.862C82.2398 853.535 82.5886 852.24 83.2945 851.101C91.6881 837.556 160.4 827.797 177.844 825.698C182.798 825.135 187.763 824.677 192.737 824.325C194.61 824.193 197.789 824.415 199.313 823.854Z"/><defs><linearGradient id="gradient_1" gradientUnits="userSpaceOnUse" x1="545.74866" y1="796.13928" x2="606.63721" y2="674.0755"><stop offset="0" stop-color="#E09D3A"/><stop offset="1" stop-color="#F6BE52"/></linearGradient></defs><path fill="url(#gradient_1)" d="M534.533 686.459C547.821 672.723 565.048 674.019 582.806 673.146C592.937 672.648 602.029 673.455 611.869 675.805C616.84 678.315 618.651 679.482 622.22 683.891C623.449 683.118 622.89 683.557 623.688 682.121C626.396 686.304 628.147 688.955 629.832 693.669C633.149 693.384 636.709 693.191 639.946 692.485L639.77 691.99C645.535 690.769 646.773 690.062 650.358 685.174C651.372 681.723 650.8 679.852 650.152 676.374C654.124 676.675 658.701 677.366 662.484 677.531L668.862 677.387C670.439 679.149 671.205 679.748 672.036 681.895C672.218 689.083 670.899 699.18 670.182 706.5C669.449 713.984 669.501 731.167 664.656 736.246C656.716 739.56 636.71 742.5 628.051 742.624L628.069 743.125C628.666 756.915 634.335 778.584 626.838 791.131C626.227 790.028 626.37 790.596 626.333 789.448L626.649 790.226L626.797 788.805C626.402 789.068 625.135 791.374 623.262 792.62C614.024 801.616 606.85 802.712 594.302 804.673C583.771 806.319 573.201 807.278 562.669 805.006C552.785 802.26 547.91 797.032 543.14 788.187C539.087 775.784 537.888 757.734 537.287 744.279L537.044 744.436C537.055 748.904 537.135 755.973 537.617 760.343C538.204 765.671 539.021 770.962 539.292 776.385C537.246 773.3 535.681 738.313 535.25 731.775C534.765 734.562 535.055 736.874 535.224 739.695L527.164 739.494C528.934 738.698 531.259 738.751 533.251 738.632C534.926 737.113 533.612 729.173 532.358 727.451C532.014 729.96 531.432 735.121 530.818 737.343C530.569 734.242 531.417 729.335 531.104 726.124C529.882 713.597 528.477 705.966 531.203 693.522C532.241 691.203 533.441 688.769 534.533 686.459Z"/><path fill="#E7AB43" d="M650.152 676.374C654.124 676.675 658.701 677.366 662.484 677.531L668.862 677.387C670.439 679.149 671.205 679.748 672.036 681.895C672.218 689.083 670.899 699.18 670.182 706.5C669.449 713.984 669.501 731.167 664.656 736.246C656.716 739.56 636.71 742.5 628.051 742.624C627.252 739.289 626.425 731.819 625.871 728.131C625.82 724.414 628.847 720.247 629.604 716.22C629.995 714.144 630.244 712.198 630.66 710.117L630.567 709.535C633.338 705.914 629.167 701.429 632.891 695.586L632.586 694.891C631.199 694.691 630.97 694.49 629.832 693.669C633.149 693.384 636.709 693.191 639.946 692.485L639.77 691.99C645.535 690.769 646.773 690.062 650.358 685.174C651.372 681.723 650.8 679.852 650.152 676.374Z"/><path fill="#C8872A" d="M639.946 692.485C642.594 692.168 646.369 692.043 649.112 691.868C666.923 701.985 649.431 720.828 630.66 710.117L630.567 709.535C633.338 705.914 629.167 701.429 632.891 695.586L632.586 694.891C631.199 694.691 630.97 694.49 629.832 693.669C633.149 693.384 636.709 693.191 639.946 692.485Z"/><path fill="#F8C24E" d="M650.152 676.374C654.124 676.675 658.701 677.366 662.484 677.531L668.862 677.387C670.439 679.149 671.205 679.748 672.036 681.895C670.614 682.859 670.312 683.022 669.385 684.468C667.35 687.638 662.296 688.555 658.863 689.621C655.849 690.556 652.312 691.271 649.112 691.868C646.369 692.043 642.594 692.168 639.946 692.485L639.77 691.99C645.535 690.769 646.773 690.062 650.358 685.174C651.372 681.723 650.8 679.852 650.152 676.374Z"/><path fill="#F8BA46" d="M650.152 676.374C654.124 676.675 658.701 677.366 662.484 677.531C662.881 681.077 654.199 685.552 650.358 685.174C651.372 681.723 650.8 679.852 650.152 676.374Z"/><path fill="#F8BA46" d="M623.713 741.449C625.54 752.766 627.163 764.405 627.608 775.851C627.868 782.551 626.556 786.848 623.262 792.62C614.024 801.616 606.85 802.712 594.302 804.673C583.771 806.319 573.201 807.278 562.669 805.006C562.538 803.874 561.478 797.949 563.16 798.1C576.044 799.26 604.714 797.816 614.902 789.895C623.936 782.871 615.296 753.899 615.738 743.06L615.776 742.251C618.719 742.271 620.983 742.516 623.713 741.449Z"/><path fill="#D49330" d="M623.92 723.571C625.568 724.69 625.144 724.197 625.628 726.779L625.871 728.131C626.425 731.819 627.252 739.289 628.051 742.624L628.069 743.125C628.666 756.915 634.335 778.584 626.838 791.131C626.227 790.028 626.37 790.596 626.333 789.448L626.649 790.226L626.797 788.805C626.402 789.068 625.135 791.374 623.262 792.62C626.556 786.848 627.868 782.551 627.608 775.851C627.163 764.405 625.54 752.766 623.713 741.449C622.398 733.965 621.975 734.236 622.106 726.222C604.183 737.231 561.507 743.344 543.192 731.571C552.752 736.465 564.128 738.23 574.722 737.238C587.113 736.078 615.786 733.137 623.92 723.571Z"/><path fill="#889F6E" d="M622.22 683.891C623.449 683.118 622.89 683.557 623.688 682.121C626.396 686.304 628.147 688.955 629.832 693.669C630.97 694.49 631.199 694.691 632.586 694.891L632.891 695.586C629.167 701.429 633.338 705.914 630.567 709.535C629.302 706.402 628.343 701.672 627.542 698.261C627.041 693.147 625.038 688.141 622.22 683.891Z"/><path fill="#D49330" d="M627.542 698.261C628.343 701.672 629.302 706.402 630.567 709.535L630.66 710.117C630.244 712.198 629.995 714.144 629.604 716.22C628.847 720.247 625.82 724.414 625.871 728.131L625.628 726.779C625.144 724.197 625.568 724.69 623.92 723.571C624.397 721.528 626.593 718.491 627.024 716.627C628.297 711.135 627.608 703.946 627.542 698.261Z"/><path fill="#F8BA46" d="M286.892 664.1C286.919 639.99 298.76 629.733 322.402 630.293C338.339 630.671 357.069 632.815 369.292 644.056C378.256 652.184 379.077 673.023 373.054 682.873L372.531 683.009L372.041 683.296C370.221 684.128 367.894 685.288 366.054 685.92C368.003 693.327 367.538 710.998 366.966 718.741C366.882 735.341 372.195 769.67 356.238 779.696C342.987 788.021 316.508 781.729 301.495 779.424C292.222 778 278.546 774.64 273.054 766.105C265.593 754.167 268.748 729.581 271.806 716.64C273.997 709.53 274.669 704.627 277.449 697.133C278.701 692.692 277.215 688.929 278.396 687.208C278.412 681.864 279.766 674.945 278.548 670.021L277.536 669.552L277.556 663.812L277.859 663.868C280.78 663.434 283.91 663.863 286.892 664.1Z"/><defs><linearGradient id="gradient_2" gradientUnits="userSpaceOnUse" x1="362.37717" y1="700.10437" x2="284.08643" y2="657.6817"><stop offset="0" stop-color="#658186"/><stop offset="1" stop-color="#80A1A3"/></linearGradient></defs><path fill="url(#gradient_2)" d="M286.892 664.1C286.919 639.99 298.76 629.733 322.402 630.293C338.339 630.671 357.069 632.815 369.292 644.056C378.256 652.184 379.077 673.023 373.054 682.873L372.531 683.009L372.041 683.296C370.221 684.128 367.894 685.288 366.054 685.92C359.234 688.099 352.968 689.403 349.109 696.57C346.504 701.408 345.133 710.863 344.642 716.365C343.59 727.222 343.08 740.09 328.506 740.436C313.439 740.794 304.765 723.917 316.762 713.076C315.501 710.119 312.942 710.493 309.71 709.421C298.175 705.596 299.236 689.289 294.478 680.117C292.309 675.936 289.736 674.384 287.789 669.95C286.811 667.872 286.423 666.575 286.93 664.415L286.892 664.1Z"/><path fill="#DEE0DF" d="M291.317 665.182C289.526 631.634 318.628 632.512 343.021 638.089C355.374 640.914 368.477 647.053 367.967 661.941C367.758 668.03 368.465 674.296 364.149 679.222L363.488 678.301C360.503 677.838 345.231 680.154 341.834 680.848C342.198 677.786 342.734 675.985 340.978 673.558C337.943 671.089 323.637 670.112 319.23 670.676C315.688 671.129 314.336 671.796 312.121 674.39C311.744 676.9 311.337 678.198 312.011 680.646L311.458 681.461C308.736 677.6 301.805 674.578 297.123 676.025C293.178 674.59 292.184 668.759 291.317 665.182Z"/><path fill="#B9C1C9" d="M291.317 665.182C294.746 665.774 308.563 671.873 311.786 674.238C311.897 674.289 312.009 674.339 312.121 674.39C311.744 676.9 311.337 678.198 312.011 680.646L311.458 681.461C308.736 677.6 301.805 674.578 297.123 676.025C293.178 674.59 292.184 668.759 291.317 665.182Z"/><path fill="#D49330" d="M286.93 664.415C288.452 666.467 288.74 667.968 289.885 669.598C294.836 676.646 298.577 679.738 300.546 688.527C300.191 686.35 300.311 685.149 300.387 682.92C299.214 679.722 298.901 678.989 297.123 676.025C301.805 674.578 308.736 677.6 311.458 681.461L312.011 680.646C313.516 682.602 313.192 682.831 315.544 683.479L315.948 684.037L316.827 681.977C317.043 682.343 318.028 684.072 318.216 684.294L319.131 685.351C320.735 691.208 321.188 693.315 320.987 699.5C320.901 702.138 319.556 709.186 319.959 710.897L316.762 713.076C315.501 710.119 312.942 710.493 309.71 709.421C298.175 705.596 299.236 689.289 294.478 680.117C292.309 675.936 289.736 674.384 287.789 669.95C286.811 667.872 286.423 666.575 286.93 664.415Z"/><path fill="white" d="M297.123 676.025C301.805 674.578 308.736 677.6 311.458 681.461L312.011 680.646C313.516 682.602 313.192 682.831 315.544 683.479L315.948 684.037C316.259 687.215 316.447 690.229 316.677 693.4C311.364 697 310.216 698.182 303.843 697.284C301.947 694.956 300.892 691.476 300.546 688.527C300.191 686.35 300.311 685.149 300.387 682.92C299.214 679.722 298.901 678.989 297.123 676.025Z"/><path fill="#86989E" d="M312.011 680.646C313.516 682.602 313.192 682.831 315.544 683.479L315.948 684.037C316.259 687.215 316.447 690.229 316.677 693.4C311.364 697 310.216 698.182 303.843 697.284C301.947 694.956 300.892 691.476 300.546 688.527C300.191 686.35 300.311 685.149 300.387 682.92C301.107 684.799 301.738 687.671 302.233 689.646C303.571 694.993 309.582 697.865 312.439 691.735C314.123 688.124 312.723 684.962 311.458 681.461L312.011 680.646Z"/><path fill="#F8C24E" d="M316.677 693.4C320.814 713.28 304.525 704.455 303.302 697.959L303.843 697.284C310.216 698.182 311.364 697 316.677 693.4Z"/><path fill="#B9C1C9" d="M341.834 680.848C345.231 680.154 360.503 677.838 363.488 678.301L364.149 679.222C360.144 683.759 352.96 685.051 348.746 690.593C344.281 696.465 343.186 700.361 341.919 707.379C340.369 710.123 339.729 713.151 339.412 716.271C337.255 715.383 336.256 712.707 333.668 712.21C333.52 712.182 332.776 711.643 332.694 711.586C334.204 701.4 335.406 689.3 341.834 680.848Z"/><path fill="#DEE0DF" d="M325.525 713.159L330.648 715.158C337.561 717.85 335.902 723.735 336.601 730.186C335.473 731.554 334.545 732.486 332.951 733.362C330.228 734.849 327.016 735.159 324.059 734.219C320.035 732.911 318.13 730.364 316.388 726.711C315.629 719.118 317.51 715.208 325.525 713.159Z"/><path fill="white" d="M325.525 713.159L330.648 715.158C328.06 716.657 324.57 717.458 321.633 718.312C320.599 720.375 318.855 725.271 318.136 726.221L316.388 726.711C315.629 719.118 317.51 715.208 325.525 713.159Z"/><path fill="#F8BA46" d="M318.216 684.294C320.792 683.855 331.566 684.352 333.374 686.002C329.39 694.854 329.771 700.55 328.805 710.121C326.805 710.108 324.608 710.039 322.63 710.146L319.959 710.897C319.556 709.186 320.901 702.138 320.987 699.5C321.188 693.315 320.735 691.208 319.131 685.351L318.216 684.294Z"/><path fill="#F8C24E" d="M319.131 685.351L319.782 684.847L320.275 685.047C323.126 686.18 324.774 686.523 327.797 686.927C326.7 692.676 324.312 704.733 322.63 710.146L319.959 710.897C319.556 709.186 320.901 702.138 320.987 699.5C321.188 693.315 320.735 691.208 319.131 685.351Z"/><path fill="#D49330" d="M314.778 676.559C322.329 677.866 329.576 678.021 337.349 679.623C336.714 680.649 333.958 685.267 333.374 686.002C331.566 684.352 320.792 683.855 318.216 684.294C318.028 684.072 317.043 682.343 316.827 681.977L315.948 684.037L315.544 683.479C315.626 680.663 315.288 679.276 314.778 676.559Z"/><path fill="#86989E" d="M332.694 711.586C332.776 711.643 333.52 712.182 333.668 712.21C336.256 712.707 337.255 715.383 339.412 716.271C339.729 713.151 340.369 710.123 341.919 707.379C341.106 713.036 339.572 726.016 336.601 730.186C335.902 723.735 337.561 717.85 330.648 715.158L325.525 713.159C328.292 712.864 331.116 713.942 332.694 711.586Z"/><path fill="#738E94" d="M312.121 674.39C314.336 671.796 315.688 671.129 319.23 670.676C323.637 670.112 337.943 671.089 340.978 673.558L340.484 674.084C335.147 672.475 319.424 669.376 315.119 673.058C314.65 674.619 314.65 673.804 315.54 675.561C318.911 677.653 334.761 675.828 337.349 679.623C329.576 678.021 322.329 677.866 314.778 676.559C315.288 679.276 315.626 680.663 315.544 683.479C313.192 682.831 313.516 682.602 312.011 680.646C311.337 678.198 311.744 676.9 312.121 674.39Z"/><path fill="#D49330" d="M344.642 716.365C345.133 710.863 346.504 701.408 349.109 696.57C352.968 689.403 359.234 688.099 366.054 685.92C368.003 693.327 367.538 710.998 366.966 718.741C365.549 713.059 368.318 701.922 364.618 698.859C356.706 697.779 349.176 714.713 345.467 716.091C345.196 716.192 344.917 716.274 344.642 716.365Z"/><path fill="#E7AB43" d="M278.396 687.208C278.523 688.68 278.558 695.311 278.733 695.628C282.468 702.419 282.643 706.21 277.342 712.633C275.657 714.675 274.933 715.651 271.806 716.64C273.997 709.53 274.669 704.627 277.449 697.133C278.701 692.692 277.215 688.929 278.396 687.208Z"/><path fill="#F8C24E" d="M277.859 663.868C280.78 663.434 283.91 663.863 286.892 664.1L286.93 664.415C286.423 666.575 286.811 667.872 287.789 669.95C286.042 670.111 283.381 669.85 281.631 669.584C278.282 667.247 280.073 667.818 278.342 664.716L277.859 663.868Z"/><path fill="#F8C24E" d="M373.054 682.873C388.887 685.018 406.674 684.897 422.667 685.976C460.062 688.5 497.166 687.086 534.533 686.459C533.441 688.769 532.241 691.203 531.203 693.522C528.477 705.966 529.882 713.597 531.104 726.124C531.417 729.335 530.569 734.242 530.818 737.343C531.432 735.121 532.014 729.96 532.358 727.451C533.612 729.173 534.926 737.113 533.251 738.632C531.259 738.751 528.934 738.698 527.164 739.494C480.459 741.387 433.681 740.227 387.127 736.023C381.317 731.65 378.996 736.254 372.924 729.112C372.582 713.891 372.498 698.405 372.041 683.296L372.531 683.009L373.054 682.873Z"/><path fill="#F4D168" d="M373.054 682.873C388.887 685.018 406.674 684.897 422.667 685.976C460.062 688.5 497.166 687.086 534.533 686.459C533.441 688.769 532.241 691.203 531.203 693.522C513.37 693.281 495.31 694.51 477.221 694.131C442.162 693.396 407.598 691.069 372.641 689.054L372.531 683.009L373.054 682.873Z"/><path fill="#C8872A" d="M366.054 685.92C367.894 685.288 370.221 684.128 372.041 683.296C372.498 698.405 372.582 713.891 372.924 729.112C378.996 736.254 381.317 731.65 387.127 736.023C433.681 740.227 480.459 741.387 527.164 739.494L535.224 739.695C535.055 736.874 534.765 734.562 535.25 731.775C535.681 738.313 537.246 773.3 539.292 776.385C539.021 770.962 538.204 765.671 537.617 760.343C537.135 755.973 537.055 748.904 537.044 744.436L537.287 744.279C537.888 757.734 539.087 775.784 543.14 788.187L540.333 787.342C539.912 784.123 538.748 779.605 538 776.327C537.229 769.898 536.384 763.785 535.904 757.316C535.605 753.274 535.699 748.377 535.115 744.575C514.418 744.193 492.903 745.941 471.326 745.405C437.848 744.574 406.103 741.997 372.87 739.852L372.81 740.429C372.265 746.244 372.909 752.019 372.341 757.889C371.965 761.772 369.246 767.472 368.838 770.501C368.597 770.918 368.353 771.334 368.107 771.748C363.819 778.92 358.651 785.345 349.633 787.081C332.358 790.406 294.106 784.71 279.127 776.536C267.274 770.069 264.013 754.729 261.502 743.329L258.523 741.316C258.231 736.088 258.426 729.791 258.457 724.484C259.423 723.661 258.886 724.005 260.445 723.865L260.133 717.912C270.061 709.859 275.712 703.638 277.163 690.493C277.248 692.595 277.281 695.071 277.449 697.133C274.669 704.627 273.997 709.53 271.806 716.64C268.748 729.581 265.593 754.167 273.054 766.105C278.546 774.64 292.222 778 301.495 779.424C316.508 781.729 342.987 788.021 356.238 779.696C372.195 769.67 366.882 735.341 366.966 718.741C367.538 710.998 368.003 693.327 366.054 685.92Z"/><path fill="#358764" d="M258.457 724.484C259.423 723.661 258.886 724.005 260.445 723.865C260.715 730.082 261.397 737.32 261.502 743.329L258.523 741.316C258.231 736.088 258.426 729.791 258.457 724.484Z"/><path fill="#F8BA46" d="M372.924 729.112C378.996 736.254 381.317 731.65 387.127 736.023C382.384 736.128 377.649 735.803 372.911 735.55L372.924 729.112Z"/><path fill="#439B70" d="M372.87 739.852C406.103 741.997 437.848 744.574 471.326 745.405C492.903 745.941 514.418 744.193 535.115 744.575C535.169 746.211 535.451 747.672 534.642 749.005C531.555 750.456 466.964 750.183 458.747 749.83C439.511 749.003 414.385 747.116 394.502 745.858C388.904 745.504 378.926 745.512 373.55 744.744C372.909 743.527 372.966 741.369 372.87 739.852Z"/><path fill="#439B70" d="M258.523 741.316L261.502 743.329C264.013 754.729 267.274 770.069 279.127 776.536C294.106 784.71 332.358 790.406 349.633 787.081C358.651 785.345 363.819 778.92 368.107 771.748C368.353 771.334 368.597 770.918 368.838 770.501L369.228 770.588C370.371 768.709 370.458 768.151 371.104 765.998C369.949 777.616 361.033 790.486 348.464 790.844C327.697 790.949 305.704 789.184 285.659 783.445C264.18 777.295 260.675 760.269 258.523 741.316Z"/><path fill="#AD7B2B" d="M540.333 787.342L543.14 788.187C547.91 797.032 552.785 802.26 562.669 805.006C573.201 807.278 583.771 806.319 594.302 804.673C606.85 802.712 614.024 801.616 623.262 792.62C625.135 791.374 626.402 789.068 626.797 788.805L626.649 790.226L626.333 789.448C626.37 790.596 626.227 790.028 626.838 791.131C623.992 797.139 617.671 802.678 611.307 804.558C595.118 809.338 565.252 814.375 550.491 804.4C545.428 798.785 542.185 794.724 540.333 787.342Z"/><path fill="#439B70" d="M538 776.327C538.748 779.605 539.912 784.123 540.333 787.342C542.185 794.724 545.428 798.785 550.491 804.4C542.363 803.554 534.909 784.034 538 776.327Z"/><path fill="#439B70" d="M714.116 477.538C717.769 477.314 721.691 477.472 725.077 477.221C728.008 477.527 728.32 477.761 730.322 480.029C730.52 480.945 730.713 482.236 731.109 483.023C732.986 488.473 734.519 497.69 733.727 503.413C741.8 510.349 750.51 522.186 754.127 532.229C754.602 533.545 757.053 551.1 757.19 552.831C757.86 560.927 755.17 568.941 749.752 574.993C749.06 575.751 748.293 576.466 747.531 577.154C747.749 583.372 747.844 587.539 742.627 591.882C741.86 635.661 711.656 669.64 668.862 677.387L662.484 677.531C658.701 677.366 654.124 676.675 650.152 676.374C650.8 679.852 651.372 681.723 650.358 685.174C646.773 690.062 645.535 690.769 639.77 691.99L639.946 692.485C636.709 693.191 633.149 693.384 629.832 693.669C628.147 688.955 626.396 686.304 623.688 682.121L627.096 680.904C625.04 664.159 609.093 641.529 624.367 628.11C624.163 626.176 633.695 619.83 634.617 617.894C632.357 613.895 629.042 610.909 626.997 607.716C623.338 602.002 618.401 592.256 616.107 585.983C610.556 570.807 607.151 550.976 613.805 535.609C615.781 531.046 620.263 524.321 621.369 519.767C623.29 511.857 621.195 505.86 624.749 498.019C625.447 499.765 625.374 501.65 626.048 503.691L626.521 503.719C627.102 506.132 628.072 510.629 628.842 512.784C630.723 512.552 632.616 511.057 634 509.831L633.848 507.966C635.099 505.253 636.208 506.298 637.849 504.077C639.006 503.813 640.097 503.502 641.271 503.407C641.045 502.297 640.905 497.462 640.825 496.023C644.674 491.196 661.435 490.79 667.905 490.126L672.868 492.542C677.029 492.22 691.928 491.257 694.806 489.594C697.174 484.225 697.607 486.912 697.568 479.596L698.025 478.204C699.688 477.79 702.856 477.638 704.675 477.493L714.116 477.538Z"/><path fill="#77C881" d="M714.116 477.538C717.769 477.314 721.691 477.472 725.077 477.221C728.008 477.527 728.32 477.761 730.322 480.029C730.52 480.945 730.713 482.236 731.109 483.023C732.986 488.473 734.519 497.69 733.727 503.413C741.8 510.349 750.51 522.186 754.127 532.229C754.602 533.545 757.053 551.1 757.19 552.831C757.86 560.927 755.17 568.941 749.752 574.993C749.06 575.751 748.293 576.466 747.531 577.154C746.962 575.349 746.677 573.724 745.317 572.461C741.996 571.935 737.385 576.9 734.404 578.641C724.393 584.484 714.954 582.677 704.716 579.634L704.374 579.6C693.422 571.981 688.763 569.206 682.545 556.693C680.399 553.2 678.138 549.815 676.718 545.972L677.643 541.039C679.483 534.648 678.464 529.302 678.347 522.486L678.376 518.554C678.442 513.252 678.524 508.916 677.76 503.653L680.343 500.266C678.976 497.773 679.008 497.629 676.427 496.914C676.455 496.322 676.316 495.967 676.186 495.364C674.664 494.344 674.097 493.894 672.868 492.542C677.029 492.22 691.928 491.257 694.806 489.594C697.174 484.225 697.607 486.912 697.568 479.596L698.025 478.204C699.688 477.79 702.856 477.638 704.675 477.493L714.116 477.538Z"/><path fill="#439B70" d="M714.116 477.538C717.769 477.314 721.691 477.472 725.077 477.221C728.008 477.527 728.32 477.761 730.322 480.029C730.52 480.945 730.713 482.236 731.109 483.023C732.986 488.473 734.519 497.69 733.727 503.413C741.8 510.349 750.51 522.186 754.127 532.229C754.602 533.545 757.053 551.1 757.19 552.831C757.86 560.927 755.17 568.941 749.752 574.993C749.06 575.751 748.293 576.466 747.531 577.154C746.962 575.349 746.677 573.724 745.317 572.461C741.996 571.935 737.385 576.9 734.404 578.641C724.393 584.484 714.954 582.677 704.716 579.634L704.374 579.6C693.422 571.981 688.763 569.206 682.545 556.693C687.271 555.981 690.987 558.803 695.401 558.82C699.366 558.835 705.192 555.515 708.749 553.614C707.988 563.851 710.878 569.664 722.311 571.566C730.42 572.341 740.204 569.016 746.767 564.315C754.828 558.541 753.331 543.665 747.578 536.819C746.465 535.494 746.318 535.761 744.503 535.722L743.661 535.709C742.727 530.311 747.176 527.438 742.729 519.442C733.92 503.601 717.283 493.423 699.006 494.165C691.33 494.476 686.985 496.927 680.343 500.266C678.976 497.773 679.008 497.629 676.427 496.914C676.455 496.322 676.316 495.967 676.186 495.364C674.664 494.344 674.097 493.894 672.868 492.542C677.029 492.22 691.928 491.257 694.806 489.594C697.174 484.225 697.607 486.912 697.568 479.596L698.025 478.204C699.688 477.79 702.856 477.638 704.675 477.493L714.116 477.538Z"/><path fill="#5B7174" d="M714.116 477.538C717.769 477.314 721.691 477.472 725.077 477.221C728.008 477.527 728.32 477.761 730.322 480.029C730.52 480.945 730.713 482.236 731.109 483.023C732.986 488.473 734.519 497.69 733.727 503.413C732.833 502.495 732.038 501.45 731.225 500.45C724.343 496.111 721.647 495.079 714.089 492.258C708.364 490.811 698.686 491.159 694.806 489.594C697.174 484.225 697.607 486.912 697.568 479.596L698.025 478.204C699.688 477.79 702.856 477.638 704.675 477.493L714.116 477.538Z"/><path fill="#2F3C3D" d="M704.675 477.493L714.116 477.538C711.202 477.955 710.793 477.592 709.149 479.533C708.342 482.898 712.929 487.906 714.28 491.68L714.089 492.258C708.364 490.811 698.686 491.159 694.806 489.594C697.174 484.225 697.607 486.912 697.568 479.596L698.025 478.204C699.688 477.79 702.856 477.638 704.675 477.493Z"/><path fill="#AD7B2B" d="M725.077 477.221C728.008 477.527 728.32 477.761 730.322 480.029C730.52 480.945 730.713 482.236 731.109 483.023C732.986 488.473 734.519 497.69 733.727 503.413C732.833 502.495 732.038 501.45 731.225 500.45C730.378 491.38 728.377 485.543 725.077 477.221Z"/><path fill="#358764" d="M678.347 522.486C682.478 525.041 686.677 523.165 690.97 524.364L687.959 527.294C685.991 537.01 684.566 540.926 693.031 547.254C696.175 547.363 699.852 547.639 702.881 546.994C705.21 547.489 705.442 547.381 707.861 547.04C709.718 545.262 709.937 544.567 712.506 545.068C710.288 548.262 709.604 549.794 708.749 553.614C705.192 555.515 699.366 558.835 695.401 558.82C690.987 558.803 687.271 555.981 682.545 556.693C680.399 553.2 678.138 549.815 676.718 545.972L677.643 541.039C679.483 534.648 678.464 529.302 678.347 522.486Z"/><path fill="#439B70" d="M707.861 547.04C704.384 554.306 692.071 554.748 686.415 548.985C683.618 546.159 682.102 542.31 682.222 538.335C682.383 533.995 684.812 530.141 687.959 527.294C685.991 537.01 684.566 540.926 693.031 547.254C696.175 547.363 699.852 547.639 702.881 546.994C705.21 547.489 705.442 547.381 707.861 547.04Z"/><path fill="#439B70" d="M678.376 518.554C689.114 526.365 702.315 510.734 707.307 513.734C706.392 515.475 698.58 518.108 696.488 520.047C695.822 520.663 691.694 523.938 690.97 524.364C686.677 523.165 682.478 525.041 678.347 522.486L678.376 518.554Z"/><path fill="#439B70" d="M702.881 546.994C707.615 545.291 716.853 537.764 720.647 539.213L720.764 540.134C718.913 541.976 715.184 542.814 712.506 545.068C709.937 544.567 709.718 545.262 707.861 547.04C705.442 547.381 705.21 547.489 702.881 546.994Z"/><path fill="#77C881" d="M640.825 496.023C644.674 491.196 661.435 490.79 667.905 490.126L672.868 492.542C674.097 493.894 674.664 494.344 676.186 495.364C676.316 495.967 676.455 496.322 676.427 496.914C679.008 497.629 678.976 497.773 680.343 500.266L677.76 503.653C678.524 508.916 678.442 513.252 678.376 518.554L678.347 522.486C678.464 529.302 679.483 534.648 677.643 541.039L676.718 545.972C673.149 548.151 671.025 548.685 667.046 549.856L666.529 550.439L668.167 554.943L661.092 554.459C661.847 555.144 663.101 556.262 663.698 557.033C671.666 567.547 672.227 588.006 661.55 596.762C649.702 606.48 635.798 601.563 627.494 590.118C616.666 575.191 612.846 556.092 615.334 538.058L615.308 537.398C615.059 531.867 622.11 523.478 625.113 519.201C625.028 518.608 624.943 518.016 624.859 517.424C626.589 515.625 627.417 514.794 628.842 512.784C630.723 512.552 632.616 511.057 634 509.831L633.848 507.966C635.099 505.253 636.208 506.298 637.849 504.077C639.006 503.813 640.097 503.502 641.271 503.407C641.045 502.297 640.905 497.462 640.825 496.023Z"/><path fill="white" d="M640.825 496.023C644.674 491.196 661.435 490.79 667.905 490.126L672.868 492.542C674.097 493.894 674.664 494.344 676.186 495.364C676.316 495.967 676.455 496.322 676.427 496.914C679.008 497.629 678.976 497.773 680.343 500.266L677.76 503.653C678.524 508.916 678.442 513.252 678.376 518.554L678.347 522.486C678.464 529.302 679.483 534.648 677.643 541.039C676.6 541.35 676.595 541.334 675.5 541.356C675.324 540.722 675.216 540.294 675.087 539.64L674.983 539.087L673.813 538.536C666.366 540.131 666.386 539.284 659.578 543.384C659.31 543.597 658.605 543.864 658.253 544.018C656.407 543.586 655.435 542.64 653.906 541.502C650.493 530.515 649.633 524.918 645.1 513.488C644.254 509.662 644.189 508.666 641.048 506.487L641.271 503.407C641.045 502.297 640.905 497.462 640.825 496.023Z"/><path fill="#738E94" d="M640.825 496.023C644.674 491.196 661.435 490.79 667.905 490.126L672.868 492.542C674.097 493.894 674.664 494.344 676.186 495.364C676.316 495.967 676.455 496.322 676.427 496.914C679.008 497.629 678.976 497.773 680.343 500.266L677.76 503.653C678.524 508.916 678.442 513.252 678.376 518.554L678.347 522.486C678.464 529.302 679.483 534.648 677.643 541.039C676.6 541.35 676.595 541.334 675.5 541.356C675.324 540.722 675.216 540.294 675.087 539.64L674.983 539.087L673.813 538.536C677.232 532.489 674.898 501.139 668.692 494.857C659.495 492.822 639.635 493.657 645.671 506.785C649.643 515.424 654.92 536.727 659.578 543.384C659.31 543.597 658.605 543.864 658.253 544.018C656.407 543.586 655.435 542.64 653.906 541.502C650.493 530.515 649.633 524.918 645.1 513.488C644.254 509.662 644.189 508.666 641.048 506.487L641.271 503.407C641.045 502.297 640.905 497.462 640.825 496.023Z"/><path fill="#439B70" d="M676.427 496.914C679.008 497.629 678.976 497.773 680.343 500.266L677.76 503.653C676.858 501.326 676.583 499.371 676.427 496.914Z"/><path fill="#439B70" d="M642.674 515.083C643.004 512.247 642.112 513.235 642.404 510.068C643.402 511.269 643.437 511.619 643.919 513.07L644.066 513.525L645.1 513.488C649.633 524.918 650.493 530.515 653.906 541.502C655.435 542.64 656.407 543.586 658.253 544.018C658.605 543.864 659.31 543.597 659.578 543.384C666.386 539.284 666.366 540.131 673.813 538.536L674.983 539.087L675.087 539.64C675.216 540.294 675.324 540.722 675.5 541.356C676.595 541.334 676.6 541.35 677.643 541.039L676.718 545.972C673.149 548.151 671.025 548.685 667.046 549.856L666.529 550.439L668.167 554.943L661.092 554.459C647.55 552.071 650.317 538.399 647.786 528.786C646.638 524.425 644.022 519.65 642.674 515.083Z"/><path fill="#5B7174" d="M673.813 538.536L674.983 539.087L675.087 539.64C675.216 540.294 675.324 540.722 675.5 541.356C676.595 541.334 676.6 541.35 677.643 541.039L676.718 545.972C673.149 548.151 671.025 548.685 667.046 549.856L666.529 550.439C665.35 547.144 657.024 552.177 653.906 541.502C655.435 542.64 656.407 543.586 658.253 544.018C658.605 543.864 659.31 543.597 659.578 543.384C666.386 539.284 666.366 540.131 673.813 538.536Z"/><path fill="#56AD7E" d="M637.849 504.077C639.006 503.813 640.097 503.502 641.271 503.407L641.048 506.487C644.189 508.666 644.254 509.662 645.1 513.488L644.066 513.525L643.919 513.07C643.437 511.619 643.402 511.269 642.404 510.068C642.112 513.235 643.004 512.247 642.674 515.083L640.834 510.783C638.327 510.505 631.652 514.855 629.553 516.556C622.017 522.659 618.624 529.236 615.334 538.058L615.308 537.398C615.059 531.867 622.11 523.478 625.113 519.201C625.028 518.608 624.943 518.016 624.859 517.424C626.589 515.625 627.417 514.794 628.842 512.784C630.723 512.552 632.616 511.057 634 509.831L633.848 507.966C635.099 505.253 636.208 506.298 637.849 504.077Z"/><path fill="#E7AB43" d="M637.849 504.077C639.006 503.813 640.097 503.502 641.271 503.407L641.048 506.487C638.17 507.63 636.685 508.171 634 509.831L633.848 507.966C635.099 505.253 636.208 506.298 637.849 504.077Z"/><defs><linearGradient id="gradient_3" gradientUnits="userSpaceOnUse" x1="650.34717" y1="650.31207" x2="620.1496" y2="662.78778"><stop offset="0" stop-color="#2B4545"/><stop offset="1" stop-color="#4B5E5D"/></linearGradient></defs><path fill="url(#gradient_3)" d="M624.367 628.11C628.354 625.339 632.751 620.625 636.45 618.559C638.584 628.974 640.532 633.214 647.895 641.166C649.878 643.078 651.853 645.026 653.91 646.856C651.594 650.153 649.401 653.28 647.413 656.792C647.499 657.932 647.607 660.229 647.764 661.274C648.22 664.995 649.168 673.071 650.152 676.374C650.8 679.852 651.372 681.723 650.358 685.174C646.773 690.062 645.535 690.769 639.77 691.99L639.946 692.485C636.709 693.191 633.149 693.384 629.832 693.669C628.147 688.955 626.396 686.304 623.688 682.121L627.096 680.904C625.04 664.159 609.093 641.529 624.367 628.11Z"/><path fill="#F4D168" d="M627.096 680.904C629.067 688.693 632.027 690.953 639.77 691.99L639.946 692.485C636.709 693.191 633.149 693.384 629.832 693.669C628.147 688.955 626.396 686.304 623.688 682.121L627.096 680.904Z"/><path fill="#2D624D" d="M647.895 641.166C649.878 643.078 651.853 645.026 653.91 646.856C651.594 650.153 649.401 653.28 647.413 656.792C647.081 652.826 647.404 645.091 647.895 641.166Z"/><path fill="#D49330" d="M666.529 550.439L667.046 549.856C671.025 548.685 673.149 548.151 676.718 545.972C678.138 549.815 680.399 553.2 682.545 556.693C688.763 569.206 693.422 571.981 704.374 579.6L704.716 579.634C714.954 582.677 724.393 584.484 734.404 578.641C737.385 576.9 741.996 571.935 745.317 572.461C746.677 573.724 746.962 575.349 747.531 577.154C747.749 583.372 747.844 587.539 742.627 591.882C737.733 595.961 734.275 598.672 728.178 600.943C718.794 604.525 708.362 604.175 699.239 599.972C682.532 592.301 674.252 571.216 668.167 554.943L666.529 550.439Z"/><path fill="#F8C24E" d="M698.451 594.705C700.287 595.72 705.359 598.082 707.391 598.486C709.713 598.947 714.071 598.385 716.34 599.352C703.48 599.508 695.392 595.698 687.06 585.803C682.11 579.923 678.694 575.171 679.258 566.945C679.338 565.787 679.658 565.803 680.478 565.208C685.99 565.568 696.434 578.73 704.374 579.6L704.716 579.634C707.535 584.548 720.781 583.906 725.31 586.213L725.396 586.589C723.163 586.348 722.463 585.805 720.355 586.413C719.569 597.312 706.302 595.329 698.451 594.705Z"/><path fill="#439B70" d="M653.91 646.856C655.758 648.438 658.547 649.116 660.905 649.74C656.183 656.695 655.53 658.499 647.764 661.274C647.607 660.229 647.499 657.932 647.413 656.792C649.401 653.28 651.594 650.153 653.91 646.856Z"/><path fill="#77C881" d="M626.048 503.691L626.521 503.719C627.102 506.132 628.072 510.629 628.842 512.784C627.417 514.794 626.589 515.625 624.859 517.424C624.02 515.793 624.577 506.653 624.651 504.174L625.082 504.421L625.06 504.388L625.646 504.608L626.048 503.691Z"/><defs><linearGradient id="gradient_4" gradientUnits="userSpaceOnUse" x1="211.74696" y1="583.85144" x2="157.50899" y2="710.82367"><stop offset="0" stop-color="#88D57E"/><stop offset="1" stop-color="#6ABF86"/></linearGradient></defs><path fill="url(#gradient_4)" d="M122.236 545.36L123.054 545.798L124.97 546.18C129.46 547.974 133.928 549.88 138.589 551.153C139.72 555.702 141.048 564.478 142.635 568.008C150.172 568.683 153.635 569.65 160.243 573.236C163.885 575.212 171.462 583.102 173.237 583.373C174.941 585.528 176.136 587.061 177.567 589.395C179.771 592.992 182.425 600.492 185.309 603.102L187.319 606.988L194.823 606.973C205.408 606.979 217.917 606.695 228.342 607.432L236.454 608.167C238.566 608.688 243.344 609.645 245.36 608.986C247.622 611.532 251.847 611.515 254.689 613.063C268.286 620.465 274.037 632.622 269.49 647.649C274.774 653.863 275.907 655.658 277.556 663.812L277.536 669.552L278.548 670.021C279.766 674.945 278.412 681.864 278.396 687.208C277.215 688.929 278.701 692.692 277.449 697.133C277.281 695.071 277.248 692.595 277.163 690.493C275.712 703.638 270.061 709.859 260.133 717.912L260.445 723.865C258.886 724.005 259.423 723.661 258.457 724.484L258.371 719.511C229.067 737.474 185.132 731.453 155.021 718.464C153.695 717.439 147.228 713.853 145.048 712.38C136.981 706.925 131.579 702.059 124.797 695.146C119.046 689.989 110.739 676.686 106.901 669.792C90.1709 639.744 96.9854 607.359 108.88 577.11C113.116 566.337 117.115 555.849 122.236 545.36Z"/><path fill="#439B70" d="M161.299 606.411L171.651 606.644C173.329 607.745 184.937 607.592 187.319 606.988L194.823 606.973C205.408 606.979 217.917 606.695 228.342 607.432L236.454 608.167C238.566 608.688 243.344 609.645 245.36 608.986C247.622 611.532 251.847 611.515 254.689 613.063C268.286 620.465 274.037 632.622 269.49 647.649C274.774 653.863 275.907 655.658 277.556 663.812L277.536 669.552L278.548 670.021C279.766 674.945 278.412 681.864 278.396 687.208C277.215 688.929 278.701 692.692 277.449 697.133C277.281 695.071 277.248 692.595 277.163 690.493C275.712 703.638 270.061 709.859 260.133 717.912L260.445 723.865C258.886 724.005 259.423 723.661 258.457 724.484L258.371 719.511C229.067 737.474 185.132 731.453 155.021 718.464C153.695 717.439 147.228 713.853 145.048 712.38C136.981 706.925 131.579 702.059 124.797 695.146L125.309 694.859C127.16 695.562 129.021 698.759 131.491 699.796C132.3 698.398 132.967 697.662 133.609 696.112C133.284 694.144 131.257 693.396 130.057 691.534C130.89 691.651 139.82 699.786 141.605 701.12C148.177 705.987 155.251 710.134 162.708 713.491C185.689 723.785 221.885 729.66 245.951 720.299C261.878 714.104 275.816 699.55 268.363 681.453C267.845 678.933 268.378 677.589 268.951 675.077C274.064 665.992 270.691 652.616 259.847 649.544C260.731 647.895 261.795 646.195 262.76 644.579C263.504 643.62 264.767 641.412 265.445 640.306C266.11 620.891 253.13 616.708 237.225 614.285C221.062 611.823 206.189 612.153 189.901 612.426C179.717 612.597 170.167 611.654 161.299 606.411Z"/><path fill="#D49330" d="M277.536 669.552L278.548 670.021C279.766 674.945 278.412 681.864 278.396 687.208C277.215 688.929 278.701 692.692 277.449 697.133C277.281 695.071 277.248 692.595 277.163 690.493C276.909 685.794 276.097 682.853 274.982 678.323C275.943 675.347 276.716 672.564 277.536 669.552Z"/><defs><linearGradient id="gradient_5" gradientUnits="userSpaceOnUse" x1="167.35306" y1="578.58826" x2="144.05862" y2="599.76477"><stop offset="0" stop-color="#3A8D67"/><stop offset="1" stop-color="#55AE7B"/></linearGradient></defs><path fill="url(#gradient_5)" d="M142.635 568.008C150.172 568.683 153.635 569.65 160.243 573.236C163.885 575.212 171.462 583.102 173.237 583.373C174.941 585.528 176.136 587.061 177.567 589.395C179.771 592.992 182.425 600.492 185.309 603.102L187.319 606.988C184.937 607.592 173.329 607.745 171.651 606.644L178.091 606.524C170.33 586.085 156.949 570.765 132.85 574.023C128.834 574.566 123.358 577.658 120.487 576.218C120.245 573.095 127.32 569.898 129.918 569.417C134.515 569.13 137.527 567.785 142.635 568.008Z"/><path fill="#56AD7E" d="M268.951 675.077C268.378 677.589 267.845 678.933 268.363 681.453C260.236 681.314 245.068 688.266 236.03 682.996L235.961 682.228C244.11 677.949 257.648 684.086 268.394 675.528L268.951 675.077Z"/><path fill="#439B70" d="M123.054 545.798L124.97 546.18C129.46 547.974 133.928 549.88 138.589 551.153C139.72 555.702 141.048 564.478 142.635 568.008C137.527 567.785 134.515 569.13 129.918 569.417C131.532 568.047 133.605 568.234 136.142 567.093C135.265 562.079 133.879 555.917 133.582 550.915C132.755 550.227 125.765 547.273 123.663 546.133L123.054 545.798Z"/><path fill="#56AD7E" d="M262.76 644.579C261.795 646.195 260.731 647.895 259.847 649.544C253.567 648.813 238.935 650.185 234.915 646.802L235.342 646.094C243.034 643.462 253.877 646.652 262.76 644.579Z"/><path fill="#B9C1C9" d="M178.461 429.998C192.709 429.768 203.777 433.282 214.293 443.44C225.607 454.225 232.086 469.122 232.259 484.753C232.511 501.979 224.588 519.567 212.036 531.284C218.1 547.745 224.766 563.978 232.022 579.95C236.48 589.893 240.97 598.723 245.36 608.986C243.344 609.645 238.566 608.688 236.454 608.167L228.342 607.432C217.917 606.695 205.408 606.979 194.823 606.973L187.319 606.988L185.309 603.102C182.425 600.492 179.771 592.992 177.567 589.395C176.136 587.061 174.941 585.528 173.237 583.373C171.462 583.102 163.885 575.212 160.243 573.236C153.635 569.65 150.172 568.683 142.635 568.008C141.048 564.478 139.72 555.702 138.589 551.153C133.928 549.88 129.46 547.974 124.97 546.18L123.054 545.798L122.236 545.36C115.996 540.781 109.578 537.563 104.353 531.524C86.0634 510.385 80.7302 469.27 104.354 449.809C118.007 438.561 119.293 443.679 124.425 457.345C127.691 466.042 131.071 477.761 135.773 485.407L136.089 485.912C138.892 492.878 147.358 492.97 153.018 491.229C171.357 485.37 177.359 475.369 166.342 458.306C153.501 438.418 155.689 433.446 178.461 429.998Z"/><defs><linearGradient id="gradient_6" gradientUnits="userSpaceOnUse" x1="269.09436" y1="539.88739" x2="90.458939" y2="472.76236"><stop offset="0" stop-color="#4D6C70"/><stop offset="1" stop-color="#839499"/></linearGradient></defs><path fill="url(#gradient_6)" d="M178.461 429.998C192.709 429.768 203.777 433.282 214.293 443.44C225.607 454.225 232.086 469.122 232.259 484.753C232.511 501.979 224.588 519.567 212.036 531.284C218.1 547.745 224.766 563.978 232.022 579.95C236.48 589.893 240.97 598.723 245.36 608.986C243.344 609.645 238.566 608.688 236.454 608.167C234.486 605.803 228.661 592.253 227.02 588.575C218.283 569.11 209.867 549.502 201.777 529.76C201.689 528.673 201.403 527.022 202.407 526.201C227.784 505.461 231.165 467.812 206.1 445.316C196.227 436.455 183.928 434.281 170.862 435.354C159.377 436.166 161.546 441.505 166.507 448.837C172.1 457.997 181.964 473.004 173.676 483.187C162.071 497.445 135.813 502.347 125.536 483.691C119.426 473.267 116.977 461.496 115.508 449.651C115.443 448.489 113.325 446.598 112.205 447.171C85.4037 460.879 92.7645 501.877 108.862 521.24C116.941 530.957 123.951 533.501 134.863 538.687C132.995 541.313 135.721 543.591 132.252 546.054C129.374 546.189 127.718 545.4 124.97 546.18L123.054 545.798L122.236 545.36C115.996 540.781 109.578 537.563 104.353 531.524C86.0634 510.385 80.7302 469.27 104.354 449.809C118.007 438.561 119.293 443.679 124.425 457.345C127.691 466.042 131.071 477.761 135.773 485.407L136.089 485.912C138.892 492.878 147.358 492.97 153.018 491.229C171.357 485.37 177.359 475.369 166.342 458.306C153.501 438.418 155.689 433.446 178.461 429.998Z"/><path fill="#5B7174" d="M134.863 538.687C137.656 539.438 140.169 540.035 143.037 540.494C151.088 541.782 159.156 541.312 167.263 541.489C168.008 541.505 168.555 542.156 168.992 542.621C168.442 546.105 165.642 547.839 163.431 550.915C167.628 566.082 180.068 587.573 185.309 603.102C182.425 600.492 179.771 592.992 177.567 589.395C176.136 587.061 174.941 585.528 173.237 583.373C171.462 583.102 163.885 575.212 160.243 573.236C153.635 569.65 150.172 568.683 142.635 568.008C141.048 564.478 139.72 555.702 138.589 551.153C133.928 549.88 129.46 547.974 124.97 546.18C127.718 545.4 129.374 546.189 132.252 546.054C135.721 543.591 132.995 541.313 134.863 538.687Z"/><path fill="#56AD7E" d="M138.589 551.153C144.165 552.552 152.815 553.123 158.488 552.623C162.097 560.468 165.454 568.37 169.044 576.225C170.423 579.241 172.065 581.071 173.237 583.373C171.462 583.102 163.885 575.212 160.243 573.236C153.635 569.65 150.172 568.683 142.635 568.008C141.048 564.478 139.72 555.702 138.589 551.153Z"/><path fill="#DEE0DF" d="M201.777 529.76C209.867 549.502 218.283 569.11 227.02 588.575C228.661 592.253 234.486 605.803 236.454 608.167L228.342 607.432C226.041 603.468 220.306 590.165 218.35 585.608C210.935 568.332 202.697 550.802 197.614 532.722L201.777 529.76Z"/><path fill="#86989E" d="M168.992 542.621C169.163 545.747 172.107 552.504 173.347 555.679C177.652 566.764 182.201 577.753 186.99 588.638C188.889 593.02 193.533 603.023 194.823 606.973L187.319 606.988L185.309 603.102C180.068 587.573 167.628 566.082 163.431 550.915C165.642 547.839 168.442 546.105 168.992 542.621Z"/><defs><linearGradient id="gradient_7" gradientUnits="userSpaceOnUse" x1="679.17841" y1="491.86865" x2="616.17389" y2="397.22971"><stop offset="0" stop-color="#CD842C"/><stop offset="1" stop-color="#FFD053"/></linearGradient></defs><path fill="url(#gradient_7)" d="M661.978 367.466C662.875 368.754 662.883 368.245 662.55 369.9C661.861 373.333 660.27 377.41 659.809 380.837C657.701 396.512 659.419 411.03 663.732 426.075C666.474 435.347 669.212 444.178 673.112 453.073C674.358 455.917 678.352 461.418 679.145 463.516C684.079 470.635 688.293 479.667 698.025 478.204L697.568 479.596C697.607 486.912 697.174 484.225 694.806 489.594C691.928 491.257 677.029 492.22 672.868 492.542L667.905 490.126C661.435 490.79 644.674 491.196 640.825 496.023C640.905 497.462 641.045 502.297 641.271 503.407C640.097 503.502 639.006 503.813 637.849 504.077C636.208 506.298 635.099 505.253 633.848 507.966L634 509.831C632.616 511.057 630.723 512.552 628.842 512.784C628.072 510.629 627.102 506.132 626.521 503.719L626.431 498.959C626.775 497.47 627.339 495.217 625.995 494.139C619.245 488.724 611.373 485.422 605.96 478.232C591.197 460.545 585.398 433.834 597.323 413.03C601.76 405.289 603.643 407.718 608.102 402.274C613.231 399.189 622.844 392.544 627.872 389.39C631.977 386.814 653.866 373.609 655.888 371.353C658.142 369.369 659.267 368.651 661.978 367.466Z"/><path fill="#AD7B2B" d="M668.615 487.977C672.585 488.371 688.072 488.305 691.819 486.316C693.634 485.352 694.16 481.651 694.745 479.564C696.282 478.924 695.513 479.163 697.568 479.596C697.607 486.912 697.174 484.225 694.806 489.594C691.928 491.257 677.029 492.22 672.868 492.542L667.905 490.126C661.435 490.79 644.674 491.196 640.825 496.023C640.437 494.384 640.614 493.22 640.652 491.506C651.883 486.641 656.363 487.341 668.615 487.977Z"/><path fill="#C8872A" d="M679.145 463.516C684.079 470.635 688.293 479.667 698.025 478.204L697.568 479.596C695.513 479.163 696.282 478.924 694.745 479.564C694.16 481.651 693.634 485.352 691.819 486.316C688.072 488.305 672.585 488.371 668.615 487.977C670.062 486.915 688.012 487.908 693.077 482.394C693.535 480.469 693.684 481.331 692.733 479.704C690.023 478.361 689.354 477.157 687.066 475.37C685.495 474.41 682.884 473.882 681.502 472.682C680.091 471.456 679.499 465.696 679.145 463.516Z"/><path fill="#C8872A" d="M637.849 504.077L637.43 503.835C636.606 501.062 638.686 493.318 640.652 491.506C640.614 493.22 640.437 494.384 640.825 496.023C640.905 497.462 641.045 502.297 641.271 503.407C640.097 503.502 639.006 503.813 637.849 504.077Z"/><defs><linearGradient id="gradient_8" gradientUnits="userSpaceOnUse" x1="219.83931" y1="447.33109" x2="143.64088" y2="333.36533"><stop offset="0" stop-color="#5DB286"/><stop offset="1" stop-color="#82CC85"/></linearGradient></defs><path fill="url(#gradient_8)" d="M210.912 275.321C213.257 282.46 213.041 281.65 210.559 287.93L210.854 288.331C220.625 285.826 232.241 265.219 239.462 256.968C245.549 250.013 254.961 241.819 260.204 235.075C260.025 231.493 253.249 215.654 251.538 211.335C248.427 203.297 245.569 195.164 242.966 186.948C241.675 182.739 241.142 179.316 239.478 175.146L239.152 174.318C239.084 174.154 239.016 173.99 238.947 173.826L239.227 172.949C240.635 174.248 247.899 200.685 249.92 204.651C250.639 206.061 261.572 234.403 261.184 234.898C253.802 244.202 243.817 252.162 236.612 262.181C235.183 264.169 231.643 268.844 230.019 270.526C223.091 277.703 221.85 284.405 217.648 292.236C197.485 329.813 183.074 371.636 176.953 413.882C176.315 418.268 173.376 428.451 178.461 429.998C155.689 433.446 153.501 438.418 166.342 458.306C177.359 475.369 171.357 485.37 153.018 491.229C147.358 492.97 138.892 492.878 136.089 485.912C137.019 482.756 138.381 470.309 138.959 466.305C140.458 456.199 142.365 446.158 144.678 436.207C155.615 389.545 173.784 344.881 198.526 303.835C202.771 296.828 207.092 290.701 211.609 283.904C211.268 280.87 211.057 278.37 210.912 275.321Z"/><defs><linearGradient id="gradient_9" gradientUnits="userSpaceOnUse" x1="546.86664" y1="189.769" x2="614.13141" y2="238.07515"><stop offset="0" stop-color="#52A87B"/><stop offset="1" stop-color="#6DC387"/></linearGradient></defs><path fill="url(#gradient_9)" d="M568.348 159.967C586.652 169.072 594.607 241.185 594.558 261.418C594.319 263.467 594.427 266.825 594.431 268.984C578.819 255.011 563.429 242.787 545.121 232.483C541.411 230.395 537.583 228.153 533.992 225.882C540.491 205.335 554.201 176.174 568.348 159.967Z"/><path fill="#56AD7E" d="M623.259 496.492C625.453 496.739 625.845 496.536 626.431 498.959L626.521 503.719L626.048 503.691C625.374 501.65 625.447 499.765 624.749 498.019C621.195 505.86 623.29 511.857 621.369 519.767C620.263 524.321 615.781 531.046 613.805 535.609C607.151 550.976 610.556 570.807 616.107 585.983C618.401 592.256 623.338 602.002 626.997 607.716C629.042 610.909 632.357 613.895 634.617 617.894C633.695 619.83 624.163 626.176 624.367 628.11C609.093 641.529 625.04 664.159 627.096 680.904L623.688 682.121C622.89 683.557 623.449 683.118 622.22 683.891C618.651 679.482 616.84 678.315 611.869 675.805L612.623 675.334C617.758 677.407 619.481 680.424 623.055 681.385C625.073 681.057 624.203 681.474 625.724 680.021C625.322 672.99 617.76 653.199 616.53 645.043C614.067 643.068 608.514 638.946 606.259 637.186C599.572 631.964 598.01 625.879 593.819 619.614L592.887 620.592L592.48 620.508C594.072 615.767 590.857 610.182 590.137 605.594C586.92 585.092 595.815 565.936 608.853 550.636C610.403 548.818 610.226 540.744 611.332 538.518C618.4 524.284 622.109 514.231 621.755 497.974C618.011 498.711 607.946 500.451 604.582 498.723C612.301 497.775 614.118 498.625 623.259 496.492Z"/><defs><linearGradient id="gradient_10" gradientUnits="userSpaceOnUse" x1="612.16254" y1="455.89474" x2="570.92548" y2="437.99228"><stop offset="0" stop-color="#D79535"/><stop offset="1" stop-color="#FFD554"/></linearGradient></defs><path fill="url(#gradient_10)" d="M608.102 402.274C603.643 407.718 601.76 405.289 597.323 413.03C585.398 433.834 591.197 460.545 605.96 478.232L603.636 477.014C603.357 477.23 600.521 479.422 600.425 479.473C595.958 481.831 592.496 480.812 588.497 484.229C587.04 483.847 585.255 481.004 584.147 479.575L587.753 479.359L588.003 479.064C586.103 478.979 584.602 478.913 582.706 478.985C574.917 466.419 571.196 452.177 572.674 437.401C573.077 433.37 574.827 429.987 575.059 425.969C575.236 425.655 575.42 425.345 575.611 425.039C579.437 418.951 586.234 414.817 593.161 413.228C598.264 407.721 601.662 406.086 608.102 402.274Z"/><path fill="#D49330" d="M584.147 479.575C585.255 481.004 587.04 483.847 588.497 484.229C592.496 480.812 595.958 481.831 600.425 479.473C600.521 479.422 603.357 477.23 603.636 477.014L605.96 478.232C611.373 485.422 619.245 488.724 625.995 494.139C627.339 495.217 626.775 497.47 626.431 498.959C625.845 496.536 625.453 496.739 623.259 496.492C614.118 498.625 612.301 497.775 604.582 498.723C595.278 496.174 585.957 492.751 580.578 484.104L581.363 483.212C584.8 484.332 582.652 487.497 586.98 486.315C586.863 485.361 586.843 485.864 587.111 484.81C587.167 484.91 583.166 479.653 582.706 478.985C584.602 478.913 586.103 478.979 588.003 479.064L587.753 479.359L584.147 479.575Z"/><path fill="#AD7B2B" d="M580.578 484.104L581.363 483.212C584.8 484.332 582.652 487.497 586.98 486.315C586.863 485.361 586.843 485.864 587.111 484.81C595.236 491.756 600.797 494.251 611.91 493.384C614.048 493.208 616.185 493.007 618.319 492.782L623.259 496.492C614.118 498.625 612.301 497.775 604.582 498.723C595.278 496.174 585.957 492.751 580.578 484.104Z"/><defs><linearGradient id="gradient_11" gradientUnits="userSpaceOnUse" x1="570.40564" y1="465.15988" x2="586.4104" y2="455.46579"><stop offset="0" stop-color="#B37327"/><stop offset="1" stop-color="#E9A42B"/></linearGradient></defs><path fill="url(#gradient_11)" d="M580.578 484.104C577.449 481.659 572.035 466.734 571.146 462.731C568.416 450.448 568.572 436.969 575.059 425.969C574.827 429.987 573.077 433.37 572.674 437.401C571.196 452.177 574.917 466.419 582.706 478.985C583.166 479.653 587.167 484.91 587.111 484.81C586.843 485.864 586.863 485.361 586.98 486.315C582.652 487.497 584.8 484.332 581.363 483.212L580.578 484.104Z"/><path fill="#2F3C3D" d="M359.567 489.725C345.501 474.13 335.965 456.021 336.935 434.479C337.1 421.314 346.711 410.412 359.759 408.107C383.895 403.843 408.275 402.1 432.819 399.502C462.409 396.517 492.305 390.23 522.067 390.265C528.864 390.273 538.534 395.979 542.662 401.355C560.739 424.897 546.022 464.166 532.759 486.726C531.547 488.786 529.697 491.663 528.319 493.353C524.596 500.052 513.731 510.779 507.574 515.259C487.62 529.776 459.787 535.162 435.648 531.43C411.347 527.698 388.642 517.022 370.265 500.689C366.484 497.315 362.571 493.811 359.567 489.725Z"/><path fill="#C56E6B" d="M359.567 489.725C367.164 485.918 374.526 478.466 382.971 474.097C411.935 459.113 447.038 454.123 478.644 463.005C492.883 467.111 503.574 473.86 514.915 483.103C518.603 486.108 524.473 491.328 528.319 493.353C524.596 500.052 513.731 510.779 507.574 515.259C487.62 529.776 459.787 535.162 435.648 531.43C411.347 527.698 388.642 517.022 370.265 500.689C366.484 497.315 362.571 493.811 359.567 489.725Z"/><path fill="#2F3C3D" d="M536.279 311.196C552.533 308.582 572.365 316.514 582.977 329.222C587.233 334.319 593.834 344.812 586.705 350.712C580.458 355.882 569.832 343.272 563.061 340.942C556.522 338.691 553.38 337.975 546.122 337.091C517.725 335.884 516.148 355.314 507.735 357.141C505.546 357.617 503.428 357.044 501.644 355.729C499.226 353.947 497.762 350.95 497.393 348.012C496.428 340.336 499.192 332.464 504.025 326.539C511.913 316.868 524.229 312.467 536.279 311.196Z"/><path fill="#2F3C3D" d="M320.256 338.683C337.471 336.986 355.996 344.034 365.28 359.647C369.712 367.101 366.028 376.49 356.292 372.407C352.437 370.79 348.715 367.427 344.701 365.874C334.275 361.426 324.307 362.949 314.003 367C308.42 369.873 307.396 370.482 302.741 374.505C298.57 377.516 294.448 388.809 288.828 388.775C271.412 388.67 277.502 365.657 284.249 357.74C294.416 345.81 305.768 340.592 320.256 338.683Z"/><defs><linearGradient id="gradient_12" gradientUnits="userSpaceOnUse" x1="437.02185" y1="373.32904" x2="433.13232" y2="355.85587"><stop offset="0" stop-color="#253135"/><stop offset="1" stop-color="#455850"/></linearGradient></defs><path fill="url(#gradient_12)" d="M441.521 355.21L443.807 355.082C456.236 354.433 460.472 359.139 449.852 368.765C444.339 373.762 435.873 375.393 428.483 374.413C424.254 373.584 409.203 369.071 415.02 361.263C418.634 356.413 434.962 355.697 441.521 355.21Z"/><path fill="#77C881" d="M318.764 233.601C322.243 233.485 328.474 233.232 329.345 237.414C331.258 246.59 311.314 251.464 305.407 253.182C298.627 254.372 289.237 253.769 296.578 244.78C301.604 238.626 311.178 235.256 318.764 233.601Z"/><path fill="#F8C24E" d="M769.164 262.011C769.342 260.074 769.234 259.068 770.374 257.501L771.358 257.195C773.188 258.863 773.065 259.882 773.238 262.46C833.302 273.873 890.572 414.006 879.348 471.822C878.341 477.007 874.7 488.475 870.697 492.101C867.473 496.592 863.693 500.316 858.578 502.7C844.191 509.405 829.869 501.718 816.105 497.424C809.322 495.308 802.332 493.518 795.688 491.187C793.147 490.82 789.826 489.993 787.27 489.345C768.575 484.602 750.425 482.793 731.109 483.023C730.713 482.236 730.52 480.945 730.322 480.029C728.32 477.761 728.008 477.527 725.077 477.221C721.691 477.472 717.769 477.314 714.116 477.538L704.675 477.493C702.856 477.638 699.688 477.79 698.025 478.204C688.293 479.667 684.079 470.635 679.145 463.516C678.352 461.418 674.358 455.917 673.112 453.073C669.212 444.178 666.474 435.347 663.732 426.075C659.419 411.03 657.701 396.512 659.809 380.837C660.27 377.41 661.861 373.333 662.55 369.9C662.883 368.245 662.875 368.754 661.978 367.466L663.413 367.464C665.838 364.837 678.921 356.785 683.412 353.13C704.452 336.005 724.722 315.942 738.377 292.392C738.496 291.572 739.519 290.608 740.154 289.825C741.652 287.266 743.226 281.166 746.068 276.803C749.758 270.275 755.687 265.716 762.864 263.634C764.873 263.051 767.322 263.047 769.164 262.011Z"/><defs><linearGradient id="gradient_13" gradientUnits="userSpaceOnUse" x1="758.93329" y1="506.75601" x2="712.61865" y2="404.85669"><stop offset="0" stop-color="#C5C3B2"/><stop offset="1" stop-color="#E9EAE1"/></linearGradient></defs><path fill="url(#gradient_13)" d="M752.366 401.109C763.702 427.709 774.242 448.1 794.133 469.478C797.899 473.526 805.535 481.575 810.355 483.988L810.615 484.611C813.131 486.778 820.161 491.84 820.52 494.546C818.066 496.785 807.964 492.465 804.596 491.726C799.07 490.512 793.251 488.807 787.645 487.961C790.081 490.379 793.304 488.618 795.688 491.187C793.147 490.82 789.826 489.993 787.27 489.345C768.575 484.602 750.425 482.793 731.109 483.023C730.713 482.236 730.52 480.945 730.322 480.029C728.32 477.761 728.008 477.527 725.077 477.221C721.691 477.472 717.769 477.314 714.116 477.538L704.675 477.493C702.856 477.638 699.688 477.79 698.025 478.204C688.293 479.667 684.079 470.635 679.145 463.516C678.352 461.418 674.358 455.917 673.112 453.073C669.212 444.178 666.474 435.347 663.732 426.075C669.89 425.198 680.671 421.862 687.22 420.285C709.412 414.94 730.656 407.798 752.366 401.109Z"/><path fill="#CAB693" d="M704.675 477.493C706.138 476.73 707.616 475.994 709.059 475.193C718.502 469.95 771.316 478.257 783.949 480.645C787.503 481.317 807.174 485.794 809.53 485.28C809.763 485.23 810.434 484.789 810.615 484.611C813.131 486.778 820.161 491.84 820.52 494.546C818.066 496.785 807.964 492.465 804.596 491.726C799.07 490.512 793.251 488.807 787.645 487.961C790.081 490.379 793.304 488.618 795.688 491.187C793.147 490.82 789.826 489.993 787.27 489.345C768.575 484.602 750.425 482.793 731.109 483.023C730.713 482.236 730.52 480.945 730.322 480.029C728.32 477.761 728.008 477.527 725.077 477.221C721.691 477.472 717.769 477.314 714.116 477.538L704.675 477.493Z"/><path fill="#A9905F" d="M730.322 480.029C746.096 480.388 759.567 482.008 775.137 485.064C777.993 485.624 785.261 486.965 787.645 487.961C790.081 490.379 793.304 488.618 795.688 491.187C793.147 490.82 789.826 489.993 787.27 489.345C768.575 484.602 750.425 482.793 731.109 483.023C730.713 482.236 730.52 480.945 730.322 480.029Z"/><path fill="white" d="M738.377 292.392C738.496 291.572 739.519 290.608 740.154 289.825C732.952 327.304 737.208 366.083 752.366 401.109C730.656 407.798 709.412 414.94 687.22 420.285C680.671 421.862 669.89 425.198 663.732 426.075C659.419 411.03 657.701 396.512 659.809 380.837C660.27 377.41 661.861 373.333 662.55 369.9C662.883 368.245 662.875 368.754 661.978 367.466L663.413 367.464C665.838 364.837 678.921 356.785 683.412 353.13C704.452 336.005 724.722 315.942 738.377 292.392Z"/><path fill="#DEE0DF" d="M738.377 292.392C738.789 302.457 705.603 335.39 697.129 343.102C693.438 346.461 668.468 366.897 664.07 367.636L663.413 367.464C665.838 364.837 678.921 356.785 683.412 353.13C704.452 336.005 724.722 315.942 738.377 292.392Z"/><path fill="#C8872A" d="M810.355 483.988C814.088 484.406 819.916 489.853 822.952 491.357C828.523 494.116 835.215 496.792 840.854 499.249C846.872 501.871 850.906 499.79 854.238 501.128L854.444 502.51C858.595 504.08 866.964 495.262 869.53 492.153L870.297 491.895L870.697 492.101C867.473 496.592 863.693 500.316 858.578 502.7C844.191 509.405 829.869 501.718 816.105 497.424C809.322 495.308 802.332 493.518 795.688 491.187C793.304 488.618 790.081 490.379 787.645 487.961C793.251 488.807 799.07 490.512 804.596 491.726C807.964 492.465 818.066 496.785 820.52 494.546C820.161 491.84 813.131 486.778 810.615 484.611L810.355 483.988Z"/><path fill="#AD7B2B" d="M769.164 262.011C769.342 260.074 769.234 259.068 770.374 257.501L771.358 257.195C773.188 258.863 773.065 259.882 773.238 262.46C771.399 262.524 770.935 262.642 769.164 262.011Z"/><defs><linearGradient id="gradient_14" gradientUnits="userSpaceOnUse" x1="768.42737" y1="396.69824" x2="846.45813" y2="371.57529"><stop offset="0" stop-color="#BC7827"/><stop offset="1" stop-color="#E6A541"/></linearGradient></defs><path fill="url(#gradient_14)" d="M772.886 276.454C773.17 276.437 773.454 276.416 773.738 276.404C781.882 276.052 789.493 281.292 795.269 286.514C829.297 317.279 863.278 401.038 865.529 446.803C866.093 458.292 865.864 477.442 857.412 486.315C854.392 489.486 851.544 490.169 847.282 490.251C842.822 490.288 839.06 488.215 835.111 486.241C798.487 467.049 776.098 422.681 764.095 384.817C756.092 359.573 739.063 286.398 772.886 276.454Z"/><path fill="#EFD9B3" d="M775.996 353.941C790.457 352.813 801.338 354.01 812.669 363.684C827.961 376.737 833.042 399.399 816.903 414.117C805.909 423.364 798.938 423.33 785.246 424.447C775.36 408.649 765.274 376.819 760.232 358.689C766.373 356.282 769.554 354.936 775.996 353.941Z"/><path fill="#CAB693" d="M760.232 358.689C766.373 356.282 769.554 354.936 775.996 353.941C773.725 370.41 774.165 373.045 780.33 389.036C784.776 400.568 788.647 411.603 803.296 413.692C807.648 414.208 812.629 413.535 816.903 414.117C805.909 423.364 798.938 423.33 785.246 424.447C775.36 408.649 765.274 376.819 760.232 358.689Z"/><path fill="#F4D168" d="M744.439 290.15C754.255 292.56 750.039 307.568 745.602 312.525C743.148 312.539 742.865 312.472 740.682 311.352C738.807 307.091 741.226 293.945 744.439 290.15Z"/><path fill="#F4D168" d="M907.501 279.584C923.673 279.057 933.81 290.625 917.546 301.315C902.37 311.291 891.972 317.36 874.122 321.379C870.122 322.056 865.196 323.266 861.344 321.483C859.652 320.699 857.956 319.079 857.416 317.249C856.88 315.434 857.137 313.606 858.069 311.97C860.778 307.213 891.862 286.695 898.09 283.321C901.188 281.643 904.1 280.495 907.501 279.584Z"/><path fill="#B4DBC1" d="M896.927 490.6C897.909 490.427 898.905 490.345 899.903 490.354C908.996 490.373 946.179 500.304 953.197 507.775C955.318 510.032 957.298 513.913 956.912 517.178C956.385 521.626 954.624 523.822 951.525 526.691C949.06 527.962 947.883 528.244 945.06 528.274C934.798 528.384 900.905 507.099 895.218 500.333C894.095 498.986 893.571 497.239 893.77 495.496C894.028 493.146 895.253 492.068 896.927 490.6Z"/><path fill="#B4DBC1" d="M946.845 428.213C954.469 427.338 976.226 427.247 979.736 432.8C992.16 452.456 953.724 447.817 947.904 447.438C943.23 446.666 916.006 443.984 914.217 442.354C898.333 427.883 941.129 428.575 946.845 428.213Z"/><path fill="#F4D168" d="M937.187 359.692C939.46 359.65 941.859 359.894 943.745 361.291C945.541 362.622 946.426 364.704 946.731 366.869C947.045 369.105 946.638 371.411 945.118 373.149C940.806 378.079 905.208 380.534 896.62 381.293C894.345 381.542 891.996 381.536 889.95 380.377C888.242 379.408 886.384 377.377 886.101 375.366C885.904 373.969 886.353 372.816 887.145 371.697C891.552 365.469 928.127 360.762 937.187 359.692Z"/></svg>