<?xml version="1.0" encoding="utf-8" ?><svg xmlns="http://www.w3.org/2000/svg" xmlns:xlink="http://www.w3.org/1999/xlink" width="1024" height="1024" viewBox="0 0 1024 1024"><path fill="#70AF84" d="M569.825 99.6923C582.309 98.7152 597.164 99.6436 603.752 112.454C605.757 116.439 606.415 120.968 605.626 125.359C604.634 130.947 599.857 141.48 597.478 147.034L583.951 178.807C578.613 191.546 569.745 208.911 578.073 221.99C586.815 235.718 614.666 246.991 630.256 251.13C662.428 259.671 670.97 242.524 682.894 217.466C688.699 205.175 694.348 192.812 699.84 180.379C703.891 171.325 710.637 153.805 724.343 159.183C737.792 164.46 749.546 181.376 755.49 194.124C771.493 228.439 774.212 270.613 761.902 306.53C748.949 343.415 718.232 369.819 683.088 384.93C670.948 390.15 658.878 394.71 646.474 399.07C640.464 401.183 630.17 409.972 626.764 415.413C619.565 426.91 613.707 440.591 607.831 452.999L575.169 522.966C551.048 575.918 526.039 628.429 503.329 682.093C485.196 725.08 468.482 768.652 453.215 812.739C447.464 832.615 439.49 851.451 427.124 868.169C368.576 947.32 232.322 883.257 251.358 789.043C258.278 754.798 279.625 729.206 298.598 700.73C310.755 682.589 322.531 664.196 333.918 645.562C354.249 612.182 375.334 571.727 393.153 536.832C414.138 496.019 434.496 454.887 454.219 413.451C459.489 402.447 464.685 391.408 469.807 380.334C485.972 345.393 487.461 342.637 470.582 307.164C467.229 300.241 464.158 293.186 461.376 286.014C456.315 272.828 452.922 259.062 451.274 245.035C447.487 210.603 454.854 179.504 477.063 152.502C498.723 126.17 535.781 103.23 569.825 99.6923Z"/><defs><linearGradient id="gradient_0" gradientUnits="userSpaceOnUse" x1="509.08072" y1="659.71283" x2="359.9873" y2="578.11047"><stop offset="0" stop-color="#AFDDBC"/><stop offset="1" stop-color="#DEF6D9"/></linearGradient></defs><path fill="url(#gradient_0)" d="M491.032 319.474C496.865 324.349 503.703 331.896 509.429 336.232C536.914 357.041 570.772 371.926 605.11 376.043C615.4 377.277 625.994 377.223 636.302 377.067C627.185 381.296 621.285 385.077 614.016 392.116C599.344 406.541 590.783 426.958 581.798 445.303C572.849 463.406 564.054 481.585 555.414 499.837C540.179 531.243 525.392 562.864 511.056 594.69C493.979 631.394 477.977 668.588 463.071 706.225C453.308 731.446 443.8 756.765 434.549 782.178C428.79 798.113 419.985 824.572 412.435 838.858C406.443 850.442 397.811 860.455 387.235 868.088C381.676 872.047 375.802 875.438 369.469 877.879C333.424 891.773 289.433 872.797 267.904 842.463C234.277 795.083 273.288 747.64 299.159 708.984C311.441 690.747 323.353 672.265 334.888 653.547C352.466 625.221 368.024 595.854 383.548 566.39C407.481 520.879 430.508 474.897 452.616 428.472C459.657 413.896 466.565 399.256 473.339 384.554C481.044 367.909 489.504 351.73 492.629 333.363L492.712 332.855L492.604 331.976C491.971 326.632 492.345 325.291 491.032 319.474Z"/><path fill="#B9E2BF" d="M491.032 319.474C496.865 324.349 503.703 331.896 509.429 336.232C536.914 357.041 570.772 371.926 605.11 376.043C615.4 377.277 625.994 377.223 636.302 377.067C627.185 381.296 621.285 385.077 614.016 392.116C610.575 390.66 596.878 390.769 591.742 389.86C568.03 385.661 544.84 377.45 524.325 364.688C515.275 359.058 503.001 349.636 496.331 340.889C494.723 338.78 493.87 334.919 493.26 332.296L492.712 332.855L492.604 331.976C491.971 326.632 492.345 325.291 491.032 319.474Z"/><path fill="#B9E2BF" d="M518.724 398.555C542.688 396.079 556.061 415.119 554.188 437.278C553.241 448.469 549.184 452.504 544.278 462.437L524.701 502.728L467.799 621.221C463.495 630.298 459.249 639.403 455.062 648.535C445.137 670.348 438.825 691.768 410.378 693.035C409.934 693.02 409.491 693.001 409.048 692.978C378.523 691.382 371.564 656.996 384.03 634.352C388.616 626.023 393.845 616.832 397.94 608.378L440.631 522.007C441.986 519.321 443.587 514.997 445.106 511.84L460.578 480.36C464.438 472.446 468.916 464.563 472.637 456.629L484.012 432.811C490.621 418.748 491.618 414.423 503.727 403.956L502.91 404.393C506.222 401.195 514.192 399.022 518.724 398.555Z"/><path fill="#70AF84" d="M519.798 408.721C541.484 409.576 551.711 427.227 543.338 446.393C535.995 463.203 527.135 479.938 519.116 496.478L470.538 596.261L447.1 645.214C438.975 662.012 433.052 682.793 411.376 683.681C398.822 683.585 387.703 674.633 385.739 662.038C383.905 650.28 390.633 639.529 395.622 629.343L408.874 602.119L452.823 512.348L482.176 451.742C485.814 444.283 489.41 436.732 493.181 429.345C499.553 416.864 505.483 410.702 519.798 408.721Z"/><path fill="#B9E2BF" d="M517.96 413.605C536.529 411.913 546.127 426.961 539.408 443.44C534.095 456.472 527.5 469.134 521.427 481.861L479.189 568.808C468.898 589.625 458.724 610.501 448.669 631.433C443.117 642.986 437.503 655.283 431.469 666.578C427.625 673.774 422.064 677.003 414.427 678.976C397.46 681.411 385.121 663.567 391.913 647.907C398.575 632.545 406.099 617.758 413.604 602.807L448.238 532.47L480.898 465.044C486.942 452.424 493.194 438.827 499.838 426.517C503.737 419.294 510.117 415.529 517.96 413.605Z"/><path fill="#B9E2BF" d="M333.675 742.72C335.495 742.499 337.324 742.364 339.156 742.316C405.198 740.645 412.626 838.783 351.193 851.933C348.178 852.578 346.461 852.858 343.373 852.889C331.617 854.797 316.433 847.306 307.62 840C292.318 827.314 288.654 814.655 287.089 795.46L286.988 795.743C284.617 789.546 296.268 765.728 300.297 761.389C305.408 755.885 326.205 744.67 333.675 742.72Z"/><path fill="#70AF84" d="M336.822 752.475C361.84 750.371 383.812 768.981 385.852 794.005C387.892 819.028 369.224 840.951 344.195 842.926C319.259 844.894 297.433 826.309 295.401 801.378C293.369 776.446 311.896 754.572 336.822 752.475Z"/><path fill="white" d="M349.11 769.645C358.391 768.359 366.536 770.966 374.665 775.08C376.794 778.945 378.265 782.218 379.27 786.523C381.859 798.088 379.744 810.207 373.39 820.21C367.064 830.368 358.244 835.529 346.917 838.22C333.218 840.618 319.966 835.703 316.791 820.778C312.067 798.574 326.108 773.819 349.11 769.645Z"/><defs><linearGradient id="gradient_1" gradientUnits="userSpaceOnUse" x1="727.64532" y1="318.16483" x2="478.98801" y2="158.40199"><stop offset="0" stop-color="#BAE0C6"/><stop offset="1" stop-color="#F4FEEC"/></linearGradient></defs><path fill="url(#gradient_1)" d="M569.546 104.69C600.745 101.454 590.657 112.846 582.607 132.088C567.487 168.227 537.423 206.572 582.616 234.888C599.984 245.77 621.013 256.243 641.581 258.382C669.739 261.31 680.336 234.95 690.002 214.234C694.872 204.005 699.639 193.726 704.302 183.4C706.126 179.338 708.824 172.277 711.027 168.726C717.146 158.459 731.029 166.375 735.239 174.083C761.318 221.834 754.943 286.189 721.868 327.848C703.273 350.628 673.526 365.509 644.647 369.651C566.898 380.8 467.92 322.442 456.761 241.34C452.553 212.635 460.009 183.44 477.465 160.268C498.916 132.014 534.246 109.627 569.546 104.69Z"/><path fill="#B9E2BF" d="M575.372 116.276L576.462 116.277C578.691 122.824 545.009 177.614 549.976 202.931C558.563 246.694 610.674 273.741 650.09 269.605C691.372 265.274 705.019 208.068 720.414 177.859C720.958 176.808 721.698 176.941 722.679 176.828C727.232 178.734 733.01 190.608 734.814 195.243C737.795 202.523 738.313 211.393 739.962 218.777C744.313 238.262 743.838 251.856 737.956 270.938C734.497 282.156 732.546 291.435 725.943 301.984C722.82 306.973 719.793 311.323 716.363 316.249L716.097 316.593C706.335 328.996 686.009 344.945 671.314 349.932C664.744 352.162 644.484 357.746 637.449 358.335C592.976 362.058 552.98 346.851 517.903 320.665C459.114 276.776 449.949 200.376 506.329 149.871C522.443 135.496 553.394 118.504 575.372 116.276Z"/><path fill="#FED24D" d="M348.493 220.302C351.021 222.751 354.444 242.411 361.379 248.715C368.292 254.999 373.033 257.272 382.34 260.553C384.848 261.437 390.252 262.348 391.943 263.805L391.712 264.61C388.53 266.562 382.129 267.424 378.473 268.725C375.739 269.697 373.785 270.975 371.262 272.207C357.028 279.158 353.509 293.037 349.131 307.347C347.664 306.996 345.205 298.162 344.503 296.032C337.019 273.346 324.09 270.404 302.967 264.108C336.433 254.85 337.712 251.874 348.493 220.302Z"/><path fill="#B9E2BF" d="M406.581 296.315C407.842 298.123 410.591 309.753 413.37 314.735C421.032 328.47 433.969 331.054 448.024 335.339C421.313 341.729 414.337 347.972 407.132 374.26L406.369 374.069C397.684 346.355 392.954 342.348 365.685 335.32C392.655 327.46 398.799 323.598 406.581 296.315Z"/><defs><linearGradient id="gradient_2" gradientUnits="userSpaceOnUse" x1="382.59641" y1="202.99074" x2="417.14917" y2="212.43968"><stop offset="0" stop-color="#E3D770"/><stop offset="1" stop-color="#CBDB8C"/></linearGradient></defs><path fill="url(#gradient_2)" d="M400.174 187.844C401.959 189.593 403.166 197.121 404.735 199.248C408.488 204.34 415.93 205.999 421.598 207.351C408.239 212.024 404.497 213.219 400.711 227.692C399 226.02 397.917 220.015 396.563 217.693C393.235 211.983 385.383 209.492 379.703 207.535C393.332 203.055 395.891 201.932 400.174 187.844Z"/></svg>