<?xml version="1.0" encoding="utf-8" ?><svg xmlns="http://www.w3.org/2000/svg" xmlns:xlink="http://www.w3.org/1999/xlink" width="1024" height="1024" viewBox="0 0 1024 1024"><defs><linearGradient id="gradient_0" gradientUnits="userSpaceOnUse" x1="608.86395" y1="766.12714" x2="457.82376" y2="204.96698"><stop offset="0" stop-color="#D9830E"/><stop offset="1" stop-color="#FEBF32"/></linearGradient></defs><path fill="url(#gradient_0)" d="M598.37 717.277C597.095 716.959 585.322 710.981 583.131 709.903C569.384 703.235 555.844 695.803 541.857 689.65C531.195 684.96 518.582 676.026 506.52 680.109C497.72 683.087 488.847 687.859 480.431 691.888C463.794 699.857 447.241 707.999 430.774 716.313C413.624 724.851 374.262 745.914 356.144 747.423C342.799 748.565 329.551 744.315 319.361 735.622C303.793 722.361 301.634 702.46 305.437 683.604C307.975 671.019 310.656 658.615 313.434 646.084L326.148 589.443C335.324 548.99 334.297 552.965 304.947 524.31L262.65 482.546C250.538 470.537 228.621 449.629 220.381 435.503C216.989 429.65 214.948 423.114 214.406 416.371C213.078 399.022 220.239 383.273 235.217 374.034C246.456 367.101 259.591 365.334 272.403 363.385L298.862 359.364C321.18 355.816 343.536 352.509 365.926 349.445C389.539 346.395 404.91 348.017 415.379 323.855C417.643 318.63 421.878 311.402 424.617 306.2C433.75 289.202 442.977 272.255 452.299 255.359C456.993 246.704 461.772 238.094 466.636 229.533C471.35 221.185 474.77 214.479 480.964 207.223C494.646 191.147 515.876 185.203 534.915 195.691C552.81 205.548 560.318 224.974 569.546 242.062C582.954 266.893 595.493 292.249 608.962 317.04C613.138 324.729 615.531 333.535 622.102 339.452C631.574 348.358 644.813 347.668 657.273 349.615C679.224 353.187 701.203 356.584 723.208 359.805C745.696 363.016 781.684 365.095 799.258 380.871C817.412 397.167 818.294 424.114 804.686 443.805C793.153 460.493 775.246 475.851 760.015 490.246L718.139 530.114C704.458 543.121 691.233 550.331 696.667 571.21C698.357 577.704 699.788 585.366 701.247 592.005C705.894 612.941 710.387 633.91 714.725 654.912C716.661 664.231 720.525 680.582 721.127 689.586C724.048 699.618 721.263 715.302 716.276 724.37C710.438 734.946 699.901 742.683 688.411 746.02C664.31 753.018 641.574 738.605 620.766 728.354C613.889 724.966 604.511 721.415 598.37 717.277Z"/><path fill="#E49115" d="M598.37 717.277C605.398 716.539 628.841 730.245 635.96 734.136L634.132 733.42C634.78 733.853 635.439 734.269 636.109 734.667C670.689 755.461 715.644 750.999 721.133 702.737C721.518 699.348 719.974 691.524 721.127 689.586C724.048 699.618 721.263 715.302 716.276 724.37C710.438 734.946 699.901 742.683 688.411 746.02C664.31 753.018 641.574 738.605 620.766 728.354C613.889 724.966 604.511 721.415 598.37 717.277Z"/><defs><linearGradient id="gradient_1" gradientUnits="userSpaceOnUse" x1="651.07318" y1="754.66119" x2="411.27689" y2="242.47493"><stop offset="0" stop-color="#F8B31F"/><stop offset="1" stop-color="#FFE75C"/></linearGradient></defs><path fill="url(#gradient_1)" d="M512.751 196.731C522.327 196.858 530.059 198.38 537.384 204.921C549.044 215.334 556.556 233.221 563.78 246.845C576.853 271.495 588.323 296.173 601.604 320.694C609.051 334.444 613.093 347.248 630.256 352.095C638.485 354.3 647.979 354.729 656.546 355.966L719.719 365.322C735.686 367.534 761.972 370.549 777.247 375.21C781.575 376.538 785.654 378.572 789.318 381.232C805.371 392.748 811.136 414.344 802.411 432.127C799.741 437.467 796.434 442.463 792.562 447.007C784.624 456.342 771.216 468.391 761.962 477.17L715.354 521.532C706.713 529.734 685.425 546.561 687.59 560.438C694.111 602.176 706.328 645.446 713.074 687.05C721.366 738.195 680.251 750.911 641.129 729.285C629.938 723.099 613.713 715.781 601.734 709.795L552.157 685.226C538.76 678.568 523.28 668.898 508.475 671.043C500.623 672.147 485.912 680.19 478.026 683.962L416.286 714.007C400.647 721.561 385.221 729.393 369.003 735.636C354.701 741.141 339.083 741.179 326.546 731.589C317.443 724.53 311.592 714.082 310.33 702.633C308.987 690.02 315.566 665.889 318.696 653.223L324.134 630.252C327.42 616.664 330.285 602.643 333.666 589.263C337.756 572.629 344.974 553.629 331.992 538.826C325.933 531.917 318.258 525.329 311.57 518.891C295.599 503.583 279.825 488.07 264.252 472.357C252.123 460.267 238.41 448.006 228.929 433.644C225.057 427.779 222.023 420.819 221.163 413.801C219.314 398.725 229.274 383.447 242.472 376.744C254.608 370.581 301.302 365.143 317.215 362.829C331.853 360.7 346.47 358.172 361.141 356.31C372.538 354.863 390.543 353.844 400.812 349.502C406.259 347.199 411.954 342.754 415.515 338.051C419.833 332.349 425.463 319.569 429.164 312.736L457.85 259.991C466.103 244.489 475.186 226.084 485.749 211.966C492.116 203.457 502.092 197.946 512.751 196.731Z"/><path fill="#F4E9AB" d="M513.028 369.217C514.183 370.137 516.958 382.035 518.042 385.345C521.477 395.828 527.284 410.014 533.337 419.151C543.011 433.755 574.874 443.883 591.619 447.311C575.304 450.978 549.169 459.414 536.924 471.119C528.335 479.329 521.865 497.835 518.092 509.188C516.459 514.102 515.386 520.132 513.669 525.228L513.37 526.102C511.989 524.285 509.818 512.785 508.788 509.638C505.589 499.431 501.421 490.089 496.319 480.723C491.36 471.619 489.151 470.326 480.892 464.979C466.191 455.461 451.182 451.78 434.682 447.155C449.726 443.672 481.123 434.187 490.876 422.184C500.478 410.366 509.36 384.488 513.028 369.217Z"/><path fill="#FEE47A" d="M452.176 285.024C456.314 269.058 473.996 242.806 481.533 227.168C488.953 211.775 503.654 197.22 522.494 202.577C526.388 203.63 529.025 203.996 531.247 207.56L533.472 211.928C534.062 212.212 533.786 212.007 534.257 212.597L534.248 213.082C532.396 213.554 526.407 210.25 523.784 209.996C519.951 209.624 509.776 210.523 506.863 212.912L506.738 213.773C505.8 219.914 505.648 220.334 502.079 224.667C500.914 226.082 504.115 230.43 497.749 231.552C494.291 235.339 497.226 239.085 494.183 242.124C494.607 247.557 497.768 253.352 498.313 259.723C499.655 275.401 496.486 291.522 487.897 304.946C487.249 305.958 486.977 305.875 485.981 306.098C485.64 305.957 481.328 304.146 481.378 304.134C479.532 304.561 478.332 305.938 477.042 303.07C475.434 299.495 471.911 277.749 470.515 276.308L468.793 277.457C459.196 270.868 459.537 285.535 452.176 285.024Z"/><defs><linearGradient id="gradient_2" gradientUnits="userSpaceOnUse" x1="498.04456" y1="254.93454" x2="476.35132" y2="221.4861"><stop offset="0" stop-color="#FFF6A2"/><stop offset="1" stop-color="#FEFEEF"/></linearGradient></defs><path fill="url(#gradient_2)" d="M452.176 285.024C456.314 269.058 473.996 242.806 481.533 227.168C488.953 211.775 503.654 197.22 522.494 202.577C526.388 203.63 529.025 203.996 531.247 207.56L533.472 211.928C520.046 209.445 519.638 205.641 505.365 212.934C489.548 221.015 463.998 281.42 452.176 285.024Z"/><path fill="#F4E9AB" d="M522.494 202.577C526.388 203.63 529.025 203.996 531.247 207.56C526.616 208.5 523.898 206.78 522.494 202.577Z"/><path fill="#FEE47A" d="M604.521 341.42C605.943 342.25 605.124 342.021 605.992 343.011C611.367 349.138 621.851 354.748 629.468 356.936C639.06 359.692 647.818 359.536 657.483 361.361C690.028 366.563 722.809 370.169 755.348 375.141C771.106 377.549 782.236 381.025 791.606 394.172C788.015 392.684 784.753 389.272 780.285 387.805C765.591 382.98 750.239 381.659 735.018 379.476C709.418 375.8 683.783 372.372 658.117 369.192C647.521 367.828 632.949 366.746 623.218 362.448C618.67 360.439 605.475 344.969 604.521 341.42Z"/><path fill="#FEE47A" d="M322.636 367.704C338.445 364.25 356.164 363.116 372.242 360.344C381.136 358.811 388.948 358.757 397.492 355.367C408.154 351.137 415.576 345.386 423.388 337.049C424.883 335.454 425.073 335.191 426.342 335.999C427.311 339.611 421.724 350.783 419.333 353.787L419.441 354.393L423.04 351.016L423.151 351.198C420.193 354.716 409.251 362.01 404.826 363.377C393.476 366.881 380.532 367.161 368.775 369.005C348.485 371.802 328.183 374.277 307.841 376.551C303.941 376.987 300.905 376.862 297.082 375.903C301.668 374.21 310.319 370.562 314.635 370.543C313.243 370.126 310.357 370.085 308.805 370.002C310.517 369.457 320.144 368.124 322.636 367.704Z"/><path fill="#F4E9AB" d="M657.165 444.381C658.643 447.056 658.511 458.871 664.067 464.93C670.658 472.117 680.089 474.364 689.201 475.594C668.974 478.148 662.17 483.149 657.401 503.238L657.197 503.261C651.945 500.267 662.131 482.359 626.083 475.483C631.743 474.563 638.735 472.735 643.778 469.949C653.51 464.571 654.389 454.469 656.916 445.271L657.165 444.381Z"/><path fill="#F4E9AB" d="M425.563 459.829C426.632 461.31 426.904 465.432 427.491 467.453C431.852 482.46 441.321 486.006 455.386 488.998C432.995 491.556 432.12 497.692 426.066 516.24L425.812 516.993C423.649 510.984 423.603 506.157 419.577 500.363C413.698 491.904 404.149 490.159 394.826 488.439C415.964 486.429 421.357 479.665 425.563 459.829Z"/><path fill="#FEE47A" d="M723.341 498.773L723.24 500.542C719.347 503.444 715.495 509.583 712.445 512.155C684.827 535.438 675.833 546.134 684.316 583.519C688.746 603.042 693.893 628.419 697.177 648.676C698.069 654.18 700.057 663.774 699.907 669.589L699.705 669.076C697.46 663.533 695.346 654.351 693.694 648.286C689.082 631.826 685.011 615.22 681.486 598.494C678.583 585.347 675.531 574.206 675.591 560.505C675.696 536.389 692.865 526.946 708.461 511.972C713.151 507.469 718.462 503.327 723.341 498.773Z"/><path fill="#F4E9AB" d="M466.082 317.216C468.26 319.197 468.082 329.497 471.608 334.382C477.308 342.277 486.966 344.364 495.822 346.137C477.236 348.893 469.682 353.113 466.743 372.936C464.453 369.141 464.181 360.791 460.34 355.931C453.752 347.594 444.932 347.427 435.579 345.74C455.938 343.071 463.013 337.868 466.082 317.216Z"/><path fill="#FEE47A" d="M321.647 717.729C305.092 703.11 321.817 670.527 324.254 653.238C325.801 642.261 336.532 618.457 336.671 609.791C338.127 611.569 334.883 622.876 334.537 625.769C333.108 637.742 331.121 649.658 328.802 661.49C325.134 681.94 317.967 701.392 327.216 721.435C325.642 721.046 323.188 718.796 321.647 717.729Z"/><defs><linearGradient id="gradient_3" gradientUnits="userSpaceOnUse" x1="272.58524" y1="398.26105" x2="267.52725" y2="375.49466"><stop offset="0" stop-color="#FFEB8B"/><stop offset="1" stop-color="#FDFDDE"/></linearGradient></defs><path fill="url(#gradient_3)" d="M225.843 406.46C227.788 398.547 230.708 391.396 237.031 386.016C240.076 383.425 245.319 380.54 248.986 379.454C259.902 376.22 299.848 369.303 308.805 370.002C310.357 370.085 313.243 370.126 314.635 370.543C310.319 370.562 301.668 374.21 297.082 375.903C281.288 379.272 264.854 380.9 250.135 387.348C239.519 391.999 236.596 399.773 231.516 408.966C229.397 407.879 228.071 407.31 225.843 406.46Z"/><path fill="#F4E9AB" d="M588.555 378.801C590.221 382.308 589.929 384.834 592.493 389.067C596.443 395.588 602.5 396.923 609.432 398.662C595.705 401.445 592.635 404.52 588.86 417.703C587.617 416.582 585.511 408.716 584.235 406.861C580.787 401.848 572.582 399.425 567.053 398.175C581.762 396.299 584.95 392.934 588.555 378.801Z"/><path fill="#EFAE2F" d="M250.97 448.844C251.519 448.903 251.795 448.916 252.359 449.059C256.744 450.175 302.847 496.718 306.852 503.203L306.471 503.718L304.651 503.235C303.924 502.591 301.603 502.89 300.882 502.605C295.664 500.543 296.749 496.285 291.301 491.097C282.649 482.858 274.605 473.746 266.299 465.137C262.826 461.537 253.476 452.472 250.97 448.844Z"/><path fill="#FEE47A" d="M325.331 521.173C330.296 525.619 337.996 535.237 341.517 541.053C334.933 537.089 331.11 533.618 325.909 527.831C324.943 526.756 323.747 524.751 323.18 524.167C323.904 523.226 324.636 522.148 325.331 521.173Z"/><path fill="#FEE47A" d="M309.658 507.347C311.696 507.536 311.723 507.344 313.361 506.117C316.453 506.21 316.656 508.033 317.784 510.707C317.326 512.119 317.586 511.603 316.506 512.727C319.131 515.289 322.979 518.662 325.331 521.173C324.636 522.148 323.904 523.226 323.18 524.167C319.943 521.475 315.172 514.948 312.371 511.382L311.788 511.455C311.106 510.039 310.4 508.728 309.658 507.347Z"/><path fill="#FECB53" d="M309.658 507.347C311.696 507.536 311.723 507.344 313.361 506.117C316.453 506.21 316.656 508.033 317.784 510.707C317.326 512.119 317.586 511.603 316.506 512.727C315.35 511.599 313.933 509.985 312.306 510.204L312.371 511.382L311.788 511.455C311.106 510.039 310.4 508.728 309.658 507.347Z"/><path fill="#FECB53" d="M321.647 717.729C323.188 718.796 325.642 721.046 327.216 721.435C328.779 723.031 331.431 726.173 332.081 728.306C329.891 727.389 328.964 726.265 326.614 725.807L325.627 726.618C322.317 724.954 321.373 721.125 321.647 717.729Z"/><path fill="#E49115" d="M376.874 722.019L377.227 723.082C371.488 727.679 353.662 729.881 345.732 729.755C345.638 729.592 345.545 729.429 345.452 729.267C356.291 729.455 366.927 726.068 376.874 722.019Z"/><path fill="#FEE47A" d="M325.627 726.618L326.614 725.807C328.964 726.265 329.891 727.389 332.081 728.306C335.649 730.944 337.856 732.499 340.921 735.64C336.053 733.828 329.547 730.019 325.627 726.618Z"/><path fill="#EFAE2F" d="M311.788 511.455C311.579 512.457 311.743 513.257 311.824 514.306C310.494 513.174 311.082 513.37 309.543 513.016L309.032 514.378C306.804 512.697 304.895 508.608 308.018 506.613C309.342 506.694 308.806 506.425 309.658 507.347C310.4 508.728 311.106 510.039 311.788 511.455Z"/><path fill="#FECB53" d="M233.775 426.17C237.216 426.939 240.475 431.889 241.363 435.044L240.312 435.247C237.121 433.375 235.55 429.485 233.775 426.17Z"/><path fill="#FECB53" d="M405.409 502.045C407.181 501.954 408.129 501.723 409.707 502.521C410.674 504.316 410.393 503.359 410.373 505.553C408.434 505.546 406.859 505.772 405.339 504.685C404.828 503.019 404.875 503.87 405.409 502.045Z"/><path fill="#EFAE2F" d="M615.253 645.718C617.524 646.085 617.377 645.812 618.531 647.208C618.53 648.888 617.857 649.449 616.834 650.809C615.27 650.429 615.212 650.57 614.165 649.409C614.087 647.329 614.204 647.834 615.253 645.718Z"/><path fill="#FECB53" d="M615.438 452.298L615.941 452.52C616.559 454.254 615.039 454.28 614.484 457.246C615.119 458.832 615.475 459.29 615.095 460.956C613.227 459.336 612.512 458.916 612.235 456.549C612.775 454.701 614.067 453.689 615.438 452.298Z"/><path fill="#FECB53" d="M723.341 498.773C726.458 495.703 727.132 494.482 730.822 492.055C729.576 494.372 725.366 498.887 723.24 500.542L723.341 498.773Z"/><path fill="#FEE47A" d="M542.909 310.75C543.903 311.298 543.544 311.044 544.261 312.015C544.119 313.521 543 314.324 541.888 315.484C540.563 315.219 541.045 315.587 540.311 314.502C540.675 312.915 541.784 311.997 542.909 310.75Z"/><path fill="#F4E9AB" d="M780.147 534.281C781.033 535.085 784.278 545.503 785.162 547.76C791.903 564.956 805.699 570.68 823.69 573.68C795.983 580.385 788.904 586.255 780.858 613.368L780.707 613.609L780.154 613.726C773.561 586.818 764.681 580.631 738.613 573.671C766.776 567.843 772.549 561.103 780.147 534.281Z"/><path fill="#FEE47A" d="M412.186 220.825L412.7 221.313C417.214 236.913 422.823 243.953 439.876 245.947C422.096 250.388 417.74 254.761 412.393 271.978C407.648 254.359 401.97 249.847 384.157 246.21C400.768 243.071 408.421 237.626 412.186 220.825Z"/><path fill="#F4E9AB" d="M341.886 259.687C343.605 262.236 344.018 268.942 347.603 273.754C353.293 281.39 360.813 283.945 369.691 285.566C352.99 289.04 346.889 294.378 342.332 310.687C341.368 309.777 339.508 301.728 337.305 298.368C331.519 289.54 324.192 287.989 314.705 285.566C331.854 281.773 338.155 277.66 341.886 259.687Z"/><path fill="#FEE47A" d="M244.699 609.111C249.89 620.41 248.282 621.326 261.716 624.828C250.125 627.638 248.081 630.184 244.623 641.15C241.518 629.675 237.99 627.393 226.837 624.646C238.436 622.18 241.027 620.212 244.699 609.111Z"/><path fill="#FECB53" d="M262.159 550.379C263.732 559.566 268.939 562.694 277.531 564.397C267.419 567.659 265.123 569.013 262.129 579.345C259.233 569.355 255.987 566.455 245.866 564.651C256.283 561.712 258.587 560.71 262.159 550.379Z"/><path fill="#FEE47A" d="M698.285 276.907C701.712 281.766 697.962 282.834 705.772 285.819L706.472 286.081L706.558 286.634C705.877 286.925 705.201 287.228 704.53 287.544C700.869 289.28 699.864 291.18 698.531 294.997L698.312 295.642C694.135 290.951 698.496 290.676 689.887 286.852C694.692 282.742 695.93 283.595 698.055 277.574L698.285 276.907Z"/><path fill="#EFAE2F" d="M658.277 317.842C660.557 317.302 662.84 318.723 663.362 321.007C663.885 323.291 662.446 325.563 660.157 326.067C657.895 326.566 655.653 325.146 655.137 322.888C654.621 320.629 656.022 318.376 658.277 317.842Z"/><path fill="#F4E9AB" d="M761.991 640.409C763.9 641.868 765.639 643.459 767.438 645.051C765.969 646.77 764.466 648.123 762.828 649.67L761.759 649.591C759.709 648.169 759.13 646.922 757.773 644.834L761.991 640.409Z"/><path fill="#F4E9AB" d="M329.812 325.753C332.095 326.505 334.213 327.509 335.076 329.861C334.775 331.958 334.896 331.278 333.024 333.105C327.759 333.858 326.106 329.563 329.812 325.753Z"/><path fill="#FEE47A" d="M283.076 596.213C285.291 597.306 286.507 597.744 287.196 600.217C286.466 602.383 286.431 601.899 284.5 603.671C282.78 603.693 282.747 603.518 281.296 602.655C279.433 599.646 280.759 598.247 283.076 596.213Z"/></svg>