<svg xmlns="http://www.w3.org/2000/svg" viewBox="0 0 64 64"><g id="_x35_0_Air_Conditioner_Climete_Cooler_House_Interior_Environment"><path fill="#c2cde7" d="M57,35H7c-3.3,0-6-2.7-6-6V7c0-1.1,0.9-2,2-2h58c1.1,0,2,0.9,2,2v22C63,32.3,60.3,35,57,35z"/><path fill="#acb7d0" d="M57,35H7c-3.3,0-6-2.7-6-6v-8h62v8C63,32.3,60.3,35,57,35z"/><path fill="#c2cde7" d="M24 27L24 27c0 .6-.4 1-1 1H2c-.6 0-1-.4-1-1v0c0-.6.4-1 1-1h21C23.6 26 24 26.4 24 27zM63 27L63 27c0 .6-.4 1-1 1H41c-.6 0-1-.4-1-1v0c0-.6.4-1 1-1h21C62.6 26 63 26.4 63 27z"/><path fill="#d6dff2" d="M60,8H4C2.3,8,1,6.7,1,5v0h62v0C63,6.7,61.7,8,60,8z"/><path fill="#c5e4fa" d="M7 31H57V35H7z"/><path fill="#000000" d="M61,4H3C1.3,4,0,5.3,0,7v22c0,3.9,3.1,7,7,7h50c3.9,0,7-3.1,7-7V7C64,5.3,62.7,4,61,4z M2,7c0-0.6,0.4-1,1-1 h58c0.6,0,1,0.4,1,1v3H13c-0.6,0-1,0.4-1,1s0.4,1,1,1h49v2c-0.6,0-1,0.4-1,1v2c0,0.6,0.4,1,1,1v2H2v-2c0.6,0,1-0.4,1-1v-2 c0-0.6-0.4-1-1-1V7z M56,34H8v-2h48v1.8C56,33.9,56,33.9,56,34z M58,33.9C58,33.9,58,33.9,58,33.9l0-1.9c0-1.1-0.9-2-2-2H8 c-1.1,0-2,0.9-2,2v1.9c-2.3-0.5-4-2.5-4-4.9v-7h60v7C62,31.4,60.3,33.4,58,33.9z"/><path fill="#000000" d="M33.7 26.3c0 0-.1-.1-.2-.1-.1 0-.1-.1-.2-.1-.1 0-.1 0-.2-.1-.2 0-.4 0-.6.1-.1 0-.2.1-.3.2-.1.1-.2.2-.2.3C32 26.7 32 26.9 32 27s0 .3.1.4c.1.1.1.2.2.3.1.1.2.2.3.2S32.9 28 33 28s.3 0 .4-.1.2-.1.3-.2c.1-.1.2-.2.2-.3S34 27.1 34 27s0-.3-.1-.4S33.8 26.4 33.7 26.3zM37.7 26.3c-.2-.2-.6-.3-.9-.3-.1 0-.1 0-.2.1-.1 0-.1 0-.2.1 0 0-.1.1-.1.1-.1.1-.2.2-.2.3S36 26.9 36 27s0 .3.1.4c0 .1.1.2.2.3.1.1.2.2.3.2S36.9 28 37 28s.3 0 .4-.1.2-.1.3-.2c.1-.1.2-.2.2-.3S38 27.1 38 27s0-.3-.1-.4S37.8 26.4 37.7 26.3zM29 26h-2c-.6 0-1 .4-1 1s.4 1 1 1h2c.6 0 1-.4 1-1S29.6 26 29 26zM5 12h4c.6 0 1-.4 1-1s-.4-1-1-1H5c-.6 0-1 .4-1 1S4.4 12 5 12zM12 18c.6 0 1-.4 1-1v-2c0-.6-.4-1-1-1s-1 .4-1 1v2C11 17.6 11.4 18 12 18zM7 14c-.6 0-1 .4-1 1v2c0 .6.4 1 1 1s1-.4 1-1v-2C8 14.4 7.6 14 7 14zM17 18c.6 0 1-.4 1-1v-2c0-.6-.4-1-1-1s-1 .4-1 1v2C16 17.6 16.4 18 17 18zM22 18c.6 0 1-.4 1-1v-2c0-.6-.4-1-1-1s-1 .4-1 1v2C21 17.6 21.4 18 22 18zM27 18c.6 0 1-.4 1-1v-2c0-.6-.4-1-1-1s-1 .4-1 1v2C26 17.6 26.4 18 27 18zM32 18c.6 0 1-.4 1-1v-2c0-.6-.4-1-1-1s-1 .4-1 1v2C31 17.6 31.4 18 32 18zM37 18c.6 0 1-.4 1-1v-2c0-.6-.4-1-1-1s-1 .4-1 1v2C36 17.6 36.4 18 37 18zM42 18c.6 0 1-.4 1-1v-2c0-.6-.4-1-1-1s-1 .4-1 1v2C41 17.6 41.4 18 42 18zM47 18c.6 0 1-.4 1-1v-2c0-.6-.4-1-1-1s-1 .4-1 1v2C46 17.6 46.4 18 47 18zM52 18c.6 0 1-.4 1-1v-2c0-.6-.4-1-1-1s-1 .4-1 1v2C51 17.6 51.4 18 52 18zM57 18c.6 0 1-.4 1-1v-2c0-.6-.4-1-1-1s-1 .4-1 1v2C56 17.6 56.4 18 57 18zM15.5 38.2c-.5-.3-1.1-.2-1.4.3l-1.3 2.1c-.6 1-.6 2.2 0 3.2l.6 1c.2.3.2.7 0 1.1l-.6 1c-.6 1-.6 2.2 0 3.2l.6 1c.2.3.5.5.8.5.2 0 .4-.1.5-.2.5-.3.6-.9.3-1.4l-.6-1c-.2-.3-.2-.7 0-1.1l.6-1c.6-1 .6-2.2 0-3.2l-.6-1c-.2-.3-.2-.7 0-1.1l1.3-2.1C16.1 39.1 16 38.5 15.5 38.2zM21.5 38.2c-.5-.3-1.1-.2-1.4.3l-1.3 2.1c-.6 1-.6 2.2 0 3.2l.6 1c.2.3.2.7 0 1.1l-.6 1c-.6 1-.6 2.2 0 3.2.2.3.5.5.8.5.2 0 .4-.1.5-.2.5-.3.6-.9.3-1.4-.2-.3-.2-.7 0-1.1l.6-1c.6-1 .6-2.2 0-3.2l-.6-1c-.2-.3-.2-.7 0-1.1l1.3-2.1C22.1 39.1 22 38.5 21.5 38.2zM21.2 53.2c.3-.5.2-1.1-.3-1.4-.5-.3-1.1-.2-1.4.3l-.6 1c-.6 1-.6 2.2 0 3.2l.6 1c.2.3.5.5.8.5.2 0 .4-.1.5-.2.5-.3.6-.9.3-1.4l-.6-1c-.2-.3-.2-.7 0-1.1L21.2 53.2zM27.5 38.2c-.5-.3-1.1-.2-1.4.3l-1.3 2.1c-.6 1-.6 2.2 0 3.2l.6 1c.2.3.2.7 0 1.1l-.6 1c-.6 1-.6 2.2 0 3.2l.6 1c.2.3.2.7 0 1.1l-.6 1c-.6 1-.6 2.2 0 3.2l.6 1c.2.3.2.7 0 1.1l-1.3 2.1c-.3.5-.2 1.1.3 1.4.2.1.4.2.5.2.3 0 .7-.2.8-.5l1.3-2.1c.6-1 .6-2.2 0-3.2l-.6-1c-.2-.3-.2-.7 0-1.1l.6-1c.6-1 .6-2.2 0-3.2l-.6-1c-.2-.3-.2-.7 0-1.1l.6-1c.6-1 .6-2.2 0-3.2l-.6-1c-.2-.3-.2-.7 0-1.1l1.3-2.1C28.1 39.1 28 38.5 27.5 38.2zM33.5 38.2c-.5-.3-1.1-.2-1.4.3l-1.3 2.1c-.6 1-.6 2.2 0 3.2l.6 1c.2.3.2.7 0 1.1l-.6 1c-.6 1-.6 2.2 0 3.2l.6 1c.2.3.2.7 0 1.1l-.6 1c-.6 1-.6 2.2 0 3.2l.6 1c.2.3.2.7 0 1.1-.3.5-.2 1.1.3 1.4.2.1.4.2.5.2.3 0 .7-.2.8-.5.6-1 .6-2.2 0-3.2l-.6-1c-.2-.3-.2-.7 0-1.1l.6-1c.6-1 .6-2.2 0-3.2l-.6-1c-.2-.3-.2-.7 0-1.1l.6-1c.6-1 .6-2.2 0-3.2l-.6-1c-.2-.3-.2-.7 0-1.1l1.3-2.1C34.1 39.1 34 38.5 33.5 38.2zM39.5 38.2c-.5-.3-1.1-.2-1.4.3l-1.3 2.1c-.6 1-.6 2.2 0 3.2l.6 1c.2.3.2.7 0 1.1l-.6 1c-.6 1-.6 2.2 0 3.2l.6 1c.2.3.2.7 0 1.1l-.6 1c-.6 1-.6 2.2 0 3.2l.6 1c.2.3.2.7 0 1.1l-1.3 2.1c-.3.5-.2 1.1.3 1.4.2.1.4.2.5.2.3 0 .7-.2.8-.5l1.3-2.1c.6-1 .6-2.2 0-3.2l-.6-1c-.2-.3-.2-.7 0-1.1l.6-1c.6-1 .6-2.2 0-3.2l-.6-1c-.2-.3-.2-.7 0-1.1l.6-1c.6-1 .6-2.2 0-3.2l-.6-1c-.2-.3-.2-.7 0-1.1l1.3-2.1C40.1 39.1 40 38.5 39.5 38.2zM45.5 38.2c-.5-.3-1.1-.2-1.4.3l-1.3 2.1c-.6 1-.6 2.2 0 3.2l.6 1c.2.3.2.7 0 1.1l-.6 1c-.6 1-.6 2.2 0 3.2l.6 1c.2.3.2.7 0 1.1l-.6 1c-.6 1-.6 2.2 0 3.2l.6 1c.2.3.2.7 0 1.1-.3.5-.2 1.1.3 1.4.2.1.4.2.5.2.3 0 .7-.2.8-.5.6-1 .6-2.2 0-3.2l-.6-1c-.2-.3-.2-.7 0-1.1l.6-1c.6-1 .6-2.2 0-3.2l-.6-1c-.2-.3-.2-.7 0-1.1l.6-1c.6-1 .6-2.2 0-3.2l-.6-1c-.2-.3-.2-.7 0-1.1l1.3-2.1C46.1 39.1 46 38.5 45.5 38.2zM51.5 38.2c-.5-.3-1.1-.2-1.4.3l-1.3 2.1c-.6 1-.6 2.2 0 3.2l.6 1c.1.2.1.3.2.5-.3.9.6 1.2.6 1.2s1 .3 1.2-.4c.2-.8.1-1.6-.3-2.3l-.6-1c-.2-.3-.2-.7 0-1.1l1.3-2.1C52.1 39.1 52 38.5 51.5 38.2zM50.5 49c-.3-.5-.9-.6-1.4-.3-.5.3-.6.9-.3 1.4l.6 1c.2.3.2.7 0 1.1l-.6 1c-.3.5-.2 1.1.3 1.4.2.1.4.2.5.2.3 0 .7-.2.8-.5l.6-1c.6-1 .6-2.2 0-3.2L50.5 49z"/></g></svg>