<svg xmlns="http://www.w3.org/2000/svg" width="64" height="64" viewBox="0 0 64 64"><path fill="#f283a5" d="M54.38,49.456c-0.164-0.772-0.355-1.536-0.56-2.297l0.01-0.002c-0.137-0.504-0.285-1.004-0.44-1.501 c-0.012-0.038-0.022-0.077-0.034-0.115c-0.182-0.582-0.377-1.16-0.583-1.733c-0.109-0.303-0.228-0.603-0.343-0.903 c-0.102-0.264-0.201-0.529-0.308-0.792c-0.138-0.339-0.283-0.675-0.43-1.011c-0.097-0.223-0.194-0.445-0.295-0.666 c-0.155-0.341-0.315-0.679-0.479-1.016c-0.106-0.218-0.215-0.434-0.324-0.65c-0.166-0.328-0.334-0.654-0.509-0.978 c-0.131-0.242-0.267-0.481-0.402-0.72c-0.163-0.288-0.323-0.578-0.493-0.863c-0.309-0.52-0.627-1.036-0.958-1.544 c-0.211-0.31-0.409-0.635-0.62-0.931c-0.013-0.013-0.015-0.024-0.026-0.026c-0.02-0.028-0.039-0.059-0.059-0.087l-0.005-0.002 c-0.22-0.334-0.44-0.66-0.686-0.97c-1.501-2.079-3.171-4.032-4.991-5.837c-1.383-1.384-2.847-2.683-4.385-3.892 c-0.62-0.494-1.227-0.945-1.791-1.354c-0.564-0.409-1.072-0.747-1.551-1.072c-0.025-0.024-0.053-0.043-0.085-0.056 c-0.014-0.014-0.028-0.014-0.042-0.028l-1.17-0.338c-0.578-0.169-1.156-0.338-1.72-0.508l0.423,0.931l0.169,0.381 c0.282,0.635,0.564,1.283,0.818,1.946c0.024,0.03,0.043,0.063,0.056,0.099l0.254,0.635c0.015,0.016,0.025,0.035,0.028,0.056 c0.493,1.227,0.987,2.496,1.466,3.821c0.627,1.759,1.226,3.601,1.788,5.531c0.197,0.671,0.383,1.365,0.571,2.055 c0.113,0.416,0.233,0.819,0.341,1.242c0.296,1.146,0.578,2.315,0.839,3.51c0.181,0.827,0.35,1.657,0.509,2.489 c0.068,0.355,0.126,0.711,0.19,1.067c0.086,0.479,0.174,0.958,0.253,1.439c0.065,0.399,0.121,0.798,0.181,1.198 c0.067,0.444,0.135,0.887,0.196,1.332c0.054,0.402,0.101,0.804,0.15,1.207c0.068,0.558,0.14,1.116,0.199,1.675 c0.268,2.524,0.423,4.907,0.493,7.121c2.171-2.482,4.343-4.977,6.514-7.459l0.254-0.296c0.197,0.085,0.381,0.169,0.578,0.254 c2.538,1.128,5.09,2.256,7.628,3.384C54.873,52.121,54.69,50.866,54.38,49.456z"/><path fill="#000000" d="M40.025,58.296c-0.113,0-0.227-0.019-0.337-0.059c-0.387-0.139-0.649-0.499-0.662-0.909 c-0.074-2.314-0.238-4.686-0.488-7.047c-0.047-0.448-0.103-0.894-0.157-1.339l-0.083-0.679c-0.034-0.279-0.068-0.559-0.105-0.837 c-0.045-0.33-0.095-0.66-0.145-0.991l-0.098-0.65c-0.042-0.287-0.084-0.574-0.131-0.86c-0.063-0.385-0.133-0.771-0.202-1.155 l-0.236-1.324c-0.157-0.822-0.324-1.644-0.503-2.462c-0.247-1.131-0.519-2.267-0.831-3.473c-0.067-0.263-0.139-0.515-0.209-0.768 l-0.183-0.66c-0.168-0.618-0.336-1.237-0.512-1.838c-0.54-1.854-1.136-3.697-1.771-5.478c-0.419-1.159-0.891-2.387-1.438-3.748 c-0.017-0.03-0.031-0.062-0.044-0.094l-0.231-0.578c-0.033-0.054-0.061-0.11-0.083-0.169c-0.248-0.646-0.523-1.278-0.799-1.897 l-0.588-1.303c-0.162-0.357-0.101-0.776,0.157-1.072c0.258-0.295,0.664-0.413,1.04-0.3c0.562,0.168,1.138,0.337,1.713,0.505 l1.169,0.338c0.098,0.028,0.189,0.071,0.273,0.127c0.063,0.035,0.124,0.076,0.181,0.121l0.14,0.095 c0.434,0.292,0.891,0.601,1.393,0.965c0.575,0.417,1.193,0.877,1.826,1.38c1.561,1.228,3.066,2.563,4.47,3.968 c1.854,1.839,3.569,3.845,5.095,5.96c0.224,0.28,0.447,0.605,0.669,0.942c0.013,0.016,0.024,0.031,0.035,0.048l-0.002,0.002 c0,0.001,0.001,0.002,0.002,0.004c0.009,0.01,0.018,0.02,0.026,0.03c0.017,0.021,0.033,0.041,0.048,0.063 c0.132,0.185,0.259,0.379,0.387,0.575l0.246,0.373c0.35,0.537,0.676,1.063,0.992,1.597c0.13,0.219,0.254,0.439,0.378,0.66 l0.215,0.38c0.108,0.191,0.217,0.384,0.321,0.577c0.18,0.333,0.351,0.666,0.521,1.002c0.113,0.224,0.225,0.444,0.333,0.667 c0.166,0.342,0.33,0.688,0.488,1.035l0.266,0.6c0.187,0.427,0.336,0.771,0.477,1.118c0.085,0.21,0.167,0.424,0.248,0.638 l0.151,0.392c0.091,0.233,0.182,0.468,0.266,0.704c0.21,0.586,0.41,1.176,0.597,1.771c0,0.002,0.034,0.118,0.034,0.119 c0.158,0.509,0.31,1.02,0.45,1.534c0.013,0.049,0.022,0.099,0.028,0.147c0.195,0.731,0.377,1.466,0.535,2.206 c0.267,1.214,0.469,2.427,0.635,3.812c0.043,0.357-0.109,0.71-0.399,0.924c-0.289,0.215-0.672,0.256-1,0.109l-7.526-3.339 l-6.289,7.2C40.584,58.176,40.309,58.296,40.025,58.296z M33.776,23.237c0.563,1.397,1.047,2.657,1.479,3.854 c0.649,1.822,1.257,3.702,1.807,5.592c0.18,0.611,0.352,1.243,0.523,1.875l0.177,0.644c0.075,0.268,0.15,0.534,0.221,0.81 c0.318,1.229,0.596,2.39,0.848,3.545c0.183,0.835,0.354,1.674,0.515,2.515c0.042,0.219,0.08,0.438,0.118,0.657l0.122,0.687 c0.071,0.396,0.143,0.79,0.207,1.188c0.049,0.298,0.093,0.595,0.136,0.892l0.097,0.643c0.051,0.34,0.103,0.681,0.149,1.022 c0.038,0.289,0.073,0.576,0.108,0.863l0.083,0.675c0.056,0.458,0.112,0.915,0.16,1.374c0.166,1.564,0.295,3.134,0.386,4.689 l5.123-5.871c0.284-0.331,0.749-0.438,1.15-0.269l6.574,2.913c-0.104-0.637-0.222-1.25-0.356-1.863 c-0.162-0.761-0.349-1.508-0.55-2.251c-0.012-0.046-0.021-0.092-0.026-0.139c-0.124-0.445-0.256-0.888-0.393-1.329l0.922-0.411 l-0.954,0.3c-0.179-0.569-0.37-1.134-0.571-1.695c-0.079-0.221-0.163-0.438-0.248-0.656l-0.154-0.401 c-0.076-0.2-0.152-0.4-0.233-0.598c-0.135-0.333-0.276-0.661-0.42-0.989l-0.288-0.652c-0.151-0.33-0.308-0.661-0.469-0.991 c-0.104-0.214-0.21-0.424-0.316-0.634c-0.163-0.32-0.326-0.64-0.497-0.957c-0.099-0.181-0.201-0.362-0.304-0.545l-0.217-0.383 c-0.116-0.208-0.233-0.415-0.354-0.62c-0.302-0.507-0.612-1.012-0.937-1.508c-0.08-0.118-0.17-0.256-0.259-0.393 c-0.099-0.151-0.196-0.302-0.297-0.446c-0.021-0.024-0.043-0.05-0.062-0.076c-0.006-0.008-0.023-0.034-0.039-0.057 c-0.018-0.022-0.035-0.046-0.051-0.07c-0.204-0.31-0.406-0.611-0.635-0.898c-1.489-2.063-3.132-3.984-4.911-5.749 c-1.351-1.352-2.796-2.634-4.299-3.815c-0.613-0.486-1.208-0.929-1.761-1.33c-0.481-0.35-0.92-0.646-1.336-0.926l-0.181-0.123 l-0.665-0.192c0.175,0.404,0.346,0.813,0.507,1.229c0.041,0.072,0.076,0.147,0.104,0.225l0.224,0.557 c0.015,0.031,0.029,0.063,0.041,0.094L33.776,23.237z"/><path fill="#f283a5" d="M31.179,20.072l-1.17,0.338c-0.014,0.014-0.028,0.014-0.042,0.028 c-0.031,0.014-0.06,0.033-0.085,0.056c-0.479,0.324-0.987,0.663-1.551,1.072c-0.564,0.409-1.17,0.86-1.791,1.354 c-1.538,1.209-3.002,2.508-4.385,3.892c-1.821,1.806-3.49,3.758-4.991,5.837c-0.246,0.31-0.466,0.636-0.686,0.97l-0.005,0.003 c-0.02,0.028-0.039,0.059-0.059,0.087c-0.011,0.002-0.013,0.013-0.026,0.026c-0.212,0.296-0.409,0.62-0.62,0.931 c-0.331,0.508-0.649,1.023-0.958,1.544c-0.169,0.284-0.329,0.574-0.492,0.861c-0.136,0.241-0.273,0.48-0.404,0.723 c-0.174,0.322-0.341,0.648-0.507,0.974c-0.11,0.218-0.22,0.435-0.327,0.655c-0.163,0.335-0.323,0.672-0.477,1.012 c-0.101,0.223-0.2,0.447-0.297,0.671c-0.146,0.334-0.291,0.669-0.428,1.007c-0.107,0.264-0.207,0.53-0.309,0.795 c-0.115,0.3-0.234,0.598-0.342,0.901c-0.206,0.574-0.401,1.152-0.584,1.734c-0.011,0.035-0.02,0.071-0.031,0.106 c-0.155,0.5-0.304,1.003-0.442,1.509l0.01,0.002c-0.205,0.76-0.396,1.525-0.56,2.297c-0.31,1.41-0.493,2.665-0.62,3.722 c2.538-1.128,5.09-2.256,7.628-3.384c0.197-0.085,0.381-0.169,0.578-0.254l0.254,0.296c2.171,2.482,4.343,4.977,6.514,7.459 c0.071-2.214,0.226-4.597,0.493-7.121c0.058-0.558,0.13-1.115,0.198-1.671c0.05-0.404,0.097-0.809,0.151-1.212 c0.06-0.442,0.128-0.883,0.195-1.324c0.06-0.401,0.117-0.803,0.182-1.203c0.078-0.476,0.165-0.951,0.25-1.425 c0.065-0.361,0.124-0.723,0.193-1.083c0.159-0.831,0.327-1.66,0.509-2.487c0.261-1.195,0.543-2.365,0.84-3.511 c0.108-0.418,0.226-0.817,0.337-1.227c0.189-0.695,0.376-1.393,0.574-2.068c0.562-1.93,1.161-3.772,1.788-5.531 c0.479-1.325,0.973-2.594,1.466-3.821c0.004-0.021,0.013-0.041,0.028-0.056l0.254-0.635c0.013-0.036,0.032-0.069,0.056-0.099 c0.254-0.663,0.536-1.311,0.818-1.946l0.169-0.381l0.423-0.931C32.336,19.733,31.757,19.903,31.179,20.072z"/><path fill="#000000" d="M23.975,58.296c-0.283,0-0.559-0.12-0.753-0.342l-6.289-7.2l-7.526,3.339 c-0.328,0.146-0.71,0.105-1-0.109c-0.29-0.214-0.442-0.566-0.399-0.924c0.166-1.385,0.368-2.598,0.637-3.818 c0.156-0.735,0.338-1.47,0.534-2.201c0.005-0.049,0.015-0.097,0.027-0.144c0.141-0.519,0.293-1.032,0.452-1.544 c0-0.001,0.032-0.108,0.032-0.11c0.187-0.595,0.386-1.187,0.598-1.773c0.085-0.238,0.177-0.476,0.269-0.714l0.123-0.319 c0.09-0.234,0.18-0.469,0.274-0.701c0.139-0.344,0.288-0.687,0.437-1.028c0.101-0.23,0.2-0.46,0.304-0.688 c0.158-0.346,0.321-0.69,0.488-1.033c0.109-0.226,0.222-0.449,0.336-0.673c0.167-0.33,0.338-0.663,0.517-0.993 c0.109-0.203,0.224-0.405,0.338-0.607l0.161-0.285c0.137-0.244,0.273-0.488,0.417-0.729c0.316-0.532,0.642-1.06,0.979-1.578 c0.1-0.146,0.184-0.274,0.267-0.402c0.125-0.192,0.25-0.383,0.38-0.564c0.016-0.022,0.032-0.043,0.05-0.064 c0.008-0.01,0.016-0.019,0.024-0.028c0.233-0.355,0.469-0.701,0.73-1.032c1.502-2.082,3.217-4.089,5.071-5.927 c1.4-1.401,2.906-2.737,4.471-3.968c0.629-0.5,1.247-0.96,1.821-1.377c0.503-0.364,0.96-0.673,1.393-0.965l0.141-0.095 c0.057-0.045,0.117-0.086,0.181-0.121c0.084-0.056,0.176-0.099,0.273-0.127l1.171-0.339c0.573-0.167,1.149-0.336,1.711-0.504 c0.377-0.113,0.782,0.005,1.04,0.3c0.258,0.296,0.319,0.715,0.157,1.072l-0.588,1.303c-0.275,0.619-0.551,1.251-0.799,1.897 c-0.022,0.061-0.052,0.118-0.086,0.173l-0.229,0.574c-0.013,0.032-0.027,0.063-0.044,0.094c-0.547,1.361-1.019,2.589-1.439,3.752 c-0.633,1.776-1.229,3.619-1.768,5.471c-0.17,0.578-0.33,1.17-0.491,1.763l-0.212,0.767c-0.067,0.242-0.136,0.485-0.2,0.735 c-0.319,1.238-0.592,2.375-0.832,3.476c-0.179,0.818-0.346,1.64-0.503,2.462c-0.043,0.227-0.083,0.455-0.123,0.684l-0.126,0.713 c-0.065,0.361-0.131,0.723-0.19,1.085c-0.042,0.261-0.081,0.525-0.12,0.79l-0.096,0.641c-0.054,0.356-0.107,0.712-0.155,1.068 c-0.039,0.29-0.074,0.579-0.109,0.869l-0.079,0.642c-0.056,0.447-0.11,0.896-0.158,1.345c-0.25,2.362-0.414,4.733-0.488,7.048 c-0.013,0.41-0.275,0.771-0.662,0.909C24.201,58.276,24.088,58.296,23.975,58.296z M17.206,48.541c0.285,0,0.564,0.122,0.759,0.349 l5.123,5.871c0.091-1.556,0.22-3.125,0.386-4.69c0.048-0.461,0.104-0.921,0.162-1.381l0.078-0.636 c0.036-0.299,0.072-0.598,0.112-0.896c0.05-0.366,0.105-0.733,0.16-1.1l0.095-0.634c0.041-0.273,0.081-0.546,0.125-0.819 c0.062-0.375,0.129-0.747,0.196-1.119l0.124-0.699c0.041-0.239,0.083-0.479,0.128-0.717c0.161-0.841,0.332-1.679,0.515-2.514 c0.245-1.125,0.522-2.285,0.848-3.548c0.068-0.264,0.141-0.521,0.213-0.777l0.206-0.75c0.165-0.606,0.33-1.212,0.503-1.8 c0.549-1.887,1.156-3.767,1.804-5.585c0.435-1.201,0.919-2.461,1.481-3.858l0.002,0.001c0.012-0.031,0.026-0.063,0.041-0.093 l0.238-0.597c0.02-0.057,0.051-0.122,0.091-0.189c0.16-0.413,0.331-0.821,0.505-1.225l-0.665,0.192l-0.181,0.123 c-0.416,0.28-0.855,0.576-1.337,0.926c-0.552,0.401-1.146,0.844-1.756,1.327c-1.507,1.185-2.952,2.467-4.3,3.815 c-1.779,1.765-3.423,3.687-4.888,5.716c-0.255,0.323-0.457,0.625-0.661,0.935c-0.017,0.026-0.036,0.052-0.056,0.077l-0.034,0.05 c-0.019,0.026-0.04,0.052-0.062,0.076c-0.099,0.142-0.194,0.289-0.291,0.438c-0.092,0.141-0.184,0.282-0.278,0.42 c-0.31,0.478-0.621,0.981-0.924,1.49c-0.135,0.227-0.264,0.456-0.392,0.687l-0.165,0.292c-0.107,0.189-0.215,0.378-0.317,0.569 c-0.17,0.315-0.333,0.633-0.494,0.951c-0.11,0.216-0.217,0.428-0.32,0.641c-0.159,0.328-0.316,0.657-0.467,0.988 c-0.1,0.218-0.194,0.437-0.289,0.655c-0.144,0.328-0.285,0.653-0.419,0.983c-0.09,0.221-0.174,0.441-0.258,0.662l-0.127,0.328 c-0.086,0.223-0.172,0.445-0.252,0.669c-0.203,0.563-0.393,1.127-0.571,1.696l-0.985-0.193l0.955,0.296 c-0.138,0.444-0.271,0.89-0.395,1.339c-0.006,0.046-0.015,0.091-0.026,0.137c-0.201,0.743-0.388,1.49-0.548,2.244 c-0.136,0.617-0.254,1.232-0.357,1.87l6.573-2.913C16.941,48.567,17.074,48.541,17.206,48.541z"/><path fill="#000000" d="M18.482,45.742c-0.062,0-0.124-0.006-0.187-0.018c-0.543-0.103-0.899-0.625-0.797-1.168 c0.139-0.735,0.288-1.458,0.448-2.17c0.121-0.538,0.658-0.875,1.194-0.757c0.539,0.121,0.878,0.655,0.757,1.194 c-0.154,0.69-0.3,1.392-0.435,2.104C19.373,45.408,18.954,45.742,18.482,45.742z M19.916,39.731c-0.092,0-0.186-0.013-0.278-0.04 c-0.53-0.153-0.836-0.708-0.682-1.238c0.858-2.963,1.936-5.844,3.201-8.564c0.231-0.5,0.825-0.716,1.328-0.485 c0.501,0.233,0.718,0.828,0.484,1.329c-1.222,2.628-2.263,5.413-3.094,8.277C20.75,39.447,20.351,39.731,19.916,39.731z"/><path fill="#000000" d="M45.9,45.742c-0.472,0-0.891-0.334-0.981-0.814c-0.135-0.712-0.28-1.413-0.435-2.104 c-0.121-0.539,0.218-1.073,0.757-1.194c0.54-0.119,1.073,0.219,1.194,0.757c0.16,0.712,0.31,1.435,0.448,2.17 c0.103,0.543-0.254,1.065-0.797,1.168C46.024,45.736,45.962,45.742,45.9,45.742z M44.468,39.731c-0.435,0-0.834-0.284-0.96-0.722 c-0.832-2.866-1.873-5.651-3.095-8.277c-0.233-0.501-0.017-1.096,0.484-1.328c0.504-0.233,1.097-0.016,1.328,0.484 c1.266,2.718,2.343,5.6,3.202,8.564c0.154,0.53-0.151,1.085-0.682,1.238C44.653,39.719,44.56,39.731,44.468,39.731z"/><path fill="#f7a1c8" d="M58.848,20.624c-0.367,6.799-0.606,10.786-1.904,12.711c-0.221,0.364-0.525,0.672-0.888,0.9	c-0.473,0.301-0.999,0.512-1.551,0.623l-0.24,0.042c-0.666,0.118-1.346,0.132-2.016,0.042c-0.183-0.014-0.353-0.042-0.536-0.069	c-0.048-0.003-0.096-0.012-0.141-0.028c-0.226-0.042-0.465-0.083-0.691-0.138c-0.048-0.003-0.096-0.012-0.141-0.028	c-0.183-0.055-0.381-0.097-0.564-0.152c-1.215-0.356-2.407-0.786-3.567-1.288c-0.451-0.18-0.888-0.374-1.325-0.554	c-0.649-0.277-1.382-0.609-2.186-1.025l-0.818-0.443c-1.038-0.57-2.043-1.198-3.009-1.879c-1.127-0.774-2.196-1.625-3.201-2.548	c-0.458-0.384-0.896-0.791-1.311-1.218c-0.31-0.305-0.62-0.623-0.931-0.942c-0.381-0.388-0.747-0.803-1.114-1.232	c-0.183-0.194-0.367-0.415-0.55-0.637c-0.055-0.062-0.107-0.127-0.155-0.194c-0.008,0-0.014-0.006-0.014-0.014l0,0	c0-0.008-0.006-0.014-0.014-0.014l0,0c0.014-0.014,0.014-0.028,0.028-0.042v-0.014l0.014-0.014c0.014-0.028,0.028-0.042,0.042-0.069	c0.014-0.028,0.056-0.097,0.127-0.222c0.253-0.491,0.536-0.967,0.846-1.426c0.07-0.111,0.141-0.222,0.226-0.332	c0.127-0.208,0.282-0.415,0.437-0.637c0.212-0.305,0.606-0.817,1.17-1.468v-0.014c0.113-0.111,0.197-0.222,0.31-0.346	c0.507-0.573,1.046-1.118,1.613-1.634c1.656-1.566,3.526-2.899,5.555-3.96c0.508-0.263,7.628-3.891,12.535-3.295	c1.176,0.095,2.284,0.578,3.144,1.371C58.566,10.959,59.328,11.983,58.848,20.624z"/><path fill="#f7a1c8" d="M5.15,20.624c0.367,6.799,0.606,10.786,1.904,12.711c0.221,0.364,0.525,0.672,0.888,0.9	c0.473,0.301,0.999,0.512,1.551,0.623l0.24,0.042c0.666,0.118,1.346,0.132,2.016,0.042c0.183-0.014,0.353-0.042,0.536-0.069	c0.048-0.003,0.096-0.012,0.141-0.028c0.226-0.042,0.465-0.083,0.691-0.138c0.048-0.003,0.096-0.012,0.141-0.028	c0.183-0.055,0.381-0.097,0.564-0.152c1.215-0.356,2.407-0.786,3.567-1.288c0.451-0.18,0.888-0.374,1.325-0.554	c0.649-0.277,1.382-0.609,2.186-1.025l0.818-0.443c1.036-0.572,2.039-1.2,3.003-1.883c1.127-0.774,2.196-1.625,3.201-2.548	c0.458-0.384,0.896-0.791,1.311-1.218c0.31-0.305,0.62-0.623,0.931-0.942c0.381-0.388,0.747-0.803,1.114-1.232	c0.183-0.194,0.367-0.415,0.55-0.637c0.055-0.062,0.107-0.127,0.155-0.194c0.008,0,0.014-0.006,0.014-0.014l0,0	c0-0.008,0.006-0.014,0.014-0.014l0,0c-0.014-0.014-0.014-0.028-0.028-0.042v-0.014l-0.014-0.014	c-0.014-0.028-0.028-0.042-0.042-0.069c-0.014-0.028-0.056-0.097-0.127-0.222c-0.253-0.491-0.536-0.967-0.846-1.426	c-0.07-0.111-0.141-0.222-0.226-0.332c-0.127-0.208-0.282-0.415-0.437-0.637c-0.212-0.305-0.606-0.817-1.17-1.468v-0.014	c-0.113-0.111-0.197-0.222-0.31-0.346c-0.504-0.571-1.038-1.115-1.602-1.63c-1.656-1.566-3.526-2.899-5.555-3.96	c-0.508-0.263-7.628-3.891-12.535-3.295c-1.176,0.095-2.284,0.578-3.144,1.371C5.432,10.959,4.676,11.983,5.15,20.624z"/><path fill="#ed7899" d="M56.945,33.335c-0.257,0.354-0.577,0.659-0.945,0.9c-0.458,0.288-0.964,0.494-1.495,0.609 c-0.078,0.025-0.158,0.044-0.24,0.055c-0.666,0.118-1.346,0.132-2.016,0.042c-0.183-0.014-0.353-0.042-0.536-0.069 c-0.048-0.003-0.096-0.012-0.141-0.028c-0.226-0.042-0.465-0.083-0.691-0.138c-0.048-0.003-0.096-0.012-0.141-0.028 c-0.183-0.055-0.381-0.097-0.564-0.152c-1.21-0.348-2.396-0.769-3.553-1.26c-0.465-0.194-0.931-0.388-1.382-0.582 c-0.635-0.277-1.354-0.609-2.143-1.025c-0.268-0.125-0.55-0.277-0.846-0.443c-1.031-0.568-2.026-1.195-2.981-1.879 c-1.127-0.774-2.196-1.625-3.201-2.548c-0.458-0.384-0.896-0.791-1.311-1.218c-0.31-0.305-0.62-0.623-0.931-0.942 c-0.381-0.388-0.747-0.803-1.114-1.232c-0.183-0.194-0.367-0.415-0.55-0.637c-0.055-0.062-0.107-0.127-0.155-0.194 c-0.008,0-0.014-0.006-0.014-0.014l0,0h0.028c0.07,0.042,0.141,0.083,0.197,0.111c0.367,0.194,0.733,0.374,1.086,0.54 c1.17,0.595,2.298,1.122,3.356,1.592c1.509,0.665,2.891,1.218,4.174,1.689c2.587,0.947,5.273,1.611,8.009,1.98 c1.531,0.131,3.038,0.457,4.484,0.969c0.1,0.027,0.195,0.069,0.282,0.125c1.219,0.451,2.237,1.309,2.876,2.423 C56.715,32.405,56.869,32.862,56.945,33.335z"/><path fill="#000000" d="M53.122,36c-0.336,0-0.675-0.022-1.008-0.067c-0.131-0.009-0.305-0.035-0.487-0.063 c-0.085-0.006-0.187-0.023-0.289-0.053c-0.23-0.042-0.432-0.079-0.621-0.124c-0.101-0.013-0.2-0.035-0.299-0.069 c-0.047-0.014-0.127-0.033-0.207-0.054c-0.109-0.027-0.219-0.056-0.324-0.088c-1.235-0.356-2.47-0.793-3.654-1.296l-0.224-0.094 c-0.392-0.163-0.782-0.327-1.163-0.491c-0.794-0.346-1.517-0.691-2.213-1.058c-0.244-0.111-0.55-0.275-0.871-0.457 c-1.056-0.58-2.092-1.234-3.073-1.938c-1.144-0.785-2.258-1.672-3.294-2.624c-0.447-0.374-0.914-0.807-1.352-1.257 c-0.279-0.273-0.574-0.576-0.87-0.879c-0.454-0.463-0.835-0.896-1.218-1.342c-0.165-0.175-0.363-0.412-0.561-0.65 c-0.045-0.05-0.104-0.122-0.161-0.199c-0.147-0.177-0.237-0.402-0.237-0.646c0-0.553,0.447-1,1-1c0.177,0,0.379,0.047,0.532,0.136 l0.13,0.075c0.384,0.203,0.736,0.375,1.075,0.535c1.056,0.536,2.138,1.05,3.336,1.583c1.422,0.626,2.769,1.171,4.112,1.664 c2.513,0.92,5.137,1.568,7.798,1.928c1.565,0.133,3.158,0.478,4.684,1.019c0.097,0.022,0.24,0.081,0.384,0.162 c1.397,0.54,2.57,1.542,3.308,2.83c0.295,0.548,0.484,1.109,0.577,1.693c0.042,0.263-0.022,0.53-0.179,0.745 c-0.329,0.454-0.734,0.84-1.205,1.148c-0.563,0.354-1.158,0.6-1.787,0.74c-0.115,0.034-0.233,0.061-0.352,0.077 C54.006,35.961,53.563,36,53.122,36z M51.836,33.881c0.035,0.004,0.073,0.01,0.09,0.012c0.136,0.021,0.266,0.041,0.403,0.052 c0.689,0.09,1.198,0.07,1.762-0.029c0.032-0.011,0.171-0.042,0.204-0.049c0.416-0.09,0.811-0.251,1.173-0.479 c0.139-0.091,0.271-0.198,0.393-0.319c-0.063-0.212-0.148-0.417-0.254-0.614c-0.508-0.884-1.344-1.588-2.342-1.958 c-0.067-0.024-0.132-0.057-0.192-0.096c-1.442-0.508-2.867-0.815-4.312-0.939c-2.853-0.384-5.618-1.067-8.268-2.037 c-1.326-0.486-2.652-1.021-4.049-1.632c0.089,0.078,0.179,0.155,0.27,0.23c1.001,0.919,2.04,1.746,3.123,2.49 c0.935,0.669,1.903,1.279,2.897,1.827c0.28,0.157,0.537,0.298,0.783,0.411c0.699,0.366,1.379,0.691,2.123,1.016 c0.37,0.159,0.754,0.32,1.14,0.48l0.229,0.096c1.116,0.474,2.273,0.884,3.445,1.222c0.09,0.027,0.17,0.047,0.249,0.067 c0.101,0.025,0.202,0.052,0.3,0.08c0.04,0.005,0.079,0.013,0.118,0.022c0.187,0.046,0.384,0.081,0.572,0.115 C51.727,33.855,51.786,33.868,51.836,33.881z"/><path fill="#ed7899" d="M7.059,33.335c0.257,0.354,0.577,0.659,0.945,0.9c0.458,0.288,0.964,0.494,1.495,0.609 c0.078,0.025,0.158,0.044,0.24,0.055c0.666,0.118,1.346,0.132,2.016,0.042c0.183-0.014,0.353-0.042,0.536-0.069 c0.048-0.003,0.096-0.012,0.141-0.028c0.226-0.042,0.465-0.083,0.691-0.138c0.048-0.003,0.096-0.012,0.141-0.028 c0.183-0.055,0.381-0.097,0.564-0.152c1.21-0.348,2.396-0.769,3.553-1.26c0.465-0.194,0.931-0.388,1.382-0.582 c0.635-0.277,1.354-0.609,2.143-1.025c0.268-0.125,0.55-0.277,0.846-0.443c1.029-0.569,2.022-1.198,2.975-1.883 c1.127-0.774,2.196-1.625,3.201-2.548c0.458-0.384,0.896-0.791,1.311-1.218c0.31-0.305,0.62-0.623,0.931-0.942 c0.381-0.388,0.747-0.803,1.114-1.232c0.183-0.194,0.367-0.415,0.55-0.637c0.055-0.062,0.107-0.127,0.155-0.194 c0.008,0,0.014-0.006,0.014-0.014l0,0h-0.028c-0.07,0.042-0.141,0.083-0.197,0.111c-0.367,0.194-0.733,0.374-1.086,0.54 c-1.17,0.595-2.298,1.122-3.356,1.592c-1.509,0.665-2.891,1.218-4.174,1.689c-2.587,0.947-5.273,1.611-8.009,1.98 c-1.531,0.131-3.038,0.457-4.484,0.969c-0.1,0.027-0.195,0.069-0.282,0.125c-1.219,0.451-2.237,1.309-2.876,2.423 C7.284,32.403,7.132,32.861,7.059,33.335z"/><path fill="#000000" d="M10.881,36c-0.44,0-0.884-0.039-1.318-0.116c-0.092-0.013-0.206-0.038-0.32-0.072 c-0.629-0.141-1.225-0.387-1.771-0.73c-0.487-0.32-0.893-0.706-1.221-1.158c-0.155-0.214-0.22-0.479-0.18-0.74 c0.091-0.587,0.277-1.149,0.557-1.674c0.755-1.316,1.928-2.319,3.325-2.858c0.142-0.08,0.293-0.142,0.451-0.185 c1.459-0.52,3.052-0.863,4.664-1.001c2.61-0.354,5.234-1.003,7.75-1.924c1.347-0.493,2.692-1.038,4.114-1.665 c1.214-0.541,2.296-1.054,3.305-1.568c0.367-0.173,0.721-0.347,1.074-0.533c0.061-0.03,0.105-0.059,0.15-0.085 c0.629-0.379,1.541,0.125,1.541,0.858c0,0.243-0.09,0.47-0.237,0.646c-0.06,0.08-0.124,0.159-0.191,0.233 c-0.167,0.205-0.367,0.445-0.565,0.654c-0.347,0.408-0.729,0.841-1.126,1.245c-0.313,0.32-0.628,0.644-0.942,0.953 c-0.42,0.434-0.887,0.867-1.37,1.272c-1,0.92-2.114,1.808-3.278,2.605c-0.964,0.694-1.998,1.35-3.057,1.934 c-0.313,0.177-0.619,0.341-0.908,0.476c-0.659,0.348-1.382,0.693-2.165,1.034c-0.385,0.165-0.775,0.329-1.168,0.492l-0.228,0.096 c-1.179,0.5-2.412,0.938-3.661,1.298c-0.094,0.028-0.203,0.057-0.313,0.085c-0.08,0.02-0.161,0.04-0.238,0.063 c-0.072,0.025-0.167,0.047-0.268,0.06c-0.201,0.047-0.412,0.086-0.613,0.122c-0.045,0.018-0.182,0.045-0.32,0.054 c-0.163,0.028-0.334,0.054-0.519,0.068C11.556,35.978,11.217,36,10.881,36z M8.141,33.065c0.125,0.124,0.262,0.235,0.411,0.333 c0.346,0.217,0.74,0.378,1.156,0.468c0.033,0.007,0.066,0.016,0.099,0.026c0.011,0.002,0.095,0.021,0.105,0.022 c0.564,0.1,1.145,0.112,1.707,0.035c0.191-0.017,0.318-0.036,0.452-0.057c0.016-0.002,0.051-0.007,0.086-0.012 c0.031-0.009,0.063-0.017,0.095-0.021c0.25-0.046,0.446-0.081,0.631-0.126c0.04-0.01,0.08-0.018,0.121-0.022 c0.111-0.033,0.203-0.057,0.295-0.08c0.08-0.02,0.161-0.04,0.238-0.063c1.185-0.342,2.342-0.752,3.452-1.224l0.233-0.098 c0.386-0.16,0.77-0.321,1.144-0.481c0.734-0.32,1.414-0.645,2.074-0.992c0.29-0.135,0.548-0.275,0.819-0.429 c0.997-0.551,1.964-1.162,2.882-1.823c1.104-0.758,2.144-1.586,3.108-2.473c0.104-0.088,0.206-0.175,0.306-0.263 c-1.396,0.611-2.722,1.146-4.05,1.633c-2.652,0.971-5.417,1.655-8.22,2.033c-1.492,0.129-2.917,0.437-4.284,0.92 c-0.061,0.039-0.201,0.096-0.269,0.12c-0.997,0.369-1.834,1.073-2.356,1.983C8.282,32.655,8.201,32.855,8.141,33.065z"/><path fill="#000000" d="M10.876,36C10.875,36,10.875,36,10.876,36c-0.441,0-0.885-0.039-1.318-0.116L9.32,35.843 c-0.702-0.141-1.339-0.396-1.917-0.766c-0.485-0.304-0.905-0.729-1.205-1.223c-1.452-2.153-1.676-6.303-2.048-13.177 C3.676,12.008,4.38,10.584,5.278,9.717c1.037-0.956,2.366-1.536,3.759-1.648C9.396,8.024,9.823,8,10.264,8 c4.989,0,11.161,3.117,11.849,3.473c2.114,1.105,4.06,2.492,5.783,4.122c0.573,0.523,1.137,1.098,1.664,1.695l0.122,0.141 c0.047,0.054,0.09,0.105,0.142,0.157c0.051,0.05,0.095,0.104,0.133,0.163c0.47,0.545,0.887,1.072,1.155,1.457l0.113,0.16 c0.117,0.165,0.229,0.324,0.329,0.483c0.085,0.115,0.16,0.23,0.233,0.346c0.322,0.477,0.627,0.99,0.9,1.519l0.066,0.113 c0.004,0.007,0.025,0.044,0.04,0.07c0.003,0.005,0.007,0.011,0.01,0.016c0.018,0.026,0.034,0.054,0.049,0.081 c0.174,0.271,0.208,0.615,0.081,0.921c-0.046,0.111-0.11,0.211-0.189,0.296c-0.054,0.071-0.11,0.141-0.17,0.207 c-0.175,0.213-0.373,0.451-0.57,0.659c-0.349,0.411-0.73,0.843-1.128,1.247c-0.352,0.361-0.647,0.664-0.943,0.954 c-0.419,0.433-0.886,0.866-1.369,1.271c-1.002,0.922-2.116,1.809-3.277,2.605c-0.984,0.697-2.027,1.351-3.087,1.935l-0.823,0.446 c-0.733,0.379-1.47,0.725-2.271,1.065l-0.538,0.227c-0.266,0.113-0.534,0.228-0.807,0.337c-1.169,0.505-2.408,0.952-3.658,1.318 c-0.098,0.029-0.207,0.058-0.317,0.086c-0.08,0.02-0.161,0.04-0.238,0.063c-0.072,0.025-0.166,0.047-0.268,0.06 c-0.201,0.047-0.411,0.085-0.612,0.122c-0.046,0.018-0.183,0.045-0.321,0.054c-0.163,0.028-0.334,0.054-0.519,0.068 C11.55,35.978,11.212,36,10.876,36z M10.264,10c-0.36,0-0.706,0.02-1.026,0.059c-0.989,0.08-1.894,0.475-2.587,1.113 c-0.636,0.614-0.811,3.781-0.503,9.397c0.329,6.08,0.566,10.473,1.734,12.207c0.165,0.269,0.36,0.467,0.591,0.61 c0.376,0.24,0.782,0.403,1.216,0.49l0.216,0.037C10.227,33.972,10.552,34,10.875,34h0.001c0.246,0,0.493-0.017,0.737-0.05 c0.191-0.017,0.318-0.036,0.452-0.057c0.016-0.002,0.051-0.007,0.086-0.012c0.031-0.009,0.063-0.017,0.095-0.021 c0.251-0.046,0.446-0.081,0.631-0.126c0.04-0.01,0.08-0.018,0.121-0.022c0.111-0.033,0.203-0.057,0.295-0.08 c0.08-0.02,0.161-0.04,0.238-0.063c1.182-0.346,2.343-0.765,3.461-1.248c0.284-0.114,0.539-0.223,0.792-0.33l0.548-0.23 c0.744-0.317,1.438-0.643,2.108-0.989l0.8-0.434c0.988-0.545,1.967-1.158,2.903-1.82c1.095-0.752,2.134-1.579,3.101-2.468 c0.466-0.392,0.882-0.778,1.271-1.179c0.303-0.298,0.588-0.59,0.873-0.883c0.427-0.435,0.777-0.833,1.13-1.244 c0.101-0.108,0.193-0.214,0.282-0.318c-0.215-0.397-0.438-0.766-0.676-1.116c-0.075-0.118-0.127-0.201-0.189-0.282 c-0.023-0.029-0.044-0.061-0.063-0.093c-0.081-0.134-0.177-0.267-0.275-0.405l-0.125-0.176c-0.092-0.132-0.438-0.615-1.106-1.386 c-0.021-0.022-0.039-0.046-0.057-0.07c-0.049-0.055-0.097-0.109-0.146-0.166l-0.097-0.111c-0.485-0.55-0.999-1.072-1.532-1.56 c-1.603-1.516-3.396-2.794-5.344-3.812C20.937,13.117,14.858,10,10.264,10z"/><path fill="#000000" d="M53.122,36c-0.336,0-0.675-0.022-1.008-0.067c-0.13-0.009-0.304-0.035-0.486-0.063 c-0.086-0.006-0.188-0.023-0.29-0.053c-0.231-0.042-0.432-0.079-0.621-0.124c-0.101-0.013-0.201-0.035-0.299-0.069 c-0.047-0.014-0.127-0.033-0.207-0.054c-0.109-0.027-0.219-0.056-0.324-0.088c-1.242-0.363-2.482-0.811-3.675-1.326 c-0.252-0.101-0.524-0.217-0.795-0.332l-0.516-0.217c-0.81-0.345-1.546-0.69-2.262-1.06l-0.836-0.453 c-1.064-0.583-2.108-1.235-3.108-1.94c-1.15-0.79-2.265-1.677-3.301-2.629c-0.447-0.374-0.914-0.807-1.352-1.257 c-0.279-0.273-0.574-0.576-0.87-0.879c-0.454-0.463-0.835-0.896-1.218-1.342c-0.126-0.133-0.271-0.303-0.42-0.481l-1.968-0.027 l1.756-1.854c0.253-0.491,0.558-1.005,0.887-1.493c0.083-0.128,0.163-0.251,0.256-0.375c0.051-0.091,0.172-0.263,0.299-0.441 l0.118-0.166c0.234-0.337,0.587-0.787,0.989-1.264v-0.05l0.299-0.308c0.051-0.05,0.092-0.1,0.136-0.15l0.135-0.155 c0.521-0.588,1.09-1.164,1.682-1.702c1.711-1.617,3.655-3.004,5.766-4.106C42.577,11.118,48.738,8,53.739,8 c0.441,0,0.867,0.024,1.267,0.072c1.353,0.108,2.682,0.688,3.702,1.629c0.916,0.893,1.618,2.319,1.138,10.979 c-0.4,7.442-0.656,11.114-2.072,13.214c-0.275,0.456-0.694,0.88-1.186,1.188c-0.574,0.365-1.211,0.621-1.888,0.756l-0.262,0.047 C54.006,35.961,53.563,36,53.122,36z M51.818,33.877l0.107,0.016c0.136,0.021,0.266,0.041,0.403,0.052 c0.689,0.09,1.198,0.07,1.762-0.029l0.241-0.043c0.41-0.082,0.817-0.245,1.188-0.481c0.235-0.147,0.431-0.345,0.57-0.575 c1.195-1.774,1.432-6.166,1.759-12.245c0.312-5.612,0.138-8.78-0.517-9.418c-0.673-0.619-1.577-1.014-2.526-1.09 C54.445,10.02,54.1,10,53.739,10c-4.605,0-10.672,3.116-10.928,3.249c-1.943,1.016-3.737,2.294-5.328,3.799 c-0.554,0.503-1.071,1.027-1.552,1.57l-0.106,0.121c-0.04,0.047-0.079,0.092-0.119,0.137l-0.078,0.095 c-0.669,0.771-1.015,1.254-1.104,1.384l-0.13,0.183c-0.099,0.138-0.194,0.271-0.275,0.403c-0.118,0.165-0.171,0.248-0.225,0.331 c-0.264,0.393-0.494,0.773-0.702,1.158c0.086,0.101,0.169,0.194,0.252,0.283c0.383,0.445,0.734,0.845,1.099,1.216 c0.348,0.356,0.633,0.648,0.918,0.929c0.407,0.418,0.823,0.805,1.254,1.165c1.001,0.919,2.04,1.746,3.123,2.49 c0.949,0.669,1.93,1.281,2.924,1.826l0.814,0.441c0.653,0.337,1.347,0.662,2.101,0.983l0.523,0.221 c0.258,0.109,0.518,0.22,0.782,0.325c1.142,0.494,2.303,0.913,3.476,1.256c0.087,0.026,0.167,0.046,0.246,0.066 c0.097,0.024,0.193,0.05,0.287,0.077l0.131,0.025c0.187,0.046,0.384,0.081,0.571,0.115L51.818,33.877z"/><path fill="#f283a5" d="M35.981,24.7c0.08,0.665-0.091,1.338-0.474,1.859l-0.024,0.026c-0.213,0.223-0.533,0.38-2.227,0.393 c-0.367,0.026-0.806,0.026-1.315,0.013c-0.474,0-0.865-0.013-1.208-0.026c-1.528-0.065-1.872-0.196-2.073-0.367l-0.059-0.065 c-0.407-0.47-0.621-1.105-0.592-1.755c-0.022-0.669,0.006-1.339,0.083-2.003c0.012-0.157,0.036-0.34,0.047-0.511 c0.178-1.899,0.32-3.522,1.22-4.085c0.025-0.022,0.053-0.04,0.083-0.052c0.231-0.127,0.496-0.16,0.746-0.092 c0.652,0.178,1.319,0.275,1.99,0.288c0.664-0.008,1.326-0.082,1.979-0.223c0.187-0.035,0.38,0.002,0.545,0.105 c0.012,0.013,0.024,0.013,0.036,0.026c0.948,0.576,1.066,2.318,1.173,4.57c0.01,0.056,0.014,0.113,0.012,0.17 C35.957,23.652,35.992,24.228,35.981,24.7z"/><path fill="#000000" d="M32.543,28c-0.196,0-0.406-0.003-0.629-0.009c-0.426,0.037-0.867-0.014-1.222-0.027 c-1.607-0.068-2.208-0.203-2.679-0.602c-0.033-0.028-0.064-0.059-0.094-0.091c-0.006-0.006-0.071-0.077-0.076-0.084 c-0.57-0.659-0.875-1.553-0.836-2.453c-0.023-0.636,0.007-1.358,0.089-2.073l0.043-0.465c0.207-2.214,0.379-4.046,1.688-4.865l0,0 c0.042-0.027,0.087-0.055,0.13-0.078v-0.001c0.453-0.253,0.995-0.318,1.493-0.182c0.572,0.156,1.16,0.241,1.748,0.253 c0.561-0.007,1.159-0.074,1.749-0.2c0.525-0.104,0.903-0.002,1.279,0.231c0.026,0.016,0.052,0.033,0.076,0.052 c1.385,0.887,1.495,3.026,1.603,5.298c0.014,0.1,0.019,0.201,0.015,0.302l0.011,0.115c0.031,0.592,0.058,1.104,0.051,1.535 c0.088,0.888-0.153,1.794-0.669,2.495c-0.018,0.025-0.061,0.075-0.082,0.099c-0.536,0.558-1.195,0.714-2.967,0.729 C33.093,27.993,32.831,28,32.543,28z M29.309,25.821c0.127,0.036,0.487,0.103,1.467,0.145c0.328,0.013,0.707,0.025,1.165,0.025 c0.532,0.015,0.905,0.015,1.244-0.01c1.085-0.011,1.46-0.075,1.587-0.111c0.174-0.271,0.263-0.662,0.216-1.051 c-0.006-0.048-0.008-0.096-0.007-0.144c0.011-0.402-0.017-0.885-0.047-1.447l-0.012-0.204c-0.007-0.04-0.01-0.136-0.012-0.177 c-0.063-1.351-0.16-3.384-0.672-3.748c-0.634,0.138-1.345,0.215-2.049,0.224c-0.783-0.016-1.533-0.124-2.263-0.322 c-0.013,0.009-0.025,0.018-0.039,0.025c-0.471,0.295-0.624,1.941-0.748,3.264c-0.012,0.146-0.022,0.251-0.033,0.354l-0.02,0.205 c-0.074,0.657-0.101,1.282-0.081,1.896C28.99,25.185,29.1,25.55,29.309,25.821z"/><path fill="#000000" d="M12,15h-2c-0.553,0-1-0.447-1-1s0.447-1,1-1h2c0.553,0,1,0.447,1,1S12.553,15,12,15z"/><g><path fill="#000000" d="M12,20h-2c-0.553,0-1-0.447-1-1s0.447-1,1-1h2c0.553,0,1,0.447,1,1S12.553,20,12,20z"/></g><g><path fill="#000000" d="M12,25h-2c-0.553,0-1-0.447-1-1s0.447-1,1-1h2c0.553,0,1,0.447,1,1S12.553,25,12,25z"/></g><g><path fill="#000000" d="M54,15h-2c-0.553,0-1-0.447-1-1s0.447-1,1-1h2c0.553,0,1,0.447,1,1S54.553,15,54,15z"/></g><g><path fill="#000000" d="M54,20h-2c-0.553,0-1-0.447-1-1s0.447-1,1-1h2c0.553,0,1,0.447,1,1S54.553,20,54,20z"/></g><g><path fill="#000000" d="M54,25h-2c-0.553,0-1-0.447-1-1s0.447-1,1-1h2c0.553,0,1,0.447,1,1S54.553,25,54,25z"/></g></svg>