<svg xmlns="http://www.w3.org/2000/svg" data-name="Layer 1" viewBox="0 0 64 64"><path fill="#faefde" d="M13.24,4.94H42a3,3,0,0,1,3,3v48a3,3,0,0,1-3,3H4a3,3,0,0,1-3-3V17.18a3,3,0,0,1,.88-2.12l9.24-9.24A3,3,0,0,1,13.24,4.94Z"/><path fill="#fff7f0" d="M1 59L.85 49.54 44.34 6.06 45 29 15 59 1 59zM.85 39.15L35.06 4.94 40.81 5.19 1 45 .85 39.15zM.85 33.15L29 5 32 5 .85 36.15.85 33.15z"/><path fill="#fff" d="M35.5 13L36.74 15.26 39 16.5 36.74 17.74 35.5 20 34.26 17.74 32 16.5 34.26 15.26 35.5 13zM20.42 11L21.27 12.56 22.84 13.42 21.27 14.27 20.42 15.84 19.56 14.27 18 13.42 19.56 12.56 20.42 11zM6.65 42L7.23 43.06 8.3 43.65 7.23 44.23 6.65 45.3 6.07 44.23 5 43.65 6.07 43.06 6.65 42z"/><path fill="#bbdef9" d="M13 5L13 17 1 17 13 5z"/><rect width="34" height="38" x="29" y="15" fill="#c2cde7" rx="3" ry="3"/><path fill="#bbdef9" d="M32,15H60a3,3,0,0,1,3,3V29a0,0,0,0,1,0,0H29a0,0,0,0,1,0,0V18A3,3,0,0,1,32,15Z"/><path fill="#def0ff" d="M37.75 29L48.83 15 62.83 15 51.75 29 37.75 29zM32.63 29L43.71 15 46.33 15 35.25 29 32.63 29z"/><path fill="#83dbbe" d="M53 33H59V49H53z"/><path fill="#ffeb9b" d="M43 33H49V39H43zM43 43H49V49H43zM33 43H39V49H33zM33 33H39V39H33z"/><path fill="#000000" d="M38 32H34a2 2 0 0 0-2 2v4a2 2 0 0 0 2 2h4a2 2 0 0 0 2-2V34A2 2 0 0 0 38 32zm0 6H34V34h4zM48 32H44a2 2 0 0 0-2 2v4a2 2 0 0 0 2 2h4a2 2 0 0 0 2-2V34A2 2 0 0 0 48 32zm0 6H44V34h4zM48 42H44a2 2 0 0 0-2 2v4a2 2 0 0 0 2 2h4a2 2 0 0 0 2-2V44A2 2 0 0 0 48 42zm0 6H44V44h4zM58 32H54a2 2 0 0 0-2 2V48a2 2 0 0 0 2 2h4a2 2 0 0 0 2-2V34A2 2 0 0 0 58 32zm0 16H54V34h4zM38 42H34a2 2 0 0 0-2 2v4a2 2 0 0 0 2 2h4a2 2 0 0 0 2-2V44A2 2 0 0 0 38 42zm0 6H34V44h4z"/><path fill="#000000" d="M61,14H46V7a3,3,0,0,0-3-3H13.66a5,5,0,0,0-3.54,1.46L1.46,14.12A5,5,0,0,0,0,17.66V57a3,3,0,0,0,3,3H43a3,3,0,0,0,3-3V54H61a3,3,0,0,0,3-3V17A3,3,0,0,0,61,14Zm1,3V28H30V17a1,1,0,0,1,1-1H61A1,1,0,0,1,62,17ZM11.54,6.88A3,3,0,0,1,12,6.5V15a1,1,0,0,1-1,1H2.5a3,3,0,0,1,.38-.46ZM44,57a1,1,0,0,1-1,1H3a1,1,0,0,1-1-1V18h9a3,3,0,0,0,3-3V6H43a1,1,0,0,1,1,1v7H31a3,3,0,0,0-3,3V51a3,3,0,0,0,3,3H44Zm17-5H31a1,1,0,0,1-1-1V30H62V51A1,1,0,0,1,61,52Z"/><path fill="#72caaf" d="M15 21A8 8 0 1 0 15 37A8 8 0 1 0 15 21Z"/><path fill="#ed7899" d="M22 24L23 31 21 34 15 29 15 21 22 24z"/><path fill="#ffeb9b" d="M9 46H13V53H9z"/><path fill="#bbdef9" d="M13 43H17V53H13z"/><path fill="#83dbbe" d="M17 49H21V53H17z"/><path fill="#000000" d="M25 52H22V49a1 1 0 0 0-1-1H18V43a1 1 0 0 0-1-1H13a1 1 0 0 0-1 1v2H9a1 1 0 0 0-1 1v6H5a1 1 0 1 0 0 2H25a1 1 0 0 0 0-2zm-5-2v2H18V50zm-6-6h2v8H14V44zm-4 3h2v5H10zM15 38a9 9 0 1 0-9-9A9 9 0 0 0 15 38zm7-9a7 7 0 0 1-1.37 4.14L16 28.5V22.08A7 7 0 0 1 22 29zm-8-6.92v6.75a1 1 0 0 0 .17.52 1 1 0 0 0 .23.37l4.83 4.83A7 7 0 1 1 14 22.08z"/></svg>