<svg xmlns="http://www.w3.org/2000/svg" data-name="Layer 1" viewBox="0 0 64 64"><rect width="7" height="6" x="3" y="21" fill="#c2cde7" rx="2" ry="2"/><rect width="7" height="6" x="54" y="21" fill="#c2cde7" rx="2" ry="2"/><path fill="#ed7899" d="M55,25l-4,2H12.5L8,25,5,32V44a5,5,0,0,0,5,5H54a5,5,0,0,0,5-5V32Z"/><path fill="#f283a5" d="M51 27L12.5 27 8 25 5 32 5 38 59 38 59 32 55 25 51 27z"/><path fill="#8b8e98" d="M7 49H15V57H7zM49 49H57V57H49z"/><path fill="#bbdef9" d="M13.35,13a7.42,7.42,0,0,1,7.16-5.5h23A7.42,7.42,0,0,1,50.65,13l2.13,8a9.46,9.46,0,0,0,1.58,3.26l.63.84L53.15,26a5.32,5.32,0,0,1-2.33.54H13.28A5.32,5.32,0,0,1,10.93,26L9,25l.6-.8A9.47,9.47,0,0,0,11.21,21Z"/><path fill="#def0ff" d="M54.37 24.24A9.46 9.46 0 0 1 52.79 21l-2.13-8a7.34 7.34 0 0 0-.79-1.83L34.47 26.53H50.82a5.32 5.32 0 0 0 2.09-.44l1.62-1.62zM42.27 7.47L23.21 26.53h6.56l17.8-17.8a7.37 7.37 0 0 0-4.08-1.26zM14.47 26.53L18.47 26.53 37.53 7.47 33.53 7.47 14.47 26.53z"/><path fill="#ffefb8" d="M17 39L5 39 5 33 17 35 17 39zM47 39L59 39 59 33 47 35 47 39z"/><path fill="#000000" d="M22 40a1 1 0 0 0 1-1V37a1 1 0 0 0-2 0v2A1 1 0 0 0 22 40zM27 40a1 1 0 0 0 1-1V37a1 1 0 0 0-2 0v2A1 1 0 0 0 27 40zM32 40a1 1 0 0 0 1-1V37a1 1 0 0 0-2 0v2A1 1 0 0 0 32 40zM37 40a1 1 0 0 0 1-1V37a1 1 0 0 0-2 0v2A1 1 0 0 0 37 40zM42 40a1 1 0 0 0 1-1V37a1 1 0 0 0-2 0v2A1 1 0 0 0 42 40zM47.17 42H16.92a1 1 0 0 0 0 2H47.17a1 1 0 0 0 0-2zM50.92 44h4.25a1 1 0 0 0 0-2H50.92a1 1 0 0 0 0 2zM13.17 42H8.92a1 1 0 0 0 0 2h4.25a1 1 0 1 0 0-2zM29.92 14h4.25a1 1 0 0 0 0-2H29.92a1 1 0 0 0 0 2z"/><path fill="#000000" d="M63,56H57.44A4,4,0,0,0,58,54V49a5,5,0,0,0,2-4V34a13.08,13.08,0,0,0-1.47-6H59a3,3,0,0,0,3-3V23a3,3,0,0,0-3-3H53.5l-2-7.32A9,9,0,0,0,42.85,6H21.15a9,9,0,0,0-8.7,6.68L10.5,20H5a3,3,0,0,0-3,3v2a3,3,0,0,0,3,3h.47A13.08,13.08,0,0,0,4,34V45a5,5,0,0,0,2,4v5a4,4,0,0,0,.56,2H1a1,1,0,0,0,0,2H63a1,1,0,0,0,0-2ZM16,50H48v4a4,4,0,0,0,.56,2H15.44A4,4,0,0,0,16,54Zm42-5a3,3,0,0,1-3,3H9a3,3,0,0,1-3-3V40H16a2,2,0,0,0,2-2v-.46a4,4,0,0,0-3.34-3.95L6.33,32.21H6.15a11.07,11.07,0,0,1,2-4.8l.88-1.18,2.13,1.05a7,7,0,0,0,3.1.73H49.78a7,7,0,0,0,3.08-.71l2.09-1,.85,1.14a11.07,11.07,0,0,1,2,4.8h-.18L49.34,33.6A4,4,0,0,0,46,37.54V38a2,2,0,0,0,2,2H58ZM14.33,35.57a2,2,0,0,1,1.67,2V38H6V34.18ZM39.14,26a4,4,0,0,1,7.72,0ZM58,38H48v-.46a2,2,0,0,1,1.67-2L58,34.18Zm2-15v2a1,1,0,0,1-1,1H57.25l-2.52-3.36a7,7,0,0,1-.42-.64H59A1,1,0,0,1,60,23ZM14.38,13.2A7,7,0,0,1,21.15,8H42.85a7,7,0,0,1,6.76,5.2l2,7.56a8.93,8.93,0,0,0,1.5,3.08l.59.79L52,25.49a5,5,0,0,1-2.2.51h-.87a6,6,0,0,0-11.82,0H14.32a5,5,0,0,1-2.22-.52l-1.8-.89.56-.75a8.94,8.94,0,0,0,1.5-3.08ZM4,25V23a1,1,0,0,1,1-1H9.69a7,7,0,0,1-.42.64L6.75,26H5A1,1,0,0,1,4,25Zm6,31a2,2,0,0,1-2-2V50h6v4a2,2,0,0,1-2,2Zm42,0a2,2,0,0,1-2-2V50h6v4a2,2,0,0,1-2,2Z"/></svg>