<svg xmlns="http://www.w3.org/2000/svg" viewBox="0 0 64 64"><path fill="#72caaf" d="M45,29v7c0,2.209-1.791,4-4,4h-8c-1.105,0-2-0.895-2-2v-3h-3c-1.105,0-2-0.895-2-2v0 c0-1.105,0.895-2,2-2h5c1.105,0,2,0.895,2,2v3h6v-7c0-1.105,0.895-2,2-2h0C44.105,27,45,27.895,45,29z"/><path fill="#85cbf8" d="M14.5,59L14.5,59c1.381,0,2.5-1.119,2.5-2.5V23l7,5h9c1.105,0,2-0.895,2-2v0c0-1.105-0.895-2-2-2 h-8l-8-7h-2c0,0-9,9-9,29h6v10.5C12,57.881,13.119,59,14.5,59z"/><circle cx="24" cy="10" r="4" fill="#faefde"/><circle cx="53" cy="36" r="4" fill="#faefde"/><path fill="#000000" d="M53,41c-2.757,0-5-2.243-5-5s2.243-5,5-5s5,2.243,5,5S55.757,41,53,41z M53,33 c-1.654,0-3,1.346-3,3s1.346,3,3,3s3-1.346,3-3S54.654,33,53,33z"/><path fill="#000000" d="M24,16c-3.309,0-6-2.691-6-6s2.691-6,6-6s6,2.691,6,6S27.309,16,24,16z M24,6c-2.206,0-4,1.794-4,4 s1.794,4,4,4s4-1.794,4-4S26.206,6,24,6z"/><path fill="#000000" d="M41,41h-8c-1.654,0-3-1.346-3-3v-2h-2c-1.654,0-3-1.346-3-3s1.346-3,3-3h5c1.654,0,3,1.346,3,3v2h4 v-6c0-1.654,1.346-3,3-3s3,1.346,3,3v7C46,38.757,43.757,41,41,41z M28,32c-0.552,0-1,0.449-1,1c0,0.552,0.448,1,1,1h3 c0.553,0,1,0.447,1,1v3c0,0.552,0.448,1,1,1h8c1.654,0,3-1.346,3-3v-7c0-0.551-0.448-1-1-1s-1,0.449-1,1v7c0,0.553-0.447,1-1,1h-6 c-0.553,0-1-0.447-1-1v-3c0-0.551-0.448-1-1-1H28z"/><path fill="#000000" d="M57,47c-0.553,0-1-0.447-1-1v-2c0-0.553,0.447-1,1-1s1,0.447,1,1v2C58,46.553,57.553,47,57,47z"/><path fill="#000000" d="M52,47c-0.553,0-1-0.447-1-1v-2c0-0.553,0.447-1,1-1s1,0.447,1,1v2C53,46.553,52.553,47,52,47z"/><path fill="#000000" d="M47,47c-0.553,0-1-0.447-1-1v-2c0-0.553,0.447-1,1-1s1,0.447,1,1v2C48,46.553,47.553,47,47,47z"/><path fill="#000000" d="M42,47c-0.553,0-1-0.447-1-1v-2c0-0.553,0.447-1,1-1s1,0.447,1,1v2C43,46.553,42.553,47,42,47z"/><path fill="#000000" d="M37,47c-0.553,0-1-0.447-1-1v-2c0-0.553,0.447-1,1-1s1,0.447,1,1v2C38,46.553,37.553,47,37,47z"/><path fill="#000000" d="M32,47c-0.553,0-1-0.447-1-1v-2c0-0.553,0.447-1,1-1s1,0.447,1,1v2C33,46.553,32.553,47,32,47z"/><path fill="#000000" d="M14.5,59c-1.93,0-3.5-1.57-3.5-3.5V46H6c-0.553,0-1-0.447-1-1c0-20.182,8.913-29.328,9.293-29.707 C14.48,15.105,14.734,15,15,15h2c0.242,0,0.477,0.088,0.658,0.248L25.376,22H33c1.654,0,3,1.346,3,3s-1.346,3-3,3h-9 c-0.208,0-0.412-0.065-0.581-0.186L18,23.943V55.5C18,57.43,16.43,59,14.5,59z M7.008,44H12c0.553,0,1,0.447,1,1v10.5 c0,0.827,0.673,1.5,1.5,1.5s1.5-0.673,1.5-1.5V22c0-0.375,0.209-0.718,0.542-0.889c0.334-0.172,0.734-0.142,1.039,0.075L24.32,26 H33c0.552,0,1-0.449,1-1s-0.448-1-1-1h-8c-0.242,0-0.477-0.088-0.658-0.248L16.624,17h-1.182C14.01,18.649,7.269,27.296,7.008,44z"/></svg>