<svg xmlns="http://www.w3.org/2000/svg" viewBox="0 0 64 64"><path fill="#85cbf8" d="M55,30.25L51.88,45c0,0-0.06,0.4-0.26,1c-0.61,1.75-2.52,5.22-8.12,5.12l-25.38-0.37 c0,0-3.18-0.44-5.49-4.75c-0.7-1.29-1.32-2.93-1.75-5l-1.63-9.75C9.25,31.25,23,28,28,31S44,37.5,55,30.25z"/><path fill="#f9dd8f" d="M21 55l-2.5 3-.7.84C16.66 60.21 14.97 61 13.19 61H10c-.55 0-1-.45-1-1v-1.18c0-.48.34-.89.8-.98L10 57.8l2.76-.55c.76-.15 1.36-.73 1.55-1.48L15 53 21 55zM55 58.82V60c0 .55-.45 1-1 1h-3.19c-1.78 0-3.47-.79-4.61-2.16L45.5 58 43 55l6-2 .69 2.77c.19.75.79 1.33 1.55 1.48l2.96.59c.14.03.27.08.38.16C54.84 58.19 55 58.49 55 58.82z"/><path fill="#f7cc8f" d="M15 53l6 2 0 0c-1.557 1.868-3.961 2.809-6.372 2.494L12.76 57.25c.76-.15 1.36-.73 1.55-1.48L15 53zM54.58 58h-5.175c-2.474 0-4.821-1.099-6.405-3l0 0 6-2 .69 2.77c.187.752.792 1.329 1.552 1.481l2.958.59C54.34 57.87 54.47 57.92 54.58 58z"/><path fill="#c2cde7" d="M44.647,55H19.353c-5.948,0-10.999-4.357-11.87-10.241L5.153,29.03 c-0.096-0.646-0.5-1.204-1.084-1.496l-1.758-0.879c-0.752-0.376-1.113-1.248-0.847-2.046l0.002-0.006 c0.295-0.885,1.252-1.364,2.138-1.069l1.62,0.54c1.715,0.572,2.988,2.024,3.329,3.799l3.199,16.637 C12.476,48.278,15.772,51,19.608,51h24.784c3.836,0,7.132-2.722,7.856-6.489l3.199-16.637c0.341-1.775,1.614-3.228,3.329-3.799 l1.62-0.54c0.885-0.295,1.843,0.183,2.138,1.069l0.002,0.006c0.266,0.798-0.095,1.67-0.847,2.046l-1.758,0.879 c-0.584,0.292-0.988,0.85-1.084,1.496l-2.33,15.729C55.646,50.643,50.595,55,44.647,55z"/><path fill="#faefde" d="M39 29A5 5 0 1 0 39 39 5 5 0 1 0 39 29zM20.5 27A2.5 2.5 0 1 0 20.5 32 2.5 2.5 0 1 0 20.5 27zM39.5 10A2.5 2.5 0 1 0 39.5 15 2.5 2.5 0 1 0 39.5 10zM29 17A3 3 0 1 0 29 23 3 3 0 1 0 29 17z"/><path fill="#7bbeeb" d="M51.62,46c-0.61,1.75-2.52,5.22-8.12,5.12l-25.38-0.37c0,0-3.18-0.44-5.49-4.75H51.62z"/><path fill="#000000" d="M63.48,24.29c-0.47-1.41-1.99-2.17-3.4-1.7l-1.62,0.54c-2.05,0.68-3.59,2.43-3.99,4.55L54.02,30 c-0.13,0-0.26,0.02-0.39,0.07l-5.73,2.29c-0.97,0.39-1.95,0.7-2.95,0.93C44.61,30.31,42.07,28,39,28c-2.81,0-5.17,1.94-5.82,4.55 c-0.86-0.31-1.7-0.69-2.52-1.13c-2.12-1.13-4.37-1.91-6.68-2.31C23.78,27.36,22.3,26,20.5,26c-1.75,0-3.21,1.29-3.46,2.98 C17,28.99,16.95,28.99,16.91,29l-6.94,0.99l-0.44-2.31c-0.4-2.12-1.94-3.87-3.99-4.55l-1.62-0.54c-1.4-0.47-2.93,0.29-3.41,1.7 c-0.42,1.27,0.16,2.67,1.35,3.26l1.76,0.88c0.29,0.14,0.5,0.42,0.54,0.75l2.33,15.73c0.64,4.28,3.38,7.85,7.08,9.71l-0.23,0.91 c-0.1,0.37-0.4,0.66-0.78,0.74l-2.95,0.59C8.68,57.04,8,57.87,8,58.82V60c0,1.1,0.9,2,2,2h3.19c2.08,0,4.04-0.92,5.38-2.52 l2.9-3.48h21.06l2.9,3.48c1.34,1.6,3.3,2.52,5.38,2.52H54c1.1,0,2-0.9,2-2v-1.18c0-0.95-0.68-1.78-1.61-1.96l-2.95-0.59 c-0.38-0.08-0.68-0.37-0.78-0.74l-0.23-0.91c3.7-1.86,6.44-5.43,7.08-9.71l2.33-15.73c0.04-0.33,0.25-0.61,0.54-0.75l1.76-0.88 C63.33,26.96,63.91,25.56,63.48,24.29z M39,30c2.09,0,3.8,1.6,3.98,3.64C42.99,33.76,43,33.88,43,34c0,0.61-0.14,1.19-0.39,1.71 C41.97,37.07,40.6,38,39,38c-1.78,0-3.28-1.16-3.8-2.76C35.07,34.85,35,34.43,35,34c0-0.29,0.03-0.58,0.09-0.85 C35.48,31.35,37.08,30,39,30z M20.5,28c0.59,0,1.1,0.34,1.33,0.84c0.12,0.2,0.17,0.42,0.17,0.66c0,0.57-0.31,1.06-0.78,1.31 C21.01,30.93,20.76,31,20.5,31c-0.28,0-0.55-0.08-0.77-0.22C19.29,30.52,19,30.05,19,29.5c0-0.26,0.06-0.5,0.19-0.71 C19.43,28.32,19.93,28,20.5,28z M17.19,30.98c0.05-0.01,0.09-0.01,0.14-0.02C17.88,32.17,19.09,33,20.5,33 c1.36,0,2.54-0.78,3.12-1.92c2.11,0.36,4.16,1.07,6.1,2.1c1.07,0.57,2.18,1.05,3.31,1.43C33.34,37.64,35.9,40,39,40 c2.84,0,5.23-1.98,5.84-4.64c1.29-0.26,2.56-0.64,3.8-1.14l4.95-1.98l-2.32,12.08C50.63,47.61,47.74,50,44.39,50H19.61 c-3.35,0-6.24-2.39-6.88-5.68l-2.38-12.36L17.19,30.98z M17.03,58.2c-0.95,1.14-2.35,1.8-3.84,1.8H10v-1.18l2.95-0.59 c1.14-0.23,2.05-1.1,2.33-2.22l0.16-0.62c1.1,0.35,2.25,0.56,3.43,0.6L17.03,58.2z M48.72,56.01c0.28,1.12,1.19,1.99,2.32,2.22 L54,58.82V60h-3.19c-1.49,0-2.89-0.66-3.84-1.8l-1.84-2.21c1.18-0.04,2.33-0.25,3.43-0.6L48.72,56.01z M61.24,25.76l-1.76,0.88 c-0.87,0.44-1.48,1.28-1.62,2.24l-2.33,15.73c-0.52,3.47-2.67,6.39-5.59,8.01C48.36,53.5,46.55,54,44.65,54h-1.83H21.18h-1.83 c-1.9,0-3.71-0.5-5.29-1.38c-2.92-1.62-5.07-4.54-5.59-8.01L6.14,28.88c-0.14-0.96-0.75-1.8-1.62-2.24l-1.76-0.88 c-0.31-0.15-0.46-0.51-0.35-0.84c0.06-0.18,0.19-0.32,0.35-0.4c0.1-0.05,0.2-0.07,0.31-0.07c0.07,0,0.15,0.01,0.22,0.03l1.62,0.54 c1.37,0.46,2.39,1.62,2.66,3.04l3.2,16.64c0.81,4.23,4.53,7.3,8.84,7.3h24.78c4.31,0,8.03-3.07,8.84-7.3l3.2-16.64 c0.27-1.42,1.29-2.58,2.66-3.04l1.62-0.54c0.18-0.06,0.36-0.04,0.53,0.04c0.16,0.08,0.29,0.22,0.35,0.41 C61.7,25.25,61.55,25.61,61.24,25.76z"/><path fill="#000000" d="M17 48c.552 0 1-.448 1-1v-2c0-.552-.448-1-1-1s-1 .448-1 1v2C16 47.552 16.448 48 17 48zM22 48c.552 0 1-.448 1-1v-2c0-.552-.448-1-1-1s-1 .448-1 1v2C21 47.552 21.448 48 22 48zM32 48c.552 0 1-.448 1-1v-2c0-.552-.448-1-1-1s-1 .448-1 1v2C31 47.552 31.448 48 32 48zM27 48c.552 0 1-.448 1-1v-2c0-.552-.448-1-1-1s-1 .448-1 1v2C26 47.552 26.448 48 27 48zM37 48c.552 0 1-.448 1-1v-2c0-.552-.448-1-1-1s-1 .448-1 1v2C36 47.552 36.448 48 37 48zM42 48c.552 0 1-.448 1-1v-2c0-.552-.448-1-1-1s-1 .448-1 1v2C41 47.552 41.448 48 42 48zM47 48c.552 0 1-.448 1-1v-2c0-.552-.448-1-1-1s-1 .448-1 1v2C46 47.552 46.448 48 47 48zM39.5 16c1.93 0 3.5-1.57 3.5-3.5S41.43 9 39.5 9 36 10.57 36 12.5 37.57 16 39.5 16zM39.5 11c.827 0 1.5.673 1.5 1.5S40.327 14 39.5 14 38 13.327 38 12.5 38.673 11 39.5 11zM29 24c2.206 0 4-1.794 4-4s-1.794-4-4-4-4 1.794-4 4S26.794 24 29 24zM29 18c1.103 0 2 .897 2 2s-.897 2-2 2-2-.897-2-2S27.897 18 29 18z"/></svg>