<svg xmlns="http://www.w3.org/2000/svg" viewBox="0 0 64 64"><path fill="#c2cde7" d="M12 30A11 11 0 1 0 12 52 11 11 0 1 0 12 30zM52 30A11 11 0 1 0 52 52 11 11 0 1 0 52 30z"/><path fill="#e2e9f7" d="M12 34A7 7 0 1 0 12 48 7 7 0 1 0 12 34zM52 34A7 7 0 1 0 52 48 7 7 0 1 0 52 34z"/><path fill="#000000" d="M30.75,42H12.5c-0.374,0-0.716-0.208-0.888-0.54s-0.145-0.731,0.07-1.037l12-17 C23.87,23.158,24.175,23,24.5,23h20.1c0.452,0,0.848,0.303,0.966,0.739l0.351,1.3c0.088,0.328,0.004,0.68-0.225,0.932l-14.2,15.7 C31.302,41.881,31.032,42,30.75,42z M14.43,40h15.876l13.537-14.967L43.834,25H25.019L14.43,40z"/><path fill="#000000" d="M30.75 42c-.399 0-.776-.241-.932-.636l-9-23c-.201-.515.053-1.095.567-1.296.512-.203 1.094.053 1.296.567l9 23c.201.515-.053 1.095-.567 1.296C30.995 41.979 30.871 42 30.75 42zM52 42c-.419 0-.809-.265-.948-.684l-10-30c-.103-.305-.051-.641.137-.901C41.377 10.154 41.679 10 42 10h6.5c1.963 0 3.5 1.537 3.5 3.5S50.463 17 48.5 17h-.25c-.553 0-1-.447-1-1s.447-1 1-1h.25c.841 0 1.5-.659 1.5-1.5S49.341 12 48.5 12h-5.112l9.561 28.684c.175.524-.108 1.091-.632 1.265C52.211 41.983 52.104 42 52 42zM12 53C5.383 53 0 47.617 0 41s5.383-12 12-12 12 5.383 12 12S18.617 53 12 53zM12 31C6.486 31 2 35.486 2 41s4.486 10 10 10 10-4.486 10-10S17.514 31 12 31z"/><path fill="#000000" d="M12 49c-4.411 0-8-3.589-8-8s3.589-8 8-8c.553 0 1 .447 1 1s-.447 1-1 1c-3.309 0-6 2.691-6 6s2.691 6 6 6c1.855 0 3.577-.838 4.723-2.3.341-.434.969-.511 1.404-.17.435.341.511.97.17 1.404C16.769 47.883 14.474 49 12 49zM52 53c-6.617 0-12-5.383-12-12s5.383-12 12-12 12 5.383 12 12S58.617 53 52 53zM52 31c-5.514 0-10 4.486-10 10s4.486 10 10 10 10-4.486 10-10S57.514 31 52 31z"/><path fill="#000000" d="M44.586 44.996c-.395 0-.77-.235-.927-.624-.207-.513.039-1.096.551-1.303l1.854-.751c.511-.209 1.096.039 1.303.551.207.513-.039 1.096-.551 1.303l-1.854.751C44.839 44.973 44.711 44.996 44.586 44.996zM48.422 49.149c-.15 0-.303-.034-.446-.105-.493-.247-.694-.848-.447-1.342l.894-1.789c.246-.494.848-.693 1.342-.447.493.247.694.848.447 1.342l-.894 1.789C49.143 48.947 48.789 49.149 48.422 49.149zM54.046 49.727c-.442 0-.847-.296-.966-.743l-.514-1.933c-.142-.534.176-1.081.71-1.224.532-.138 1.082.176 1.224.71l.514 1.933c.142.534-.176 1.081-.71 1.224C54.218 49.716 54.131 49.727 54.046 49.727zM58.65 46.445c-.191 0-.384-.055-.555-.169l-1.662-1.111c-.459-.307-.583-.928-.275-1.387.307-.459.928-.582 1.387-.275l1.662 1.111c.459.307.583.928.275 1.387C59.29 46.289 58.973 46.445 58.65 46.445zM57.944 41.2c-.493 0-.923-.364-.99-.867-.073-.547.311-1.05.858-1.124l1.982-.267c.546-.074 1.051.311 1.124.858.073.547-.311 1.05-.858 1.124l-1.982.267C58.033 41.197 57.988 41.2 57.944 41.2z"/><g><path fill="#f9dd8f" d="M28,13H16c-1.105,0-2,0.895-2,2v0c0,1.105,0.895,2,2,2h12c1.105,0,2-0.895,2-2v0 C30,13.895,29.105,13,28,13z"/></g><g><path fill="#000000" d="M28,18H16c-1.654,0-3-1.346-3-3s1.346-3,3-3h12c1.654,0,3,1.346,3,3S29.654,18,28,18z M16,14 c-0.552,0-1,0.448-1,1s0.448,1,1,1h12c0.552,0,1-0.448,1-1s-0.448-1-1-1H16z"/></g></svg>