<svg xmlns="http://www.w3.org/2000/svg" viewBox="0 0 64 64"><g id="_x30_2_Bill_Payment_Money_Finance_Paper_Dollar_Currency"><path fill="#faefde" d="M53 55L49 54 45 55 41 54 37 55 33 54 29 55 25 54 21 56 17 54 13 55 11 54 11 9 15 10 19 8 23 10 27 8 31 10 35 8 39 10 43 8 47 10 51 8 53 9z"/><path fill="#fff7f0" d="M12,14c0-0.8,0.9-1.3,1.6-0.8l0.8,0.6c0.4,0.3,0.8,0.3,1.2,0l2.8-2.1c0.4-0.3,0.8-0.3,1.2,0l2.8,2.1 c0.4,0.3,0.8,0.3,1.2,0l2.8-2.1c0.4-0.3,0.8-0.3,1.2,0l2.8,2.1c0.4,0.3,0.8,0.3,1.2,0l2.8-2.1c0.4-0.3,0.8-0.3,1.2,0l2.8,2.1 c0.4,0.3,0.8,0.3,1.2,0l2.8-2.1c0.4-0.3,0.8-0.3,1.2,0l2.8,2.1c0.4,0.3,0.8,0.3,1.2,0l2.6-2c0.4-0.3,1-0.3,1.3,0.1l0.2,0.2 c0.2,0.2,0.3,0.4,0.3,0.7l2,0c0-0.8-0.3-2.6-0.9-3.1l-1.4-1.4c-0.4-0.4-0.9-0.4-1.3-0.1l-2.8,2.1c-0.4,0.3-0.8,0.3-1.2,0l-2.8-2.1 c-0.4-0.3-0.8-0.3-1.2,0l-2.8,2.1c-0.4,0.3-0.8,0.3-1.2,0l-2.8-2.1c-0.4-0.3-0.8-0.3-1.2,0l-2.8,2.1c-0.4,0.3-0.8,0.3-1.2,0 l-2.8-2.1c-0.4-0.3-0.8-0.3-1.2,0l-2.8,2.1c-0.4,0.3-0.8,0.3-1.2,0l-2.8-2.1c-0.4-0.3-0.8-0.3-1.2,0l-2.8,2.1 c-0.4,0.3-0.8,0.3-1.2,0l-2.8-2.1C10.9,7.7,10,8.2,10,9v5L12,14z"/><path fill="#efd8be" d="M53,55l-4-1l-4,1l-4-1l-4,1l-4-1l-4,1l-4-1l-4,2l-4-2l-4,1l-2-1v-5c0-1.7,1.3-3,3-3h36c1.7,0,3,1.3,3,3V55z"/><path fill="#000000" d="M12 44c-.6 0-1 .4-1 1v2c0 .6.4 1 1 1s1-.4 1-1v-2C13 44.4 12.6 44 12 44zM52 44c-.6 0-1 .4-1 1v2c0 .6.4 1 1 1s1-.4 1-1v-2C53 44.4 52.6 44 52 44z"/><path fill="#000000" d="M53.7,8.3l-2-2c-0.4-0.4-0.9-0.4-1.3-0.1L47,8.8l-3.4-2.5c-0.4-0.3-0.8-0.3-1.2,0L39,8.8l-3.4-2.5 c-0.4-0.3-0.8-0.3-1.2,0L31,8.8l-3.4-2.5c-0.4-0.3-0.8-0.3-1.2,0L23,8.8l-3.4-2.5c-0.4-0.3-0.8-0.3-1.2,0L15,8.8l-3.4-2.5 c-0.3-0.2-0.7-0.3-1-0.1C10.2,6.3,10,6.6,10,7v47c0,0.3,0.1,0.5,0.3,0.7l2,2c0.2,0.2,0.4,0.3,0.7,0.3c0.2,0,0.4-0.1,0.6-0.2 l3.4-2.5l3.4,2.5c0.4,0.3,0.8,0.3,1.2,0l3.4-2.5l3.4,2.5c0.4,0.3,0.8,0.3,1.2,0l3.4-2.5l3.4,2.5c0.4,0.3,0.8,0.3,1.2,0l3.4-2.5 l3.4,2.5c0.4,0.3,0.8,0.3,1.2,0l3.4-2.5l3.4,2.5c0.3,0.2,0.7,0.3,1,0.1c0.3-0.2,0.6-0.5,0.6-0.9V9C54,8.7,53.9,8.5,53.7,8.3z M52,54l-2.4-1.8c-0.4-0.3-0.8-0.3-1.2,0L45,54.8l-3.4-2.5C41.4,52.1,41.2,52,41,52s-0.4,0.1-0.6,0.2L37,54.8l-3.4-2.5 c-0.4-0.3-0.8-0.3-1.2,0L29,54.8l-3.4-2.5c-0.4-0.3-0.8-0.3-1.2,0L21,54.8l-3.4-2.5c-0.4-0.3-0.8-0.3-1.2,0l-3.3,2.5L12,53.6V9 l2.4,1.8c0.4,0.3,0.8,0.3,1.2,0L19,8.2l3.4,2.5c0.4,0.3,0.8,0.3,1.2,0L27,8.2l3.4,2.5c0.4,0.3,0.8,0.3,1.2,0L35,8.2l3.4,2.5 c0.4,0.3,0.8,0.3,1.2,0L43,8.2l3.4,2.5c0.4,0.3,0.8,0.3,1.2,0l3.3-2.5L52,9.4V54z"/><path fill="#000000" d="M17 44c-.6 0-1 .4-1 1v2c0 .6.4 1 1 1s1-.4 1-1v-2C18 44.4 17.6 44 17 44zM22 44c-.6 0-1 .4-1 1v2c0 .6.4 1 1 1s1-.4 1-1v-2C23 44.4 22.6 44 22 44zM27 44c-.6 0-1 .4-1 1v2c0 .6.4 1 1 1s1-.4 1-1v-2C28 44.4 27.6 44 27 44zM32 44c-.6 0-1 .4-1 1v2c0 .6.4 1 1 1s1-.4 1-1v-2C33 44.4 32.6 44 32 44zM37 44c-.6 0-1 .4-1 1v2c0 .6.4 1 1 1s1-.4 1-1v-2C38 44.4 37.6 44 37 44zM42 44c-.6 0-1 .4-1 1v2c0 .6.4 1 1 1s1-.4 1-1v-2C43 44.4 42.6 44 42 44zM47 44c-.6 0-1 .4-1 1v2c0 .6.4 1 1 1s1-.4 1-1v-2C48 44.4 47.6 44 47 44z"/><path fill="#a5bac6" d="M39 18h6c.6 0 1-.4 1-1s-.4-1-1-1h-6c-.6 0-1 .4-1 1S38.4 18 39 18zM35 16H19c-.6 0-1 .4-1 1s.4 1 1 1h16c.6 0 1-.4 1-1S35.6 16 35 16zM19 22h11c.6 0 1-.4 1-1s-.4-1-1-1H19c-.6 0-1 .4-1 1S18.4 22 19 22zM19 30h10c.6 0 1-.4 1-1s-.4-1-1-1H19c-.6 0-1 .4-1 1S18.4 30 19 30z"/><path fill="#eb9697" d="M29 36h-2c-.6 0-1 .4-1 1s.4 1 1 1h2c.6 0 1-.4 1-1S29.6 36 29 36zM23 36h-4c-.6 0-1 .4-1 1s.4 1 1 1h4c.6 0 1-.4 1-1S23.6 36 23 36z"/><path fill="#a5bac6" d="M32,32H19c-0.6,0-1,0.4-1,1s0.4,1,1,1h13c0.6,0,1-0.4,1-1S32.6,32,32,32z"/><path fill="#98c77c" d="M46,32c0-1.7-1.3-3-3-3h-2c-0.6,0-1-0.4-1-1v-3c0-0.6,0.4-1,1-1h2c0.6,0,1,0.4,1,1v1c0,0.6,0.4,1,1,1 s1-0.4,1-1v-1c0-1.7-1.3-3-3-3v-1c0-0.6-0.4-1-1-1s-1,0.4-1,1v1c-1.7,0-3,1.3-3,3v3c0,1.7,1.3,3,3,3h2c0.6,0,1,0.4,1,1v3 c0,0.6-0.4,1-1,1h-2c-0.6,0-1-0.4-1-1v-1c0-0.6-0.4-1-1-1s-1,0.4-1,1v1c0,1.7,1.3,3,3,3v1c0,0.6,0.4,1,1,1s1-0.4,1-1v-1 c1.7,0,3-1.3,3-3V32z"/></g></svg>