<svg xmlns="http://www.w3.org/2000/svg" baseProfile="basic" viewBox="0 0 64 64"><path fill="#efc88e" d="M62.404,30.819c-0.53-2.698-1.589-6.382-3.105-9.743C57.049,16.087,44.522,11,31.152,11	c-15.087,0-22.347,7.016-23.348,8.609c-6.179,9.832-5.576,17.681-5.37,18.674C4.853,49.891,20.002,53,29,53	c9,0,24.876-3.287,27.565-14.717c0.18-0.766-0.385-4.756-1.848-8.755c0.399,0.807,0.727,1.334,1.022,2.676	c0.504,2.291,3.116,3.399,5.094,2.137c0.027-0.017,0.054-0.035,0.081-0.052C62.078,33.543,62.67,32.174,62.404,30.819z"/><ellipse cx="28.868" cy="24.855" fill="#f9dd8f" rx="20.148" ry="13.792"/><path fill="none" d="M49.016,23.169c-0.349,1.882-0.736,3.765-1.164,5.648c-0.86,3.791-4.492,9.83-18.858,9.83	c-9.967,0-17.097-4.146-18.81-10.598c-0.479-1.803-0.92-3.606-1.325-5.41"/><path fill="#000000" d="M49.194,28.266c-0.069,0-0.14-0.007-0.21-0.022l-1.956-0.418c-0.54-0.116-0.885-0.647-0.769-1.187	c0.115-0.541,0.648-0.887,1.187-0.769l1.956,0.418c0.54,0.116,0.885,0.647,0.769,1.187C50.07,27.944,49.656,28.266,49.194,28.266z"/><path fill="#000000" d="M47.541,33.25c-0.173,0-0.349-0.045-0.508-0.139l-1.721-1.018c-0.476-0.281-0.633-0.895-0.352-1.37	c0.281-0.475,0.896-0.631,1.369-0.352l1.721,1.018c0.476,0.281,0.633,0.895,0.352,1.37C48.216,33.075,47.883,33.25,47.541,33.25z"/><path fill="#000000" d="M43.838,37.116c-0.32,0-0.635-0.153-0.828-0.438l-1.123-1.655c-0.311-0.457-0.191-1.079,0.266-1.389	c0.456-0.311,1.079-0.191,1.389,0.266l1.123,1.655c0.311,0.457,0.191,1.079-0.266,1.389C44.227,37.061,44.031,37.116,43.838,37.116z"/><path fill="#000000" d="M39.089,39.321c-0.427,0-0.821-0.275-0.955-0.704l-0.594-1.91c-0.164-0.527,0.131-1.088,0.658-1.252	c0.531-0.166,1.088,0.132,1.252,0.658l0.594,1.91c0.164,0.527-0.131,1.088-0.658,1.252C39.287,39.307,39.187,39.321,39.089,39.321z"/><path fill="#000000" d="M34.059,40.366c-0.5,0-0.932-0.374-0.992-0.882l-0.235-1.986c-0.064-0.548,0.327-1.046,0.875-1.111	c0.553-0.064,1.046,0.328,1.111,0.875l0.235,1.986c0.064,0.548-0.327,1.046-0.875,1.111C34.138,40.363,34.098,40.366,34.059,40.366z"/><path fill="#000000" d="M28.991,40.647c-0.553,0-1-0.448-1-1v-2c0-0.552,0.447-1,1-1s1,0.448,1,1v2	C29.991,40.199,29.544,40.647,28.991,40.647z"/><path fill="#000000" d="M23.896,40.258c-0.051,0-0.104-0.004-0.155-0.012c-0.546-0.085-0.919-0.597-0.834-1.143l0.31-1.976	c0.085-0.545,0.598-0.918,1.143-0.833c0.546,0.085,0.919,0.597,0.834,1.143l-0.31,1.976C24.806,39.906,24.38,40.258,23.896,40.258z"/><path fill="#000000" d="M18.902,38.979c-0.116,0-0.234-0.021-0.35-0.064c-0.518-0.193-0.78-0.769-0.587-1.287l0.7-1.874	c0.193-0.517,0.771-0.782,1.286-0.586c0.518,0.193,0.78,0.769,0.587,1.287l-0.7,1.874C19.688,38.73,19.308,38.979,18.902,38.979z"/><path fill="#000000" d="M14.297,36.516c-0.206,0-0.415-0.064-0.594-0.196c-0.444-0.328-0.538-0.955-0.209-1.398l1.189-1.608	c0.328-0.444,0.954-0.539,1.398-0.209c0.444,0.328,0.538,0.955,0.209,1.398l-1.189,1.608C14.905,36.376,14.604,36.516,14.297,36.516	z"/><path fill="#000000" d="M10.673,32.643c-0.335,0-0.662-0.168-0.852-0.474c-0.29-0.47-0.146-1.086,0.324-1.376l1.701-1.052	c0.471-0.29,1.086-0.146,1.377,0.325c0.29,0.47,0.146,1.086-0.324,1.376l-1.701,1.052C11.034,32.595,10.853,32.643,10.673,32.643z"/><path fill="#000000" d="M8.833,27.739c-0.446,0-0.854-0.301-0.969-0.754c-0.136-0.536,0.188-1.08,0.724-1.215l1.938-0.492	c0.535-0.135,1.079,0.187,1.216,0.723c0.136,0.536-0.188,1.08-0.724,1.215L9.08,27.708C8.997,27.729,8.915,27.739,8.833,27.739z"/><path fill="#f9dd8f" d="M52.334,24.64c0,0,6.213,0.117,6.429-4.493c0,0-5.803-8.436-26.257-8.86v4.716	C32.506,16.003,47.899,16.864,52.334,24.64z"/><path fill="#000000" d="M29,54C17.785,54,3.842,49.937,1.456,38.487c-0.531-2.55-0.193-11.759,5.59-18.871	C12.234,13.235,20.345,10,31.152,10c13.144,0,26.451,4.884,29.058,10.665c1.352,2.997,2.539,6.721,3.176,9.961	c0.347,1.762-0.411,3.53-1.932,4.503c-1.297,0.829-2.758,0.958-4.086,0.405c-0.008-0.003-0.016-0.006-0.023-0.01	c0.238,1.445,0.3,2.538,0.194,2.986C54.662,50.738,38.246,54,29,54z M31.152,12c-10.176,0-17.765,2.987-22.555,8.877	c-5.692,7-5.463,15.862-5.185,17.201C5.703,49.068,20.574,52,29,52c8.062,0,23.996-2.915,26.592-13.946	c0.119-0.726-0.453-4.441-1.81-8.161c-0.119-0.242-0.243-0.51-0.375-0.828c-0.045-0.108-0.069-0.22-0.075-0.332	C52.783,27.401,52.131,26.11,51.37,25c-4.941-7.22-15.158-8-19.321-8c-8.993,0-15.261,4.185-15.261,7.94	c0,4.608,6.327,6.707,12.206,6.707c7.47,0,12.109-1.922,12.109-5.017c0-2.015-3.696-4.261-9-4.261C29.003,22.37,27,23.206,27,24.5	c0,0.198,0.215,0.405,0.343,0.511c0.984,0.815,3.599,1.396,7.02,0.746c0.543-0.103,1.066,0.254,1.169,0.796	c0.104,0.542-0.253,1.066-0.796,1.169c-3.586,0.68-6.987,0.221-8.668-1.17C25.186,25.821,25,25.033,25,24.5	c0-2.586,2.655-4.13,7.104-4.13c6.168,0,11,2.75,11,6.261c0,4.394-5.274,7.017-14.109,7.017c-7.071,0-14.206-2.692-14.206-8.707	c0-5.481,7.743-9.94,17.261-9.94c4.48,0,15.492,0.864,20.972,8.87c1.073,1.568,1.948,3.431,2.634,5.297	c0.039,0.079,0.078,0.154,0.115,0.229c0.342,0.674,0.665,1.311,0.947,2.593c0.171,0.777,0.688,1.397,1.418,1.7	c0.717,0.297,1.504,0.228,2.161-0.19c0.903-0.579,1.314-1.534,1.127-2.485c-0.608-3.099-1.744-6.66-3.035-9.525	C56.367,17.009,44.291,12,31.152,12z"/></svg>