<svg xmlns="http://www.w3.org/2000/svg" viewBox="0 0 64 64"><path fill="#faefde" d="M4 26H60V36H4zM4 48H60V56H4z"/><path fill="#ed7899" d="M3 36H60V48H3z"/><path fill="#fbd" d="M61,28L16,16C7,23,3,28,3,28"/><path fill="none" stroke="#000000" stroke-linecap="round" stroke-miterlimit="10" stroke-width="2" d="M61,27L16,16C14.895,16,3,28,3,28"/><path fill="none" stroke="#000000" stroke-linecap="round" stroke-linejoin="round" stroke-miterlimit="10" stroke-width="2" d="M43.021,28H3v27c0,1.105,0.895,2,2,2h54c1.105,0,2-0.895,2-2V27"/><path fill="none" stroke="#000000" stroke-linecap="round" stroke-miterlimit="10" stroke-width="2" d="M49 28L47 28"/><path fill="#ed7899" stroke="#000000" stroke-miterlimit="10" stroke-width="2" d="M32 13A5 5 0 1 0 32 23A5 5 0 1 0 32 13Z"/><path fill="none" stroke="#000000" stroke-linecap="round" stroke-miterlimit="10" stroke-width="2" d="M37 47L37 49M32 47L32 49M27 47L27 49M47 47L47 49M52 47L52 49M57 47L57 49M42 47L42 49M22 47L22 49M17 47L17 49M12 47L12 49M7 47L7 49M44 6c-4.778 0-8.903 2.792-10.834 6.834"/></svg>