<svg xmlns="http://www.w3.org/2000/svg" viewBox="0 0 64 64"><path fill="#cea2a8" d="M57.298,22.464L36.556,4.685c-2.621-2.247-6.49-2.247-9.111,0L6.616,22.539c-2.61,2.237-3.404,6.059-1.649,9.014C5.727,32.833,6.797,33.751,8,34.321V56c0,2.209,1.791,4,4,4h40c2.209,0,4-1.791,4-4V34.32c1.174-0.557,2.223-1.443,2.979-2.678C60.807,28.657,59.956,24.743,57.298,22.464z"/><path fill="#c5949d" d="M52,55H12c-2.209,0-4,1.791-4,4h48C56,56.791,54.209,55,52,55z"/><path fill="#ed7899" d="M18 20A2 2 0 1 0 18 24A2 2 0 1 0 18 20Z"/><path fill="none" stroke="#000000" stroke-miterlimit="10" stroke-width="2" d="M18 20A2 2 0 1 0 18 24A2 2 0 1 0 18 20Z"/><path fill="#ed7899" d="M32 8A2 2 0 1 0 32 12A2 2 0 1 0 32 8Z"/><path fill="none" stroke="#000000" stroke-miterlimit="10" stroke-width="2" d="M32 8A2 2 0 1 0 32 12A2 2 0 1 0 32 8Z"/><path fill="#ed7899" d="M50 35A2 2 0 1 0 50 39A2 2 0 1 0 50 35Z"/><path fill="none" stroke="#000000" stroke-miterlimit="10" stroke-width="2" d="M50 35A2 2 0 1 0 50 39A2 2 0 1 0 50 35Z"/><path fill="#ed7899" d="M14 35A2 2 0 1 0 14 39A2 2 0 1 0 14 35Z"/><path fill="none" stroke="#000000" stroke-miterlimit="10" stroke-width="2" d="M14 35A2 2 0 1 0 14 39A2 2 0 1 0 14 35Z"/><path fill="#ed7899" d="M46 20A2 2 0 1 0 46 24A2 2 0 1 0 46 20Z"/><path fill="none" stroke="#000000" stroke-miterlimit="10" stroke-width="2" d="M46 20A2 2 0 1 0 46 24A2 2 0 1 0 46 20Z"/><path fill="#72caaf" d="M11 26A2 2 0 1 0 11 30A2 2 0 1 0 11 26Z"/><path fill="none" stroke="#000000" stroke-miterlimit="10" stroke-width="2" d="M11 26A2 2 0 1 0 11 30A2 2 0 1 0 11 26Z"/><path fill="#72caaf" d="M25 14A2 2 0 1 0 25 18A2 2 0 1 0 25 14Z"/><path fill="none" stroke="#000000" stroke-miterlimit="10" stroke-width="2" d="M25 14A2 2 0 1 0 25 18A2 2 0 1 0 25 14Z"/><path fill="#72caaf" d="M53 26A2 2 0 1 0 53 30A2 2 0 1 0 53 26Z"/><path fill="none" stroke="#000000" stroke-miterlimit="10" stroke-width="2" d="M53 26A2 2 0 1 0 53 30A2 2 0 1 0 53 26Z"/><path fill="#72caaf" d="M50 44A2 2 0 1 0 50 48A2 2 0 1 0 50 44Z"/><path fill="none" stroke="#000000" stroke-miterlimit="10" stroke-width="2" d="M50 44A2 2 0 1 0 50 48A2 2 0 1 0 50 44Z"/><path fill="#72caaf" d="M14 44A2 2 0 1 0 14 48A2 2 0 1 0 14 44Z"/><path fill="none" stroke="#000000" stroke-miterlimit="10" stroke-width="2" d="M14 44A2 2 0 1 0 14 48A2 2 0 1 0 14 44Z"/><g><path fill="#72caaf" d="M39 14A2 2 0 1 0 39 18A2 2 0 1 0 39 14Z"/><path fill="none" stroke="#000000" stroke-miterlimit="10" stroke-width="2" d="M39 14A2 2 0 1 0 39 18A2 2 0 1 0 39 14Z"/></g><path fill="#000000" d="M12 53c-.552 0-1 .448-1 1v2c0 .552.448 1 1 1s1-.448 1-1v-2C13 53.448 12.552 53 12 53zM17 53c-.552 0-1 .448-1 1v2c0 .552.448 1 1 1s1-.448 1-1v-2C18 53.448 17.552 53 17 53zM22 53c-.552 0-1 .448-1 1v2c0 .552.448 1 1 1s1-.448 1-1v-2C23 53.448 22.552 53 22 53zM42 53c-.552 0-1 .448-1 1v2c0 .552.448 1 1 1s1-.448 1-1v-2C43 53.448 42.552 53 42 53zM47 53c-.552 0-1 .448-1 1v2c0 .552.448 1 1 1s1-.448 1-1v-2C48 53.448 47.552 53 47 53zM52 53c-.552 0-1 .448-1 1v2c0 .552.448 1 1 1s1-.448 1-1v-2C53 53.448 52.552 53 52 53z"/><path fill="#faefde" stroke="#000000" stroke-linecap="round" stroke-linejoin="round" stroke-miterlimit="10" stroke-width="2" d="M32 40L32 40c3.314 0 6 2.686 6 6v14H26V46C26 42.687 28.686 40 32 40zM32 26A5 5 0 1 0 32 36 5 5 0 1 0 32 26z"/><path fill="none" stroke="#000000" stroke-miterlimit="10" stroke-width="2" d="M57.298,22.464L36.556,4.685c-2.621-2.247-6.49-2.247-9.111,0L6.616,22.539c-2.61,2.237-3.404,6.059-1.649,9.014C5.727,32.833,6.797,33.751,8,34.321V56c0,2.209,1.791,4,4,4h40c2.209,0,4-1.791,4-4V34.32c1.174-0.557,2.223-1.443,2.979-2.678C60.807,28.657,59.956,24.743,57.298,22.464z"/></svg>