<svg xmlns="http://www.w3.org/2000/svg" data-name="Layer 1" viewBox="0 0 64 64"><path fill="#f283a5" d="M59,51V44a12,12,0,0,0-2.4-7.2L54,33.35a8,8,0,0,1-1.4-3L51.43,25.2a8,8,0,0,0-7.8-6.2H20.36a8,8,0,0,0-7.8,6.2l-1.19,5.15a8,8,0,0,1-1.4,3L7.4,36.8A12,12,0,0,0,5,44v7a4,4,0,0,0,4,4H55A4,4,0,0,0,59,51Z"/><path fill="#bbdef9" d="M54.88,34.5a16.22,16.22,0,0,1-2.26-4.15L51.43,25.2a8,8,0,0,0-7.8-6.2H20.36a8,8,0,0,0-7.8,6.2l-1.19,5.15a22.26,22.26,0,0,1-2.34,5l4.69,2H32.51l18-.35Z"/><path fill="#8b8e98" d="M52,55h2a3,3,0,0,1,3,3v5a0,0,0,0,1,0,0H49a0,0,0,0,1,0,0V58A3,3,0,0,1,52,55Z" transform="rotate(180 53 59)"/><path fill="#ed7899" d="M5,46H59a0,0,0,0,1,0,0v4a5,5,0,0,1-5,5H10a5,5,0,0,1-5-5V46A0,0,0,0,1,5,46Z"/><path fill="#8b8e98" d="M10,55h2a3,3,0,0,1,3,3v5a0,0,0,0,1,0,0H7a0,0,0,0,1,0,0V58A3,3,0,0,1,10,55Z" transform="rotate(180 11 59)"/><path fill="#ffefb8" d="M14.49 42.58L5.37 41.06 5 47H16a1 1 0 0 0 1-1v-.46A3 3 0 0 0 14.49 42.58zM58.63 41.06l-9.13 1.52a3 3 0 0 0-2.51 3V46a1 1 0 0 0 1 1H59z"/><path fill="#c2cde7" d="M59 31H53l4 6h2a2 2 0 0 0 2-2V33A2 2 0 0 0 59 31zM3 33v2a2 2 0 0 0 2 2H7l4-6H5A2 2 0 0 0 3 33z"/><path fill="#def0ff" d="M54.37 34.33a9.46 9.46 0 0 1-1.58-3.26l-2.13-8a7.34 7.34 0 0 0-.79-1.83L34.47 36.62H50.82a5.32 5.32 0 0 0 2.09-.44l1.62-1.62zM41 18.79L23.21 36.62h6.56L46.34 20.05a7.37 7.37 0 0 0-4.08-1.26zM14.47 36.62L18.47 36.62 36.07 19.03 32.07 19.03 14.47 36.62z"/><path fill="#c2cde7" d="M50.06,11a4,4,0,0,1-4,4H30.23c-1.33,2.55-2.75,4.85-5.23,5.67a6.29,6.29,0,0,1-2.1.33c-3.87,0-8.76-2.79-10.42-6h6.69l.46-.69a6,6,0,0,0,0-6.64L19.17,7H12.49C14.16,3.8,19,1,22.9,1a6.3,6.3,0,0,1,2.1.33c2.48.82,3.9,3.12,5.23,5.67H46.06a4,4,0,0,1,4,4Z"/><path fill="#d6dff2" d="M25,1.33V20.67a6.29,6.29,0,0,1-2.1.33c-3.87,0-8.76-2.79-10.42-6h6.69l.46-.69a6,6,0,0,0,0-6.64L19.17,7H12.49C14.16,3.8,19,1,22.9,1A6.3,6.3,0,0,1,25,1.33Z"/><path fill="#000000" d="M22 48a1 1 0 0 0 1-1V45a1 1 0 0 0-2 0v2A1 1 0 0 0 22 48zM27 48a1 1 0 0 0 1-1V45a1 1 0 0 0-2 0v2A1 1 0 0 0 27 48zM32 48a1 1 0 0 0 1-1V45a1 1 0 0 0-2 0v2A1 1 0 0 0 32 48zM37 48a1 1 0 0 0 1-1V45a1 1 0 0 0-2 0v2A1 1 0 0 0 37 48zM42 48a1 1 0 0 0 1-1V45a1 1 0 0 0-2 0v2A1 1 0 0 0 42 48zM47.17 50H16.92a1 1 0 1 0 0 2H47.17a1 1 0 0 0 0-2zM55.17 50H50.92a1 1 0 0 0 0 2h4.25a1 1 0 0 0 0-2zM13.17 50H8.92a1 1 0 0 0 0 2h4.25a1 1 0 1 0 0-2zM29.92 26h4.25a1 1 0 0 0 0-2H29.92a1 1 0 0 0 0 2z"/><path fill="#000000" d="M63,62H57.44A4,4,0,0,0,58,60V55a5,5,0,0,0,2-4V44a13.07,13.07,0,0,0-1.47-6H59a3,3,0,0,0,3-3V33a3,3,0,0,0-3-3H53.56l-1.15-5a9,9,0,0,0-8.77-7h-14c.43-.64.81-1.31,1.18-2H46.06a5,5,0,0,0,0-10H30.83c-1.67-3.11-3.74-6-7.93-6S13.46,3,11.61,6.54A1,1,0,0,0,12.5,8h6.14l.15.22a5,5,0,0,1,0,5.54l-.16.24H12.48a1,1,0,0,0-.89,1.46,11.45,11.45,0,0,0,3.82,4A8.94,8.94,0,0,0,11.59,25l-1.15,5H5a3,3,0,0,0-3,3v2a3,3,0,0,0,3,3h.47a13.14,13.14,0,0,0-1.09,2.89h0A13,13,0,0,0,4,44v7a5,5,0,0,0,2,4v5a4,4,0,0,0,.56,2H1a1,1,0,0,0,0,2H63a1,1,0,0,0,0-2Zm-8-8H9a3,3,0,0,1-3-3V48H16a2,2,0,0,0,2-2v-.46a4,4,0,0,0-3.34-3.95l-8-1.33A11,11,0,0,1,8.2,37.4l.89-1.18,2.13,1.05a7,7,0,0,0,3.1.73H49.78a7,7,0,0,0,3.08-.71l2.09-1,.85,1.14a11,11,0,0,1,1.54,2.86l-8,1.33A4,4,0,0,0,46,45.54V46a2,2,0,0,0,2,2H58v3A3,3,0,0,1,55,54ZM16,56H48v4a4,4,0,0,0,.56,2H15.44A4,4,0,0,0,16,60ZM6.15,42.21l8.18,1.36a2,2,0,0,1,1.67,2V46H6V44A10.9,10.9,0,0,1,6.15,42.21Zm33-6.21a4,4,0,0,1,7.72,0ZM58,44v2H48v-.46a2,2,0,0,1,1.67-2l8.18-1.36A10.93,10.93,0,0,1,58,44Zm2-11v2a1,1,0,0,1-1,1H57.25l-2.44-3.25a6.81,6.81,0,0,1-.49-.75H59A1,1,0,0,1,60,33ZM14.4,16h4.77a1,1,0,0,0,.83-.45l.46-.69a7,7,0,0,0,0-7.74L20,6.45A1,1,0,0,0,19.17,6H14.42A12.72,12.72,0,0,1,22.9,2c3,0,4.59,1.92,6.44,5.46a1,1,0,0,0,.89.54H46.06a3,3,0,0,1,0,6H30.23a1,1,0,0,0-.89.54A17.9,17.9,0,0,1,27.14,18a5.26,5.26,0,0,1-4.24,2,11.68,11.68,0,0,1-5.35-1.55A12,12,0,0,1,14.4,16Zm-.86,9.43a7,7,0,0,1,3.89-4.79A13,13,0,0,0,22.9,22,7.07,7.07,0,0,0,28,20H43.64a7,7,0,0,1,6.82,5.43l1.19,5.15A9,9,0,0,0,53.21,34l.51.68L52,35.49a5,5,0,0,1-2.2.51h-.87a6,6,0,0,0-11.82,0H14.32a5,5,0,0,1-2.22-.52l-1.8-.89.48-.64a9,9,0,0,0,1.56-3.37ZM4,35V33a1,1,0,0,1,1-1H9.68a6.81,6.81,0,0,1-.49.75L6.75,36H5A1,1,0,0,1,4,35Zm6,27a2,2,0,0,1-2-2V56h6v4a2,2,0,0,1-2,2Zm42,0a2,2,0,0,1-2-2V56h6v4a2,2,0,0,1-2,2Z"/><path fill="#000000" d="M25,15a1,1,0,0,0,1-1V8a1,1,0,0,0-2,0v6A1,1,0,0,0,25,15Z"/></svg>