<svg xmlns="http://www.w3.org/2000/svg" viewBox="0 0 64 64"><path fill="#acb7d0" d="M30.839,40h-4.583C25.561,40,25,39.377,25,38.605v-6.974c0-0.753,0.539-1.37,1.216-1.393 l6.488-0.233c0.537-0.054,0.988,0.315,1.193,0.84c0.205,0.526,0.099,1.137-0.265,1.541c-0.05,0.059-1.537,1.862-1.537,6.219 C32.095,39.377,31.534,40,30.839,40z"/><polygon fill="#acb7d0" points="59.424,22 53,22 53,17 59.424,17 63,18.499 63,20.48"/><path fill="#000000" d="M30.839,41h-4.583C25.012,41,24,39.926,24,38.605v-6.974c0-1.299,0.958-2.35,2.181-2.393 l6.487-0.233c0.876-0.089,1.779,0.499,2.16,1.475c0.342,0.879,0.164,1.889-0.453,2.575l0,0c0.002,0-1.28,1.637-1.28,5.55 C33.095,39.926,32.083,41,30.839,41z M32.809,31l-6.558,0.238C26.132,31.242,26,31.411,26,31.631v6.974 C26,38.831,26.135,39,26.256,39h4.583c0.121,0,0.256-0.169,0.256-0.395c0-4.664,1.596-6.659,1.778-6.871 c0.126-0.141,0.159-0.355,0.092-0.527C32.91,31.066,32.83,31.005,32.809,31z"/><path fill="#c2cde7" d="M44,13h4.333c0.433,0,0.854,0.14,1.2,0.4L53,16v7l-3.467,2.6c-0.346,0.26-0.767,0.4-1.2,0.4H44V13z"/><path fill="#000000" d="M59.424,23H53c-0.552,0-1-0.448-1-1v-5c0-0.267,0.106-0.522,0.296-0.71 c0.189-0.188,0.489-0.284,0.712-0.29l6.424,0.051c0.129,0.001,0.256,0.027,0.375,0.076l3.576,1.483 C63.757,17.766,64,18.13,64,18.535v1.961c0,0.402-0.241,0.766-0.612,0.922l-3.576,1.504C59.689,22.974,59.558,23,59.424,23z M54,21 h5.223L62,19.832v-0.629l-2.779-1.153L54,18.008V21z"/><path fill="#000000" d="M48.333,27H44c-0.552,0-1-0.448-1-1s0.448-1,1-1h4.333c0.215,0,0.428-0.071,0.6-0.2L52,22.5v-6 l-3.067-2.3c-0.172-0.129-0.385-0.2-0.6-0.2H44c-0.552,0-1-0.448-1-1s0.448-1,1-1h4.333c0.645,0,1.284,0.213,1.8,0.6l3.467,2.6 c0.252,0.188,0.4,0.485,0.4,0.8v7c0,0.315-0.148,0.611-0.4,0.8l-3.467,2.6C49.618,26.787,48.979,27,48.333,27z"/><path fill="#efc88e" d="M12.346,32.148c0.306,0.416,0.404,1.345,0.245,2.311C12.402,35.612,8.277,52.017,7,58h19.792 c0.862,0,1.325-1.013,0.753-1.658c-0.928-1.047-2.111-3.376-3.015-4.391c-0.865-0.97-1.2-2.293-0.904-3.558 c0.962-4.114,3.061-13.095,3.061-13.107c0.033-0.093,1.277-3.474,3.314-3.474L29.017,30H9.503l1.983,1.812 C12.1,31.812,12.278,32.056,12.346,32.148z"/><path fill="#000000" d="M26.792,59H7c-0.302,0-0.587-0.136-0.777-0.371c-0.19-0.234-0.264-0.542-0.201-0.837 c0.748-3.507,2.443-10.465,3.805-16.055c0.877-3.599,1.705-6.998,1.777-7.44c0.117-0.707,0.048-1.255-0.031-1.481 c-0.023-0.002-0.052-0.003-0.087-0.003c-0.367,0-0.704-0.201-0.879-0.523l-0.983-1.812c-0.168-0.31-0.161-0.686,0.02-0.988 C9.824,29.186,10.15,29,10.503,29h18.514c0.367,0,0.704,0.201,0.879,0.523l0.983,1.812c0.168,0.31,0.161,0.686-0.02,0.988 c-0.18,0.303-0.507,0.489-0.859,0.489c-1.018,0-2.055,1.929-2.372,2.809l-0.002-0.001c-0.163,0.747-0.769,3.341-3.025,12.995 l-0.174,0.743c-0.127,0.545-0.018,1.123,0.301,1.583c0.839,1.214,2.419,3.443,3.566,4.738c0.527,0.596,0.652,1.416,0.326,2.141 C28.292,58.548,27.592,59,26.792,59z M8.243,57h18.549c-1.212-1.368-2.845-3.671-3.709-4.922c-0.639-0.924-0.859-2.082-0.603-3.176 l0.173-0.742c0.895-3.826,2.983-12.762,3.055-13.082c0.009-0.042,0.021-0.083,0.034-0.123c0.048-0.136,0.982-2.74,2.792-3.749 L28.422,31H12.464c0.276,0.124,0.505,0.308,0.686,0.553c0,0.001,0.001,0.002,0.002,0.003c0.706,0.961,0.504,2.589,0.426,3.065 c-0.081,0.493-0.708,3.072-1.808,7.589C10.554,47.201,9.073,53.283,8.243,57z M12.345,32.146l-0.811,0.586 c0.001,0.001,0.001,0.002,0.002,0.003c0,0,0-0.001-0.001-0.001L12.345,32.146z"/><path fill="#f9dd8f" d="M44,26c0,1.587-5.507,6-7.364,6H9.4C5.313,32,2,28.568,2,24.333v-9.667C2,10.432,5.313,7,9.4,7 h27.236C38.493,7,44,12.413,44,14V26z"/><path fill="#000000" d="M34.853,33H9.4C4.768,33,1,29.112,1,24.333v-9.667C1,9.888,4.768,6,9.4,6h25.453 c0.938,0,1.854,0.263,2.65,0.76l7.106,5.447C44.855,12.396,45,12.689,45,13v6c0,0.552-0.448,1-1,1s-1-0.448-1-1v-5.507 l-6.636-5.092C35.965,8.158,35.416,8,34.853,8H9.4C5.871,8,3,10.991,3,14.667v9.667C3,28.009,5.871,31,9.4,31h25.453 c0.563,0,1.112-0.158,1.589-0.456L43,25.507V23c0-0.552,0.448-1,1-1s1,0.448,1,1v3c0,0.311-0.145,0.604-0.391,0.793l-7.027,5.392 C36.708,32.737,35.791,33,34.853,33z"/><path fill="#000000" d="M35,22c0-0.553-0.447-1-1-1h-2c-0.553,0-1,0.447-1,1s0.447,1,1,1h2C34.553,23,35,22.553,35,22z M35,17c0-0.553-0.447-1-1-1h-2c-0.553,0-1,0.447-1,1s0.447,1,1,1h2C34.553,18,35,17.553,35,17z M35,12c0-0.553-0.447-1-1-1h-2 c-0.553,0-1,0.447-1,1s0.447,1,1,1h2C34.553,13,35,12.553,35,12z M29,22c0-0.553-0.447-1-1-1h-2c-0.553,0-1,0.447-1,1 c0,0.553,0.447,1,1,1h2C28.553,23,29,22.553,29,22z M35,27c0-0.553-0.447-1-1-1h-2c-0.553,0-1,0.447-1,1s0.447,1,1,1h2 C34.553,28,35,27.553,35,27z M29,27c0-0.553-0.447-1-1-1h-2c-0.553,0-1,0.447-1,1c0,0.553,0.447,1,1,1h2C28.553,28,29,27.553,29,27 z M29,17c0-0.553-0.447-1-1-1h-2c-0.553,0-1,0.447-1,1s0.447,1,1,1h2C28.553,18,29,17.553,29,17z M29,12c0-0.553-0.447-1-1-1h-2 c-0.553,0-1,0.447-1,1s0.447,1,1,1h2C28.553,13,29,12.553,29,12z"/></svg>