<svg xmlns="http://www.w3.org/2000/svg" viewBox="0 0 64 64"><path fill="#85cbf8" d="M27,9h10v4.211c0,1.331,0.885,2.477,2.155,2.873c10.576,3.299,18.011,13.718,16.694,25.647c-1.265,11.455-10.808,20.503-22.31,21.22C19.587,63.822,8,52.764,8,39c0-10.76,7.081-19.866,16.837-22.913C26.11,15.689,27,14.543,27,13.209V9z"/><path fill="#f9e3ae" d="M27 9L27 13 29 15 32 13 35 15 37 13 37 9z"/><path fill="#ace3fd" d="M11.217,45.058c-1.464,0-2.746-1.074-2.964-2.566C8.085,41.345,8,40.17,8,39c0-10.157,6.431-19.253,16.003-22.635c1.561-0.554,3.276,0.267,3.828,1.829c0.552,1.562-0.267,3.276-1.829,3.828C18.823,24.559,14,31.382,14,39c0,0.88,0.064,1.763,0.189,2.623c0.24,1.639-0.895,3.163-2.534,3.402C11.508,45.047,11.362,45.058,11.217,45.058z"/><path fill="#6fc6f0" d="M32,63c-3.598,0-7.06-0.778-10.288-2.312c-1.497-0.711-2.133-2.5-1.422-3.997c0.71-1.497,2.499-2.135,3.997-1.422C26.705,56.417,29.299,57,32,57c2.7,0,5.296-0.583,7.713-1.73c1.494-0.712,3.286-0.074,3.997,1.422c0.711,1.497,0.074,3.286-1.423,3.997C39.06,62.222,35.599,63,32,63z"/><path fill="#f9e3ae" d="M22.022,43.125c-0.102,0-0.192,0.057-0.232,0.146l-2.082,4.847l-5.479,0.303c-0.141,0.011-0.244,0.13-0.229,0.266c0.007,0.064,0.039,0.123,0.09,0.166l4.297,3.377l-1.137,5.164c-0.028,0.133,0.062,0.266,0.201,0.297c0.064,0.014,0.13,0.004,0.185-0.027l4.664-2.663l4.329,2.944c0.124,0.069,0.281,0.029,0.349-0.089c0.031-0.053,0.04-0.117,0.025-0.177l-1.111-5.291l4.092-3.346c0.105-0.089,0.113-0.246,0.017-0.35c-0.043-0.047-0.103-0.077-0.167-0.084l-5.341-0.436l-2.24-4.881C22.217,43.196,22.126,43.131,22.022,43.125z"/><path fill="#000000" d="M17 37c-.552 0-1 .448-1 1v2c0 .552.448 1 1 1s1-.448 1-1v-2C18 37.448 17.552 37 17 37zM22 37c-.552 0-1 .448-1 1v2c0 .552.448 1 1 1s1-.448 1-1v-2C23 37.448 22.552 37 22 37zM12 37c-.552 0-1 .448-1 1v2c0 .552.448 1 1 1s1-.448 1-1v-2C13 37.448 12.552 37 12 37zM27 37c-.552 0-1 .448-1 1v2c0 .552.448 1 1 1s1-.448 1-1v-2C28 37.448 27.552 37 27 37zM32 37c-.552 0-1 .448-1 1v2c0 .552.448 1 1 1 .552 0 1-.448 1-1v-2C33 37.448 32.552 37 32 37zM37 37c-.552 0-1 .448-1 1v2c0 .552.448 1 1 1s1-.448 1-1v-2C38 37.448 37.552 37 37 37zM42 37c-.552 0-1 .448-1 1v2c0 .552.448 1 1 1s1-.448 1-1v-2C43 37.448 42.552 37 42 37zM48 38c0-.552-.448-1-1-1s-1 .448-1 1v2c0 .552.448 1 1 1s1-.448 1-1V38zM52 37c-.552 0-1 .448-1 1v2c0 .552.448 1 1 1s1-.448 1-1v-2C53 37.448 52.552 37 52 37z"/><path fill="#f9e3ae" d="M50.669 53.394L49 51.969l.003-4.705c.007-.094-.043-.186-.128-.233-.085-.042-.184-.031-.253.028l-3.704 3.303-4.606-2.331c-.122-.048-.256.009-.299.129-.02.056-.017.119.009.175l2.138 4.921-3.115 3.361c-.077.1-.055.247.049.33.048.038.107.056.166.053l5.053.031 1.398 2.245M49.748 23.612c-.053-.052-.133-.067-.205-.039L45.7 25.116l-3.382-2.504c-.08-.066-.202-.054-.271.027-.033.038-.049.086-.047.134l.674 3.877-3.596 2.172c-.09.057-.119.174-.063.261.026.04.066.068.113.079l4.033.951.845 3.8c.026.1.131.158.234.129.047-.013.087-.042.113-.082l2.177-3.43 4.25.454c.106.005.199-.075.207-.178.004-.047-.01-.093-.04-.129l-2.762-3.112 1.589-3.747C49.81 23.749 49.799 23.667 49.748 23.612z"/><path fill="#000000" d="M39.453,15.13C38.584,14.859,38,14.088,38,13.211V11c0-1.654-1.346-3-3-3h-0.161c0.792-1.72,1.734-4.485,0.697-6.311C35.099,0.919,34.13,0,32,0c-2.129,0-3.098,0.919-3.536,1.689C27.427,3.515,28.37,6.28,29.162,8H29c-1.654,0-3,1.346-3,3v2.209c0,0.877-0.587,1.65-1.461,1.923C14.048,18.409,7,28,7,39c0,6.873,2.874,13.515,7.885,18.223C19.571,61.626,25.59,64,31.98,64c0.538,0,1.079-0.017,1.622-0.051c11.94-0.745,21.932-10.249,23.241-22.108C58.159,29.917,50.846,18.684,39.453,15.13z M43.66,26.479l-0.326-1.871l1.771,1.311c0.279,0.207,0.644,0.253,0.968,0.124l2.016-0.81l-0.823,1.94c-0.15,0.355-0.083,0.766,0.173,1.055l1.367,1.539l-2.168-0.231c-0.388-0.042-0.748,0.137-0.951,0.458l-1.131,1.783l-0.418-1.881c-0.084-0.374-0.374-0.668-0.747-0.756l-2.089-0.493l1.89-1.141C43.545,27.294,43.73,26.886,43.66,26.479z M30.204,2.677C30.459,2.228,31.063,2,32,2s1.541,0.228,1.797,0.677C34.456,3.835,33.403,6.493,32.604,8h-1.208C30.597,6.493,29.545,3.835,30.204,2.677z M28,11c0-0.551,0.449-1,1-1h6c0.552,0,1,0.449,1,1v1.586l-1.127,1.127l-2.318-1.545c-0.336-0.224-0.773-0.224-1.109,0l-2.318,1.545L28,12.586V11z M19.005,51.444l-2.718-2.136l3.476-0.192c0.379-0.021,0.714-0.255,0.864-0.604l1.413-3.29l1.546,3.366c0.151,0.329,0.467,0.55,0.827,0.58l3.489,0.285l-2.643,2.161c-0.29,0.236-0.422,0.614-0.346,0.979l0.729,3.471l-2.781-1.891C22.692,54.058,22.496,54,22.299,54c-0.171,0-0.342,0.043-0.496,0.132l-3.216,1.837l0.775-3.525C19.446,52.07,19.307,51.681,19.005,51.444z M45.698,57.397l-0.528-0.88c-0.18-0.3-0.502-0.484-0.852-0.486l-3.349-0.02l1.924-2.076c0.27-0.291,0.342-0.714,0.184-1.078L41.793,49.9l2.675,1.353c0.364,0.185,0.81,0.128,1.117-0.146l2.417-2.156L48,51.968c0,0.298,0.133,0.581,0.362,0.771l1.215,1.007C48.427,55.106,47.125,56.33,45.698,57.397z M54.854,41.622c-0.428,3.88-1.882,7.475-4.053,10.542L50,51.499v-4.162c0.035-0.482-0.217-0.946-0.687-1.204c-0.438-0.216-0.965-0.152-1.357,0.18l-3.194,2.849l-4.081-2.061c-0.312-0.124-0.663-0.115-0.963,0.022c-0.3,0.135-0.535,0.391-0.648,0.708c-0.104,0.3-0.09,0.625,0.036,0.902l1.878,4.322l-2.73,2.951c-0.411,0.533-0.311,1.307,0.223,1.726c0.239,0.188,0.53,0.279,0.778,0.267l4.49,0.028l0.3,0.5c-3.133,1.95-6.735,3.187-10.567,3.426c-5.216,0.331-10.229-1.059-14.432-3.941l3.211-1.834l3.888,2.639c0.194,0.108,0.405,0.159,0.613,0.159c0.435,0,0.857-0.223,1.086-0.618c0.163-0.28,0.209-0.608,0.139-0.886l-0.986-4.696l3.637-2.974c0.255-0.217,0.413-0.533,0.434-0.866c0.021-0.335-0.098-0.671-0.331-0.925c-0.206-0.223-0.485-0.364-0.818-0.401l-4.758-0.389l-1.973-4.292c-0.179-0.463-0.616-0.778-1.113-0.804c-0.018-0.001-0.038-0.004-0.053-0.001c-0.499,0-0.948,0.292-1.149,0.751l-1.837,4.277l-4.88,0.27c-0.337,0.025-0.654,0.188-0.868,0.446c-0.213,0.256-0.315,0.593-0.279,0.924c0.034,0.323,0.191,0.617,0.466,0.846l3.804,2.989l-0.745,3.384c-0.092-0.083-0.186-0.162-0.277-0.247C11.576,51.37,9,45.416,9,39c0-10.12,6.484-18.944,16.135-21.958c1.095-0.342,1.957-1.096,2.439-2.054l0.719,0.719c0.337,0.337,0.866,0.391,1.262,0.125L32,14.202l2.445,1.63C34.614,15.945,34.808,16,35,16c0.258,0,0.514-0.1,0.707-0.293l0.718-0.718c0.481,0.956,1.34,1.71,2.432,2.05c3.733,1.164,6.977,3.237,9.569,5.905l-2.58,1.036l-2.895-2.142c-0.495-0.405-1.242-0.338-1.663,0.151c-0.197,0.23-0.3,0.523-0.287,0.826c0.002,0.044,0.006,0.087,0.014,0.131l0.558,3.203l-3.03,1.831c-0.271,0.172-0.458,0.438-0.527,0.751c-0.068,0.31-0.012,0.626,0.159,0.894c0.166,0.258,0.422,0.44,0.725,0.512l3.423,0.808l0.719,3.226c0.081,0.308,0.278,0.565,0.555,0.724c0.181,0.104,0.388,0.157,0.595,0.157c0.107,0,0.215-0.014,0.318-0.043c0.28-0.078,0.522-0.254,0.691-0.511l1.844-2.906l3.688,0.393c0.645,0.04,1.207-0.46,1.255-1.095c0.024-0.305-0.067-0.604-0.288-0.875l-2.344-2.639l0.952-2.246C53.766,29.714,55.523,35.568,54.854,41.622z M39.299,56.002h-0.097c0.015,0,0.029-0.001,0.044-0.001C39.264,56,39.281,56.001,39.299,56.002z"/><path fill="#000000" d="M17.75 29.001c-.214 0-.429-.068-.611-.209-.437-.338-.517-.966-.179-1.403 2.458-3.179 5.925-5.539 9.763-6.646.529-.152 1.085.153 1.238.684.153.531-.153 1.085-.684 1.238-3.433.99-6.535 3.103-8.735 5.948C18.345 28.868 18.049 29.001 17.75 29.001zM35.008 22.25c-.055 0-.11-.004-.166-.014-1.248-.209-2.539-.28-3.787-.211-.552.03-1.023-.393-1.053-.944-.03-.552.393-1.023.944-1.053 1.396-.076 2.837.002 4.227.235.545.091.912.607.821 1.152C35.911 21.904 35.487 22.25 35.008 22.25z"/></svg>