<svg xmlns="http://www.w3.org/2000/svg" data-name="Layer 1" viewBox="0 0 64 64"><path fill="#faefde" d="M55 59L7 59 7 34.27 33 23 33 14 55 27.57 55 59z"/><path fill="#efd8be" d="M10,54H52a3,3,0,0,1,3,3v2a0,0,0,0,1,0,0H7a0,0,0,0,1,0,0V57A3,3,0,0,1,10,54Z"/><rect width="10" height="18" x="31" y="41" fill="#cda1a7" rx="1" ry="1"/><rect width="16" height="8" x="11" y="41" fill="#c5e4fa" rx="1" ry="1"/><rect width="10" height="8" x="45" y="41" fill="#c5e4fa" rx="1" ry="1"/><path fill="#c5e4fa" d="M36 28A3 3 0 1 0 36 34A3 3 0 1 0 36 28Z"/><path fill="#f9dd8f" d="M53 20L53 9 47 9 47 16"/><path fill="#cda1a7" d="M31.48 13.29l26 15.79A1 1 0 0 0 59 28.22V24.56a1 1 0 0 0-.48-.85l-26-15.79A1 1 0 0 0 31 8.78v3.66A1 1 0 0 0 31.48 13.29zM33 22.34V18.52a1 1 0 0 0-1.4-.92L3.6 29.74a1 1 0 0 0-.6.92v3.82a1 1 0 0 0 1.4.92l28-12.13A1 1 0 0 0 33 22.34z"/><path fill="#000000" d="M16 52a1 1 0 0 0-1 1v2a1 1 0 0 0 2 0V53A1 1 0 0 0 16 52zM11 52a1 1 0 0 0-1 1v2a1 1 0 0 0 2 0V53A1 1 0 0 0 11 52zM26 52a1 1 0 0 0-1 1v2a1 1 0 0 0 2 0V53A1 1 0 0 0 26 52zM37 48a1 1 0 0 0-1 1v2a1 1 0 0 0 2 0V49A1 1 0 0 0 37 48zM21 52a1 1 0 0 0-1 1v2a1 1 0 0 0 2 0V53A1 1 0 0 0 21 52zM46 52a1 1 0 0 0-1 1v2a1 1 0 0 0 2 0V53A1 1 0 0 0 46 52zM51 52a1 1 0 0 0-1 1v2a1 1 0 0 0 2 0V53A1 1 0 0 0 51 52zM26 40H12a2 2 0 0 0-2 2v6a2 2 0 0 0 2 2H26a2 2 0 0 0 2-2V42A2 2 0 0 0 26 40zM12 48V42H26v6z"/><path fill="#000000" d="M56,42V29.35l1,.58a2,2,0,0,0,3-1.71V24.56a2,2,0,0,0-1-1.71l-5-3.06V10h1a1,1,0,0,0,0-2H45a1,1,0,0,0,0,2h1v4.94L33,7.07a2,2,0,0,0-3,1.71v3.66a2,2,0,0,0,1,1.71L32,14.8a1,1,0,0,0,0,.2v1.54a2,2,0,0,0-.79.15L20,21.54V19a1,1,0,0,0-2,0v3.41l-2,.87V13a1,1,0,0,0-2,0V24a.94.94,0,0,0,0,.13L3.21,28.82A2,2,0,0,0,2,30.66v3.82a2,2,0,0,0,2.79,1.84L6,35.79V58H3a1,1,0,0,0,0,2H59a1,1,0,0,0,0-2H56V42Zm-2,6H46V42h8ZM48,16V10h4v8.58l-4-2.45A.94.94,0,0,0,48,16ZM32,8.78,58,24.56v3.66L32,12.44ZM4,34.48V30.66L32,18.52v3.82ZM32,58V42h8V58Zm10,0V42a2,2,0,0,0-2-2H32a2,2,0,0,0-2,2V58H8V35s0,0,0-.07L32.79,24.18A2,2,0,0,0,34,22.34V16L54,28.13V40H46a2,2,0,0,0-2,2v6a2,2,0,0,0,2,2h8v8Z"/><path fill="#000000" d="M36,27a4,4,0,1,0,4,4A4,4,0,0,0,36,27Zm0,6a2,2,0,1,1,2-2A2,2,0,0,1,36,33Z"/></svg>