<svg xmlns="http://www.w3.org/2000/svg" viewBox="0 0 64 64"><path fill="#faefde" d="M55.932,23.041l-24-15l-24,15v33h48V23.041z"/><path fill="#efd8be" d="M31.932,8.041l-24,15v6l24-15l24,15v-6L31.932,8.041z"/><path fill="#000000" d="M61.499,25.153L32.529,7.155c-0.048-0.021-0.099-0.038-0.15-0.05c-0.059-0.04-0.123-0.074-0.19-0.1 c-0.063-0.006-0.127-0.006-0.19,0h-0.18c-0.069,0.019-0.136,0.046-0.2,0.08c-0.048,0.013-0.095,0.03-0.14,0.05L2.511,25.133 c-0.481,0.27-0.653,0.879-0.384,1.361c0.269,0.482,0.878,0.654,1.359,0.385c0.025-0.014,0.05-0.029,0.074-0.045l3.466-2.14V55H4.03 c-0.552,0-0.999,0.448-0.999,1s0.447,1,0.999,1h55.94c0.552,0,0.999-0.448,0.999-1s-0.447-1-0.999-1h-2.997V24.693l3.466,2.16 c0.456,0.31,1.078,0.191,1.388-0.265c0.31-0.457,0.191-1.079-0.265-1.389c-0.024-0.016-0.048-0.031-0.074-0.046H61.499z M54.976,55 H9.025V23.453L32,9.184l22.976,14.269V55z"/><path fill="#000000" d="M17,49c-0.552,0-1,0.448-1,1v2c0,0.552,0.448,1,1,1s1-0.448,1-1v-2C18,49.448,17.552,49,17,49z M12,49c-0.552,0-1,0.448-1,1v2c0,0.552,0.448,1,1,1s1-0.448,1-1v-2C13,49.448,12.552,49,12,49z M22,49c-0.552,0-1,0.448-1,1v2 c0,0.552,0.448,1,1,1s1-0.448,1-1v-2C23,49.448,22.552,49,22,49z M27,49c-0.552,0-1,0.448-1,1v2c0,0.552,0.448,1,1,1s1-0.448,1-1 v-2C28,49.448,27.552,49,27,49z M32,49c-0.552,0-1,0.448-1,1v2c0,0.552,0.448,1,1,1s1-0.448,1-1v-2C33,49.448,32.552,49,32,49z M37,49c-0.552,0-1,0.448-1,1v2c0,0.552,0.448,1,1,1s1-0.448,1-1v-2C38,49.448,37.552,49,37,49z M42,49c-0.552,0-1,0.448-1,1v2 c0,0.552,0.448,1,1,1s1-0.448,1-1v-2C43,49.448,42.552,49,42,49z M47,49c-0.552,0-1,0.448-1,1v2c0,0.552,0.448,1,1,1s1-0.448,1-1 v-2C48,49.448,47.552,49,47,49z M51,52c0,0.552,0.448,1,1,1s1-0.448,1-1v-2c0-0.552-0.448-1-1-1s-1,0.448-1,1V52z"/><path fill="#acb7d0" d="M22.792,27C22.355,27,22,26.645,22,26.208v-2.417C22,23.355,22.355,23,22.792,23h18.417 C41.645,23,42,23.355,42,23.792v2.417C42,26.645,41.645,27,41.208,27H22.792z"/><path fill="#000000" d="M41,24v2H23v-2H41 M41.209,22H22.792C21.802,22,21,22.802,21,23.791v2.417 C21,27.198,21.802,28,22.792,28h18.416C42.198,28,43,27.198,43,26.209v-2.417C43,22.802,42.198,22,41.209,22L41.209,22z"/><path fill="#acb7d0" d="M22.625,35C22.28,35,22,34.72,22,34.375v-2.75C22,31.28,22.28,31,22.625,31h18.75 C41.72,31,42,31.28,42,31.625v2.75C42,34.72,41.72,35,41.375,35H22.625z"/><path fill="#000000" d="M41.38,30H38c-0.552,0-1,0.448-1,1v0c0,0.552,0.448,1,1,1h3v2H23v-2h3c0.552,0,1-0.448,1-1v0 c0-0.552-0.448-1-1-1h-3.38C21.729,30,21,30.729,21,31.62v2.76c0,0.891,0.729,1.62,1.62,1.62h18.76 c0.891,0,1.62-0.729,1.62-1.62v-2.76C43,30.729,42.271,30,41.38,30z M34,30h-4c-0.552,0-1,0.448-1,1v0c0,0.552,0.448,1,1,1h4 c0.552,0,1-0.448,1-1v0C35,30.448,34.552,30,34,30z"/><path fill="#000000" d="M32,46c-2.206,0-4-1.794-4-4s1.794-4,4-4s4,1.794,4,4S34.206,46,32,46z M32,40 c-1.103,0-2,0.897-2,2s0.897,2,2,2s2-0.897,2-2S33.103,40,32,40z"/><rect width="2" height="4" x="24" y="28" fill="#000000"/><rect width="2" height="5" x="38" y="27" fill="#000000"/><rect width="2" height="4" x="31" y="35" fill="#000000"/><g><path fill="#000000" d="M24,41h5v2h-5c-0.552,0-1-0.448-1-1l0,0C23,41.448,23.448,41,24,41z"/></g><g><path fill="#000000" d="M35,41h5c0.552,0,1,0.448,1,1l0,0c0,0.552-0.448,1-1,1h-5V41z"/></g></svg>