<svg xmlns="http://www.w3.org/2000/svg" data-name="Layer 1" viewBox="0 0 64 64"><path fill="#ffefb8" d="M21 41H26V47H21z"/><path fill="#c2cde7" d="M20.77,59H16L10,40l11,1,1.75,15.78A2,2,0,0,1,20.77,59Z"/><path fill="#b5c4e0" d="M21,46l1.36,12.2a2,2,0,0,0,.4-1.42L21,41,10,40l1.63,5.15Z"/><path fill="#ffefb8" d="M61 32L55 34 55 24 61 26 61 32z"/><path fill="#85cbf8" d="M51.88,52.88,37.33,43,23,41V17l13.92-2,15-9.94A2,2,0,0,1,55,6.73v44.5A2,2,0,0,1,51.88,52.88Z"/><path fill="#6fc6f0" d="M23,34v7l14.33,2,14.54,9.88A2,2,0,0,0,55,51.22v-10a4,4,0,0,0-3.12-3.9L37.33,34Z"/><path fill="#ed7899" d="M23,41,8.4,39.54a6,6,0,0,1-5.4-6V24.43a6,6,0,0,1,5.4-6L23,17Z"/><path fill="#e26a90" d="M5.85,34a2,2,0,0,0-1.63,3.16A5.94,5.94,0,0,0,8.4,39.54L23,41V35a1,1,0,0,0-1-1Z"/><path fill="#000000" d="M49,40a1,1,0,0,0-1,1v4.25a1,1,0,0,0,2,0V41A1,1,0,0,0,49,40Z"/><path fill="#000000" d="M59.95,24.6,56,23.28V6.74a3,3,0,0,0-4.66-2.5l-12.89,8.6a9,9,0,0,1-3.94,1.45L8.18,17.38a7,7,0,0,0-6.18,7v9.33a7,7,0,0,0,6.18,7l1,.12L14.61,57.9A3,3,0,0,0,17.47,60h3.29a3,3,0,0,0,3-3.35l-1-8.65h1.85a3,3,0,0,0,2.94-3.59l-.31-1.56,7.31.86a9,9,0,0,1,3.94,1.45l12.89,8.6A3,3,0,0,0,56,51.26V34.72l3.95-1.32A3,3,0,0,0,62,30.56V27.44A3,3,0,0,0,59.95,24.6ZM4,33.66V24.34a5,5,0,0,1,4.42-5L22,17.78V40.22L8.42,38.63A5,5,0,0,1,4,33.66Zm17.5,24a1,1,0,0,1-.75.34H17.47a1,1,0,0,1-1-.7L11.36,41,20,42a.93.93,0,0,0,0,.11l1.74,14.77A1,1,0,0,1,21.5,57.66Zm4-12.86a1,1,0,0,1-1,1.2H22.48L22,42.25l3.07.36ZM54,51.26a1,1,0,0,1-1.55.83L39.55,43.5a11.05,11.05,0,0,0-4.82-1.77L23.91,40.45a1,1,0,0,0,0-.24V17.54l10.78-1.27a11.05,11.05,0,0,0,4.82-1.77L48,8.9V37.21a1,1,0,0,0,2,0V8a1,1,0,0,0-.07-.35L52.45,5.9A1,1,0,0,1,54,6.74Zm6-20.7a1,1,0,0,1-.68.95L56,32.61V25.39l3.32,1.11a1,1,0,0,1,.68.95Z"/><path fill="#000000" d="M29 18H27a1 1 0 0 0 0 2h2a1 1 0 0 0 0-2zM29 23H27a1 1 0 0 0 0 2h2a1 1 0 0 0 0-2zM29 28H27a1 1 0 0 0 0 2h2a1 1 0 0 0 0-2zM29 33H27a1 1 0 1 0 0 2h2a1 1 0 0 0 0-2zM29 38H27a1 1 0 1 0 0 2h2a1 1 0 0 0 0-2z"/></svg>