<svg xmlns="http://www.w3.org/2000/svg" viewBox="0 0 64 64"><path fill="#72caaf" d="M56,57H8c-1.105,0-2-0.895-2-2V9c0-1.105,0.895-2,2-2h48c1.105,0,2,0.895,2,2v46 C58,56.105,57.105,57,56,57z"/><path fill="#5dbc9d" d="M6,52h52l0,0v3c0,1.105-0.895,2-2,2H8c-1.105,0-2-0.895-2-2V52L6,52z"/><path fill="#000000" d="M56,6H8C6.343,6,5,7.343,5,9v46c0,1.657,1.343,3,3,3l0,0h48c1.657,0,3-1.343,3-3l0,0V9 C59,7.343,57.657,6,56,6z M57,55c0,0.552-0.448,1-1,1H8c-0.552,0-1-0.448-1-1v-1c0.552,0,1-0.448,1-1v-2c0-0.552-0.448-1-1-1V9 c0-0.552,0.448-1,1-1h48c0.552,0,1,0.448,1,1v41c-0.552,0-1,0.448-1,1v2c0,0.552,0.448,1,1,1V55z"/><path fill="#000000" d="M47,50c-0.552,0-1,0.448-1,1v2c0,0.552,0.448,1,1,1s1-0.448,1-1v-2C48,50.448,47.552,50,47,50z M52,50c-0.552,0-1,0.448-1,1v2c0,0.552,0.448,1,1,1s1-0.448,1-1v-2C53,50.448,52.552,50,52,50z M32,50c-0.552,0-1,0.448-1,1v2 c0,0.552,0.448,1,1,1c0.552,0,1-0.448,1-1v-2C33,50.448,32.552,50,32,50z M27,50c-0.552,0-1,0.448-1,1v2c0,0.552,0.448,1,1,1 s1-0.448,1-1v-2C28,50.448,27.552,50,27,50z M22,50c-0.552,0-1,0.448-1,1v2c0,0.552,0.448,1,1,1s1-0.448,1-1v-2 C23,50.448,22.552,50,22,50z M17,50c-0.552,0-1,0.448-1,1v2c0,0.552,0.448,1,1,1s1-0.448,1-1v-2C18,50.448,17.552,50,17,50z M12,50c-0.552,0-1,0.448-1,1v2c0,0.552,0.448,1,1,1s1-0.448,1-1v-2C13,50.448,12.552,50,12,50z M42,50c-0.552,0-1,0.448-1,1v2 c0,0.552,0.448,1,1,1s1-0.448,1-1v-2C43,50.448,42.552,50,42,50z M37,50c-0.552,0-1,0.448-1,1v2c0,0.552,0.448,1,1,1s1-0.448,1-1 v-2C38,50.448,37.552,50,37,50z"/><g><line x1="32" x2="32" y1="27" y2="33" fill="none" stroke="#faefde" stroke-linecap="round" stroke-miterlimit="10" stroke-width="2"/><line x1="12" x2="12" y1="27" y2="33" fill="none" stroke="#faefde" stroke-linecap="round" stroke-miterlimit="10" stroke-width="2"/><line x1="27" x2="27" y1="21" y2="39" fill="none" stroke="#faefde" stroke-linecap="round" stroke-miterlimit="10" stroke-width="2"/><line x1="17" x2="17" y1="21" y2="39" fill="none" stroke="#faefde" stroke-linecap="round" stroke-miterlimit="10" stroke-width="2"/><line x1="22" x2="22" y1="45" y2="15" fill="none" stroke="#faefde" stroke-linecap="round" stroke-miterlimit="10" stroke-width="2"/><line x1="52" x2="52" y1="27" y2="33" fill="none" stroke="#faefde" stroke-linecap="round" stroke-miterlimit="10" stroke-width="2"/><line x1="47" x2="47" y1="21" y2="39" fill="none" stroke="#faefde" stroke-linecap="round" stroke-miterlimit="10" stroke-width="2"/><line x1="37" x2="37" y1="21" y2="39" fill="none" stroke="#faefde" stroke-linecap="round" stroke-miterlimit="10" stroke-width="2"/><line x1="42" x2="42" y1="45" y2="15" fill="none" stroke="#faefde" stroke-linecap="round" stroke-miterlimit="10" stroke-width="2"/></g></svg>