<svg xmlns="http://www.w3.org/2000/svg" viewBox="0 0 64 64"><path fill="#000000" d="M38,21c0,0.555,0.449,1,1,1h2c0.551,0,1-0.445,1-1s-0.449-1-1-1h-2C38.449,20,38,20.445,38,21z"/><path fill="#000000" d="M38,16c0,0.555,0.449,1,1,1h2c0.551,0,1-0.445,1-1c0-0.555-0.449-1-1-1h-2 C38.449,15,38,15.445,38,16z"/><path fill="#000000" d="M38,11c0,0.555,0.449,1,1,1h2c0.551,0,1-0.445,1-1s-0.449-1-1-1h-2C38.449,10,38,10.445,38,11z"/><path fill="#000000" d="M38,6c0,0.555,0.449,1,1,1h2c0.551,0,1-0.445,1-1s-0.449-1-1-1h-2C38.449,5,38,5.445,38,6z"/><path fill="#000000" d="M22,58c0,0.555,0.449,1,1,1h2c0.551,0,1-0.445,1-1s-0.449-1-1-1h-2C22.449,57,22,57.445,22,58z"/><path fill="#72caaf" d="M62.41,30.59C62.05,30.22,61.55,30,61,30h-2.29c-0.86-2.89-3.53-5-6.71-5c-3.8,0-6.88,3.01-6.99,6.78	C45,31.85,45,31.93,45,32v18.5c0,3.04-2.46,5.5-5.5,5.5c-1.52,0-2.9-0.62-3.89-1.61C34.62,53.4,34,52.02,34,50.5v-37	C34,8.25,29.75,4,24.5,4c-2.62,0-5,1.06-6.72,2.78C16.06,8.5,15,10.88,15,13.5v12.18C14.09,25.24,13.08,25,12,25	c-3.18,0-5.85,2.11-6.71,5H3c-1.1,0-2,0.9-2,2c0,0.55,0.22,1.05,0.59,1.41C1.95,33.78,2.45,34,3,34h2.29c0.86,2.89,3.53,5,6.71,5	c3.8,0,6.89-3.02,6.99-6.79C19,32.14,19,32.07,19,32V13.5c0-3.04,2.46-5.5,5.5-5.5c1.52,0,2.9,0.62,3.89,1.61S30,11.98,30,13.5v37	c0,5.25,4.25,9.5,9.5,9.5c2.62,0,5-1.06,6.72-2.78C47.94,55.5,49,53.12,49,50.5V38.32c0.91,0.44,1.92,0.68,3,0.68	c3.18,0,5.85-2.11,6.71-5H61c1.1,0,2-0.9,2-2C63,31.45,62.78,30.95,62.41,30.59z M12,35c-0.89,0-1.69-0.38-2.23-1	C9.29,33.47,9,32.77,9,32c0-0.77,0.29-1.47,0.77-2c0.54-0.62,1.34-1,2.23-1c0.88,0,1.67,0.38,2.21,0.98C14.7,30.51,15,31.22,15,32	c0,0.77-0.29,1.47-0.77,2C13.69,34.62,12.89,35,12,35z M52,35c-0.88,0-1.67-0.38-2.21-0.98C49.3,33.49,49,32.78,49,32	c0-0.77,0.29-1.47,0.77-2c0.54-0.62,1.34-1,2.23-1s1.69,0.38,2.23,1c0.48,0.53,0.77,1.23,0.77,2c0,0.77-0.29,1.47-0.77,2	C53.69,34.62,52.89,35,52,35z"/><path fill="#000000" d="M22,53c0,0.555,0.449,1,1,1h2c0.551,0,1-0.445,1-1s-0.449-1-1-1h-2C22.449,52,22,52.445,22,53z"/><path fill="#000000" d="M22,48c0,0.555,0.449,1,1,1h2c0.551,0,1-0.445,1-1s-0.449-1-1-1h-2C22.449,47,22,47.445,22,48z"/><path fill="#000000" d="M22,43c0,0.555,0.449,1,1,1h2c0.551,0,1-0.445,1-1s-0.449-1-1-1h-2C22.449,42,22,42.445,22,43z"/><path fill="#000000" d="M61,29h-1.59c-1.19-2.93-4.06-5-7.41-5c-4.31,0-7.84,3.43-7.99,7.71C44,31.81,44,31.9,44,32v18.5 c0,2.48-2.02,4.5-4.5,4.5S35,52.98,35,50.5v-37C35,7.71,30.29,3,24.5,3S14,7.71,14,13.5v10.75C13.36,24.09,12.69,24,12,24 c-3.35,0-6.22,2.07-7.41,5H3c-1.65,0-3,1.35-3,3c0,1.65,1.35,3,3,3h1.59c1.19,2.93,4.06,5,7.41,5c4.31,0,7.84-3.43,7.99-7.71 C20,32.19,20,32.1,20,32V13.5c0-2.48,2.02-4.5,4.5-4.5s4.5,2.02,4.5,4.5v37C29,56.29,33.71,61,39.5,61S50,56.29,50,50.5V39.75 c0.64,0.16,1.31,0.25,2,0.25c3.35,0,6.22-2.07,7.41-5H61c1.65,0,3-1.35,3-3C64,30.35,62.65,29,61,29z M61,33h-1.06h-2.03 c-0.11,0.72-0.36,1.4-0.72,2c-1.03,1.79-2.97,3-5.19,3c-0.7,0-1.37-0.12-2-0.35c-0.75-0.25-1.43-0.66-2-1.19v2.46V50.5 c0,4.69-3.81,8.5-8.5,8.5S31,55.19,31,50.5v-37C31,9.92,28.08,7,24.5,7S18,9.92,18,13.5v13.22V32c0,1.09-0.29,2.11-0.8,2.99 C16.16,36.79,14.22,38,12,38s-4.16-1.21-5.19-3c-0.36-0.6-0.61-1.28-0.72-2H4.06H3c-0.55,0-1-0.45-1-1s0.45-1,1-1h1.06h2.03 c0.11-0.72,0.36-1.4,0.72-2c1.03-1.79,2.97-3,5.19-3c0.7,0,1.37,0.12,2,0.35c0.75,0.25,1.43,0.66,2,1.19v-2.46V13.5 C16,8.81,19.81,5,24.5,5S33,8.81,33,13.5v37c0,3.58,2.92,6.5,6.5,6.5s6.5-2.92,6.5-6.5V37.28V32c0-1.09,0.29-2.11,0.8-2.99 C47.84,27.21,49.78,26,52,26s4.16,1.21,5.19,3c0.36,0.6,0.61,1.28,0.72,2h2.03H61c0.55,0,1,0.45,1,1S61.55,33,61,33z"/><path fill="#000000" d="M14,28.54C13.41,28.2,12.73,28,12,28c-1.01,0-1.93,0.38-2.64,1c-0.59,0.52-1.03,1.21-1.23,2 C8.04,31.32,8,31.65,8,32c0,0.35,0.04,0.68,0.13,1c0.2,0.79,0.64,1.48,1.23,2c0.71,0.62,1.63,1,2.64,1s1.93-0.38,2.64-1 c0.59-0.52,1.03-1.21,1.23-2c0.09-0.32,0.13-0.65,0.13-1c0-0.64-0.15-1.24-0.42-1.78C15.23,29.51,14.68,28.93,14,28.54z M12,34 c-0.74,0-1.38-0.4-1.73-1C10.1,32.71,10,32.36,10,32s0.1-0.71,0.27-1c0.35-0.6,0.99-1,1.73-1s1.38,0.4,1.73,1 C13.9,31.29,14,31.64,14,32s-0.1,0.71-0.27,1C13.38,33.6,12.74,34,12,34z"/><path fill="#000000" d="M54.64,29c-0.71-0.62-1.63-1-2.64-1s-1.93,0.38-2.64,1c-0.59,0.52-1.03,1.21-1.23,2 C48.04,31.32,48,31.65,48,32c0,0.64,0.15,1.24,0.42,1.78c0.35,0.71,0.9,1.29,1.58,1.68C50.59,35.8,51.27,36,52,36 c1.01,0,1.93-0.38,2.64-1c0.59-0.52,1.03-1.21,1.23-2c0.09-0.32,0.13-0.65,0.13-1c0-0.35-0.04-0.68-0.13-1 C55.67,30.21,55.23,29.52,54.64,29z M52,34c-0.74,0-1.38-0.4-1.73-1C50.1,32.71,50,32.36,50,32s0.1-0.71,0.27-1 c0.35-0.6,0.99-1,1.73-1s1.38,0.4,1.73,1C53.9,31.29,54,31.64,54,32s-0.1,0.71-0.27,1C53.38,33.6,52.74,34,52,34z"/></svg>