<svg xmlns="http://www.w3.org/2000/svg" data-name="Layer 1" viewBox="0 0 64 64"><path fill="#c5e4fa" d="M5 15H59V55H5z"/><path fill="#e3f2ff" d="M38.11 55L59 34.11 59 16 56.21 16 17.21 55 38.11 55zM5.29 55L13.64 55 52.64 16 44.29 16 5.29 55zM5 51.71L40.71 16 36.75 16 5 47.75 5 51.71z"/><rect width="54" height="10" x="5" y="9" fill="#acb7d0" rx="2" ry="2"/><rect width="14" height="4" x="17" y="25" fill="#f9e3ae" rx="1" ry="1"/><rect width="18" height="4" x="23" y="35" fill="#f9e3ae" rx="1" ry="1"/><rect width="18" height="4" x="33" y="45" fill="#f9e3ae" rx="1" ry="1"/><path fill="#000000" d="M55,18H51a1,1,0,0,0,0,2h4a1,1,0,0,0,0-2Z"/><path fill="#000000" d="M57,8H7a3,3,0,0,0-3,3V53a3,3,0,0,0,3,3H57a3,3,0,0,0,3-3V11A3,3,0,0,0,57,8Zm1,45a1,1,0,0,1-1,1H7a1,1,0,0,1-1-1V20H47a1,1,0,0,0,0-2H6V11a1,1,0,0,1,1-1H57a1,1,0,0,1,1,1Z"/><path fill="#000000" d="M20 12a1 1 0 0 0-1 1v2a1 1 0 0 0 2 0V13A1 1 0 0 0 20 12zM15 12a1 1 0 0 0-1 1v2a1 1 0 0 0 2 0V13A1 1 0 0 0 15 12zM10 12a1 1 0 0 0-1 1v2a1 1 0 0 0 2 0V13A1 1 0 0 0 10 12zM35 12a1 1 0 0 0-1 1v2a1 1 0 0 0 2 0V13A1 1 0 0 0 35 12zM40 12a1 1 0 0 0-1 1v2a1 1 0 0 0 2 0V13A1 1 0 0 0 40 12zM45 12a1 1 0 0 0-1 1v2a1 1 0 0 0 2 0V13A1 1 0 0 0 45 12zM50 16a1 1 0 0 0 1-1V13a1 1 0 0 0-2 0v2A1 1 0 0 0 50 16zM55 12a1 1 0 0 0-1 1v2a1 1 0 0 0 2 0V13A1 1 0 0 0 55 12zM25 12a1 1 0 0 0-1 1v2a1 1 0 0 0 2 0V13A1 1 0 0 0 25 12zM30 12a1 1 0 0 0-1 1v2a1 1 0 0 0 2 0V13A1 1 0 0 0 30 12zM9 28h4a1 1 0 0 0 0-2H9a1 1 0 0 0 0 2zM55 46H52a1 1 0 0 0-.17 0A3 3 0 0 0 49 44H35a3 3 0 0 0 0 6H49a3 3 0 0 0 2.83-2A1 1 0 0 0 52 48h3a1 1 0 0 0 0-2zm-6 2H35a1 1 0 0 1 0-2H49a1 1 0 0 1 0 2zM55 26H31.82A3 3 0 0 0 29 24H19a3 3 0 0 0 0 6H29a3 3 0 0 0 2.82-2H55a1 1 0 0 0 0-2zM29 28H19a1 1 0 0 1 0-2H29a1 1 0 0 1 0 2zM9 38H19a1 1 0 0 0 0-2H9a1 1 0 0 0 0 2zM29 46H9a1 1 0 0 0 0 2H29a1 1 0 0 0 0-2zM55 36H41.82A3 3 0 0 0 39 34H25a3 3 0 0 0 0 6H39a3 3 0 0 0 2.82-2H55a1 1 0 0 0 0-2zM39 38H25a1 1 0 0 1 0-2H39a1 1 0 0 1 0 2z"/></svg>