<svg xmlns="http://www.w3.org/2000/svg" viewBox="0 0 64 64"><path fill="#97e0bb" d="M32.694,45.363l4.229,0.022l2.308-26.538c-0.709-3.737-5.288-8.077-9.231-8.077 c-0.498,0-0.984,0.052-1.457,0.138C27.594,7.502,24.477,5,20.769,5c-4.461,0-8.077,3.616-8.077,8.077 c0,0.817,0.124,1.605,0.349,2.348c-4.083,0.404-7.272,3.847-7.272,8.036c0,2.943,1.58,5.511,3.932,6.923 c-2.353,1.412-3.932,3.98-3.932,6.923c0,4.461,3.616,8.077,8.077,8.077c1.396,0,2.709-0.354,3.855-0.978 C18.749,47.652,21.791,50,25.385,50C28.615,50,31.403,48.103,32.694,45.363"/><path fill="#72caaf" d="M36.947,45.105c-0.302-1.141-1.003-2.181-2.063-2.885c-2.301-1.529-5.403-0.901-6.931,1.399 C27.379,44.484,26.419,45,25.385,45c-1.338,0-2.515-0.856-2.926-2.13c-0.458-1.416-1.522-2.555-2.904-3.106 c-1.381-0.552-2.937-0.459-4.245,0.252c-0.45,0.245-0.943,0.37-1.464,0.37c-1.697,0-3.077-1.38-3.077-3.077 c0-2.217-1.453-4.075-3.451-4.73c-0.969,1.329-1.279,2.69-1.279,4.461c0,4.461,3.347,8.346,7.808,8.346 c1.396,0,2.709-0.354,3.855-0.978C18.749,47.651,21.791,50,25.385,50c3.23,0,6.018-1.897,7.31-4.637l4.229,0.022L36.947,45.105z"/><path fill="#72caaf" d="M50.417 35L35.583 35 31 46 55 46z"/><path fill="#5dbc9d" d="M34.333 38L51.667 38 50.833 36 35.167 36z"/><path fill="#72caaf" d="M48.417 24L37.583 24 33 35 53 35zM43 8L35 24 51 24z"/><path fill="#5dbc9d" d="M37 27L49 27 48.423 24 37.577 24z"/><path fill="#cda1a7" d="M40 46H46V59H40zM26 50.125L26 59 20 59 20 48"/><path fill="#000000" d="M56,60H8c-0.552,0-1-0.448-1-1s0.448-1,1-1h48c0.552,0,1,0.448,1,1S56.552,60,56,60z"/><path fill="#000000" d="M47 60h-8V45h8V60zM41 58h4V47h-4V58zM27 60h-8V48c0-.552.448-1 1-1s1 .448 1 1v10h4v-7.875c0-.552.448-1 1-1s1 .448 1 1V60z"/><path fill="#000000" d="M55,47H31c-0.334,0-0.646-0.167-0.832-0.445s-0.22-0.631-0.091-0.939l4.583-11 C34.816,34.243,35.18,34,35.583,34h14.833c0.404,0,0.768,0.243,0.923,0.615l4.583,11c0.129,0.309,0.095,0.661-0.091,0.939 S55.334,47,55,47z M32.5,45h21l-3.75-9h-13.5L32.5,45z"/><path fill="#000000" d="M53,36H33c-0.334,0-0.646-0.167-0.832-0.445s-0.22-0.631-0.091-0.939l4.583-11 C36.816,23.243,37.18,23,37.583,23h10.833c0.404,0,0.768,0.243,0.923,0.615l4.583,11c0.129,0.309,0.095,0.661-0.091,0.939 S53.334,36,53,36z M34.5,34h17l-3.75-9h-9.5L34.5,34z"/><path fill="#000000" d="M51 25H35c-.347 0-.668-.18-.851-.474-.182-.295-.199-.663-.044-.973l8-16c.339-.678 1.45-.678 1.789 0l8 16c.155.31.138.678-.044.973C51.668 24.82 51.347 25 51 25zM36.618 23h12.764L43 10.236 36.618 23zM25.385 51c-3.591 0-6.785-2.087-8.249-5.29C16.121 46.002 15.063 46 14.031 46h-.185c-.552 0-1-.448-1-1s.448-1 1-1h.187c1.24 0 2.319.002 3.19-.472.261-.143.572-.161.849-.05.276.11.489.338.581.621C19.599 47.031 22.305 49 25.385 49c.552 0 1 .448 1 1S25.937 51 25.385 51z"/><path fill="#000000" d="M25.385,51c-3.591,0-6.785-2.087-8.249-5.29C16.12,46.002,15.063,46,14.031,46h-0.185 C8.803,46,5,42.263,5,37.308c0-2.769,1.103-5.263,3.007-6.923C6.103,28.725,5,26.23,5,23.461c0-4.378,2.962-8.046,7.027-8.891 c0-0.011-0.001-0.021-0.002-0.032C12.014,14.355,12,14.157,12,13.077C12,7.987,15.852,4,20.769,4c3.774,0,7.159,2.417,8.488,5.966 c0.104,0.004,0.206,0.01,0.303,0.016C29.706,9.991,29.852,10,30,10c4.452,0,8.119,2.938,8.917,7.145 c0.103,0.542-0.253,1.066-0.796,1.169c-0.544,0.106-1.066-0.254-1.169-0.796C36.336,14.269,33.477,12,30,12 c-0.188,0-0.373-0.01-0.557-0.021c-0.281-0.017-0.524-0.031-0.72,0.005c-0.506,0.091-1.004-0.217-1.143-0.715 C26.715,8.167,23.915,6,20.769,6C16.973,6,14,9.109,14,13.077c0,0.986,0.01,1.167,0.021,1.334c0.01,0.161,0.021,0.311,0.021,1.014 c0,0.514-0.39,0.944-0.901,0.995C9.582,16.772,7,19.733,7,23.461c0,2.629,1.172,4.84,3.216,6.066 c0.301,0.181,0.485,0.506,0.485,0.857s-0.184,0.677-0.485,0.857C8.172,32.468,7,34.679,7,37.308C7,41.186,9.879,44,13.846,44h0.187 c1.24,0,2.319,0.002,3.19-0.472c0.261-0.143,0.572-0.161,0.849-0.05c0.276,0.11,0.489,0.338,0.581,0.621 C19.599,47.031,22.305,49,25.385,49c2.377,0,4.583-1.185,5.901-3.168c0.305-0.461,0.925-0.587,1.386-0.28 c0.29,0.193,0.447,0.511,0.447,0.835c0,0.189-0.054,0.381-0.167,0.551C31.263,49.481,28.434,51,25.385,51z"/><path fill="#000000" d="M26.071 26.9c-.165 0-.332-.041-.486-.127-2.101-1.172-3.676-3.173-4.321-5.49-.148-.532.163-1.083.695-1.231.53-.147 1.083.163 1.231.695.503 1.806 1.731 3.366 3.369 4.279.482.27.655.878.386 1.361C26.762 26.716 26.422 26.9 26.071 26.9zM21.53 35.824c-.422 0-.815-.27-.952-.693-.524-1.622-1.625-3.003-3.102-3.889-.473-.284-.627-.898-.343-1.372s.898-.627 1.372-.343c1.891 1.134 3.303 2.906 3.976 4.989.17.525-.119 1.089-.645 1.259C21.735 35.808 21.631 35.824 21.53 35.824zM38 44c-.552 0-1-.448-1-1v-2c0-.552.448-1 1-1s1 .448 1 1v2C39 43.552 38.552 44 38 44zM43 44c-.552 0-1-.448-1-1v-2c0-.552.448-1 1-1s1 .448 1 1v2C44 43.552 43.552 44 43 44zM48 44c-.552 0-1-.448-1-1v-2c0-.552.448-1 1-1s1 .448 1 1v2C49 43.552 48.552 44 48 44z"/></svg>