<svg xmlns="http://www.w3.org/2000/svg" data-name="Layer 1" viewBox="0 0 64 64"><path fill="#c2cde7" d="M19,3H45a8,8,0,0,1,8,8V55a2,2,0,0,1-2,2H13a2,2,0,0,1-2-2V11A8,8,0,0,1,19,3Z"/><path fill="#f9dd8f" d="M15,57H49a0,0,0,0,1,0,0v3a1,1,0,0,1-1,1H16a1,1,0,0,1-1-1V57A0,0,0,0,1,15,57Z"/><path fill="#b5c4e0" d="M22,3V57H13a2,2,0,0,1-2-2V11a8,8,0,0,1,8-8Z"/><path fill="#ced8ed" d="M53,11V55a2,2,0,0,1-2,2H42V3h3A8,8,0,0,1,53,11Z"/><rect width="10" height="4" x="27" y="23" fill="#f9dd8f" rx="2" ry="2"/><path fill="#000000" d="M45,2H19a9,9,0,0,0-9,9V55a3,3,0,0,0,3,3h1v2a2,2,0,0,0,2,2H48a2,2,0,0,0,2-2V58h1a3,3,0,0,0,3-3V11A9,9,0,0,0,45,2Zm3,58H16V58H48Zm4-5a1,1,0,0,1-1,1H13a1,1,0,0,1-1-1V54a1,1,0,0,0,1-1V51a1,1,0,0,0-1-1V26H26.18A3,3,0,0,0,29,28h6a3,3,0,0,0,2.82-2H41a1,1,0,0,0,0-2H37.82A3,3,0,0,0,35,22H29a3,3,0,0,0-2.82,2H12V11a7,7,0,0,1,7-7H45a7,7,0,0,1,7,7V50a1,1,0,0,0-1,1v2a1,1,0,0,0,1,1ZM28,25a1,1,0,0,1,1-1h6a1,1,0,0,1,0,2H29A1,1,0,0,1,28,25Z"/><path fill="#000000" d="M17 50a1 1 0 0 0-1 1v2a1 1 0 0 0 2 0V51A1 1 0 0 0 17 50zM22 50a1 1 0 0 0-1 1v2a1 1 0 0 0 2 0V51A1 1 0 0 0 22 50zM27 50a1 1 0 0 0-1 1v2a1 1 0 0 0 2 0V51A1 1 0 0 0 27 50zM32 50a1 1 0 0 0-1 1v2a1 1 0 0 0 2 0V51A1 1 0 0 0 32 50zM37 50a1 1 0 0 0-1 1v2a1 1 0 0 0 2 0V51A1 1 0 0 0 37 50zM42 50a1 1 0 0 0-1 1v2a1 1 0 0 0 2 0V51A1 1 0 0 0 42 50zM47 50a1 1 0 0 0-1 1v2a1 1 0 0 0 2 0V51A1 1 0 0 0 47 50zM49 24H45a1 1 0 0 0 0 2h4a1 1 0 0 0 0-2zM23 30H17a1 1 0 0 0 0 2h6a1 1 0 0 0 0-2zM22 18H17a1 1 0 0 0 0 2h5a1 1 0 0 0 0-2z"/></svg>