<svg xmlns="http://www.w3.org/2000/svg" viewBox="0 0 64 64"><path fill="#efc88e" d="M57.51,32.637L43.511,20.72L31.35,7c-6.842,0.083-14.596,3.826-18.54,7.751	C4.549,22.983,5.548,37.886,9.242,46.05c0.012,0.029,0.008,0.051,0.024,0.083c1.414,2.882-0.505,6.708,0.453,7.666	c0.007,0.006,0.015,0.01,0.022,0.017c0.006,0.006,0.009,0.013,0.016,0.019c0.978,0.941,4.883-0.94,7.824,0.445	c0.032,0.016,0.053,0.01,0.083,0.021c8.33,3.622,23.538,4.601,31.938-3.494C53.607,46.942,57.428,39.343,57.51,32.637z"/><path fill="#f9dd8f" d="M14.887,48.834c-2.115-2.053-4.36-3.565-6.263-4.334c0.222,0.902,0.523,1.776,0.907,2.611	c0.004,0.013,0.002,0.024,0.008,0.038c1.217,3.099-0.398,5.67,0.424,6.467c0.822,0.797,4.103-0.796,6.575,0.377	c0.027,0.013,0.044,0.009,0.07,0.018c0.876,0.383,1.79,0.685,2.74,0.906C18.552,53.07,16.999,50.884,14.887,48.834z"/><path fill="#efd8be" d="M48.691,15.684h-0.002c-5.975-5.941-12.237-9.828-19.894-8.38c0,0,1.842,3.168-2.448,4.994	c4.593,2.762,5.387,5.762,3.674,9.203c5.511,0,6.482,5.308,6.431,6.444l0.002-0.002v0.001c1.133-0.051,6.431,0.921,6.431,6.442	c3.434-1.715,6.431-0.921,9.186,3.681c1.825-4.297,4.722-2.515,4.722-2.515C58.466,28.06,54.621,21.673,48.691,15.684z"/><ellipse cx="44.027" cy="18.986" fill="#efc88e" rx="1.873" ry="4.414" transform="rotate(-45.001 44.027 18.987)"/><path fill="#000000" d="M49.402,14.979c-0.002-0.002-0.004-0.002-0.006-0.004C45.011,10.616,39.033,5.852,31.5,6	c-7.367,0.09-15.517,4.115-19.439,8.045c-8.692,8.719-7.44,24.157-3.781,32.344c0.02,0.065,0.044,0.133,0.068,0.183	c0.658,1.35,0.422,3.103,0.233,4.512c-0.191,1.423-0.357,2.652,0.384,3.396c0.014,0.014,0.028,0.029,0.044,0.044	c0.01,0.011,0.021,0.021,0.031,0.031c0.771,0.746,1.95,0.593,3.444,0.397c1.434-0.188,3.217-0.421,4.588,0.229	c0.054,0.026,0.126,0.052,0.198,0.072c0.601,0.26,1.252,0.503,1.924,0.736c0.046,0.018,0.092,0.035,0.14,0.047	C22.794,57.217,27.087,58,31.531,58c6.65,0,13.606-1.741,18.486-6.475c3.987-3.875,8.07-11.603,8.159-18.875	C58.406,25.111,53.411,19.028,49.402,14.979z M48.623,50.09c-7.431,7.208-20.185,6.846-28.358,4.145	c-0.9-1.788-2.646-3.863-3.402-4.72c-0.366-0.413-0.997-0.454-1.412-0.088c-0.414,0.366-0.453,0.998-0.087,1.412	c0.685,0.776,1.298,1.538,1.819,2.247c-1.715-0.538-3.561-0.3-4.958-0.119c-0.674,0.088-1.593,0.21-1.779,0.161	c0-0.001-0.001-0.001-0.002-0.002c-0.083-0.279,0.034-1.143,0.119-1.778c0.189-1.406,0.432-3.269-0.161-5.006	c0.717,0.483,1.455,1.054,2.229,1.744c0.19,0.17,0.428,0.253,0.665,0.253c0.275,0,0.55-0.113,0.747-0.335	c0.368-0.412,0.331-1.045-0.082-1.412c-1.511-1.345-2.922-2.328-4.314-3.006c-0.111-0.054-0.227-0.077-0.342-0.089	c-2.759-7.993-3.174-20.673,4.171-28.041c3.011-3.016,8.813-6.218,14.632-7.169c0.083,0.32,0.135,0.762-0.018,1.221	c-0.247,0.742-0.964,1.371-2.134,1.869c-0.346,0.147-0.58,0.476-0.606,0.851s0.16,0.732,0.482,0.927	c4.901,2.946,4.415,5.647,3.294,7.9c-0.154,0.31-0.138,0.678,0.045,0.972c0.182,0.295,0.504,0.474,0.85,0.474	c1.58,0,2.859,0.5,3.802,1.487c1.315,1.375,1.654,3.394,1.629,3.956c-0.013,0.282,0.107,0.528,0.298,0.707	c0.179,0.187,0.424,0.303,0.703,0.293c0.546-0.034,2.567,0.313,3.939,1.624c0.99,0.946,1.491,2.23,1.491,3.817	c0,0.347,0.179,0.668,0.474,0.851c0.294,0.184,0.663,0.199,0.973,0.044c2.248-1.123,4.941-1.609,7.881,3.3	c0.181,0.303,0.508,0.486,0.858,0.486c0.023,0,0.046-0.001,0.069-0.002c0.375-0.026,0.705-0.261,0.852-0.607	c0.507-1.194,1.149-1.95,1.855-2.187c0.354-0.119,0.685-0.096,0.94-0.04C54.714,41.772,51.58,47.216,48.623,50.09z M54.26,34.358	c-0.876,0.279-1.636,0.875-2.27,1.775c-2.359-3.202-5.069-4.258-8.221-3.2c-0.254-1.509-0.921-2.786-1.992-3.811	c-1.447-1.384-3.241-1.93-4.4-2.107c-0.179-1.163-0.721-2.962-2.106-4.411c-1.021-1.068-2.294-1.733-3.798-1.987	c1.057-3.163,0.001-5.879-3.205-8.245c0.856-0.618,1.433-1.366,1.721-2.233c0.251-0.755,0.236-1.461,0.132-2.029	c5.875-0.695,11.439,1.896,17.865,8.283c0.001,0.001,0.001,0.001,0.002,0.001c6.403,6.468,8.919,12.022,8.035,17.843	C55.523,34.154,54.916,34.148,54.26,34.358z"/><path fill="#000000" d="M46.59,23.623c-1.396,0-3.153-1.023-4.538-2.39c-1.499-1.479-2.429-3.192-2.429-4.474	c0-0.771,0.317-1.246,0.584-1.509c1.37-1.354,4.07-0.11,6.027,1.82l0,0c1.498,1.479,2.429,3.193,2.428,4.475	c0,0.771-0.318,1.246-0.584,1.509C47.679,23.449,47.165,23.623,46.59,23.623z M41.727,16.674c-0.062,0-0.111,0.008-0.144,0.022	c-0.06,0.223,0.313,1.573,1.874,3.113c1.588,1.567,2.965,1.922,3.248,1.799c0.061-0.222-0.312-1.571-1.874-3.113l0,0	C43.429,17.113,42.192,16.674,41.727,16.674z"/><path fill="#000000" d="M44.362,49.127c-0.313,0-0.622-0.146-0.816-0.421l-1.157-1.631c-0.32-0.451-0.214-1.075,0.237-1.395 c0.45-0.32,1.075-0.214,1.394,0.236l1.157,1.631c0.32,0.451,0.214,1.075-0.237,1.395C44.764,49.067,44.563,49.127,44.362,49.127z"/><path fill="#000000" d="M39.614,51.841c-0.382,0-0.746-0.22-0.913-0.59l-0.819-1.824c-0.227-0.504-0.001-1.096,0.502-1.322 c0.502-0.225,1.095-0.001,1.322,0.502l0.819,1.824c0.227,0.504,0.001,1.096-0.502,1.322C39.89,51.813,39.751,51.841,39.614,51.841z"/><path fill="#000000" d="M34.16,53.092c-0.519,0-0.958-0.4-0.996-0.926l-0.148-1.995c-0.041-0.551,0.373-1.03,0.923-1.071 c0.536-0.043,1.03,0.372,1.071,0.923l0.148,1.995c0.041,0.551-0.373,1.03-0.923,1.071C34.21,53.091,34.185,53.092,34.16,53.092z"/><path fill="#000000" d="M28.73,53.044c-0.027,0-0.055-0.001-0.082-0.003c-0.55-0.045-0.96-0.527-0.916-1.078l0.162-1.993 c0.044-0.55,0.526-0.96,1.078-0.916c0.55,0.045,0.96,0.527,0.916,1.078l-0.162,1.993C29.684,52.647,29.246,53.044,28.73,53.044z"/></svg>