<svg xmlns="http://www.w3.org/2000/svg" viewBox="0 0 64 64"><path fill="#c4939c" d="M44,53c-9.333,0-18.667,0-28,0c1.667-5,3.333-10,5-15h18C40.667,43,42.333,48,44,53z"/><path fill="#f9e3ae" d="M60.681,63H3.319C2.038,63,1,61.962,1,60.681V49c1.07-0.628,2.78-1.493,5-2 c8.769-2.004,12.627,4.507,21,5c10.323,0.607,13.196-8.776,24-8c5.188,0.373,9.293,2.879,12,5v11.681 C63,61.962,61.962,63,60.681,63z"/><path fill="#f6d397" d="M5,58h54c2.209,0,4,1.791,4,4l0,0c0,0.552-0.448,1-1,1H2c-0.552,0-1-0.448-1-1l0,0 C1,59.791,2.791,58,5,58z"/><path fill="#cda1a7" d="M21,39L21,39c0-0.552,0.448-1,1-1h17c0.552,0,1,0.448,1,1l0,0c0,2.209-1.791,4-4,4H25 C22.791,43,21,41.209,21,39z"/><path fill="#000000" d="M60.682,64H3.318C1.488,64,0,62.512,0,60.682V49c0-0.354,0.188-0.683,0.493-0.862 c1.674-0.982,3.451-1.693,5.284-2.112c5.338-1.222,9.04,0.548,12.617,2.259c2.588,1.237,5.264,2.518,8.664,2.718 c4.762,0.27,7.815-1.703,11.058-3.801c3.507-2.27,7.15-4.619,12.955-4.198c4.308,0.31,8.528,2.063,12.546,5.21 C63.858,48.402,64,48.692,64,49v11.682C64,62.512,62.512,64,60.682,64z M2,49.583v11.099C2,61.408,2.592,62,3.318,62h57.363 C61.408,62,62,61.408,62,60.682V49.492c-3.581-2.712-7.304-4.224-11.071-4.495c-5.164-0.376-8.347,1.696-11.727,3.883 c-3.37,2.182-6.871,4.44-12.261,4.118c-3.792-0.223-6.648-1.589-9.41-2.91c-3.565-1.705-6.645-3.179-11.309-2.113 C4.769,48.308,3.351,48.848,2,49.583z"/><path fill="#000000" d="M17.674,49c-0.119,0-0.239-0.021-0.356-0.065c-0.516-0.197-0.774-0.775-0.578-1.291l3.814-10 C20.702,37.256,21.073,37,21.488,37h17.829c0.431,0,0.813,0.275,0.948,0.684l2.669,8c0.175,0.523-0.107,1.09-0.632,1.265 c-0.523,0.177-1.09-0.108-1.265-0.632L38.597,39h-16.42l-3.568,9.356C18.456,48.755,18.076,49,17.674,49z"/><path fill="#000000" d="M29,38c-0.553,0-1-0.447-1-1v-4c0-0.552,0.447-1,1-1s1,0.448,1,1v4C30,37.553,29.553,38,29,38z"/><path fill="#000000" d="M29,30c-0.553,0-1-0.448-1-1v-3c0-0.552,0.447-1,1-1s1,0.448,1,1v3C30,29.552,29.553,30,29,30z"/><path fill="#000000" d="M14,11c-2.206,0-4-1.794-4-4s1.794-4,4-4s4,1.794,4,4S16.206,11,14,11z M14,5c-1.103,0-2,0.897-2,2 s0.897,2,2,2s2-0.897,2-2S15.103,5,14,5z"/><path fill="#000000" d="M52,26c-1.654,0-3-1.346-3-3s1.346-3,3-3s3,1.346,3,3S53.654,26,52,26z M52,22c-0.552,0-1,0.449-1,1 s0.448,1,1,1s1-0.449,1-1S52.552,22,52,22z"/><circle cx="52.5" cy="12.5" r="1.5" fill="#000000"/><circle cx="11.5" cy="23.5" r="1.5" fill="#000000"/><line x1="5.373" x2="5.373" y1="57.5" y2="59.5" fill="none" stroke="#000000" stroke-linecap="round" stroke-miterlimit="10" stroke-width="2"/><line x1="10.214" x2="10.214" y1="57.5" y2="59.5" fill="none" stroke="#000000" stroke-linecap="round" stroke-miterlimit="10" stroke-width="2"/><line x1="15.056" x2="15.056" y1="57.5" y2="59.5" fill="none" stroke="#000000" stroke-linecap="round" stroke-miterlimit="10" stroke-width="2"/><line x1="19.897" x2="19.897" y1="57.5" y2="59.5" fill="none" stroke="#000000" stroke-linecap="round" stroke-miterlimit="10" stroke-width="2"/><line x1="24.738" x2="24.738" y1="57.5" y2="59.5" fill="none" stroke="#000000" stroke-linecap="round" stroke-miterlimit="10" stroke-width="2"/><line x1="29.579" x2="29.579" y1="57.5" y2="59.5" fill="none" stroke="#000000" stroke-linecap="round" stroke-miterlimit="10" stroke-width="2"/><line x1="34.421" x2="34.421" y1="57.5" y2="59.5" fill="none" stroke="#000000" stroke-linecap="round" stroke-miterlimit="10" stroke-width="2"/><line x1="39.262" x2="39.262" y1="57.5" y2="59.5" fill="none" stroke="#000000" stroke-linecap="round" stroke-miterlimit="10" stroke-width="2"/><line x1="44.103" x2="44.103" y1="57.5" y2="59.5" fill="none" stroke="#000000" stroke-linecap="round" stroke-miterlimit="10" stroke-width="2"/><line x1="48.944" x2="48.944" y1="57.5" y2="59.5" fill="none" stroke="#000000" stroke-linecap="round" stroke-miterlimit="10" stroke-width="2"/><line x1="53.786" x2="53.786" y1="57.5" y2="59.5" fill="none" stroke="#000000" stroke-linecap="round" stroke-miterlimit="10" stroke-width="2"/><line x1="58.627" x2="58.627" y1="57.5" y2="59.5" fill="none" stroke="#000000" stroke-linecap="round" stroke-miterlimit="10" stroke-width="2"/><path fill="#000000" d="M33.001,39c-0.041,0-0.083-0.003-0.125-0.008c-0.548-0.068-0.937-0.568-0.868-1.116l1-8 c0.069-0.547,0.56-0.937,1.116-0.868c0.548,0.068,0.937,0.568,0.868,1.116l-1,8C33.929,38.63,33.498,39,33.001,39z"/><circle cx="14" cy="7" r="2" fill="#ace3ff"/><path fill="#85cbf8" d="M40.68,19.12c1.75-0.59,3.15-1.87,3.85-3.53c0.64-1.51,0.62-3.18-0.05-4.58 c-1.34-2.78-4.83-4.04-7.88-2.97c0.11,0.3,0.2,0.6,0.28,0.91c0.14,0.54-0.19,1.08-0.72,1.22c-0.06,0.016-0.144,0.047-0.25,0.03 c-0.371-0.06-0.562-0.603-0.657-0.884c-0.329-0.97-0.033-1.437-0.42-2.003C34.67,7.076,34.464,6.933,34.32,6.85 c-1.886-2.296-4.766-3.359-7.33-2.69c-2.571,0.671-3.934,2.849-4.03,3.01c-0.95,1.6-1.2,3.46-0.71,5.25 c0.08,0.29,0.02,0.61-0.16,0.85c-0.18,0.25-0.46,0.4-0.76,0.41c-0.41,0.02-2.5,0.18-3.62,1.7c-1.25,1.7-0.82,4.31,0.99,6.08 c0.21,0.2,0.31,0.48,0.3,0.77c-0.01,0.28-0.15,0.55-0.38,0.73c-0.92,0.73-1.5,1.77-1.59,2.83c-0.06,0.8,0.16,1.54,0.62,2.04 c0.71,0.79,2.05,1.09,3.4,0.76c0.45-0.11,0.91,0.1,1.12,0.51l4.1,7.9H28v-4c0-0.55,0.45-1,1-1s1,0.45,1,1v4h2.12l0.89-7.12 c0.07-0.55,0.56-0.94,1.11-0.87c0.55,0.07,0.94,0.57,0.87,1.11L34.13,37h1.49c-0.01-0.1,0-0.21,0.03-0.31l1.09-4.22 c0.11-0.41,0.47-0.71,0.9-0.74c1.08-0.08,2.02-0.67,2.46-1.56c0.52-1.06,0.09-2.09-0.01-2.29c-0.15-0.32-0.12-0.69,0.07-0.98 c0.2-0.29,0.53-0.45,0.88-0.45h0.13c1.46,0,2.74-1.12,2.83-2.51c0.05-0.72-0.24-1.44-0.78-2c-0.57-0.59-1.38-0.9-2.18-0.87 c-0.52,0.01-0.94-0.33-1.03-0.82C39.92,19.76,40.21,19.28,40.68,19.12z M30,29c0,0.55-0.45,1-1,1s-1-0.45-1-1v-3c0-0.55,0.45-1,1-1 s1,0.45,1,1V29z M34.85,18.21c-0.19,0.25-0.48,0.38-0.78,0.38c-0.22,0-0.44-0.08-0.62-0.22c-0.43-0.35-0.5-0.98-0.16-1.41 c0.61-0.76,1.41-2.03,1.75-3.76c0.11-0.55,0.64-0.9,1.18-0.79s0.89,0.63,0.79,1.17C36.58,15.72,35.6,17.28,34.85,18.21z"/><circle cx="52" cy="23" r="1" fill="#ace3ff"/><path fill="#000000" d="M25.667,39c-0.361,0-0.711-0.196-0.889-0.539l-4.042-7.789c-1.784,0.207-3.526-0.343-4.571-1.495 c-0.823-0.909-1.233-2.202-1.125-3.549c0.104-1.28,0.662-2.517,1.566-3.512c-1.904-2.423-2.157-5.674-0.506-7.917 c1.137-1.544,2.813-2.144,3.99-2.375c-0.274-1.962,0.122-3.941,1.152-5.673c1.186-1.992,3.114-3.426,5.29-3.937 c3.561-0.835,7.38,0.805,9.415,3.938c3.98-1.392,8.554,0.304,10.329,3.985c0.925,1.917,0.96,4.188,0.098,6.232 c-0.575,1.362-1.509,2.534-2.686,3.408c0.35,0.212,0.675,0.47,0.965,0.768c0.935,0.958,1.425,2.24,1.344,3.518 c-0.133,2.087-1.691,3.79-3.702,4.262c0.119,0.751,0.097,1.724-0.402,2.734c-0.646,1.308-1.904,2.247-3.381,2.562l-0.928,3.576 c-0.138,0.534-0.687,0.859-1.219,0.717c-0.534-0.138-0.855-0.684-0.717-1.219l1.095-4.22c0.108-0.416,0.47-0.716,0.898-0.746 c1.079-0.075,2.021-0.671,2.458-1.556c0.524-1.062,0.086-2.097-0.007-2.293c-0.15-0.316-0.124-0.689,0.07-0.981 c0.194-0.292,0.529-0.45,0.877-0.446c1.481,0.067,2.871-1.085,2.961-2.515c0.045-0.713-0.239-1.44-0.779-1.995 c-0.573-0.587-1.381-0.906-2.188-0.876c-0.517,0.014-0.933-0.331-1.021-0.82c-0.09-0.489,0.194-0.97,0.667-1.127 c1.748-0.584,3.152-1.87,3.852-3.526c0.64-1.515,0.619-3.186-0.056-4.585c-1.435-2.976-5.339-4.211-8.525-2.696 c-0.491,0.231-1.072,0.034-1.319-0.447c-1.458-2.841-4.674-4.398-7.642-3.703c-1.65,0.387-3.119,1.485-4.028,3.012 c-0.947,1.592-1.2,3.455-0.711,5.245c0.08,0.294,0.022,0.608-0.158,0.854c-0.18,0.246-0.461,0.396-0.766,0.409 c-0.406,0.017-2.492,0.177-3.615,1.704c-1.248,1.694-0.823,4.307,0.988,6.076c0.205,0.201,0.314,0.479,0.3,0.766 s-0.151,0.553-0.376,0.731c-0.925,0.736-1.504,1.768-1.59,2.832c-0.065,0.798,0.158,1.542,0.612,2.043 c0.712,0.785,2.05,1.082,3.405,0.754c0.45-0.111,0.91,0.104,1.122,0.512l4.38,8.439c0.254,0.49,0.063,1.094-0.427,1.349 C25.979,38.964,25.822,39,25.667,39z"/><path fill="#000000" d="M34.072,18.585c-0.22,0-0.44-0.072-0.625-0.22c-0.431-0.346-0.5-0.975-0.154-1.406 c0.61-0.76,1.408-2.029,1.75-3.763c0.106-0.542,0.632-0.897,1.175-0.788c0.542,0.106,0.895,0.632,0.788,1.174 c-0.421,2.132-1.402,3.693-2.152,4.628C34.655,18.458,34.365,18.585,34.072,18.585z"/><path fill="#000000" d="M35.912,10.195c-0.442,0-0.847-0.296-0.966-0.744l-0.55-2.08c-0.142-0.534,0.177-1.081,0.711-1.223 c0.533-0.14,1.081,0.176,1.223,0.711l0.55,2.08c0.142,0.534-0.177,1.081-0.711,1.223C36.083,10.185,35.997,10.195,35.912,10.195z"/></svg>