<svg xmlns="http://www.w3.org/2000/svg" data-name="Layer 1" viewBox="0 0 64 64"><path fill="#faefde" d="M58,27l-.34-2.37A32,32,0,0,0,55,15.75L51,7H41l-3,6.5V27.06L58,27"/><path fill="#85cbf8" d="M22.14 26.86L7.22 27 14.75 19.47 22.14 26.86z"/><path fill="#72caaf" d="M37.78 26.78L14.22 27 26.11 15.11 37.78 26.78z"/><path fill="#ed7899" d="M50.2,34.11a3.52,3.52,0,0,1-1.62.9,5.09,5.09,0,0,0-3.66,3.66,3.52,3.52,0,0,1-.9,1.62c-2.42,2.42-12.48,1.43-17.39-3.48-2.54-2.54-4.89-8.25-.39-12.75a6,6,0,0,1,3.9-1.78,2.23,2.23,0,0,0,2.05-2.05A6,6,0,0,1,34,16.34c4.5-4.5,10.21-2.15,12.75.39C51.63,21.63,52.62,31.69,50.2,34.11Z"/><path fill="#c2cde7" d="M55.31,61H8.69a2,2,0,0,1-2-1.67L3,37H3a2,2,0,0,1-2-2V29a2,2,0,0,1,2-2H61a2,2,0,0,1,2,2v6a2,2,0,0,1-2,2h0L57.28,59.33A2,2,0,0,1,55.31,61Z"/><path fill="#acb7d0" d="M57 61H7l-.38-1.51A2 2 0 0 1 8.56 57H55.44a2 2 0 0 1 1.94 2.49zM57.54 42H6.46a3 3 0 0 1-2.94-2.41L3 37H61l-.52 2.59A3 3 0 0 1 57.54 42z"/><path fill="#f9e3ae" d="M39 3H53V7H39z"/><path fill="#f9e3ae" d="M27.69 10.76A3.95 6.35 0 1 0 27.69 23.46A3.95 6.35 0 1 0 27.69 10.76Z" transform="rotate(-30 27.698 17.102)"/><rect width="62" height="10" x="1" y="27" fill="#d6dff2" rx="3" ry="3"/><rect width="60" height="3" x="2" y="27" fill="#e2e9f7" rx="1.5" ry="1.5"/><path fill="#000000" d="M61,26H58.87l-.22-1.51a33,33,0,0,0-2.71-9.16L52.4,7.64A3,3,0,0,0,51,2H41a3,3,0,0,0-1.4,5.64l-2.39,5.18A10.88,10.88,0,0,0,32.85,15a6,6,0,0,0-.33-.68c-2.06-3.56-7.41-4.13-7.64-4.15a1,1,0,0,0-1,.58,13.2,13.2,0,0,0-1.06,6L18,21.59,15.41,19a2,2,0,0,0-2.83,0l-7,7H3a3,3,0,0,0-3,3v6a3,3,0,0,0,2.13,2.87l3.6,21.62a3,3,0,0,0,3,2.51H55.31a3,3,0,0,0,3-2.51l3.6-21.62A3,3,0,0,0,64,35V29A3,3,0,0,0,61,26Zm-4.33-1.22L56.85,26H52.31a19.61,19.61,0,0,0-4.87-10.06,10.75,10.75,0,0,0-7.88-3.44L41.64,8h8.72l3.77,8.17A31,31,0,0,1,56.67,24.78ZM41,4H51a1,1,0,0,1,0,2H41a1,1,0,0,1,0-2ZM32.28,23.05a13.39,13.39,0,0,0,1.08-5.71c.11-.13.21-.25.33-.37A8.5,8.5,0,0,1,46,17.36,17.65,17.65,0,0,1,50.27,26H24.87a8,8,0,0,1,1-1.18,5.67,5.67,0,0,1,3.3-1.62,13.76,13.76,0,0,0,2.13.43h.1A1,1,0,0,0,32.28,23.05ZM25.41,12.32c1.36.26,4.21,1,5.36,3s.4,4.86,0,6.17c-1.36-.26-4.21-1-5.36-3S25,13.63,25.41,12.32Zm-1.78,7.17A7.15,7.15,0,0,0,26.3,22a7.66,7.66,0,0,0-1.88,1.37A10.33,10.33,0,0,0,22.57,26H16.41l7-7C23.47,19.17,23.54,19.33,23.63,19.49ZM14,20.41,16.59,23l-3,3H8.41ZM62,35a1,1,0,0,1-1,1,1,1,0,0,0-1,.84L56.29,59.17a1,1,0,0,1-1,.83H8.69a1,1,0,0,1-1-.83L4.18,38H49a1,1,0,0,0,0-2H3a1,1,0,0,1-1-1V29a1,1,0,0,1,1-1H61a1,1,0,0,1,1,1Z"/><path fill="#000000" d="M10 41a1 1 0 0 0-2 0v2a1 1 0 0 0 2 0zM14 44a1 1 0 0 0 1-1V41a1 1 0 0 0-2 0v2A1 1 0 0 0 14 44zM19 44a1 1 0 0 0 1-1V41a1 1 0 0 0-2 0v2A1 1 0 0 0 19 44zM24 44a1 1 0 0 0 1-1V41a1 1 0 0 0-2 0v2A1 1 0 0 0 24 44zM29 44a1 1 0 0 0 1-1V41a1 1 0 0 0-2 0v2A1 1 0 0 0 29 44zM35 44a1 1 0 0 0 1-1V41a1 1 0 0 0-2 0v2A1 1 0 0 0 35 44zM40 44a1 1 0 0 0 1-1V41a1 1 0 0 0-2 0v2A1 1 0 0 0 40 44zM45 40a1 1 0 0 0-1 1v2a1 1 0 0 0 2 0V41A1 1 0 0 0 45 40zM50 44a1 1 0 0 0 1-1V41a1 1 0 0 0-2 0v2A1 1 0 0 0 50 44zM55 40a1 1 0 0 0-1 1v2a1 1 0 0 0 2 0V41A1 1 0 0 0 55 40zM53 56H49a1 1 0 0 0 0 2h4a1 1 0 0 0 0-2zM45 56H11a1 1 0 0 0 0 2H45a1 1 0 0 0 0-2zM57 36H53a1 1 0 0 0 0 2h4a1 1 0 0 0 0-2z"/></svg>