<svg xmlns="http://www.w3.org/2000/svg" id="Layer_1" x="0" y="0" version="1.1" viewBox="0 0 64 64" xml:space="preserve"><path fill="#fff8ee" d="M51,7H13c-3.3,0-6,2.7-6,6v38c0,3.3,2.7,6,6,6h38c3.3,0,6-2.7,6-6V13C57,9.7,54.3,7,51,7z"/><path fill="#faefde" d="M54,50H10c-1.7,0-3,1.3-3,3l0,0c0,2.2,1.8,4,4,4h42c2.2,0,4-1.8,4-4l0,0C57,51.3,55.7,50,54,50z"/><path fill="#000000" d="M51,6H13c-3.9,0-7,3.1-7,7v38c0,3.9,3.1,7,7,7h38c3.9,0,7-3.1,7-7V13C58,9.1,54.9,6,51,6z M56,51	c0,2.8-2.2,5-5,5H13c-2.8,0-5-2.2-5-5V13c0-2.8,2.2-5,5-5h38c2.8,0,5,2.2,5,5V51z"/><path fill="#000000" d="M17,48c-0.6,0-1,0.4-1,1v2c0,0.6,0.4,1,1,1s1-0.4,1-1v-2C18,48.4,17.6,48,17,48z"/><path fill="#000000" d="M12,48c-0.6,0-1,0.4-1,1v2c0,0.6,0.4,1,1,1s1-0.4,1-1v-2C13,48.4,12.6,48,12,48z"/><path fill="#000000" d="M32,48c-0.6,0-1,0.4-1,1v2c0,0.6,0.4,1,1,1c0.6,0,1-0.4,1-1v-2C33,48.4,32.6,48,32,48z"/><path fill="#000000" d="M37,48c-0.6,0-1,0.4-1,1v2c0,0.6,0.4,1,1,1s1-0.4,1-1v-2C38,48.4,37.6,48,37,48z"/><path fill="#000000" d="M42,48c-0.6,0-1,0.4-1,1v2c0,0.6,0.4,1,1,1s1-0.4,1-1v-2C43,48.4,42.6,48,42,48z"/><path fill="#000000" d="M47,48c-0.6,0-1,0.4-1,1v2c0,0.6,0.4,1,1,1s1-0.4,1-1v-2C48,48.4,47.6,48,47,48z"/><path fill="#000000" d="M52,48c-0.6,0-1,0.4-1,1v2c0,0.6,0.4,1,1,1s1-0.4,1-1v-2C53,48.4,52.6,48,52,48z"/><path fill="#000000" d="M22,48c-0.6,0-1,0.4-1,1v2c0,0.6,0.4,1,1,1s1-0.4,1-1v-2C23,48.4,22.6,48,22,48z"/><path fill="#000000" d="M27,48c-0.6,0-1,0.4-1,1v2c0,0.6,0.4,1,1,1s1-0.4,1-1v-2C28,48.4,27.6,48,27,48z"/><path fill="#f283a5" stroke="#000000" stroke-miterlimit="10" stroke-width="2" d="M50.2,18.6c0,1.3-0.6,2.5-1.5,3.4l-6.6,6.6c-0.6,0.6-1.5,0.6-2.1,0l-6.3-6.4L33.5,22c-1.1-1.1-1.7-2.7-1.4-4.4	c0.4-1.8,1.9-3.3,3.8-3.6c0.3-0.1,0.6-0.1,0.9-0.1c0.4,0,0.8,0,1.1,0.1c0,0,0,0,0,0c1.1,0.3,2,0.9,2.7,1.7c0.2,0.3,0.7,0.3,1,0	c1-1.3,2.8-2.1,4.7-1.8c1.9,0.3,3.4,1.8,3.8,3.6C50.1,18,50.2,18.3,50.2,18.6z"/></svg>