<svg xmlns="http://www.w3.org/2000/svg" viewBox="0 0 64 64"><path fill="#8a8e97" d="M51,15H13V8c0-1.657,1.343-3,3-3h32c1.657,0,3,1.343,3,3V15z"/><path fill="#a0a4ac" d="M24,5h-8c-1.657,0-3,1.343-3,3v7h11V5z"/><path fill="#7e8089" d="M48,5h-8v10h11V8C51,6.343,49.657,5,48,5z"/><path fill="#cda1a7" d="M48,59H16c-2.761,0-5-2.239-5-5V20c0-2.761,2.239-5,5-5h32c2.761,0,5,2.239,5,5v34 C53,56.761,50.761,59,48,59z"/><path fill="#d3a9b0" d="M24,15h-8c-2.761,0-5,2.239-5,5v34c0,2.761,2.239,5,5,5h8V15z"/><path fill="#c4939c" d="M48,15h-8v44h8c2.761,0,5-2.239,5-5V20C53,17.239,50.761,15,48,15z"/><rect width="42" height="31" x="11" y="21" fill="#72caaf"/><path fill="#f9dd8f" d="M32,40c0-4.013,2.587-5.337,4.964-5.777c-0.115-1.328-0.854-2.809-2.116-4.071 c-2.177-2.177-5.021-2.862-6.573-1.311c-4.168,4.168-9.042,13.536-11.18,17.876c-0.374,0.76,0.427,1.562,1.188,1.188 c3.206-1.579,9.15-4.652,13.721-7.829C32.003,40.05,32,40.026,32,40z"/><path fill="#faefde" d="M34.5,45.5C33.18,44.18,32,42.875,32,40c0-6,5.786-6,8-6c4,0,5-1,5-1l1,1l0,0l1,1c0,0-1,1-1,5 c0,2.214,0,8-6,8C37.125,48,34.5,45.5,34.5,45.5L34.5,45.5z"/><path fill="#fff8ee" d="M45.564,33.564L45,33c0,0-1,1-5,1c-2.214,0-8,0-8,6c0,1.048,0.16,1.883,0.423,2.591l0.05-0.042 c5.248-5.022,9.004-4.901,12.402-8.299C44.945,34.18,45.214,33.912,45.564,33.564z"/><path fill="#efd8be" d="M37.523,47.449C38.282,47.769,39.129,48,40,48c6,0,6-5.786,6-8c0-4,1-5,1-5l-0.564-0.564 c-0.363,0.365-0.626,0.629-0.686,0.689C41.887,38.988,42.432,42.275,37.523,47.449z"/><g><path fill="#000000" d="M51,16H13c-0.552,0-1-0.448-1-1V8c0-2.206,1.794-4,4-4h32c2.206,0,4,1.794,4,4v7 C52,15.552,51.552,16,51,16z M14,14h36V8c0-1.103-0.897-2-2-2H16c-1.103,0-2,0.897-2,2V14z"/><path fill="#000000" d="M17,12c-0.552,0-1-0.448-1-1V9c0-0.552,0.448-1,1-1s1,0.448,1,1v2C18,11.552,17.552,12,17,12z"/><path fill="#000000" d="M22,12c-0.552,0-1-0.448-1-1V9c0-0.552,0.448-1,1-1s1,0.448,1,1v2C23,11.552,22.552,12,22,12z"/><path fill="#000000" d="M27,12c-0.552,0-1-0.448-1-1V9c0-0.552,0.448-1,1-1s1,0.448,1,1v2C28,11.552,27.552,12,27,12z"/><path fill="#000000" d="M32,12c-0.552,0-1-0.448-1-1V9c0-0.552,0.448-1,1-1c0.552,0,1,0.448,1,1v2 C33,11.552,32.552,12,32,12z"/><path fill="#000000" d="M37,12c-0.552,0-1-0.448-1-1V9c0-0.552,0.448-1,1-1s1,0.448,1,1v2C38,11.552,37.552,12,37,12z"/><path fill="#000000" d="M42,12c-0.552,0-1-0.448-1-1V9c0-0.552,0.448-1,1-1s1,0.448,1,1v2C43,11.552,42.552,12,42,12z"/><path fill="#000000" d="M47,12c-0.552,0-1-0.448-1-1V9c0-0.552,0.448-1,1-1s1,0.448,1,1v2C48,11.552,47.552,12,47,12z"/><path fill="#000000" d="M48,60H16c-3.309,0-6-2.691-6-6V20c0-3.309,2.691-6,6-6h32c3.309,0,6,2.691,6,6v34 C54,57.309,51.309,60,48,60z M16,16c-2.206,0-4,1.794-4,4v34c0,2.206,1.794,4,4,4h32c2.206,0,4-1.794,4-4V20c0-2.206-1.794-4-4-4 H16z"/><path fill="#000000" d="M53,53H11c-0.552,0-1-0.448-1-1s0.448-1,1-1h42c0.552,0,1,0.448,1,1S53.552,53,53,53z"/><path fill="#000000" d="M53,23H23c-0.552,0-1-0.448-1-1s0.448-1,1-1h30c0.552,0,1,0.448,1,1S53.552,23,53,23z"/><path fill="#000000" d="M18,23h-7c-0.552,0-1-0.448-1-1s0.448-1,1-1h7c0.552,0,1,0.448,1,1S18.552,23,18,23z"/></g><g><path fill="#000000" d="M40,49c-3.238,0-6.071-2.663-6.189-2.776c-0.006-0.005-0.012-0.011-0.018-0.017 C32.265,44.679,31,43.157,31,40c0-7,6.774-7,9-7c3.355,0,4.326-0.739,4.335-0.747c0.391-0.391,0.981-0.351,1.372,0.04l2,2 c0.391,0.39,0.391,1.023,0,1.414l0,0C47.715,35.706,47,36.7,47,40C47,42.226,47,49,40,49z M35.195,44.781 C35.341,44.916,37.636,47,40,47c4.406,0,5-3.539,5-7c0-2.54,0.394-4.016,0.752-4.833l-0.919-0.919C44.016,34.606,42.54,35,40,35 c-3.461,0-7,0.594-7,5C33,42.399,33.869,43.454,35.195,44.781z"/><polyline fill="#fff" points="32,44.667 34.5,45.5 35.333,48"/><path fill="#000000" d="M35.333,49c-0.419,0-0.809-0.265-0.949-0.684l-0.675-2.026l-2.026-0.675 c-0.524-0.175-0.807-0.741-0.632-1.265c0.175-0.523,0.738-0.809,1.265-0.632l2.5,0.833c0.298,0.1,0.533,0.334,0.632,0.632 l0.833,2.5c0.175,0.524-0.108,1.09-0.632,1.265C35.545,48.984,35.438,49,35.333,49z"/><g><line x1="33" x2="34.5" y1="47" y2="45.5" fill="none"/><path fill="#000000" d="M33,48c-0.256,0-0.512-0.098-0.707-0.293c-0.391-0.391-0.391-1.023,0-1.414l1.5-1.5 c0.391-0.391,1.023-0.391,1.414,0s0.391,1.023,0,1.414l-1.5,1.5C33.512,47.902,33.256,48,33,48z"/></g></g><g><path fill="#000000" d="M27,36c-0.256,0-0.512-0.098-0.707-0.293l-2.048-2.048c-0.391-0.391-0.391-1.023,0-1.414 s1.023-0.391,1.414,0l2.048,2.048c0.391,0.391,0.391,1.023,0,1.414C27.512,35.902,27.256,36,27,36z"/><path fill="#000000" d="M28.395,43.395c-0.256,0-0.512-0.098-0.707-0.293l-2.395-2.395c-0.391-0.391-0.391-1.023,0-1.414 s1.023-0.391,1.414,0l2.395,2.395c0.391,0.391,0.391,1.023,0,1.414C28.906,43.297,28.65,43.395,28.395,43.395z"/><path fill="#000000" d="M21,43c-0.258,0-0.516-0.099-0.711-0.297l-0.957-0.968c-0.388-0.393-0.384-1.026,0.009-1.414 c0.393-0.388,1.025-0.385,1.414,0.009l0.957,0.968c0.388,0.393,0.384,1.026-0.009,1.414C21.508,42.904,21.254,43,21,43z"/><path fill="#000000" d="M35,31c-0.256,0-0.512-0.098-0.707-0.293c-0.391-0.391-0.391-1.023,0-1.414l3-3 c0.391-0.391,1.023-0.391,1.414,0s0.391,1.023,0,1.414l-3,3C35.512,30.902,35.256,31,35,31z"/><path fill="#000000" d="M39,31h-4c-0.552,0-1-0.448-1-1v-4c0-0.552,0.448-1,1-1s1,0.448,1,1v3h3c0.552,0,1,0.448,1,1 S39.552,31,39,31z"/><path fill="#000000" d="M17.882,49.001c-0.485,0-0.959-0.191-1.326-0.557c-0.58-0.581-0.721-1.432-0.358-2.168 c2.455-4.983,7.196-13.967,11.37-18.141c0.986-0.987,2.395-1.35,3.966-1.014c1.388,0.294,2.816,1.12,4.021,2.325 c1.392,1.392,2.268,3.102,2.405,4.693c0.044,0.513-0.308,0.975-0.814,1.069C34.323,35.73,33.005,37.25,33,39.986 c0.015,0.344-0.144,0.716-0.426,0.912c-4.647,3.231-10.672,6.34-13.85,7.905C18.453,48.936,18.166,49.001,17.882,49.001z M30.425,29c-0.493,0-1.022,0.129-1.442,0.549c-4.018,4.018-8.815,13.221-10.842,17.312c3.093-1.533,8.534-4.36,12.87-7.314 c0.144-3.132,1.787-5.212,4.789-6.076c-0.275-0.888-0.853-1.805-1.658-2.611c-0.935-0.935-2.008-1.567-3.021-1.782 C30.91,29.032,30.672,29,30.425,29z"/></g></svg>