<svg xmlns="http://www.w3.org/2000/svg" viewBox="0 0 64 64"><path fill="#efd8be" d="M44.86,32h-30l15,32L44.86,32z"/><path fill="#f283a5" d="M46.19,17.07C46.7,16.34,47,15.46,47,14.5c0-2.48-2.02-4.5-4.5-4.5h-3.85 C38.87,9.54,39,9.04,39,8.5C39,3.81,35.19,0,30.5,0c-0.08,0-0.17,0-0.25,0.01c-0.25,0.01-0.5,0.02-0.74,0.05 c-0.67,0.08-1,0.81-0.72,1.42c0.09,0.22,0.16,0.45,0.19,0.7C29,2.4,29.02,2.57,28.96,2.86C28.72,4.11,27.59,5,26.32,5H25.5 c-0.17,0-0.33,0.01-0.49,0.04c-0.61,0.08-1.18,0.33-1.64,0.69C22.53,6.37,22,7.37,22,8.5c0,0.54,0.13,1.04,0.35,1.5H17.5 c-2.48,0-4.5,2.02-4.5,4.5c0,0.96,0.3,1.84,0.81,2.57C11.1,17.4,9,19.7,9,22.5c0,3.03,2.47,5.5,5.5,5.5h31 c3.03,0,5.5-2.47,5.5-5.5C51,19.7,48.9,17.4,46.19,17.07z"/><rect width="36" height="4" x="12" y="27" fill="#faefde"/><path fill="#986ca1" d="M45.844,30.463C45.661,30.175,45.342,30,45,30H15c-0.342,0-0.66,0.175-0.844,0.463 c-0.184,0.289-0.208,0.651-0.062,0.961l15,32C29.259,63.776,29.612,64,30,64s0.74-0.224,0.904-0.576l15-32 C46.05,31.114,46.028,30.752,45.844,30.463z M16.572,32h7.016l4.01,3.988l-3.305,3.305c-0.391,0.391-0.391,1.023,0,1.414 C24.488,40.902,24.744,41,25,41s0.512-0.098,0.707-0.293l3.309-3.309l4.613,4.592l-4.621,4.604l-3.301-3.301 c-0.391-0.391-1.023-0.391-1.414,0s-0.391,1.023,0,1.414l3.299,3.299l-2.396,2.389L16.572,32z M30,60.645l-3.902-8.326 l2.908-2.898l1.287,1.287C30.488,50.902,30.744,51,31,51s0.512-0.098,0.707-0.293c0.391-0.391,0.391-1.023,0-1.414l-1.283-1.283 l4.625-4.609l2.068,2.061L30,60.645z M38.02,43.535l-1.555-1.547l4.277-4.264L38.02,43.535z M43.227,32.428l-8.18,8.15 l-4.617-4.592l1.277-1.279c0.391-0.392,0.391-1.023,0-1.414s-1.023-0.391-1.414,0l-1.281,1.281L26.424,32h17.004L43.227,32.428z"/><path fill="#fbd" d="M32.732,3.113C32.344,1.993,31.06,1.47,30,2l0,0c0.09,0.22-0.94,1.71-1,2 c-0.24,1.25,0.43,2.349-0.84,2.349l-0.774,0c-0.155,0.01-0.31,0.02-0.466,0.03C26.391,6.455,24.479,6.625,24,7 c-0.84,0.64,0,2.87,0,4l2-1c0-0.83,0.51-1.651,1.34-1.651h1c1.56,0,2.94-0.79,3.74-2c0.48-0.72,0.76-1.58,0.76-2.5 C32.84,3.689,32.732,3.113,32.732,3.113z"/><path fill="#986ca1" d="M46.105,32H13.895C12.298,32,11,30.654,11,29s1.298-3,2.895-3h32.211C47.702,26,49,27.346,49,29 S47.702,32,46.105,32z M13.895,28C13.401,28,13,28.448,13,29s0.401,1,0.895,1h32.211C46.599,30,47,29.552,47,29s-0.401-1-0.895-1 H13.895z"/><path fill="#986ca1" d="M46.19,17.07C46.7,16.34,47,15.46,47,14.5c0-2.48-2.02-4.5-4.5-4.5h-3.85 C38.87,9.54,39,9.04,39,8.5C39,3.81,35.19,0,30.5,0c-0.08,0-0.17,0-0.25,0.01c-0.25,0.01-0.5,0.02-0.74,0.05 c-0.67,0.08-1,0.81-0.72,1.42c0.09,0.22,0.16,0.45,0.19,0.7C29,2.4,29.02,2.57,28.96,2.86C28.72,4.11,27.59,5,26.32,5H25.5 c-0.17,0-0.33,0.01-0.49,0.04c-0.61,0.08-1.18,0.33-1.64,0.69C22.53,6.37,22,7.37,22,8.5c0,0.54,0.13,1.04,0.35,1.5H17.5 c-2.48,0-4.5,2.02-4.5,4.5c0,0.96,0.3,1.84,0.81,2.57C11.1,17.4,9,19.7,9,22.5c0,3.03,2.47,5.5,5.5,5.5h31 c3.03,0,5.5-2.47,5.5-5.5C51,19.7,48.9,17.4,46.19,17.07z M45.5,26l-30.9,0c-1.67,0-3.19-1.129-3.525-2.765 C10.615,20.985,12.33,19,14.5,19h1.915c0.599,0,1.085-0.486,1.085-1.085v0c0-0.455-0.276-0.889-0.713-1.018 c-1.112-0.328-1.899-1.407-1.778-2.651C15.137,12.943,16.331,12,17.64,12L26,12c0.55,0,1-0.45,1-1s-0.45-1-1-1h-0.5 C24.67,10,24,9.33,24,8.5C24,7.67,24.67,7,25.5,7h1c1.56,0,2.94-0.79,3.74-2C30.72,4.28,31,3.42,31,2.5 c0-0.16-0.01-0.32-0.02-0.48c2.11,0.15,3.95,1.32,5.01,3.02C36.63,6.04,37,7.22,37,8.5c0,0.18-0.03,0.34-0.09,0.5 c-0.14,0.41-0.47,0.74-0.87,0.9c-0.02,0-0.09,0.05-0.17,0.06C35.38,10.03,35,10.44,35,10.94v0.08c0,0.54,0.44,0.98,0.98,0.98 l6.38,0c1.311,0,2.506,0.946,2.631,2.251c0.119,1.243-0.668,2.318-1.778,2.646c-0.437,0.129-0.713,0.562-0.713,1.018v0 c0,0.599,0.486,1.085,1.085,1.085l1.815,0c1.67,0,3.19,1.129,3.525,2.765C49.385,24.015,47.67,26,45.5,26z"/><path fill="#986ca1" d="M30,12h2c0.552,0,1-0.448,1-1c0-0.552-0.448-1-1-1h-2c-0.552,0-1,0.448-1,1 C29,11.552,29.448,12,30,12z"/><g><ellipse cx="36.995" cy="16" fill="#986ca1" rx="2.995" ry="3"/><circle cx="36.5" cy="14.5" r="1.5" fill="#faefde"/><ellipse cx="21.995" cy="16" fill="#986ca1" rx="2.995" ry="3"/><circle cx="21.5" cy="14.5" r="1.5" fill="#faefde"/><path fill="#986ca1" d="M29.5,24.5c-2.206,0-4-1.794-4-4c0-0.553,0.448-1,1-1s1,0.447,1,1c0,1.103,0.897,2,2,2 s2-0.897,2-2c0-0.553,0.448-1,1-1s1,0.447,1,1C33.5,22.706,31.706,24.5,29.5,24.5z"/></g></svg>