<svg xmlns="http://www.w3.org/2000/svg" viewBox="0 0 64 64"><rect width="3.986" height="4.169" x="9.014" y="57.831" fill="#efc88e"/><path fill="#000000" d="M13,63H9.015c-0.553,0-1-0.448-1-1v-4.168c0-0.552,0.447-1,1-1H13c0.553,0,1,0.448,1,1V62 C14,62.552,13.553,63,13,63z M10.015,61H12v-2.168h-1.985V61z"/><rect width="4" height="5" x="51" y="57" fill="#efc88e"/><path fill="#000000" d="M55,63h-4c-0.553,0-1-0.448-1-1v-5c0-0.552,0.447-1,1-1h4c0.553,0,1,0.448,1,1v5 C56,62.552,55.553,63,55,63z M52,61h2v-3h-2V61z"/><rect width="50" height="17.935" x="7" y="40.065" fill="#f9dd8f"/><path fill="#000000" d="M57,59H7c-0.553,0-1-0.448-1-1V40.065c0-0.552,0.447-1,1-1h50c0.553,0,1,0.448,1,1V58 C58,58.552,57.553,59,57,59z M8,57h48V41.065H8V57z"/><path fill="#c5e4fa" d="M47,15.4v5.2c0,7.82-6.33,14.21-14.19,14.39C32.69,35,32.58,35,32.46,35h-0.92 c-2.99,0-5.77-0.9-8.08-2.43c-0.94-0.63-1.8-1.36-2.57-2.17c-0.6-0.65-1.15-1.35-1.63-2.1c-0.52-0.81-0.97-1.68-1.32-2.59 c-0.25-0.66-0.46-1.35-0.6-2.05C17.11,22.67,17,21.65,17,20.6v-5.2C17,7.46,23.52,1,31.54,1h0.92c0.44,0,0.87,0.02,1.29,0.06 c0.92,0.08,1.81,0.24,2.67,0.49c0.83,0.23,1.63,0.53,2.39,0.9c1.01,0.49,1.96,1.09,2.82,1.78c2.71,2.18,4.61,5.31,5.18,8.87 C46.94,13.85,47,14.62,47,15.4z"/><path fill="#efc88e" d="M4,43c-0.353,0-0.36-5-0.36-5H60.36c0.353,0,0.64,0.614,0.64,1.366V42c0,0.752-1.647,1-2,1H4z"/><path fill="#000000" d="M60,44h-5c-0.553,0-1-0.448-1-1s0.447-1,1-1h5v-3H4v3h5c0.553,0,1,0.448,1,1s-0.447,1-1,1H4 c-1.103,0-2-0.897-2-2v-3c0-1.103,0.897-2,2-2h56c1.103,0,2,0.897,2,2v3C62,43.103,61.103,44,60,44z"/><rect width="18" height="5.986" x="12" y="48" fill="#efc88e"/><rect width="18" height="5.986" x="34" y="48" fill="#efc88e"/><path fill="#000000" d="M30,54.986H12c-0.553,0-1-0.448-1-1V53c0-0.552,0.447-1,1-1c0.548,0,0.992,0.44,1,0.986h16V49H13 c0,0.552-0.447,1-1,1s-1-0.448-1-1v-1c0-0.552,0.447-1,1-1h18c0.553,0,1,0.448,1,1v5.986C31,54.538,30.553,54.986,30,54.986z"/><path fill="#000000" d="M46,49h-3c-0.553,0-1-0.448-1-1s0.447-1,1-1h3c0.553,0,1,0.448,1,1S46.553,49,46,49z"/><path fill="#000000" d="M52,54.986H34c-0.553,0-1-0.448-1-1V48c0-0.552,0.447-1,1-1h5c0.553,0,1,0.448,1,1s-0.447,1-1,1h-4 v3.986h16V49h-1c-0.553,0-1-0.448-1-1s0.447-1,1-1h2c0.553,0,1,0.448,1,1v5.986C53,54.538,52.553,54.986,52,54.986z"/><circle cx="26" cy="51" r="1" fill="#000000"/><circle cx="38" cy="51" r="1" fill="#000000"/><path fill="#e3f2ff" d="M32,1L17.34,23.66c0.14,0.7,0.35,1.39,0.6,2.05L33.75,1.06L33.79,1H32z M36.42,1.55L19.26,28.3 c0.48,0.75,1.03,1.45,1.63,2.1L38.81,2.45C38.05,2.08,37.25,1.78,36.42,1.55z M41.63,4.23L23.46,32.57 C25.77,34.1,28.55,35,31.54,35h1.26l0.01-0.01l14-21.89C46.24,9.54,44.34,6.41,41.63,4.23z"/><g><path fill="#000000" d="M32.427,35h-0.854C23.537,35,17,28.473,17,20.451v-4.901C17,7.527,23.537,1,31.573,1h0.854 C40.463,1,47,7.527,47,15.549v4.901C47,28.473,40.463,35,32.427,35z M31.573,3C24.641,3,19,8.629,19,15.549v4.901 C19,27.371,24.641,33,31.573,33h0.854C39.359,33,45,27.371,45,20.451v-4.901C45,8.629,39.359,3,32.427,3H31.573z"/></g><g><path fill="#fff" d="M23.663,7.893l1.2,2.3l2.3,1.2l-2.3,1.2l-1.2,2.3l-1.2-2.3l-2.3-1.2l2.3-1.2L23.663,7.893z M39.763,24.093l0.8,1.5l1.6,0.9l-1.6,0.8l-0.8,1.6l-0.9-1.6l-1.5-0.8l1.5-0.9L39.763,24.093z M38.963,5.593l0.6,1.1l1.1,0.6 l-1.1,0.5l-0.6,1.1l-0.6-1.1l-1-0.5l1-0.6L38.963,5.593z"/></g><g><path fill="#000000" d="M17,41c-0.552,0-1,0.448-1,1v2c0,0.552,0.448,1,1,1s1-0.448,1-1v-2C18,41.448,17.552,41,17,41z M12,41c-0.552,0-1,0.448-1,1v2c0,0.552,0.448,1,1,1s1-0.448,1-1v-2C13,41.448,12.552,41,12,41z M22,41c-0.552,0-1,0.448-1,1v2 c0,0.552,0.448,1,1,1s1-0.448,1-1v-2C23,41.448,22.552,41,22,41z M27,41c-0.552,0-1,0.448-1,1v2c0,0.552,0.448,1,1,1s1-0.448,1-1 v-2C28,41.448,27.552,41,27,41z M37,41c-0.552,0-1,0.448-1,1v2c0,0.552,0.448,1,1,1s1-0.448,1-1v-2C38,41.448,37.552,41,37,41z M32,41c-0.552,0-1,0.448-1,1v2c0,0.552,0.448,1,1,1s1-0.448,1-1v-2C33,41.448,32.552,41,32,41z M42,41c-0.552,0-1,0.448-1,1v2 c0,0.552,0.448,1,1,1s1-0.448,1-1v-2C43,41.448,42.552,41,42,41z M47,41c-0.552,0-1,0.448-1,1v2c0,0.552,0.448,1,1,1s1-0.448,1-1 v-2C48,41.448,47.552,41,47,41z M52,41c-0.552,0-1,0.448-1,1v2c0,0.552,0.448,1,1,1s1-0.448,1-1v-2C53,41.448,52.552,41,52,41z"/></g></svg>