<svg xmlns="http://www.w3.org/2000/svg" data-name="Layer 1" viewBox="0 0 64 64"><path fill="#f9e3ae" d="M28.8,61.32,28.3,61A90,90,0,0,1,2.67,32.66l-2-3.45,6.4-2.83a70,70,0,0,0,14.24-8.43l5.4-4.13L52.18,39.27l-5,6.15A70,70,0,0,1,29.7,60.76Z"/><path fill="#faefde" d="M8.81,41.52,7,37.92l7.35-3.77A98.71,98.71,0,0,0,30.89,23.38l3-2.4-7.16-7.16-5.4,4.13A70,70,0,0,1,7.08,26.38L.68,29.2l2,3.45A89.94,89.94,0,0,0,9.45,42.74C9.24,42.33,9,41.93,8.81,41.52Z"/><path fill="#f6d397" d="M43.44,30.54l-6.92,7.28C31.65,43.06,25.1,49.21,18.73,53A90,90,0,0,0,28.3,61l.5.36.9-.56A70,70,0,0,0,47.17,45.42l5-6.15Z"/><path fill="#c4939c" d="M47.94,23.72l-5.66-5.66L57.74,3.82a3.14,3.14,0,0,1,4.34.1h0a3.14,3.14,0,0,1,.1,4.34Z"/><path fill="#cda1a7" d="M62.24,4.11c-.05-.06-.1-.13-.15-.19a3.14,3.14,0,0,0-4.34-.1L42.28,18.06l3,3Z"/><path fill="#acb7d0" d="M53.6,29.38l-17-17a6,6,0,0,0-8.49,0l-1.41,1.41L52.18,39.27l1.41-1.41A6,6,0,0,0,53.6,29.38Z"/><path fill="#c2cde7" d="M55.18,35a6,6,0,0,0-1.59-5.59l-17-17A6,6,0,0,0,31,10.82Z"/><path fill="#000000" d="M47.94 39.27a1 1 0 0 0-1.41 0l-1.41 1.42a1 1 0 0 0 1.42 1.41l1.41-1.42A1 1 0 0 0 47.94 39.27zM43 35.74l-1.41 1.41A1 1 0 1 0 43 38.57l1.41-1.41A1 1 0 0 0 43 35.74zM39.45 32.2L38 33.62A1 1 0 1 0 39.45 35l1.41-1.41a1 1 0 0 0-1.41-1.41zM35.92 28.67L34.5 30.08a1 1 0 1 0 1.41 1.41l1.41-1.41a1 1 0 0 0-1.41-1.41zM32.38 25.13L31 26.55A1 1 0 1 0 32.38 28l1.41-1.41a1 1 0 0 0-1.41-1.41zM28.85 21.6L27.43 23a1 1 0 0 0 1.42 1.41L30.26 23a1 1 0 0 0-1.42-1.41zM26.73 18.06a1 1 0 0 0-1.41 0L23.9 19.48a1 1 0 1 0 1.41 1.41l1.41-1.41A1 1 0 0 0 26.73 18.06z"/><path fill="#000000" d="M62.79,3.21a4.13,4.13,0,0,0-5.72-.13L42.31,16.68l-5-5a7,7,0,0,0-9.9,0l-1.37,1.37-5.35,4.09a69.14,69.14,0,0,1-14,8.31L.28,28.29A1,1,0,0,0-.18,29.7l2,3.45c1.25,2.18,2.61,4.27,4,6.31v0a1,1,0,0,0,.22.3,90.3,90.3,0,0,0,21.67,22l.5.36a1,1,0,0,0,1.11,0l.9-.56A70.84,70.84,0,0,0,47.95,46.06l5-6.12,1.37-1.37a7,7,0,0,0,0-9.9l-5-5L62.92,8.93A4.13,4.13,0,0,0,62.79,3.21ZM46.4,44.79A68.84,68.84,0,0,1,29.17,59.91l-.33.21a89.68,89.68,0,0,1-8.3-6.76c1.64-1.15,3.25-2.37,4.79-3.66A1,1,0,0,0,24,48.17c-1.6,1.34-3.27,2.6-5,3.79A87.94,87.94,0,0,1,8.24,39.46a71,71,0,0,0,12.69-7.72l2-1.56a1,1,0,1,0-1.21-1.59l-2,1.56A69.13,69.13,0,0,1,7.1,37.8C5.85,36,4.65,34.1,3.54,32.16L2.1,29.67l5.38-2.38a71.08,71.08,0,0,0,14.44-8.55l4.71-3.6,1.09,1.09L50.84,39.34Zm6.49-14.71a5,5,0,0,1,0,7.07l-.71.71-24-24,.71-.71a5,5,0,0,1,7.07,0L40.84,18h0L48,25.16h0Zm8.56-22.5L47.91,22.27l-4.18-4.18L58.42,4.56a2.14,2.14,0,0,1,3,3Z"/><path fill="#000000" d="M27.49,45.07l-.67.63a1,1,0,1,0,1.37,1.46l.68-.64a1,1,0,1,0-1.37-1.45Z"/></svg>