<svg xmlns="http://www.w3.org/2000/svg" viewBox="0 0 64 64"><path fill="#c5e4fa" d="M44.1,57H13.9c-0.5,0-0.9-0.4-1-0.9L9.2,21.4c0-0.1-0.1-0.3-0.1-0.4L1.9,8.5C1.6,8,1.8,7.4,2.2,7.1 C2.4,7,2.6,7,2.7,7h46.2c0.6,0,1,0.4,1,1c0,0,0,0.1,0,0.1l-4.8,48C45,56.6,44.6,57,44.1,57z"/><path fill="#e3f2ff" d="M3.9,12h45c0.2,0,0.4,0.1,0.6,0.2l0.4-4.1c0.1-0.5-0.3-1-0.9-1.1c0,0-0.1,0-0.1,0H2.7c-0.6,0-1,0.4-1,1 c0,0.2,0,0.4,0.1,0.5L3.9,12z"/><path fill="#fff7f0" d="M9.4,23l3.5,33.1c0.1,0.5,0.5,0.9,1,0.9h30.2c0.5,0,0.9-0.4,1-0.9L48.4,25L37,23l-14.8,3L9.4,23z"/><path fill="#faefde" d="M16 53h26c1.7 0 3 1.3 3 3l0 0c0 .6-.4 1-1 1H14c-.6 0-1-.4-1-1l0 0C13 54.3 14.3 53 16 53zM23 34A2 2 0 1 0 23 38 2 2 0 1 0 23 34zM36 29A3 3 0 1 0 36 35 3 3 0 1 0 36 29zM31.5 42A2.5 2.5 0 1 0 31.5 47 2.5 2.5 0 1 0 31.5 42z"/><path fill="#000000" d="M20 14c.6 0 1-.4 1-1v-2c0-.6-.4-1-1-1s-1 .4-1 1v2C19 13.6 19.4 14 20 14zM15 14c.6 0 1-.4 1-1v-2c0-.6-.4-1-1-1s-1 .4-1 1v2C14 13.6 14.4 14 15 14zM11 13v-2c0-.6-.4-1-1-1s-1 .4-1 1v2c0 .6.4 1 1 1S11 13.6 11 13zM25 14c.6 0 1-.4 1-1v-2c0-.6-.4-1-1-1s-1 .4-1 1v2C24 13.6 24.4 14 25 14zM30 14c.6 0 1-.4 1-1v-2c0-.6-.4-1-1-1s-1 .4-1 1v2C29 13.6 29.4 14 30 14zM35 14c.6 0 1-.4 1-1v-2c0-.6-.4-1-1-1s-1 .4-1 1v2C34 13.6 34.4 14 35 14zM40 14c.6 0 1-.4 1-1v-2c0-.6-.4-1-1-1s-1 .4-1 1v2C39 13.6 39.4 14 40 14zM45 14c.6 0 1-.4 1-1v-2c0-.6-.4-1-1-1s-1 .4-1 1v2C44 13.6 44.4 14 45 14zM41 52h-4c-.6 0-1 .4-1 1s.4 1 1 1h4c.6 0 1-.4 1-1S41.6 52 41 52zM33 52H17c-.6 0-1 .4-1 1s.4 1 1 1h16c.6 0 1-.4 1-1S33.6 52 33 52zM36 36c2.2 0 4-1.8 4-4s-1.8-4-4-4-4 1.8-4 4S33.8 36 36 36zM36 29.8c1.2 0 2.2 1 2.2 2.2 0 1.2-1 2.2-2.2 2.2-1.2 0-2.2-1-2.2-2.2l0 0C33.8 30.8 34.8 29.8 36 29.8zM23 39c1.7 0 3-1.3 3-3s-1.3-3-3-3-3 1.3-3 3S21.3 39 23 39zM23 34.8c.7 0 1.2.5 1.2 1.2s-.5 1.2-1.2 1.2c-.7 0-1.2-.5-1.2-1.2 0 0 0 0 0 0C21.8 35.3 22.3 34.8 23 34.8zM31.5 41c-1.9 0-3.5 1.6-3.5 3.5s1.6 3.5 3.5 3.5 3.5-1.6 3.5-3.5S33.4 41 31.5 41zM31.5 46.2c-1 0-1.8-.8-1.8-1.8s.8-1.8 1.8-1.8c1 0 1.8.8 1.8 1.8S32.5 46.2 31.5 46.2z"/><path fill="#000000" d="M61.1,20.2c-2.9-3-7.4-3.8-11.2-2.1l0.9-8.8c0.2-1.6-1-3.1-2.7-3.3c-0.1,0-0.2,0-0.3,0h-45c-1.1,0-2,1-1.9,2.1 c0,0.4,0.1,0.7,0.3,1l6.5,10.2c0.4,0.7,0.7,1.4,0.8,2.2l3.4,33.8c0.2,1.5,1.5,2.7,3,2.7h28.4c1.5,0,2.8-1.2,3-2.7l1.6-15.7 c4.9-1.1,11-2.8,13.3-5.1C65,30.5,65,24.2,61.1,20.2z M2.8,8h45c0.6,0,1,0.4,1,1c0,0,0,0.1,0,0.1l-1.1,10.6c0,0.1,0,0.2,0,0.3 l-0.4,4.1l0,0L42,22.7c-4.3-1.1-8.9-0.8-13,0.8c-4.1,1.6-8.6,1.8-12.8,0.4l-5.7-1.8l-0.1-0.9c-0.1-1.1-0.5-2.2-1.1-3.1L2.8,8z M44.2,55.1c-0.1,0.5-0.5,0.9-1,0.9H14.8c-0.5,0-0.9-0.4-1-0.9l-3.1-30.8l4.9,1.5c4.6,1.4,9.6,1.3,14.1-0.5 c3.8-1.5,7.9-1.7,11.8-0.7l5.3,1.4c0.1,0,0.2,0,0.3,0L44.2,55.1z M48,37.5l1.7-17c3.8-2.4,8.8-1.2,11.1,2.5c2,3.2,1.5,7.4-1.1,10 C58.2,34.6,53.9,36.2,48,37.5z"/></svg>