<svg xmlns="http://www.w3.org/2000/svg" viewBox="0 0 64 64"><path fill="#85cbf8" d="M27.034,33l-7.985,4.1C17.181,38.06,15,40.022,15,42.169v2.698C15,45.493,16.494,46,17.103,46 h29.793C47.506,46,49,45.493,49,44.867v-2.704c0-2.143-2.177-4.103-4.042-5.064L37.011,33"/><path fill="#7bbeeb" d="M42.099,35.089L37.939,33H26.115l-4.206,2.103c2.288,3.988,5.797,6.82,10.091,6.82 C36.299,41.923,39.812,39.084,42.099,35.089z"/><path fill="#faefde" d="M40.5,24.5c0-4.694-3.806-8.5-8.5-8.5s-8.5,3.806-8.5,8.5c0,5.885,3.806,12.423,8.5,12.423 S40.5,30.385,40.5,24.5z"/><path fill="#000000" d="M32,38c-5.384,0-9-6.722-9-13c0-5.514,4.037-10,9-10s9,4.486,9,10C41,31.278,37.384,38,32,38z M32,17c-4.323,0-7,4.152-7,8c0,5.203,2.875,11,7,11s7-5.797,7-11C39,21.152,36.323,17,32,17z"/><path fill="#000000" d="M47.654,47H16.346C15.053,47,14,45.965,14,44.692v-1.113c0-2.802,1.631-5.433,4.159-6.719 l7.421-4.705l1.07,1.689l-7.55,4.781C17.217,39.567,16,41.512,16,43.579v1.113C16,44.851,16.168,45,16.346,45h31.309 C47.832,45,48,44.851,48,44.692v-1.12c0-2.063-1.214-4.007-3.092-4.95l-0.088-0.051l-7.418-4.729l1.074-1.686l7.377,4.701 C48.374,38.147,50,40.776,50,43.572v1.12C50,45.965,48.947,47,47.654,47z"/><path fill="#7bbeeb" d="M9 4A4 4 0 1 0 9 12A4 4 0 1 0 9 4Z"/><path fill="#000000" d="M9,13c-2.757,0-5-2.243-5-5s2.243-5,5-5s5,2.243,5,5S11.757,13,9,13z M9,5C7.346,5,6,6.346,6,8 s1.346,3,3,3s3-1.346,3-3S10.654,5,9,5z"/><path fill="#7bbeeb" d="M32 1A4 4 0 1 0 32 9A4 4 0 1 0 32 1Z"/><path fill="#000000" d="M32,10c-2.757,0-5-2.243-5-5s2.243-5,5-5s5,2.243,5,5S34.757,10,32,10z M32,2c-1.654,0-3,1.346-3,3 s1.346,3,3,3s3-1.346,3-3S33.654,2,32,2z"/><path fill="#7bbeeb" d="M32 55A4 4 0 1 0 32 63A4 4 0 1 0 32 55Z"/><path fill="#000000" d="M32,64c-2.757,0-5-2.243-5-5s2.243-5,5-5s5,2.243,5,5S34.757,64,32,64z M32,56 c-1.654,0-3,1.346-3,3s1.346,3,3,3s3-1.346,3-3S33.654,56,32,56z"/><path fill="#7bbeeb" d="M9 52A4 4 0 1 0 9 60A4 4 0 1 0 9 52Z"/><path fill="#000000" d="M9,61c-2.757,0-5-2.243-5-5s2.243-5,5-5s5,2.243,5,5S11.757,61,9,61z M9,53c-1.654,0-3,1.346-3,3 s1.346,3,3,3s3-1.346,3-3S10.654,53,9,53z"/><path fill="#7bbeeb" d="M55 4A4 4 0 1 0 55 12A4 4 0 1 0 55 4Z"/><path fill="#000000" d="M55,13c-2.757,0-5-2.243-5-5s2.243-5,5-5s5,2.243,5,5S57.757,13,55,13z M55,5c-1.654,0-3,1.346-3,3 s1.346,3,3,3s3-1.346,3-3S56.654,5,55,5z"/><path fill="#7bbeeb" d="M55 52A4 4 0 1 0 55 60A4 4 0 1 0 55 52Z"/><path fill="#000000" d="M55 61c-2.757 0-5-2.243-5-5s2.243-5 5-5 5 2.243 5 5S57.757 61 55 61zM55 53c-1.654 0-3 1.346-3 3s1.346 3 3 3 3-1.346 3-3S56.654 53 55 53zM12 53c-.256 0-.512-.098-.707-.293-.391-.391-.391-1.023 0-1.414l2-2c.391-.391 1.023-.391 1.414 0s.391 1.023 0 1.414l-2 2C12.512 52.902 12.256 53 12 53z"/><path fill="#000000" d="M52 53c-.256 0-.512-.098-.707-.293l-2-2c-.391-.391-.391-1.023 0-1.414s1.023-.391 1.414 0l2 2c.391.391.391 1.023 0 1.414C52.512 52.902 52.256 53 52 53zM44 20c-.256 0-.512-.098-.707-.293-.391-.391-.391-1.023 0-1.414l8-8c.391-.391 1.023-.391 1.414 0s.391 1.023 0 1.414l-8 8C44.512 19.902 44.256 20 44 20zM20 20c-.256 0-.512-.098-.707-.293l-8-8c-.391-.391-.391-1.023 0-1.414s1.023-.391 1.414 0l8 8c.391.391.391 1.023 0 1.414C20.512 19.902 20.256 20 20 20zM32 55c-.553 0-1-.447-1-1v-3c0-.553.447-1 1-1s1 .447 1 1v3C33 54.553 32.553 55 32 55zM32 13c-.553 0-1-.447-1-1V9c0-.553.447-1 1-1s1 .447 1 1v3C33 12.553 32.553 13 32 13z"/></svg>