<svg xmlns="http://www.w3.org/2000/svg" data-name="Layer 1" viewBox="0 0 64 64"><path fill="#c5e4fa" d="M45 53L1 53 1 13 55 13 55 43 45 53z"/><path fill="#e3f2ff" d="M34.11 53L55 32.11 55 14 52.21 14 13.21 53 34.11 53zM1.29 53L9.64 53 48.64 14 40.29 14 1.29 53zM1 49.71L36.71 14 32.75 14 1 45.75 1 49.71z"/><rect width="54" height="6" x="1" y="7" fill="#acb7d0" rx="2" ry="2"/><path fill="#72caaf" d="M39.1,59H62.9a1,1,0,0,0,1-1.09l-1.82-20a1,1,0,0,0-1-.91H40.91a1,1,0,0,0-1,.91l-1.82,20A1,1,0,0,0,39.1,59Z"/><path fill="#5dbc9d" d="M64,59H38l.44-2.66A4,4,0,0,1,42.39,53H59.61a4,4,0,0,1,3.95,3.34Z"/><path fill="#000000" d="M16 46a1 1 0 0 0-1 1v2a1 1 0 0 0 2 0V47A1 1 0 0 0 16 46zM11 46a1 1 0 0 0-1 1v2a1 1 0 0 0 2 0V47A1 1 0 0 0 11 46zM6 46a1 1 0 0 0-1 1v2a1 1 0 0 0 2 0V47A1 1 0 0 0 6 46zM21 46a1 1 0 0 0-1 1v2a1 1 0 0 0 2 0V47A1 1 0 0 0 21 46zM26 46a1 1 0 0 0-1 1v2a1 1 0 0 0 2 0V47A1 1 0 0 0 26 46zM31 46a1 1 0 0 0-1 1v2a1 1 0 0 0 2 0V47A1 1 0 0 0 31 46zM36 46a1 1 0 0 0-1 1v2a1 1 0 0 0 2 0V47A1 1 0 0 0 36 46zM19 22h4a1 1 0 0 0 0-2H19a1 1 0 0 0 0 2zM27 22H44a1 1 0 0 0 0-2H27a1 1 0 0 0 0 2zM45 29a1 1 0 0 0-1-1H19a1 1 0 0 0 0 2H44A1 1 0 0 0 45 29zM34 36H19a1 1 0 0 0 0 2H34a1 1 0 0 0 0-2zM10.29 23.71a1 1 0 0 0 1.41 0l4-4a1 1 0 0 0-1.41-1.41L11 21.59 9.71 20.29a1 1 0 0 0-1.41 1.41zM10.29 31.71a1 1 0 0 0 1.41 0l4-4a1 1 0 0 0-1.41-1.41L11 29.59 9.71 28.29a1 1 0 0 0-1.41 1.41zM11 40a1 1 0 0 0 .71-.29l4-4a1 1 0 0 0-1.41-1.41L11 37.59 9.71 36.29a1 1 0 0 0-1.41 1.41l2 2A1 1 0 0 0 11 40z"/><path fill="#000000" d="M63.08,37.82a2,2,0,0,0-2-1.82H57.92A7,7,0,0,0,56,32.09S56,32,56,32V9a3,3,0,0,0-3-3H3A3,3,0,0,0,0,9V51a3,3,0,0,0,3,3H37.45l-.35,3.82a2,2,0,0,0,2,2.18H62.9a2,2,0,0,0,2-2.18ZM55.9,36H46.1a5,5,0,0,1,9.8,0ZM2,9A1,1,0,0,1,3,8H53a1,1,0,0,1,1,1v3H2ZM3,52a1,1,0,0,1-1-1V14H54V30.68A7,7,0,0,0,44.08,36H40.91a2,2,0,0,0-2,1.82L37.63,52Zm36.1,6,.36-4,.18-2,1.27-14H44v2a1,1,0,0,0,2,0V38H56v2a1,1,0,0,0,2,0V38h3.09L62.9,58Z"/></svg>