<svg xmlns="http://www.w3.org/2000/svg" viewBox="0 0 64 64"><path fill="#5dbc9d" d="M59,32c0,14.91-12.09,27-27,27S5,46.91,5,32c0-0.09,0-0.18,0.01-0.27C5.15,16.94,17.18,5,32,5	s26.85,11.94,26.99,26.72C59,31.81,59,31.91,59,32z"/><path fill="#fff8ee" d="M58.99,31.72c-2.11-2.78-6.76-9.45-5.98-13.72c-3,0-3.5,5-3.5,5s-4.43-1.97-6.94-0.53	c-0.58-0.65-1.06-0.97-1.06-0.97s1.5-3.5,3-5c-2,0-4.5,0.5-4.5,0.5l1-3l-5,1.5l-1.5-2.5l2.5-2.5h-3.5L32.01,7H32l-1.5,3.5H27	l2.5,2.5L28,15.5L23,14l1,3c0,0-2.5-0.5-4.5-0.5c1.5,1.5,3,5,3,5s-0.48,0.32-1.06,0.97C18.93,21.03,14.5,23,14.5,23S14,18,11,18	c0.78,4.27-3.88,10.96-5.99,13.73C5,31.82,5,31.91,5,32c0,9.865,5.296,18.493,13.197,23.204L18.14,55.17L18.5,55c0,0-3-4.5-3.5-7	c2.5,0,5-3,5-3s2.5,1.5,2.5,3.5c0,1.599-2.887,4.487-4.038,6.856C22.443,57.669,27.065,59,32,59s9.557-1.331,13.538-3.644	C44.387,52.987,41.5,50.099,41.5,48.5c0-2,2.5-3.5,2.5-3.5s2.5,3,5,3c-0.5,2.5-3.5,7-3.5,7l0.36,0.17l-0.057,0.034	C53.704,50.493,59,41.865,59,32C59,31.91,59,31.81,58.99,31.72z M19.5,27.5c0,2.5,1.5,4,1.5,6c0,2.5-2.5,6-4,7.5	c-0.79,0.79-2.5,2-4,2c0,0-1-1.5,0-8.5c0.98-6.82,6.23-10.8,8.34-11.92C20.5,23.55,19.5,25.19,19.5,27.5z M51.01,43	c-1.5,0-3.21-1.21-4-2c-1.5-1.5-4-5-4-7.5c0-2,1.5-3.5,1.5-6c0-2.31-1-3.95-1.84-4.92c2.11,1.12,7.37,5.1,8.34,11.92	C52.01,41.5,51.01,43,51.01,43z"/><path fill="#000000" d="M32,60C16.561,60,4,47.439,4,32S16.561,4,32,4s28,12.561,28,28S47.439,60,32,60z M32,6	C17.664,6,6,17.663,6,32s11.664,26,26,26s26-11.663,26-26S46.336,6,32,6z"/><path fill="#000000" d="M13,44c-0.334,0-0.646-0.167-0.832-0.445c-0.284-0.427-1.136-2.35-0.158-9.196	c0.78-5.459,4.196-9.333,6.94-11.415c-1.562,0.046-3.291,0.638-4.045,0.971c-0.293,0.129-0.63,0.11-0.907-0.05	c-0.277-0.161-0.46-0.445-0.494-0.764c-0.003-0.032-0.302-2.586-1.433-3.646c-0.249,4.331-3.915,9.794-6.267,12.882	c-0.334,0.439-0.961,0.524-1.401,0.19c-0.439-0.335-0.524-0.963-0.189-1.401c4.125-5.415,6.293-10.255,5.802-12.945	c-0.053-0.292,0.026-0.593,0.216-0.82S10.703,17,11,17c2.541,0,3.798,2.52,4.284,4.632c1.458-0.485,3.933-1.076,5.93-0.365	c0.02-0.019,0.039-0.036,0.058-0.054c-0.56-1.183-1.572-3.099-2.479-4.006c-0.286-0.286-0.372-0.716-0.217-1.09	S19.096,15.5,19.5,15.5c1.015,0,2.135,0.119,3.027,0.243l-0.476-1.427c-0.118-0.354-0.029-0.745,0.231-1.013	c0.261-0.269,0.65-0.369,1.005-0.262l4.255,1.276l0.698-1.163l-1.948-1.948c-0.286-0.286-0.372-0.716-0.217-1.09S26.596,9.5,27,9.5	h2.841l1.24-2.894c0.217-0.509,0.803-0.747,1.313-0.525c0.507,0.218,0.743,0.806,0.525,1.313l-1.5,3.5	C31.262,11.262,30.9,11.5,30.5,11.5h-1.086l0.793,0.793c0.325,0.324,0.387,0.828,0.15,1.222l-1.5,2.5	c-0.235,0.393-0.708,0.573-1.145,0.443l-3.155-0.946l0.391,1.172c0.113,0.338,0.037,0.711-0.199,0.979	c-0.235,0.268-0.598,0.388-0.945,0.318c-0.016-0.003-0.997-0.197-2.191-0.338c1.003,1.603,1.762,3.358,1.806,3.464	c0.19,0.442,0.037,0.958-0.364,1.226c-0.031,0.021-0.286,0.199-0.624,0.534c-0.088,0.223-0.254,0.41-0.474,0.523	C21.264,24.242,20.5,25.61,20.5,27.5c0,1.126,0.36,2.022,0.741,2.971C21.614,31.401,22,32.362,22,33.5	c0,2.852-2.633,6.547-4.293,8.207C16.855,42.559,14.906,44,13,44z M18.659,25.835c-1.924,1.83-4.086,4.726-4.669,8.807	c-0.603,4.223-0.448,6.327-0.283,7.249c0.996-0.285,2.056-1.066,2.586-1.598C17.847,38.738,20,35.514,20,33.5	c0-0.751-0.285-1.461-0.615-2.284C18.97,30.184,18.5,29.013,18.5,27.5C18.5,26.906,18.558,26.352,18.659,25.835z"/><path fill="#000000" d="M51.01,44c-1.906,0-3.855-1.441-4.707-2.293c-1.66-1.66-4.293-5.355-4.293-8.207	c0-1.138,0.386-2.099,0.759-3.029c0.381-0.948,0.741-1.845,0.741-2.971c0-1.89-0.764-3.258-1.458-4.11	c-0.219-0.113-0.385-0.301-0.473-0.522c-0.34-0.337-0.597-0.516-0.629-0.538c-0.395-0.27-0.548-0.783-0.36-1.223	c0.044-0.105,0.803-1.861,1.806-3.464c-1.195,0.141-2.176,0.335-2.191,0.338c-0.349,0.068-0.71-0.052-0.945-0.318	c-0.236-0.268-0.312-0.641-0.199-0.979l0.391-1.172l-3.155,0.946c-0.435,0.13-0.909-0.051-1.145-0.443l-1.5-2.5	c-0.236-0.394-0.174-0.897,0.15-1.222l0.793-0.793H33.51c-0.4,0-0.762-0.238-0.919-0.606l-1.5-3.5	c-0.218-0.507,0.018-1.095,0.525-1.313c0.507-0.221,1.096,0.018,1.313,0.525l1.24,2.894h2.841c0.404,0,0.769,0.243,0.924,0.617	s0.069,0.804-0.217,1.09l-1.948,1.948l0.698,1.163l4.255-1.276c0.356-0.107,0.745-0.007,1.005,0.262	c0.26,0.268,0.349,0.658,0.231,1.013l-0.476,1.427c0.892-0.124,2.012-0.243,3.027-0.243c0.404,0,0.769,0.243,0.924,0.617	s0.069,0.804-0.217,1.09c-0.909,0.909-1.919,2.824-2.479,4.006c0.019,0.018,0.039,0.035,0.058,0.054	c1.995-0.711,4.472-0.119,5.93,0.365C49.212,19.52,50.469,17,53.01,17c0.297,0,0.578,0.132,0.768,0.359s0.269,0.528,0.216,0.82	c-0.491,2.689,1.678,7.529,5.802,12.945c0.335,0.439,0.25,1.066-0.189,1.401c-0.44,0.334-1.067,0.249-1.401-0.19	c-2.352-3.088-6.018-8.552-6.267-12.882c-1.131,1.061-1.43,3.614-1.433,3.646c-0.033,0.318-0.217,0.603-0.494,0.764	c-0.276,0.16-0.614,0.179-0.907,0.05c-0.754-0.333-2.483-0.925-4.045-0.971c2.744,2.082,6.161,5.956,6.94,11.415	c0.978,6.847,0.126,8.77-0.158,9.196C51.656,43.833,51.344,44,51.01,44z M45.351,25.835c0.101,0.517,0.159,1.071,0.159,1.665	c0,1.513-0.47,2.684-0.885,3.716c-0.33,0.823-0.615,1.533-0.615,2.284c0,2.014,2.153,5.238,3.707,6.793	c0.532,0.532,1.596,1.316,2.594,1.6c0.155-0.893,0.317-2.997-0.291-7.251C49.437,30.561,47.274,27.665,45.351,25.835z"/><path fill="#000000" d="M18.459,56.36c-0.146,0-0.295-0.032-0.436-0.101c-0.084-0.04-0.16-0.092-0.227-0.15	c-0.239-0.088-0.444-0.265-0.561-0.513c-0.119-0.251-0.124-0.526-0.036-0.769c-0.891-1.417-2.769-4.574-3.181-6.632	c-0.059-0.294,0.017-0.599,0.207-0.83S14.7,47,15,47c1.657,0,3.617-1.906,4.232-2.642c0.317-0.375,0.86-0.468,1.282-0.216	C20.82,44.326,23.5,46.006,23.5,48.5c0,1.266-1.044,2.713-2.253,4.388c-0.714,0.99-1.453,2.014-1.887,2.909	C19.187,56.153,18.83,56.36,18.459,56.36z M16.283,48.813c0.521,1.392,1.51,3.153,2.278,4.416c0.339-0.507,0.705-1.013,1.064-1.511	C20.46,50.561,21.5,49.119,21.5,48.5c0-0.83-0.739-1.646-1.367-2.171C19.342,47.123,17.917,48.348,16.283,48.813z"/><path fill="#000000" d="M45.541,56.36c-0.371,0-0.728-0.207-0.9-0.563c-0.434-0.896-1.173-1.919-1.887-2.909	C41.544,51.213,40.5,49.766,40.5,48.5c0-2.494,2.68-4.174,2.985-4.357c0.424-0.252,0.967-0.159,1.282,0.216	C45.383,45.094,47.343,47,49,47c0.3,0,0.583,0.135,0.773,0.366s0.266,0.536,0.207,0.83c-0.412,2.058-2.29,5.215-3.181,6.632	c0.088,0.242,0.083,0.518-0.036,0.769c-0.117,0.248-0.323,0.425-0.561,0.513c-0.066,0.059-0.143,0.11-0.227,0.15	C45.836,56.328,45.687,56.36,45.541,56.36z M43.867,46.329C43.24,46.853,42.5,47.67,42.5,48.5c0,0.619,1.04,2.061,1.875,3.218	c0.36,0.498,0.725,1.004,1.064,1.511c0.768-1.263,1.756-3.024,2.278-4.416C46.083,48.348,44.658,47.123,43.867,46.329z"/><polygon fill="#000000" points="32,15 29.5,17 34.5,17"/><path fill="#000000" d="M41.51,22.5c-0.12,0-0.241-0.021-0.358-0.066c-6.246-2.398-12.058-2.398-18.292,0	c-0.516,0.194-1.094-0.059-1.292-0.574c-0.199-0.516,0.059-1.095,0.574-1.293c6.725-2.587,12.993-2.586,19.727,0	c0.516,0.198,0.773,0.776,0.575,1.292C42.291,22.256,41.912,22.5,41.51,22.5z"/><path fill="#000000" d="M58,31c-2.171,0-3.752-0.688-5.281-1.354C51.366,29.057,50.087,28.5,48.5,28.5 c-0.276,0-0.5-0.224-0.5-0.5s0.224-0.5,0.5-0.5c1.796,0,3.23,0.625,4.618,1.229C54.553,29.354,56.038,30,58,30 c0.276,0,0.5,0.224,0.5,0.5S58.276,31,58,31z"/><path fill="#000000" d="M58.5,35c-1.864,0-3.873-0.894-5.487-1.611C51.985,32.932,51.015,32.5,50.5,32.5 c-0.276,0-0.5-0.224-0.5-0.5s0.224-0.5,0.5-0.5c0.728,0,1.694,0.43,2.919,0.975C54.947,33.154,56.849,34,58.5,34 c0.276,0,0.5,0.224,0.5,0.5S58.776,35,58.5,35z"/><path fill="#000000" d="M58,39c-1.54,0-3.002-0.824-4.293-1.552C52.841,36.961,52.023,36.5,51.5,36.5 c-0.276,0-0.5-0.224-0.5-0.5s0.224-0.5,0.5-0.5c0.786,0,1.672,0.499,2.698,1.077C55.381,37.244,56.722,38,58,38 c0.276,0,0.5,0.224,0.5,0.5S58.276,39,58,39z"/><path fill="#000000" d="M57,42.5c-0.962,0-2.258-0.767-3.512-1.509C52.742,40.55,51.813,40,51.5,40 c-0.276,0-0.5-0.224-0.5-0.5s0.224-0.5,0.5-0.5c0.558,0,1.313,0.43,2.498,1.131C55.028,40.741,56.311,41.5,57,41.5 c0.276,0,0.5,0.224,0.5,0.5S57.276,42.5,57,42.5z"/><path fill="#000000" d="M55,46c-0.849,0-1.422-0.384-1.976-0.756C52.453,44.861,51.913,44.5,51,44.5 c-0.276,0-0.5-0.224-0.5-0.5s0.224-0.5,0.5-0.5c1.217,0,1.974,0.507,2.581,0.914C54.069,44.741,54.455,45,55,45 c0.276,0,0.5,0.224,0.5,0.5S55.276,46,55,46z"/><path fill="#000000" d="M53,49c-0.667,0-1.243-0.432-1.8-0.85c-0.426-0.32-0.867-0.65-1.2-0.65c-0.276,0-0.5-0.224-0.5-0.5 s0.224-0.5,0.5-0.5c0.667,0,1.243,0.432,1.8,0.85C52.226,47.67,52.667,48,53,48c0.276,0,0.5,0.224,0.5,0.5S53.276,49,53,49z"/><path fill="#000000" d="M51,51.5c-0.075,0-0.151-0.017-0.223-0.053C49.932,51.025,48.882,50.5,48.5,50.5 c-0.276,0-0.5-0.224-0.5-0.5s0.224-0.5,0.5-0.5c0.577,0,1.414,0.397,2.724,1.053c0.247,0.124,0.347,0.424,0.224,0.671 C51.359,51.398,51.183,51.5,51,51.5z"/><path fill="#000000" d="M48.499,50.5c-0.19,0-0.383-0.055-0.554-0.168c-0.459-0.307-0.583-0.927-0.277-1.387 c0.884-1.325,1.85-4.14,2.373-6.192c0.137-0.535,0.678-0.86,1.216-0.722c0.535,0.136,0.858,0.681,0.722,1.216 c-0.435,1.706-1.482,5.061-2.647,6.808C49.139,50.344,48.822,50.5,48.499,50.5z"/><path fill="#000000" d="M6,31c-0.276,0-0.5-0.224-0.5-0.5S5.724,30,6,30c1.962,0,3.447-0.646,4.882-1.271 C12.27,28.125,13.704,27.5,15.5,27.5c0.276,0,0.5,0.224,0.5,0.5s-0.224,0.5-0.5,0.5c-1.587,0-2.866,0.557-4.219,1.146 C9.752,30.312,8.171,31,6,31z"/><path fill="#000000" d="M5.5,35C5.224,35,5,34.776,5,34.5S5.224,34,5.5,34c1.651,0,3.553-0.846,5.081-1.525 C11.806,31.93,12.772,31.5,13.5,31.5c0.276,0,0.5,0.224,0.5,0.5s-0.224,0.5-0.5,0.5c-0.515,0-1.485,0.432-2.513,0.889 C9.373,34.106,7.364,35,5.5,35z"/><path fill="#000000" d="M6,39c-0.276,0-0.5-0.224-0.5-0.5S5.724,38,6,38c1.278,0,2.619-0.756,3.802-1.423 c1.026-0.578,1.912-1.077,2.698-1.077c0.276,0,0.5,0.224,0.5,0.5s-0.224,0.5-0.5,0.5c-0.523,0-1.341,0.461-2.207,0.948 C9.002,38.176,7.54,39,6,39z"/><path fill="#000000" d="M7,42.5c-0.276,0-0.5-0.224-0.5-0.5s0.224-0.5,0.5-0.5c0.689,0,1.972-0.759,3.002-1.369 C11.188,39.43,11.942,39,12.5,39c0.276,0,0.5,0.224,0.5,0.5S12.776,40,12.5,40c-0.313,0-1.242,0.55-1.988,0.991 C9.258,41.733,7.962,42.5,7,42.5z"/><path fill="#000000" d="M9,46c-0.276,0-0.5-0.224-0.5-0.5S8.724,45,9,45c0.545,0,0.931-0.259,1.419-0.586 C11.026,44.007,11.783,43.5,13,43.5c0.276,0,0.5,0.224,0.5,0.5s-0.224,0.5-0.5,0.5c-0.913,0-1.453,0.361-2.024,0.744 C10.422,45.616,9.849,46,9,46z"/><path fill="#000000" d="M11,49c-0.276,0-0.5-0.224-0.5-0.5S10.724,48,11,48c0.333,0,0.774-0.33,1.2-0.65 c0.557-0.418,1.133-0.85,1.8-0.85c0.276,0,0.5,0.224,0.5,0.5s-0.224,0.5-0.5,0.5c-0.333,0-0.774,0.33-1.2,0.65 C12.243,48.568,11.667,49,11,49z"/><path fill="#000000" d="M13,51.5c-0.184,0-0.36-0.102-0.448-0.276c-0.124-0.247-0.023-0.547,0.224-0.671 c1.31-0.655,2.147-1.053,2.724-1.053c0.276,0,0.5,0.224,0.5,0.5s-0.224,0.5-0.5,0.5c-0.382,0-1.432,0.525-2.276,0.947 C13.152,51.483,13.076,51.5,13,51.5z"/><path fill="#000000" d="M15.501,50.5c-0.323,0-0.64-0.156-0.833-0.445c-1.165-1.747-2.212-5.102-2.647-6.808 c-0.136-0.535,0.187-1.08,0.722-1.216c0.536-0.142,1.079,0.187,1.216,0.722c0.523,2.053,1.489,4.867,2.373,6.192 c0.306,0.46,0.182,1.08-0.277,1.387C15.884,50.445,15.691,50.5,15.501,50.5z"/><path fill="#000000" d="M32,35c-3.831,0-6.5-5.007-6.5-9.5c0-3.925,2.248-6,6.5-6s6.5,2.075,6.5,6	C38.5,29.993,35.831,35,32,35z M32,20.5c-3.701,0-5.5,1.636-5.5,5c0,4.013,2.352,8.5,5.5,8.5s5.5-4.487,5.5-8.5	C37.5,22.136,35.701,20.5,32,20.5z"/><path fill="#000000" d="M27.5,59c-0.177,0-0.348-0.094-0.438-0.259c-1.982-3.608-0.652-5.532,0.522-7.23	C28.313,50.458,29,49.463,29,48.074c0-1.281-0.9-2.175-1.852-3.12C26.092,43.905,25,42.821,25,41.124	c0-1.313,0.694-2.58,1.366-3.806c0.986-1.8,1.917-3.499,0.958-5.402c-0.124-0.246-0.025-0.547,0.222-0.671	c0.247-0.125,0.547-0.026,0.672,0.222c1.195,2.373,0.042,4.476-0.975,6.332C26.604,38.965,26,40.066,26,41.124	c0,1.281,0.9,2.175,1.853,3.12C28.908,45.293,30,46.377,30,48.074c0,1.701-0.81,2.872-1.593,4.005	c-1.155,1.671-2.153,3.114-0.469,6.18c0.133,0.242,0.045,0.547-0.197,0.68C27.665,58.98,27.582,59,27.5,59z"/><path fill="#000000" d="M23.5,58c-0.174,0-0.342-0.091-0.435-0.252c-1.304-2.281,0.035-4.06,1.216-5.628	C25.126,50.998,26,49.837,26,48.5c0-1.01-0.848-2.015-1.746-3.078C23.198,44.17,22,42.751,22,41c0-1.606,0.53-2.799,1.043-3.953	C23.535,35.939,24,34.894,24,33.5c0-1.456-0.519-2.556-1.021-3.619C22.498,28.86,22,27.805,22,26.5c0-2.395,0.893-3.563,2.128-5.179	L24.6,20.7c0.166-0.22,0.48-0.266,0.7-0.101c0.221,0.166,0.266,0.479,0.1,0.7l-0.478,0.629C23.724,23.497,23,24.443,23,26.5	c0,1.081,0.429,1.991,0.884,2.954C24.407,30.563,25,31.819,25,33.5c0,1.606-0.53,2.799-1.043,3.953C23.465,38.561,23,39.606,23,41	c0,1.386,1.026,2.602,2.019,3.777C25.993,45.931,27,47.124,27,48.5c0,1.672-0.976,2.968-1.919,4.221	c-1.317,1.749-2.077,2.904-1.147,4.531c0.137,0.239,0.054,0.545-0.186,0.683C23.67,57.979,23.584,58,23.5,58z"/><path fill="#000000" d="M21,45.5c-0.128,0-0.256-0.049-0.354-0.146c-2.467-2.467-2.653-5.286-0.57-8.618	c0.146-0.235,0.455-0.306,0.689-0.159s0.305,0.455,0.159,0.688c-2.37,3.792-1.015,5.937,0.43,7.382c0.195,0.195,0.195,0.512,0,0.707	C21.256,45.451,21.128,45.5,21,45.5z"/><path fill="#000000" d="M36.5,59c-0.082,0-0.164-0.02-0.24-0.062c-0.242-0.133-0.331-0.438-0.197-0.68	c1.684-3.065,0.687-4.509-0.469-6.18C34.81,50.946,34,49.775,34,48.074c0-1.697,1.092-2.781,2.147-3.83	C37.1,43.299,38,42.405,38,41.124c0-1.057-0.598-2.157-1.23-3.322c-1.009-1.856-2.152-3.962-0.957-6.335	c0.124-0.248,0.424-0.347,0.672-0.222c0.247,0.124,0.346,0.425,0.222,0.671c-0.96,1.906-0.037,3.607,0.941,5.408	c0.665,1.224,1.352,2.489,1.352,3.8c0,1.697-1.092,2.781-2.148,3.83C35.9,45.899,35,46.793,35,48.074	c0,1.389,0.688,2.384,1.416,3.437c1.174,1.698,2.504,3.622,0.522,7.23C36.847,58.906,36.676,59,36.5,59z"/><path fill="#000000" d="M40.5,58c-0.084,0-0.169-0.021-0.248-0.065c-0.24-0.138-0.323-0.443-0.186-0.683	c0.93-1.627,0.17-2.782-1.147-4.531C37.976,51.468,37,50.172,37,48.5c0-1.376,1.007-2.569,1.981-3.723	C39.974,43.602,41,42.386,41,41c0-1.394-0.465-2.439-0.957-3.547C39.53,36.299,39,35.106,39,33.5c0-1.681,0.593-2.937,1.116-4.046	C40.571,28.491,41,27.581,41,26.5c0-2.057-0.724-3.003-1.922-4.571L38.6,21.3c-0.166-0.221-0.121-0.534,0.1-0.7	c0.22-0.167,0.534-0.12,0.7,0.101l0.472,0.621C41.107,22.938,42,24.105,42,26.5c0,1.305-0.498,2.36-0.979,3.381	C40.519,30.944,40,32.044,40,33.5c0,1.394,0.465,2.439,0.957,3.547C41.47,38.201,42,39.394,42,41c0,1.751-1.198,3.17-2.254,4.422	C38.848,46.485,38,47.49,38,48.5c0,1.337,0.874,2.498,1.718,3.62c1.181,1.568,2.52,3.347,1.216,5.628	C40.842,57.909,40.673,58,40.5,58z"/><path fill="#000000" d="M43,45.5c-0.128,0-0.256-0.049-0.354-0.146c-0.195-0.195-0.195-0.512,0-0.707	c1.445-1.445,2.799-3.59,0.43-7.382c-0.146-0.233-0.075-0.542,0.159-0.688c0.235-0.146,0.543-0.076,0.689,0.159	c2.083,3.332,1.896,6.151-0.57,8.618C43.256,45.451,43.128,45.5,43,45.5z"/><path fill="#000000" d="M30,30h4v0c0,1.105-0.895,2-2,2h0C30.895,32,30,31.105,30,30L30,30z"/><path fill="#000000" d="M32,29c-0.021,0-0.041-0.003-0.061-0.008l-1-0.25c-0.134-0.033-0.215-0.169-0.182-0.303	c0.034-0.134,0.166-0.223,0.303-0.182L32,28.492l0.939-0.234c0.132-0.042,0.27,0.048,0.303,0.182	c0.033,0.134-0.048,0.27-0.182,0.303l-1,0.25C32.041,28.997,32.021,29,32,29z"/><path fill="#000000" d="M30.529,27.029c-0.276,0-0.5-0.224-0.5-0.5c0-0.837-0.217-1.47-0.646-1.882	c-0.76-0.729-2.034-0.678-2.648-0.654L26.5,24c-0.276,0-0.5-0.224-0.5-0.5s0.224-0.5,0.5-0.5l0.194-0.006	c0.693-0.03,2.314-0.093,3.381,0.933c0.633,0.607,0.954,1.483,0.954,2.603C31.029,26.806,30.806,27.029,30.529,27.029z"/><path fill="#000000" d="M26.459,25.006c0.206,0.265,0.451,0.505,0.797,0.505c0.349,0,0.538-0.505,1.259-0.505	s1.301,0.608,1.922,0.608c-0.216,0.328-0.937,1.378-1.952,1.378s-1.338-1.147-1.985,0C26.206,26.007,26.459,25.006,26.459,25.006z"/><path fill="#000000" d="M33.506,27.032c-0.276,0-0.5-0.224-0.5-0.5c0-1.119,0.321-1.995,0.954-2.603	c1.067-1.025,2.688-0.964,3.381-0.933l0.195,0.006c0.276,0,0.5,0.224,0.5,0.5s-0.224,0.5-0.5,0.5l-0.235-0.007	c-0.612-0.023-1.888-0.075-2.648,0.654c-0.429,0.412-0.646,1.045-0.646,1.882C34.006,26.809,33.783,27.032,33.506,27.032z"/><path fill="#000000" d="M37.577,25.008c-0.206,0.265-0.451,0.505-0.797,0.505c-0.349,0-0.538-0.505-1.259-0.505	c-0.721,0-1.301,0.608-1.922,0.608c0.216,0.328,0.937,1.378,1.952,1.378s1.338-1.147,1.985,0	C37.83,26.009,37.577,25.008,37.577,25.008z"/></svg>