<svg xmlns="http://www.w3.org/2000/svg" viewBox="0 0 64 64"><path fill="#faefde" d="M53 22L53 29 49 29 49 19 46 17 42 19 42 25 38 25 38 16 35 13 32 14 31 23 27 23 27 12 24 10 20 12 20 24 16 23 16 11 10 7 5 10 4 18 6 24 6 39 11.92 58 57 58 57 40 60 34 60 22 56 20 53 22"/><path fill="#85cbf8" d="M15 23H21V29H15zM26 22H32V28H26zM37 26H43V32H37zM48.36 29.5H54.36V35.5H48.36z"/><path fill="#ed7899" d="M15 10c0 2.761-2.239 5-5 5s-5-2.239-5-5l5-3L15 10zM27 11.5c0 1.933-1.567 3.5-3.5 3.5S20 13.433 20 11.5c0-.5 1.067-1.5 3-1.5S27 10 27 11.5zM38 14.5c0 1.933-1.567 3.5-3.5 3.5S31 16.433 31 14.5c0-.5 1.067-1.5 3-1.5S38 13 38 14.5zM49 18.5c0 1.933-1.567 3.5-3.5 3.5S42 20.433 42 18.5c0-.5 1.067-1.5 3-1.5S49 17 49 18.5zM60 22.5c0 1.933-1.567 3.5-3.5 3.5S53 24.433 53 22.5c0-.5 1.067-1.5 3-1.5S60 21 60 22.5z"/><path fill="none" stroke="#000000" stroke-linecap="round" stroke-miterlimit="10" stroke-width="2" d="M15,10c0,2.761-2.239,5-5,5 c-0.723,0-1.41-0.154-2.031-0.43"/><path fill="#000000" d="M17 58c-.552 0-1-.448-1-1v-2c0-.552.448-1 1-1s1 .448 1 1v2C18 57.552 17.552 58 17 58zM22 58c-.552 0-1-.448-1-1v-2c0-.552.448-1 1-1s1 .448 1 1v2C23 57.552 22.552 58 22 58zM27 58c-.552 0-1-.448-1-1v-2c0-.552.448-1 1-1s1 .448 1 1v2C28 57.552 27.552 58 27 58zM32 58c-.552 0-1-.448-1-1v-2c0-.552.448-1 1-1 .552 0 1 .448 1 1v2C33 57.552 32.552 58 32 58zM37 58c-.552 0-1-.448-1-1v-2c0-.552.448-1 1-1s1 .448 1 1v2C38 57.552 37.552 58 37 58zM42 58c-.552 0-1-.448-1-1v-2c0-.552.448-1 1-1s1 .448 1 1v2C43 57.552 42.552 58 42 58zM47 58c-.552 0-1-.448-1-1v-2c0-.552.448-1 1-1s1 .448 1 1v2C48 57.552 47.552 58 47 58zM52 58c-.552 0-1-.448-1-1v-2c0-.552.448-1 1-1s1 .448 1 1v2C53 57.552 52.552 58 52 58z"/><path fill="none" stroke="#000000" stroke-linecap="round" stroke-linejoin="round" stroke-miterlimit="10" stroke-width="2" d="M11.995 57L6.408 40.049C6.138 39.356 6 38.618 6 37.874V24.974c0-.645-.104-1.286-.308-1.897l-1.384-4.153C4.104 18.312 4 17.671 4 17.026l0-3.775c0-3.285 2.532-6.15 5.815-6.249C13.213 6.901 16 9.625 16 13v10M53 30l0-5.297c0-1.895 1.419-3.594 3.312-3.693C58.33 20.904 60 22.51 60 24.505v8.833c0 1.087-.296 2.154-.855 3.087l-1.29 2.15c-.559.932-.855 2-.855 3.087V57M42 26l0-5.302c0-1.895 1.419-3.594 3.312-3.693C47.33 16.899 49 18.505 49 20.5V30M31 22v-5.308c0-1.895 1.419-3.594 3.312-3.693C36.33 12.894 38 14.499 38 16.494V26M20 23l0-9.302C20 11.803 21.605 10 23.5 10c2 0 3.5 1.505 3.5 3.5V22"/><path fill="none" stroke="#000000" stroke-linecap="round" stroke-linejoin="round" stroke-miterlimit="10" stroke-width="2" d="M15 24H21V30H15zM26 22H32V28H26zM37 26H43V32H37zM48 30H54V36H48z"/><path fill="none" stroke="#000000" stroke-linecap="round" stroke-miterlimit="10" stroke-width="2" d="M26.765 13c-.559 1.182-1.66 2-2.765 2M37.74 16c-.559 1.182-1.66 2-2.765 2M48.757 20c-.559 1.182-1.66 2-2.765 2M59.782 23.974c-.559 1.182-1.66 2-2.765 2"/></svg>