<svg xmlns="http://www.w3.org/2000/svg" viewBox="0 0 64 64"><ellipse cx="34" cy="18" fill="#f283a5" rx="5" ry="4"/><ellipse cx="34" cy="39" fill="#f283a5" rx="9" ry="19"/><ellipse cx="34" cy="25.5" fill="#f5c872" rx="9" ry="7.5"/><path fill="#000000" d="M35.003,40h-2c-0.553,0-1,0.447-1,1s0.447,1,1,1h2c0.553,0,1-0.447,1-1S35.555,40,35.003,40z"/><path fill="#000000" d="M35.003,44h-2c-0.553,0-1,0.447-1,1s0.447,1,1,1h2c0.553,0,1-0.447,1-1S35.555,44,35.003,44z"/><path fill="#000000" d="M35.003,48h-2c-0.553,0-1,0.447-1,1s0.447,1,1,1h2c0.553,0,1-0.447,1-1S35.555,48,35.003,48z"/><path fill="#000000" d="M35.003,52h-2c-0.553,0-1,0.447-1,1s0.447,1,1,1h2c0.553,0,1-0.447,1-1S35.555,52,35.003,52z"/><path fill="#000000" d="M35.003,36h-2c-0.553,0-1,0.447-1,1s0.447,1,1,1h2c0.553,0,1-0.447,1-1S35.555,36,35.003,36z"/><path fill="#000000" d="M61.207,2.793C61.012,2.598,60.754,2.5,60.5,2.5s-0.512,0.098-0.707,0.293l-6.77,6.77 c-2.452-3.082-5.395-4.702-8.334-4.911c-4.729-0.342-8.494,3.039-9.546,8.461C34.773,13.04,34.391,13,34,13 s-0.773,0.04-1.144,0.112c-1.051-5.422-4.803-8.804-9.546-8.461C16.188,5.157,9,13.811,9,32c0,0.553,0.447,1,1,1s1-0.447,1-1 c0-16.812,6.455-24.928,12.453-25.354c3.752-0.27,6.739,2.614,7.503,7.192c-1.687,0.998-2.84,2.795-2.941,4.868 c-2.15,1.372-3.634,3.457-3.948,5.843l-2.626-1.05c0.801-1.669,1.79-5.059-0.583-9.014c-0.284-0.474-0.897-0.628-1.372-0.343 c-0.474,0.284-0.627,0.898-0.343,1.372c2.6,4.332,0.159,7.746,0.058,7.886c-0.187,0.248-0.247,0.57-0.163,0.869 c0.084,0.3,0.303,0.543,0.592,0.659l4.487,1.795c0.137,0.804,0.404,1.571,0.788,2.287c0,0-0.406,1.69-0.514,2.567l-4.942-2.471 c-0.267-0.133-0.576-0.141-0.85-0.021c-0.272,0.119-0.477,0.354-0.559,0.64c-0.02,0.066-1.931,6.604-5.486,8.381 c-0.494,0.247-0.694,0.848-0.447,1.342C12.281,39.798,12.634,40,13.001,40c0.15,0,0.303-0.034,0.446-0.105 c3.352-1.676,5.358-6.313,6.14-8.483l4.587,2.294C24.062,35.11,24,36.543,24,38c0,0.195,0.01,0.381,0.012,0.574l-3.838,3.838 c-0.06,0.046-0.11,0.099-0.158,0.158L2.793,59.793c-0.391,0.391-0.391,1.023,0,1.414C2.988,61.402,3.242,61.5,3.5,61.5 s0.512-0.098,0.707-0.293L15.914,49.5l1.569-1.566c0.142,5.392-0.645,9.418-2.264,11.441c-0.345,0.432-0.274,1.061,0.156,1.406 C15.56,60.929,15.78,61,15.999,61c0.294,0,0.584-0.129,0.782-0.375c2.69-3.363,2.915-9.775,2.62-14.613l4.712-4.712 c0.05,0.793,0.118,1.567,0.204,2.32l0.289,2.299c0.012,0.005,0.024,0.003,0.036,0.008C26.011,53.893,29.478,59,34,59 s7.989-5.107,9.357-13.073c0.012-0.005,0.025-0.003,0.036-0.008l5.398-2.313c-0.401,3.824-0.924,12.831,2.427,17.02 C51.417,60.872,51.707,61,52.001,61c0.219,0,0.439-0.071,0.624-0.219c0.431-0.346,0.501-0.975,0.156-1.406 c-3.679-4.598-1.812-17.098-1.793-17.223c0.056-0.359-0.089-0.721-0.376-0.942c-0.288-0.224-0.674-0.272-1.006-0.129l-5.924,2.539 C43.884,41.851,44,39.98,44,38c0-1.456-0.059-2.89-0.17-4.297l4.583-2.292c0.781,2.17,2.788,6.808,6.14,8.483 C54.696,39.966,54.849,40,54.999,40c0.367,0,0.72-0.202,0.896-0.553c0.247-0.494,0.047-1.095-0.447-1.342 c-3.556-1.777-5.467-8.314-5.486-8.381c-0.082-0.285-0.286-0.521-0.559-0.64c-0.273-0.12-0.584-0.112-0.85,0.021l-4.938,2.469 c-0.093-0.761-0.2-1.514-0.327-2.253c-0.029-0.166-0.076-0.299-0.131-0.418c0.353-0.684,0.596-1.416,0.727-2.18l4.487-1.795 c0.289-0.116,0.508-0.359,0.592-0.659c0.084-0.299,0.023-0.621-0.163-0.869c-0.019-0.024-1.822-2.484-0.843-5.855 c0.009-0.032,0.002-0.064,0.008-0.096l2.535-2.535l2.22-2.22C55.243,16.875,57,23.249,57,32c0,0.553,0.447,1,1,1s1-0.447,1-1 c0-9.439-1.944-16.288-4.801-20.785l7.008-7.008C61.598,3.816,61.598,3.184,61.207,2.793z M34,15c1.72,0,3.177,1.097,3.741,2.623 C36.584,17.224,35.323,17,34,17s-2.584,0.224-3.741,0.623C30.823,16.097,32.28,15,34,15z M34,19c2.782,0,5.235,1.161,6.668,2.917 l-9.619,9.619C28.096,30.58,26,28.237,26,25.5C26,21.916,29.589,19,34,19z M29.504,33.082l-3.474,3.474 c0.051-1.879,0.195-3.713,0.441-5.48C27.317,31.9,28.345,32.583,29.504,33.082z M34,57c-3.729,0-7.672-6.172-7.971-17.615 l5.63-5.63C32.411,33.909,33.193,34,34,34c3.002,0,5.692-1.136,7.527-2.922C41.835,33.299,42,35.617,42,38 C42,50.341,37.878,57,34,57z M34,32c-0.19,0-0.376-0.013-0.563-0.023l8.252-8.252C41.887,24.29,42,24.884,42,25.5 C42,29.084,38.411,32,34,32z M43.933,24.549c-0.109-0.824-0.352-1.614-0.719-2.35l2.461-2.461c0.033,1.6,0.479,2.908,0.886,3.76 L43.933,24.549z M42.077,20.509c-0.588-0.686-1.293-1.293-2.092-1.802c-0.101-2.073-1.255-3.87-2.941-4.868 c0.764-4.578,3.754-7.464,7.503-7.192c2.422,0.172,4.911,1.621,7.027,4.366L42.077,20.509z"/></svg>