<svg xmlns="http://www.w3.org/2000/svg" viewBox="0 0 64 64"><path fill="#ed7899" d="M32,59.087c0.768,0.006,1.538-0.196,2.22-0.609c4.26-2.56,13.9-8.76,20.84-16.39 c4.55-4.97,7.94-10.55,7.94-16.11c0-9.33-7.56-16.89-16.89-16.89c-4.619,0-8.811,1.863-11.854,4.875 c-0.042,0.041-1.131,1.125-2.256,1.125s-2.214-1.084-2.256-1.125c-3.043-3.012-7.235-4.875-11.854-4.875 C8.56,9.088,1,16.648,1,25.978c0,5.56,3.39,11.14,7.94,16.11c6.94,7.63,16.58,13.83,20.84,16.39 C30.462,58.89,31.232,59.093,32,59.087L32,59.087z"/><path fill="#f283a5" d="M56.874,12.858c4.066,4.418,6.087,8.836,6.045,13.254c-0.013,1.371-1.134,2.476-2.505,2.476l0,0 c-1.413,0-2.498-1.171-2.494-2.584c0-0.009,0-0.018,0-0.026c0-6.56-5.34-11.89-11.89-11.89c-0.932,0-1.857,0.113-2.751,0.328 c-1.098,0.264-2.234-0.246-2.77-1.24l-0.004-0.008c-0.78-1.448,0.028-3.239,1.628-3.621c4.397-1.049,9.453-0.386,14.262,2.895 C56.568,12.56,56.732,12.704,56.874,12.858z"/><path fill="#e0678f" d="M31.994,58.804c-1.071,0-2.155-0.287-3.134-0.888c-3.762-2.311-13.236-8.48-19.933-15.842 c-0.612-0.668-1.219-1.377-1.896-2.216c-2.082-2.578-1.68-6.356,0.898-8.438c2.579-2.082,6.356-1.679,8.438,0.898 c0.518,0.641,0.97,1.17,1.424,1.666c5.834,6.415,14.754,12.112,17.35,13.706c2.824,1.734,3.707,5.429,1.973,8.253 C35.98,57.787,34.011,58.804,31.994,58.804z"/><path fill="#000000" d="M32.032,60.087c-0.021,0-0.043,0-0.064,0c-0.954,0-1.889-0.26-2.705-0.754 c-4.93-2.961-14.224-9.054-21.063-16.572C2.76,36.819,0,31.172,0,25.978c0-9.865,8.025-17.89,17.89-17.89 c4.733,0,9.193,1.834,12.558,5.164c0.275,0.275,1.011,0.836,1.552,0.836s1.277-0.561,1.549-0.832 c3.368-3.334,7.828-5.168,12.561-5.168c9.865,0,17.89,8.025,17.89,17.89c0,5.194-2.76,10.842-8.203,16.786 c-6.836,7.516-16.13,13.608-21.063,16.571C33.921,59.827,32.986,60.087,32.032,60.087z M32,58.087h0.008 c0.619-0.005,1.185-0.156,1.694-0.465c3.897-2.342,13.703-8.604,20.617-16.207C59.417,35.849,62,30.655,62,25.978 c0-8.762-7.128-15.89-15.89-15.89c-4.203,0-8.163,1.629-11.151,4.586c-0.232,0.233-1.488,1.414-2.959,1.414 s-2.727-1.181-2.963-1.418c-2.984-2.953-6.944-4.582-11.147-4.582C9.128,10.088,2,17.216,2,25.978 c0,4.678,2.583,9.871,7.678,15.435C16.595,49.018,26.4,55.28,30.295,57.62c0.514,0.311,1.067,0.467,1.697,0.467H32z"/><path fill="#000000" d="M49.865,13.672c-1.246-0.388-2.546-0.584-3.865-0.584c-0.552,0-1,0.447-1,1s0.448,1,1,1 c1.117,0,2.218,0.166,3.271,0.494c0.099,0.03,0.199,0.045,0.297,0.045c0.426,0,0.821-0.274,0.955-0.703 C50.687,14.397,50.393,13.836,49.865,13.672z M56.675,23.422c0.113,0.455,0.521,0.759,0.969,0.759 c0.08,0,0.162-0.01,0.243-0.029c0.536-0.134,0.862-0.677,0.729-1.212c-0.74-2.974-2.523-5.603-5.021-7.404 c-0.448-0.32-1.073-0.22-1.396,0.227c-0.323,0.448-0.222,1.073,0.226,1.396C54.54,18.683,56.049,20.907,56.675,23.422z M30.967,54.299c-0.174,0-0.35-0.045-0.511-0.141c-0.475-0.283-0.63-0.896-0.348-1.371l1.023-1.718 c0.283-0.474,0.896-0.63,1.371-0.348c0.475,0.283,0.63,0.896,0.348,1.371l-1.023,1.718 C31.64,54.125,31.308,54.299,30.967,54.299z M26.674,51.647c-0.195,0-0.392-0.057-0.565-0.176 c-0.456-0.313-0.571-0.935-0.258-1.39l1.132-1.649c0.313-0.455,0.935-0.572,1.39-0.258c0.456,0.313,0.571,0.935,0.258,1.39 L27.5,51.213C27.306,51.495,26.993,51.647,26.674,51.647z M22.564,48.687c-0.216,0-0.435-0.07-0.618-0.214 c-0.434-0.341-0.509-0.97-0.168-1.404l1.236-1.572c0.342-0.435,0.971-0.51,1.404-0.168c0.434,0.341,0.509,0.97,0.168,1.404 l-1.236,1.572C23.153,48.556,22.86,48.687,22.564,48.687z M18.635,45.495c-0.238,0-0.476-0.084-0.667-0.255 c-0.411-0.369-0.446-1.001-0.077-1.412l1.335-1.489c0.368-0.412,1-0.446,1.412-0.077c0.411,0.369,0.446,1.001,0.077,1.412 l-1.335,1.489C19.182,45.382,18.909,45.495,18.635,45.495z M14.899,42.067c-0.259,0-0.518-0.1-0.714-0.3 c-0.386-0.395-0.38-1.028,0.014-1.415l1.428-1.4c0.395-0.386,1.027-0.38,1.415,0.014c0.386,0.395,0.38,1.028-0.014,1.415 l-1.428,1.4C15.404,41.972,15.151,42.067,14.899,42.067z M11.438,38.348c-0.281,0-0.561-0.118-0.758-0.348 c-0.36-0.418-0.313-1.05,0.105-1.41l1.516-1.305c0.419-0.36,1.05-0.313,1.41,0.105s0.313,1.05-0.105,1.41l-1.516,1.305 C11.9,38.269,11.668,38.348,11.438,38.348z"/><path fill="#f9dd8f" d="M28.5,21c-1.385,0-2.5,1.494-2.5,3.319s1.115,3.319,2.5,3.319s2.5-1.494,2.5-3.319 S29.885,21,28.5,21z M37.009,35.694c-0.787-0.531-1.6-1.081-1.973-2.138c-0.72-2.053-1.265-2.497-2.537-2.556 c-1.272,0.059-1.816,0.502-2.537,2.556c-0.373,1.057-1.186,1.607-1.973,2.138C27.011,36.355,26,37.039,26,38.588 c0,1.645,1.628,3.655,3.529,3.655c0.813,0,1.424-0.169,1.963-0.321c0.355-0.097,0.674-0.171,1.008-0.201 c0.333,0.03,0.653,0.104,1.008,0.201c0.54,0.152,1.151,0.321,1.964,0.321c1.9,0,3.529-2.01,3.529-3.655 C39,37.039,37.989,36.355,37.009,35.694z M22.5,27.638c-1.385,0-2.5,1.494-2.5,3.319s1.115,3.319,2.5,3.319 s2.5-1.494,2.5-3.319S23.885,27.638,22.5,27.638z M36.5,21c-1.385,0-2.5,1.494-2.5,3.319s1.114,3.319,2.5,3.319 c1.385,0,2.5-1.494,2.5-3.319S37.886,21,36.5,21z M42.5,27.701c-1.385,0-2.5,1.494-2.5,3.319c0,1.826,1.114,3.319,2.5,3.319 S45,32.846,45,31.02C45,29.194,43.886,27.701,42.5,27.701z"/><path fill="#000000" d="M35.471,43.243c-0.963,0-1.699-0.207-2.235-0.358c-0.309-0.086-0.532-0.134-0.736-0.158 c-0.205,0.024-0.428,0.073-0.743,0.159c-0.529,0.149-1.262,0.357-2.228,0.357c-2.509,0-4.529-2.547-4.529-4.655 c0-2.08,1.404-3.029,2.43-3.722c0.712-0.48,1.326-0.896,1.59-1.644c0.725-2.064,1.455-3.131,3.434-3.222 c2.071,0.091,2.801,1.157,3.526,3.224c0.263,0.746,0.877,1.161,1.589,1.641l0,0C38.595,35.558,40,36.507,40,38.588 C40,40.696,37.979,43.243,35.471,43.243z M32.5,40.717l0.09,0.008c0.442,0.04,0.846,0.141,1.182,0.233 c0.501,0.141,1.012,0.285,1.699,0.285c1.303,0,2.529-1.496,2.529-2.655c0-0.971-0.56-1.396-1.55-2.064 c-0.834-0.563-1.873-1.265-2.356-2.635c-0.647-1.844-0.938-1.857-1.64-1.89c-0.61,0.032-0.901,0.046-1.548,1.888 c-0.484,1.372-1.522,2.073-2.356,2.637C27.56,37.191,27,37.617,27,38.588c0,1.159,1.227,2.655,2.529,2.655 c0.688,0,1.22-0.15,1.69-0.283c0.344-0.095,0.748-0.195,1.189-0.235L32.5,40.717z M42.5,35.339c-1.93,0-3.5-1.938-3.5-4.318 c0-2.382,1.57-4.319,3.5-4.319s3.5,1.938,3.5,4.319C46,33.401,44.43,35.339,42.5,35.339z M42.5,28.701 c-0.799,0-1.5,1.084-1.5,2.319s0.701,2.318,1.5,2.318s1.5-1.083,1.5-2.318S43.299,28.701,42.5,28.701z M22.5,35.277 c-1.93,0-3.5-1.938-3.5-4.319s1.57-4.319,3.5-4.319s3.5,1.938,3.5,4.319S24.43,35.277,22.5,35.277z M22.5,28.639 c-0.799,0-1.5,1.084-1.5,2.319s0.701,2.319,1.5,2.319s1.5-1.084,1.5-2.319S23.299,28.639,22.5,28.639z M36.5,28.639 c-1.93,0-3.5-1.938-3.5-4.319S34.57,20,36.5,20s3.5,1.938,3.5,4.319S38.43,28.639,36.5,28.639z M36.5,22 c-0.799,0-1.5,1.084-1.5,2.319s0.701,2.319,1.5,2.319s1.5-1.084,1.5-2.319S37.299,22,36.5,22z M28.5,28.639 c-1.93,0-3.5-1.938-3.5-4.319S26.57,20,28.5,20s3.5,1.938,3.5,4.319S30.43,28.639,28.5,28.639z M28.5,22 c-0.799,0-1.5,1.084-1.5,2.319s0.701,2.319,1.5,2.319s1.5-1.084,1.5-2.319S29.299,22,28.5,22z"/></svg>