<svg xmlns="http://www.w3.org/2000/svg" data-name="Layer 1" viewBox="0 0 64 64"><path fill="#faefde" d="M5 27H57V61H5z"/><path fill="#efd8be" d="M5 45H56V61H5z"/><path fill="#ed7899" d="M57 23L5 23 9 17 53 17 57 23z"/><rect width="56" height="4" x="3" y="23" fill="#f9dd8f" rx="2" ry="2"/><path fill="#faefde" d="M21 9H41V29H21z"/><path fill="#ed7899" d="M37 17L33 17 33 13 29 13 29 17 25 17 25 21 29 21 29 25 33 25 33 21 37 21 37 17z"/><path fill="#bbdef9" d="M25 49H37V61H25z"/><path fill="#000000" d="M13 34H11a1 1 0 0 0 0 2h2a1 1 0 0 0 0-2zM19 34H17a1 1 0 0 0 0 2h2a1 1 0 0 0 0-2zM29 34H27a1 1 0 0 0 0 2h2a1 1 0 0 0 0-2zM35 34H33a1 1 0 0 0 0 2h2a1 1 0 0 0 0-2zM13 38H11a1 1 0 0 0 0 2h2a1 1 0 0 0 0-2zM19 38H17a1 1 0 0 0 0 2h2a1 1 0 0 0 0-2zM29 38H27a1 1 0 0 0 0 2h2a1 1 0 0 0 0-2zM35 38H33a1 1 0 0 0 0 2h2a1 1 0 0 0 0-2zM13 54H11a1 1 0 0 0 0 2h2a1 1 0 0 0 0-2zM13 50H11a1 1 0 0 0 0 2h2a1 1 0 0 0 0-2zM19 54H17a1 1 0 0 0 0 2h2a1 1 0 0 0 0-2zM19 50H17a1 1 0 0 0 0 2h2a1 1 0 0 0 0-2zM45 34H43a1 1 0 0 0 0 2h2a1 1 0 0 0 0-2zM49 36h2a1 1 0 0 0 0-2H49a1 1 0 0 0 0 2zM45 38H43a1 1 0 0 0 0 2h2a1 1 0 0 0 0-2zM49 40h2a1 1 0 0 0 0-2H49a1 1 0 0 0 0 2zM45 54H43a1 1 0 0 0 0 2h2a1 1 0 0 0 0-2zM45 50H43a1 1 0 0 0 0 2h2a1 1 0 0 0 0-2zM51 54H49a1 1 0 0 0 0 2h2a1 1 0 0 0 0-2zM51 50H49a1 1 0 0 0 0 2h2a1 1 0 0 0 0-2z"/><path fill="#000000" d="M61,60H58V27.82a3,3,0,0,0-.43-5.76l-3.44-5.17A2,2,0,0,0,52.46,16H42V11a3,3,0,0,0-3-3H23a3,3,0,0,0-3,3v5H16V14.06a1,1,0,0,0-2,0V16H12V9.06a1,1,0,0,0-2,0V16H9.54a2,2,0,0,0-1.66.89L4.43,22.06A3,3,0,0,0,4,27.82V60H1a1,1,0,0,0,0,2H61a1,1,0,0,0,0-2ZM57,26H42V24H57a1,1,0,0,1,0,2Zm-4.54-8,2.67,4H42V18ZM22,11a1,1,0,0,1,1-1H39a1,1,0,0,1,1,1V27a1,1,0,0,1-1,1H23a1,1,0,0,1-1-1ZM5,26a1,1,0,0,1,0-2H20v2Zm4.54-8H10v1.06a1,1,0,0,0,2,0V18h2v1.06a1,1,0,1,0,2,0V18h4v4H6.87ZM36,60H32V50h4Zm-6,0H26V50h4Zm8,0V50a2,2,0,0,0-2-2H26a2,2,0,0,0-2,2V60H6V46H46a1,1,0,0,0,0-2H6V28H20.18A3,3,0,0,0,23,30H39a3,3,0,0,0,2.82-2H56V60Z"/><path fill="#000000" d="M53 44H49a1 1 0 0 0 0 2h4a1 1 0 0 0 0-2zM26 22h2v2a2 2 0 0 0 2 2h2a2 2 0 0 0 2-2V22h2a2 2 0 0 0 2-2V18a2 2 0 0 0-2-2H34V14a2 2 0 0 0-2-2H30a2 2 0 0 0-2 2v2H26a2 2 0 0 0-2 2v2A2 2 0 0 0 26 22zm0-4h2a2 2 0 0 0 2-2V14h2v2a2 2 0 0 0 2 2h2v2H34a2 2 0 0 0-2 2v2H30V22a2 2 0 0 0-2-2H26z"/></svg>