<svg xmlns="http://www.w3.org/2000/svg" viewBox="0 0 64 64"><path fill="#c2cde7" d="M58,55H6c-1.657,0-3-1.343-3-3V18c0-1.657,1.343-3,3-3h14l5-6h15l4,6h14c1.657,0,3,1.343,3,3v34	C61,53.657,59.657,55,58,55z"/><path fill="#d6dff2" d="M45,16H19l6-7h14L45,16z"/><path fill="#a8b7d1" d="M60,55L60,55c-1.657,0-3-1.343-3-3V18c0-1.657,1.343-3,3-3l0,0V55z"/><path fill="#d6dff2" d="M4,55L4,55c1.657,0,3-1.343,3-3V18c0-1.657-1.343-3-3-3l0,0V55z"/><path fill="#acb7d0" d="M10,12h6v3h-6V12z M51,12h4v3h-4V12z"/><path fill="#becde8" d="M3,52L3,52c-0.552,0-1-0.448-1-1V25c0-0.552,0.448-1,1-1l0,0c0.552,0,1,0.448,1,1v26	C4,51.552,3.552,52,3,52z"/><path fill="#000000" d="M59,14h-3v-1c0-1.103-0.897-2-2-2h-2c-1.103,0-2,0.897-2,2v1h-4.936c-0.334,0-0.644-0.165-0.83-0.441	l-2.256-3.351C41.049,8.825,39.498,8,37.831,8h-11.69c-1.675,0-3.23,0.833-4.16,2.227l-2.219,3.328	C19.576,13.833,19.265,14,18.93,14H18v-2c0-1.103-0.897-2-2-2h-6c-1.103,0-2,0.897-2,2v2H5c-1.654,0-3,1.346-3,3v36	c0,1.654,1.346,3,3,3h54c1.654,0,3-1.346,3-3V17C62,15.346,60.654,14,59,14z M52,13h2v1h-2V13z M10,12h6v2h-6V12z M60,53	c0,0.551-0.448,1-1,1H5c-0.552,0-1-0.449-1-1V17c0-0.551,0.448-1,1-1h3h10h0.93c1.005,0,1.938-0.5,2.496-1.336l2.219-3.328	C24.202,10.5,25.136,10,26.141,10h11.69c1,0,1.931,0.495,2.489,1.325l2.255,3.351C43.134,15.505,44.063,16,45.064,16H50h6h3	c0.552,0,1,0.449,1,1V53z"/><path fill="#ffeb9b" d="M32,21c-7.732,0-14,6.268-14,14s6.268,14,14,14s14-6.268,14-14S39.732,21,32,21z"/><path fill="#bbdef9" d="M32,25c-5.523,0-10,4.477-10,10s4.477,10,10,10s10-4.477,10-10S37.523,25,32,25z"/><path fill="#d2edff" d="M32,30c-2.761,0-5,2.239-5,5s2.239,5,5,5s5-2.239,5-5S34.761,30,32,30z"/><path fill="#f3f3f3" d="M29,29c-1.657,0-3,1.343-3,3c0,1.657,1.343,3,3,3s3-1.343,3-3C32,30.343,30.657,29,29,29z M35.5,37 c-0.828,0-1.5,0.672-1.5,1.5s0.672,1.5,1.5,1.5s1.5-0.672,1.5-1.5S36.328,37,35.5,37z"/><path fill="#000000" d="M32,46c-6.065,0-11-4.935-11-11s4.935-11,11-11s11,4.935,11,11S38.065,46,32,46z M32,26 c-4.962,0-9,4.037-9,9s4.038,9,9,9s9-4.037,9-9S36.962,26,32,26z"/><path fill="#000000" d="M12,18c-0.6,0-1,0.447-1,1v2c0,0.553,0.4,1,1,1s1-0.447,1-1v-2C13,18.447,12.6,18,12,18z"/><path fill="#000000" d="M7,18c-0.6,0-1,0.447-1,1v2c0,0.553,0.4,1,1,1s1-0.447,1-1v-2C8,18.447,7.6,18,7,18z"/><path fill="#000000" d="M18,21v-2c0-0.553-0.4-1-1-1s-1,0.447-1,1v2c0,0.553,0.4,1,1,1S18,21.552,18,21z"/><path fill="#000000" d="M22,22c0.6,0,1-0.447,1-1v-2c0-0.553-0.4-1-1-1s-1,0.447-1,1v2C21,21.552,21.4,22,22,22z"/><path fill="#000000" d="M42,22c0.6,0,1-0.447,1-1v-2c0-0.553-0.4-1-1-1s-1,0.447-1,1v2C41,21.552,41.4,22,42,22z"/><path fill="#000000" d="M32,22c0.6,0,1-0.447,1-1v-2c0-0.553-0.4-1-1-1s-1,0.447-1,1v2C31,21.552,31.4,22,32,22z"/><path fill="#000000" d="M27,22c0.6,0,1-0.447,1-1v-2c0-0.553-0.4-1-1-1s-1,0.447-1,1v2C26,21.552,26.4,22,27,22z"/><path fill="#000000" d="M37,22c0.6,0,1-0.447,1-1v-2c0-0.553-0.4-1-1-1s-1,0.447-1,1v2C36,21.552,36.4,22,37,22z"/><path fill="#000000" d="M47,18c-0.6,0-1,0.447-1,1v2c0,0.553,0.4,1,1,1s1-0.447,1-1v-2C48,18.447,47.6,18,47,18z"/><path fill="#000000" d="M57,18c-0.6,0-1,0.447-1,1v2c0,0.553,0.4,1,1,1s1-0.447,1-1v-2C58,18.447,57.6,18,57,18z"/><path fill="#000000" d="M52,18c-0.6,0-1,0.447-1,1v2c0,0.553,0.4,1,1,1s1-0.447,1-1v-2C53,18.447,52.6,18,52,18z"/><path fill="#000000" d="M32,50c-8.271,0-15-6.729-15-15s6.729-15,15-15s15,6.729,15,15S40.271,50,32,50z M32,22	c-7.168,0-13,5.832-13,13s5.832,13,13,13s13-5.832,13-13S39.168,22,32,22z"/></svg>