<svg xmlns="http://www.w3.org/2000/svg" data-name="Layer 1" viewBox="0 0 64 64"><path fill="#c5e4fa" d="M45 53L1 53 1 13 55 13 55 43 45 53z"/><path fill="#e3f2ff" d="M34.11 53L55 32.11 55 14 52.21 14 13.21 53 34.11 53zM1.29 53L9.64 53 48.64 14 40.29 14 1.29 53zM1 49.71L36.71 14 32.75 14 1 45.75 1 49.71z"/><rect width="54" height="6" x="1" y="7" fill="#acb7d0" rx="2" ry="2"/><path fill="#f9e3ae" d="M36.45 34.55H50.59V54.41H36.45z" transform="rotate(45 43.526 44.48)"/><path fill="#f6d397" d="M40.88 36.5H50.07V55.53H40.88z" transform="rotate(45 45.479 46.018)"/><path fill="#ed7899" d="M52.22,27.88h8.1a3,3,0,0,1,3,3v4.77a0,0,0,0,1,0,0H49.22a0,0,0,0,1,0,0V30.88a3,3,0,0,1,3-3Z" transform="rotate(45 56.275 31.76)"/><path fill="#c2cde7" d="M44.91 33.87H59.05V38.169999999999995H44.91z" transform="rotate(45 51.971 36.017)"/><path fill="#faefde" d="M30 55.64L30.79 47 36.29 47.79 37.07 50.14 39.36 51.32 41 57.21 31.57 57.21 30 55.64z"/><path fill="#000000" d="M16 46a1 1 0 0 0-1 1v2a1 1 0 0 0 2 0V47A1 1 0 0 0 16 46zM11 46a1 1 0 0 0-1 1v2a1 1 0 0 0 2 0V47A1 1 0 0 0 11 46zM6 46a1 1 0 0 0-1 1v2a1 1 0 0 0 2 0V47A1 1 0 0 0 6 46zM21 46a1 1 0 0 0-1 1v2a1 1 0 0 0 2 0V47A1 1 0 0 0 21 46zM26 46a1 1 0 0 0-1 1v2a1 1 0 0 0 2 0V47A1 1 0 0 0 26 46zM19 22h4a1 1 0 0 0 0-2H19a1 1 0 0 0 0 2zM27 22H43a1 1 0 0 0 0-2H27a1 1 0 0 0 0 2zM19 30H43a1 1 0 0 0 0-2H19a1 1 0 0 0 0 2zM32 37a1 1 0 0 0-1-1H19a1 1 0 0 0 0 2H31A1 1 0 0 0 32 37zM10.29 23.71a1 1 0 0 0 1.41 0l4-4a1 1 0 0 0-1.41-1.41L11 21.59 9.71 20.29a1 1 0 0 0-1.41 1.41zM10.29 31.71a1 1 0 0 0 1.41 0l4-4a1 1 0 0 0-1.41-1.41L11 29.59 9.71 28.29a1 1 0 0 0-1.41 1.41zM11 40a1 1 0 0 0 .71-.29l4-4a1 1 0 0 0-1.41-1.41L11 37.59 9.71 36.29a1 1 0 0 0-1.41 1.41l2 2A1 1 0 0 0 11 40z"/><path fill="#000000" d="M59.71,39.61h0l2.83-2.83a5,5,0,0,0,0-7.07l-4.24-4.24A4.94,4.94,0,0,0,56,24.18V9a3,3,0,0,0-3-3H3A3,3,0,0,0,0,9V51a3,3,0,0,0,3,3H29.4l-.58,4a1,1,0,0,0,1,1.14H30l4.92-.7,6.39-.68a1,1,0,0,0,.6-.29Zm-3.78,1-8.48-8.48,1.65-1.66,8.48,8.48Zm.95-13.68,4.24,4.24a3,3,0,0,1,0,4.24L59,37.49,50.51,29l.05-.05h0l2.07-2.07A3,3,0,0,1,56.88,26.88ZM2,9A1,1,0,0,1,3,8H53a1,1,0,0,1,1,1v3H2ZM30.27,46.78,29.66,52H3a1,1,0,0,1-1-1V14H54V24.08a5,5,0,0,0-2.78,1.39l-2.83,2.83h0l-3,3,0,0,0,0L30.55,46.19A1,1,0,0,0,30.27,46.78Zm4.87,9.65-3.56-3.56L32.14,48l4.46.47v1.93a1,1,0,0,0,1,1h1.93L40,55.92Zm6.73-1.76-.45-4.37a1,1,0,0,0-1-.9H38.59V48L44,42.63a1,1,0,0,0-1.41-1.41l-5.32,5.32-3.79-.4L46,33.49,54.52,42l-.07.07a1,1,0,0,0-.27.27Z"/></svg>