<svg xmlns="http://www.w3.org/2000/svg" data-name="Layer 1" viewBox="0 0 64 64"><path fill="#faefde" d="M55 21.18L34 9 13 21.18 13 40 7.5 40 7.5 60.5 39.5 60.5 39.5 55 55 55 55 21.18z"/><path fill="#efd8be" d="M39,43.7,22.95,35,7,43.64H7a3,3,0,0,0,4.38,2.61L22.95,40l11.67,6.32A3,3,0,0,0,39,43.7Z"/><path fill="#cda1a7" d="M13 51H21V61H13z"/><path fill="#f9dd8f" d="M39 45H55V55H39z"/><path fill="#efd8be" d="M34,7,13,18.37v1.21a3,3,0,0,0,4.43,2.64l16.57-9,16.57,9A3,3,0,0,0,55,19.59V18.37Z"/><path fill="#ed7899" d="M34 9.25L59 22.79 59 16.54 34 3 9 16.54 9 22.79 34 9.25zM22.95 35.99L42.9 46.79 42.9 41.8 22.95 31 3 41.8 3 46.79 22.95 35.99z"/><path fill="#000000" d="M56,22.3l2.52,1.37A1,1,0,0,0,60,22.79V16.54a1,1,0,0,0-.52-.88l-25-13.54a1,1,0,0,0-1,0l-25,13.54a1,1,0,0,0-.52.88v6.25a1,1,0,0,0,1.48.88L12,22.3V35.79L2.52,40.93A1,1,0,0,0,2,41.8v5a1,1,0,0,0,1.48.88L6,46.3V60H3a1,1,0,0,0,0,2H43a1,1,0,0,0,0-2H40V56H59a1,1,0,0,0,0-2H56ZM10,17.14l24-13,24,13v4L34.48,8.37a1,1,0,0,0-1,0L10,21.11ZM4,42.4,22.95,32.14,41.89,42.4v2.71l-18.47-10a1,1,0,0,0-1,0L4,45.11ZM14,52h6v8H14Zm6-2H14a2,2,0,0,0-2,2v8s0,0,0,0H8V45.22l14.95-8.1L38,45.28V60H22s0,0,0,0V52A2,2,0,0,0,20,50Zm20,4V46.36l2.42,1.31a1,1,0,0,0,1.48-.88v-5a1,1,0,0,0-.52-.88L38,38h1a1,1,0,0,0,0-2H37a1,1,0,0,0-1,.94L30.58,34H31a1,1,0,0,0,0-2H29a1,1,0,0,0-.93.64l-4.65-2.52a1,1,0,0,0-1,0L14,34.71V21.22L34,10.39,54,21.22V44H47a1,1,0,0,0,0,2h7v8Z"/><path fill="#000000" d="M23 22H21a1 1 0 0 0 0 2h2a1 1 0 0 0 0-2zM23 26H21a1 1 0 0 0 0 2h2a1 1 0 0 0 0-2zM31 22H29a1 1 0 0 0 0 2h2a1 1 0 0 0 0-2zM31 26H29a1 1 0 0 0 0 2h2a1 1 0 0 0 0-2zM39 32H37a1 1 0 0 0 0 2h2a1 1 0 0 0 0-2zM39 22H37a1 1 0 0 0 0 2h2a1 1 0 0 0 0-2zM39 26H37a1 1 0 0 0 0 2h2a1 1 0 0 0 0-2zM45 34h2a1 1 0 0 0 0-2H45a1 1 0 0 0 0 2zM48 37a1 1 0 0 0-1-1H45a1 1 0 0 0 0 2h2A1 1 0 0 0 48 37zM45 24h2a1 1 0 0 0 0-2H45a1 1 0 0 0 0 2zM45 28h2a1 1 0 0 0 0-2H45a1 1 0 0 0 0 2zM25 56h2a1 1 0 0 0 0-2H25a1 1 0 0 0 0 2zM25 48h2a1 1 0 0 0 0-2H25a1 1 0 0 0 0 2zM25 52h2a1 1 0 0 0 0-2H25a1 1 0 0 0 0 2zM31 56h2a1 1 0 0 0 0-2H31a1 1 0 0 0 0 2zM31 48h2a1 1 0 0 0 0-2H31a1 1 0 0 0 0 2zM15 46H13a1 1 0 0 0 0 2h2a1 1 0 0 0 0-2zM21 46H19a1 1 0 0 0 0 2h2a1 1 0 0 0 0-2zM31 52h2a1 1 0 0 0 0-2H31a1 1 0 0 0 0 2z"/></svg>