<svg xmlns="http://www.w3.org/2000/svg" viewBox="0 0 64 64"><path fill="#f9dd8f" d="M21 55l-2.5 3-.7.84C16.66 60.21 14.97 61 13.19 61H10c-.55 0-1-.45-1-1v-1.18c0-.48.34-.89.8-.98L10 57.8l2.76-.55c.76-.15 1.36-.73 1.55-1.48L15 53 21 55zM55 58.82V60c0 .55-.45 1-1 1h-3.19c-1.78 0-3.47-.79-4.61-2.16L45.5 58 43 55l6-2 .69 2.77c.19.75.79 1.33 1.55 1.48l2.96.59c.14.03.27.08.38.16C54.84 58.19 55 58.49 55 58.82z"/><path fill="#f7cc8f" d="M15 53l6 2 0 0c-1.557 1.868-3.961 2.809-6.372 2.494L12.76 57.25c.76-.15 1.36-.73 1.55-1.48L15 53zM54.58 58h-5.175c-2.474 0-4.821-1.099-6.405-3l0 0 6-2 .69 2.77c.187.752.792 1.329 1.552 1.481l2.958.59C54.34 57.87 54.47 57.92 54.58 58z"/><path fill="#c2cde7" d="M44.647,55H19.353c-5.948,0-10.999-4.357-11.87-10.241L5,28h54l-2.483,16.759 C55.646,50.643,50.595,55,44.647,55z"/><path fill="#ced8ed" d="M18,30l2.483,14.759C22,52,26.405,55,32.353,55h-6c-5.948,0-10.999-4.357-11.871-10.241L12,29L18,30z"/><path fill="#b5c4e0" d="M47,30l-2.483,14.759C43.646,50.643,38.595,55,32.647,55h12c5.948,0,10.999-4.358,11.871-10.242 L59,28L47,30z"/><path fill="#f9dd8f" d="M61.61,26.97C53.52,29.57,42.97,31,31.92,31c-4.78,0-9.48-0.27-13.92-0.79 c-5.74-0.66-11.06-1.74-15.61-3.19c-1.05-0.33-1.63-1.46-1.3-2.51c0.27-0.83,1.04-1.39,1.91-1.39c0.21,0,0.41,0.03,0.61,0.09 c4.2,1.33,9.09,2.34,14.39,2.98C22.42,26.72,27.12,27,31.92,27c10.65,0,20.76-1.36,28.47-3.84c0.2-0.06,0.4-0.09,0.61-0.09 c0.87,0,1.64,0.55,1.9,1.39C63.24,25.5,62.66,26.63,61.61,26.97z"/><path fill="#ffeb9b" d="M17.636,28.676L18,30.21c-5.74-0.66-11.06-1.74-15.61-3.19c-1.449-0.455-2.003-2.435-0.504-3.625 c0.076-0.06,0.173-0.109,0.266-0.137c0.561-0.167,1.009-0.183,1.458-0.049c3.467,1.098,6.723,1.848,10.735,2.437 C15.957,25.883,17.259,27.09,17.636,28.676z"/><path fill="#f7cc8f" d="M47.364,28.676L47,30.21c5.74-0.66,11.06-1.74,15.61-3.19c1.168-0.367,1.755-1.725,1.153-2.861 c-0.339-0.639-1.046-1.041-1.769-1.039c-0.208,0.001-0.406,0.031-0.604,0.09c-3.467,1.098-6.723,1.848-10.735,2.437 C49.043,25.883,47.741,27.09,47.364,28.676z"/><path fill="#000000" d="M63.86,24.15c-0.4-1.25-1.55-2.08-2.86-2.08c-0.31,0-0.62,0.04-0.92,0.14 C52.47,24.65,42.47,26,31.92,26c-10.47,0-20.42-1.33-28.01-3.74c-0.3-0.1-0.6-0.14-0.91-0.14c-1.31,0-2.46,0.84-2.86,2.09 c-0.5,1.58,0.38,3.26,1.95,3.77c0.64,0.2,1.3,0.4,1.98,0.59l2.42,16.34c0.64,4.28,3.38,7.85,7.08,9.71l-0.23,0.91 c-0.1,0.37-0.4,0.66-0.78,0.74l-2.95,0.59C8.68,57.04,8,57.87,8,58.82V60c0,1.1,0.9,2,2,2h3.19c2.08,0,4.04-0.92,5.38-2.52 l2.9-3.48h21.06l2.9,3.48c1.34,1.6,3.3,2.52,5.38,2.52H54c1.1,0,2-0.9,2-2v-1.18c0-0.95-0.68-1.78-1.61-1.96l-2.95-0.59 c-0.38-0.08-0.68-0.37-0.78-0.74l-0.23-0.91c3.7-1.86,6.44-5.43,7.08-9.71l2.43-16.39c0.67-0.19,1.33-0.39,1.98-0.6 C63.49,27.42,64.36,25.72,63.86,24.15z M17.03,58.2c-0.95,1.14-2.35,1.8-3.84,1.8H10v-1.18l2.96-0.59c1.13-0.23,2.04-1.1,2.32-2.22 l0.16-0.62c1.1,0.35,2.25,0.56,3.43,0.6L17.03,58.2z M51.04,58.23L54,58.82V60h-3.19c-1.49,0-2.89-0.66-3.84-1.8l-1.84-2.21 c1.18-0.04,2.33-0.25,3.43-0.6l0.16,0.62C49,57.13,49.91,58,51.04,58.23z M55.53,44.61c-0.307,2.092-1.219,3.977-2.53,5.505V49 c0-0.552-0.447-1-1-1s-1,0.448-1,1v2c0,0.28,0.116,0.531,0.301,0.713c-0.433,0.331-0.882,0.642-1.361,0.907 C48.36,53.5,46.55,54,44.65,54h-1.83H21.18h-1.83c-1.9,0-3.71-0.5-5.29-1.38c-0.479-0.265-0.928-0.576-1.361-0.907 C12.884,51.531,13,51.28,13,51v-2c0-0.552-0.447-1-1-1s-1,0.448-1,1v1.115c-1.311-1.528-2.223-3.413-2.53-5.505L6.18,29.13 C13.65,30.99,22.61,32,31.92,32c9.38,0,18.41-1.03,25.91-2.92L55.53,44.61z M61.31,26.02c-1.09,0.35-2.22,0.67-3.39,0.98 c-3.21,0.84-6.72,1.51-10.43,2c-4.91,0.66-10.17,1-15.57,1c-5.38,0-10.64-0.34-15.54-1c-3.72-0.49-7.24-1.16-10.46-2 c-1.11-0.29-2.19-0.6-3.22-0.93c-0.53-0.17-0.82-0.73-0.65-1.26c0.13-0.42,0.53-0.69,0.95-0.69c0.1,0,0.2,0.01,0.3,0.04 c3.88,1.23,8.34,2.19,13.16,2.84c4.87,0.66,10.1,1,15.46,1c5.38,0,10.62-0.34,15.49-1c4.87-0.66,9.38-1.64,13.28-2.89 c0.11-0.03,0.21-0.04,0.31-0.04c0.43,0,0.82,0.27,0.95,0.69C62.12,25.29,61.83,25.85,61.31,26.02z"/><path fill="#000000" d="M17 48c-.553 0-1 .448-1 1v2c0 .552.447 1 1 1s1-.448 1-1v-2C18 48.448 17.553 48 17 48zM22 48c-.553 0-1 .448-1 1v2c0 .552.447 1 1 1s1-.448 1-1v-2C23 48.448 22.553 48 22 48zM31 49v2c0 .552.447 1 1 1s1-.448 1-1v-2c0-.552-.447-1-1-1S31 48.448 31 49zM27 48c-.553 0-1 .448-1 1v2c0 .552.447 1 1 1s1-.448 1-1v-2C28 48.448 27.553 48 27 48zM37 52c.553 0 1-.448 1-1v-2c0-.552-.447-1-1-1s-1 .448-1 1v2C36 51.552 36.447 52 37 52zM42 52c.553 0 1-.448 1-1v-2c0-.552-.447-1-1-1s-1 .448-1 1v2C41 51.552 41.447 52 42 52zM47 52c.553 0 1-.448 1-1v-2c0-.552-.447-1-1-1s-1 .448-1 1v2C46 51.552 46.447 52 47 52zM25 5.335c.553 0 1-.448 1-1 0-1.044.219-1.864.709-2.658.289-.47.144-1.086-.326-1.376-.472-.292-1.087-.145-1.377.326C24.319 1.74 24 2.918 24 4.335 24 4.888 24.447 5.335 25 5.335zM25 24c.553 0 1-.448 1-1 0-1.962.815-2.913 1.759-4.014C28.81 17.762 30 16.373 30 13.671c0-2.704-1.19-4.093-2.24-5.318-.237-.276-.475-.552-.696-.846-.334-.441-.961-.528-1.401-.195-.44.333-.527.96-.194 1.401.247.327.51.634.773.941C27.185 10.755 28 11.707 28 13.671c0 1.962-.815 2.913-1.759 4.014C25.19 18.909 24 20.298 24 23 24 23.552 24.447 24 25 24zM34 23c0 .552.447 1 1 1s1-.448 1-1c0-1.962.815-2.913 1.759-4.014C38.81 17.762 40 16.373 40 13.671c0-2.704-1.19-4.093-2.24-5.318C36.815 7.251 36 6.3 36 4.335c0-.552-.447-1-1-1s-1 .448-1 1c0 2.704 1.19 4.093 2.241 5.319C37.185 10.756 38 11.707 38 13.671c0 1.962-.815 2.913-1.759 4.014C35.19 18.909 34 20.298 34 23zM47.635 11.676c.16.383.531.614.922.614.129 0 .261-.025.387-.078.51-.214.749-.8.535-1.309-.367-.876-.889-1.561-1.35-2.114-.354-.423-.982-.482-1.409-.128-.424.354-.481.984-.128 1.408C46.978 10.531 47.37 11.045 47.635 11.676zM45 24c.553 0 1-.448 1-1 0-1.962.815-2.913 1.759-4.014.815-.951 1.739-2.028 2.092-3.762.11-.541-.239-1.069-.78-1.179-.54-.108-1.069.239-1.179.781-.25 1.225-.899 1.982-1.65 2.859C45.19 18.91 44 20.298 44 23 44 23.552 44.447 24 45 24zM15 24c.553 0 1-.448 1-1 0-1.962.815-2.913 1.759-4.014C18.81 17.762 20 16.373 20 13.671c0-.552-.447-1-1-1s-1 .448-1 1c0 1.962-.815 2.913-1.759 4.014C15.19 18.909 14 20.298 14 23 14 23.552 14.447 24 15 24z"/></svg>