<svg xmlns="http://www.w3.org/2000/svg" viewBox="0 0 64 64"><path fill="#e3f2ff" d="M12,13v44c0,1.105,0.895,2,2,2h38c1.105,0,2-0.895,2-2V13c0-1.105-0.895-2-2-2H14C12.895,11,12,11.895,12,13z"/><path fill="#c2cde7" d="M33,13v44c0,1.105,0.448,2,1,2h19c0.552,0,1-0.895,1-2V13c0-1.105-0.448-2-1-2H34C33.448,11,33,11.895,33,13z"/><path fill="#ced9ed" d="M43,59V11H23v48C23,59,41.889,59,43,59"/><path fill="#e3f2ff" d="M29.5 15L30.74 17.26 33 18.5 30.74 19.74 29.5 22 28.26 19.74 26 18.5 28.26 17.26z"/><path fill="#ced9ed" d="M45.42 35L46.27 36.56 47.84 37.42 46.27 38.27 45.42 39.84 44.56 38.27 43 37.42 44.56 36.56z"/><g><path fill="#000000" d="M52,60H14c-1.654,0-3-1.346-3-3V13c0-1.654,1.346-3,3-3h38c1.654,0,3,1.346,3,3v44C55,58.654,53.654,60,52,60z M14,12c-0.552,0-1,0.448-1,1v44c0,0.552,0.448,1,1,1h38c0.552,0,1-0.448,1-1V13c0-0.552-0.448-1-1-1H14z"/><path fill="#000000" d="M42 12c-.553 0-1-.447-1-1v-1c0-1.654-1.346-3-3-3H28c-1.654 0-3 1.346-3 3v1c0 .553-.447 1-1 1s-1-.447-1-1v-1c0-2.757 2.243-5 5-5h10c2.757 0 5 2.243 5 5v1C43 11.553 42.553 12 42 12zM54 44H29c-.553 0-1-.447-1-1s.447-1 1-1h25c.553 0 1 .447 1 1S54.553 44 54 44zM37 28H12c-.553 0-1-.447-1-1s.447-1 1-1h25c.553 0 1 .447 1 1S37.553 28 37 28zM45 28h-4c-.553 0-1-.447-1-1s.447-1 1-1h4c.553 0 1 .447 1 1S45.553 28 45 28zM25 44h-4c-.553 0-1-.447-1-1s.447-1 1-1h4c.553 0 1 .447 1 1S25.553 44 25 44zM18 56c-.553 0-1-.447-1-1v-2c0-.553.447-1 1-1s1 .447 1 1v2C19 55.553 18.553 56 18 56zM23 56c-.553 0-1-.447-1-1v-2c0-.553.447-1 1-1s1 .447 1 1v2C24 55.553 23.553 56 23 56zM28 56c-.553 0-1-.447-1-1v-2c0-.553.447-1 1-1s1 .447 1 1v2C29 55.553 28.553 56 28 56zM33 56c-.553 0-1-.447-1-1v-2c0-.553.447-1 1-1s1 .447 1 1v2C34 55.553 33.553 56 33 56zM38 56c-.553 0-1-.447-1-1v-2c0-.553.447-1 1-1s1 .447 1 1v2C39 55.553 38.553 56 38 56zM43 56c-.553 0-1-.447-1-1v-2c0-.553.447-1 1-1s1 .447 1 1v2C44 55.553 43.553 56 43 56zM48 56c-.553 0-1-.447-1-1v-2c0-.553.447-1 1-1s1 .447 1 1v2C49 55.553 48.553 56 48 56z"/></g></svg>