<svg xmlns="http://www.w3.org/2000/svg" viewBox="0 0 64 64"><path fill="#72caaf" d="M63,11v22c-0.096,6.51-3.452,12.538-8.935,16.05c-3.912,2.6-8.511,3.975-13.208,3.95H1V31	c0.044-5.353,2.348-10.438,6.344-14c4.325-3.916,9.966-6.058,15.8-6H63z"/><path fill="#5dbc9d" d="M54.065,49.05c-3.912,2.6-8.511,3.975-13.208,3.95H1v-3c0.091-1.744,1.576-3.086,3.321-3h46.6	C52.301,46.935,53.568,47.761,54.065,49.05z"/><path fill="#97e0bb" d="M9.935,14.95c3.912-2.6,8.511-3.975,13.208-3.95H63v3c-0.091,1.744-1.576,3.086-3.321,3h-46.6	C11.699,17.065,10.432,16.239,9.935,14.95z"/><path fill="#000000" d="M43,54H1c-0.552,0-1-0.447-1-1V31c0-11.58,9.42-21,21-21h42c0.553,0,1,0.448,1,1v22	C64,44.579,54.579,54,43,54z M2,52h41c10.477,0,19-8.523,19-19V12H21C10.523,12,2,20.524,2,31V52z"/><path fill="#fff" d="M22,33c0.552,0,1-0.448,1-1s-0.448-1-1-1h-6v-6h6c0.552,0,1-0.448,1-1s-0.448-1-1-1h-6.636	c-0.065,0-0.121,0.025-0.182,0.037C15.121,23.025,15.065,23,15,23c-0.552,0-1,0.448-1,1v16c0,0.553,0.448,1,1,1	c0.065,0,0.121-0.025,0.182-0.037C15.243,40.975,15.299,41,15.364,41H22c0.552,0,1-0.447,1-1s-0.448-1-1-1h-6v-6H22z"/><path fill="#fff" d="M34,41h-3c-2.757,0-5-2.243-5-5v-8c0-2.757,2.243-5,5-5h3c0.553,0,1,0.448,1,1s-0.447,1-1,1h-3	c-1.654,0-3,1.346-3,3v8c0,1.654,1.346,3,3,3h3c0.553,0,1,0.447,1,1S34.553,41,34,41z"/><path fill="#fff" d="M45,41h-2c-2.757,0-5-2.243-5-5v-8c0-2.757,2.243-5,5-5h2c2.757,0,5,2.243,5,5v8	C50,38.757,47.757,41,45,41z M43,25c-1.654,0-3,1.346-3,3v8c0,1.654,1.346,3,3,3h2c1.654,0,3-1.346,3-3v-8c0-1.654-1.346-3-3-3H43z"/><path fill="#000000" d="M9.342,49c-0.552,0-1-0.447-1-1v-2c0-0.553,0.448-1,1-1s1,0.447,1,1v2 C10.342,48.553,9.894,49,9.342,49z"/><path fill="#000000" d="M14.234,49c-0.552,0-1-0.447-1-1v-2c0-0.553,0.448-1,1-1s1,0.447,1,1v2 C15.234,48.553,14.786,49,14.234,49z"/><path fill="#000000" d="M19.126,49c-0.552,0-1-0.447-1-1v-2c0-0.553,0.448-1,1-1s1,0.447,1,1v2 C20.126,48.553,19.678,49,19.126,49z"/><path fill="#000000" d="M24.018,49c-0.552,0-1-0.447-1-1v-2c0-0.553,0.448-1,1-1s1,0.447,1,1v2 C25.018,48.553,24.57,49,24.018,49z"/><path fill="#000000" d="M28.91,49c-0.552,0-1-0.447-1-1v-2c0-0.553,0.448-1,1-1s1,0.447,1,1v2 C29.91,48.553,29.462,49,28.91,49z"/><path fill="#000000" d="M33.802,49c-0.553,0-1-0.447-1-1v-2c0-0.553,0.447-1,1-1s1,0.447,1,1v2 C34.802,48.553,34.354,49,33.802,49z"/><path fill="#000000" d="M38.694,49c-0.553,0-1-0.447-1-1v-2c0-0.553,0.447-1,1-1s1,0.447,1,1v2 C39.694,48.553,39.247,49,38.694,49z"/><path fill="#000000" d="M43.586,49c-0.553,0-1-0.447-1-1v-2c0-0.553,0.447-1,1-1s1,0.447,1,1v2 C44.586,48.553,44.139,49,43.586,49z"/><g><path fill="#000000" d="M54.376,19c-0.553,0-1-0.448-1-1v-2c0-0.552,0.447-1,1-1s1,0.448,1,1v2 C55.376,18.552,54.929,19,54.376,19z"/><path fill="#000000" d="M49.132,19c-0.553,0-1-0.448-1-1v-2c0-0.552,0.447-1,1-1s1,0.448,1,1v2 C50.132,18.552,49.685,19,49.132,19z"/><path fill="#000000" d="M43.887,19c-0.553,0-1-0.448-1-1v-2c0-0.552,0.447-1,1-1s1,0.448,1,1v2 C44.887,18.552,44.439,19,43.887,19z"/><path fill="#000000" d="M38.643,19c-0.553,0-1-0.448-1-1v-2c0-0.552,0.447-1,1-1s1,0.448,1,1v2 C39.643,18.552,39.195,19,38.643,19z"/><path fill="#000000" d="M33.398,19c-0.552,0-1-0.448-1-1v-2c0-0.552,0.448-1,1-1c0.553,0,1,0.448,1,1v2 C34.398,18.552,33.951,19,33.398,19z"/><path fill="#000000" d="M28.154,19c-0.552,0-1-0.448-1-1v-2c0-0.552,0.448-1,1-1s1,0.448,1,1v2 C29.154,18.552,28.706,19,28.154,19z"/><path fill="#000000" d="M22.91,19c-0.552,0-1-0.448-1-1v-2c0-0.552,0.448-1,1-1s1,0.448,1,1v2 C23.91,18.552,23.462,19,22.91,19z"/></g></svg>