<svg xmlns="http://www.w3.org/2000/svg" viewBox="0 0 64 64"><path fill="#85cbf8" d="M16,30c0-1.5-2-5-2-5s-2,3.5-2,5c0,1.105,0.895,2,2,2S16,31.105,16,30z"/><path fill="#faefde" d="M49,58H15v-8c0-1.657,1.343-3,3-3h28c1.657,0,3,1.343,3,3V58z"/><path fill="#ced9ed" d="M46,47H28v-6c0-1.105,0.895-2,2-2h14c1.105,0,2,0.895,2,2V47z"/><path fill="#ced9ed" d="M22,47h-4v-4c0-0.552,0.448-1,1-1h2c0.552,0,1,0.448,1,1V47z"/><path fill="#85cbf8" d="M44,13v26H30V13c0-3.87,3.13-7,7-7c1.94,0,3.68,0.78,4.95,2.05C43.22,9.32,44,11.06,44,13z"/><path fill="#c2cde7" d="M46,47H28v0c0-2.209,1.791-4,4-4h10C44.209,43,46,44.791,46,47L46,47z"/><path fill="#efd8be" d="M49,58H15v-1c0-2.761,2.239-5,5-5h24c2.761,0,5,2.239,5,5V58z"/><path fill="#000000" d="M49,59H15c-0.553,0-1-0.447-1-1v-8c0-2.206,1.794-4,4-4h28c2.206,0,4,1.794,4,4v8	C50,58.553,49.553,59,49,59z M16,57h32v-7c0-1.103-0.897-2-2-2H18c-1.103,0-2,0.897-2,2V57z"/><path fill="#000000" d="M46,48H28c-0.553,0-1-0.447-1-1v-6c0-1.654,1.346-3,3-3h14c1.654,0,3,1.346,3,3v6	C47,47.553,46.553,48,46,48z M29,46h16v-5c0-0.552-0.448-1-1-1H30c-0.552,0-1,0.448-1,1V46z"/><path fill="#000000" d="M22,48h-4c-0.553,0-1-0.447-1-1v-4c0-1.103,0.897-2,2-2h2c1.103,0,2,0.897,2,2v4	C23,47.553,22.553,48,22,48z M19,46h2v-3h-2V46z"/><path fill="#ace3ff" d="M44,13v4c-2.21,0-4-1.79-4-4c0-1.65-1.35-3-3-3s-3,1.35-3,3c0,2.21-1.79,4-4,4v-4c0-3.87,3.13-7,7-7	c1.94,0,3.68,0.78,4.95,2.05C43.22,9.32,44,11.06,44,13z"/><path fill="#000000" d="M44,40H30c-0.553,0-1-0.447-1-1V13c0-4.411,3.589-8,8-8s8,3.589,8,8v26C45,39.553,44.553,40,44,40z M31,38h12V13c0-3.309-2.691-6-6-6s-6,2.691-6,6V38z"/><path fill="#000000" d="M20,43c-0.553,0-1-0.447-1-1V19c0-1.103-0.897-2-2-2s-2,0.897-2,2v2c0,0.553-0.447,1-1,1	s-1-0.447-1-1v-2c0-2.206,1.794-4,4-4s4,1.794,4,4v23C21,42.553,20.553,43,20,43z"/><path fill="#000000" d="M19.121,54c-0.553,0-1-0.447-1-1v-2c0-0.553,0.447-1,1-1s1,0.447,1,1v2 C20.121,53.553,19.674,54,19.121,54z"/><path fill="#000000" d="M24.272,54c-0.553,0-1-0.447-1-1v-2c0-0.553,0.447-1,1-1s1,0.447,1,1v2 C25.272,53.553,24.825,54,24.272,54z"/><path fill="#000000" d="M29.424,54c-0.553,0-1-0.447-1-1v-2c0-0.553,0.447-1,1-1s1,0.447,1,1v2 C30.424,53.553,29.977,54,29.424,54z"/><path fill="#000000" d="M34.576,54c-0.553,0-1-0.447-1-1v-2c0-0.553,0.447-1,1-1s1,0.447,1,1v2 C35.576,53.553,35.129,54,34.576,54z"/><path fill="#000000" d="M39.728,54c-0.553,0-1-0.447-1-1v-2c0-0.553,0.447-1,1-1s1,0.447,1,1v2 C40.728,53.553,40.28,54,39.728,54z"/><path fill="#000000" d="M44.879,54c-0.553,0-1-0.447-1-1v-2c0-0.553,0.447-1,1-1s1,0.447,1,1v2 C45.879,53.553,45.432,54,44.879,54z"/><path fill="#000000" d="M14,33c-1.654,0-3-1.346-3-3c0-1.681,1.775-4.873,2.132-5.496c0.355-0.623,1.381-0.623,1.736,0	C15.225,25.127,17,28.319,17,30C17,31.654,15.654,33,14,33z M14,27.16c-0.537,1.121-1,2.287-1,2.84c0,0.552,0.448,1,1,1s1-0.448,1-1	C15,29.447,14.537,28.281,14,27.16z"/></svg>